<svg width="376" height="133" viewBox="0 0 376 133" fill="none" xmlns="http://www.w3.org/2000/svg">
<line y1="71.5" x2="376" y2="71.5" stroke="#2A2C35" stroke-width="3"/>
<circle cx="50" cy="73" r="13.5" fill="#C3CCC0" stroke="#2A2C35"/>
<circle cx="102" cy="73" r="13.5" fill="#C3CCC0" stroke="#2A2C35"/>
<circle cx="186" cy="73" r="13.5" fill="#C3CCC0" stroke="#2A2C35"/>
<circle cx="254" cy="73" r="13.5" fill="#C3CCC0" stroke="#2A2C35"/>
<circle cx="314" cy="73" r="13.5" fill="#C3CCC0" stroke="#2A2C35"/>
<path d="M243.326 110.54V110.78C243.326 112.04 242.282 113 240.878 113H237.83V104.6H240.878C242.282 104.6 243.326 105.56 243.326 106.82V106.844C243.326 107.708 242.99 108.272 242.318 108.692C243.026 109.124 243.326 109.772 243.326 110.54ZM239.342 109.388V111.62H240.854C241.418 111.62 241.814 111.2 241.814 110.636V110.372C241.814 109.832 241.418 109.388 240.878 109.388H239.342ZM239.342 105.98V108.008H240.89C241.43 108.008 241.814 107.564 241.814 107.024V106.964C241.814 106.4 241.418 105.98 240.854 105.98H239.342ZM251.28 110.696V110.12L252.792 110.264V110.696C252.792 112.076 251.736 113.12 250.344 113.12H249.744C248.352 113.12 247.296 112.076 247.296 110.696V106.904C247.296 105.524 248.352 104.48 249.744 104.48H250.344C251.736 104.48 252.792 105.524 252.792 106.904V107.336L251.28 107.48V106.904C251.28 106.34 250.884 105.92 250.32 105.92H249.768C249.204 105.92 248.808 106.34 248.808 106.904V110.696C248.808 111.26 249.204 111.68 249.768 111.68H250.32C250.884 111.68 251.28 111.26 251.28 110.696ZM257.401 110.96V108.92C257.401 108.524 257.077 108.2 256.681 108.2H256.309C255.913 108.2 255.589 108.524 255.589 108.92V110.96C255.589 111.356 255.913 111.68 256.309 111.68H256.681C257.077 111.68 257.401 111.356 257.401 110.96ZM258.877 108.968V110.912C258.877 112.184 257.965 113.12 256.681 113.12H256.309C255.025 113.12 254.113 112.184 254.113 110.912V108.968C254.113 107.696 255.025 106.76 256.309 106.76H256.681C257.965 106.76 258.877 107.696 258.877 108.968ZM260.999 106.88L261.431 107.564C261.803 107.072 262.343 106.76 262.979 106.76H263.687V108.26H262.499C262.079 108.26 261.791 108.548 261.791 108.968V113H260.315V106.88H260.999ZM265.335 106.88L265.767 107.564C266.139 107.072 266.679 106.76 267.315 106.76H267.339C268.671 106.76 269.415 107.552 269.415 108.956V110.924C269.415 112.328 268.671 113.12 267.339 113.12H267.315C266.847 113.12 266.451 112.976 266.127 112.7V115.4H264.651V106.88H265.335ZM266.127 108.908V110.972C266.127 111.392 266.415 111.68 266.835 111.68H267.231C267.651 111.68 267.939 111.392 267.939 110.972V108.908C267.939 108.488 267.651 108.2 267.231 108.2H266.835C266.415 108.2 266.127 108.488 266.127 108.908ZM226.102 122.696V122.12L227.614 122.264V122.696C227.614 124.076 226.558 125.12 225.166 125.12H224.566C223.174 125.12 222.118 124.076 222.118 122.696V118.904C222.118 117.524 223.174 116.48 224.566 116.48H225.166C226.558 116.48 227.614 117.524 227.614 118.904V119.336L226.102 119.48V118.904C226.102 118.34 225.706 117.92 225.142 117.92H224.59C224.026 117.92 223.63 118.34 223.63 118.904V122.696C223.63 123.26 224.026 123.68 224.59 123.68H225.142C225.706 123.68 226.102 123.26 226.102 122.696ZM232.223 122.96V122.756L233.699 122.9V122.912C233.699 124.184 232.787 125.12 231.503 125.12H231.131C229.847 125.12 228.935 124.184 228.935 122.912V120.968C228.935 119.696 229.847 118.76 231.131 118.76H231.503C232.787 118.76 233.699 119.696 233.699 120.968V122.216H230.411V122.96C230.411 123.356 230.735 123.68 231.131 123.68H231.503C231.899 123.68 232.223 123.356 232.223 122.96ZM230.411 120.92V121.292H232.223V120.92C232.223 120.524 231.899 120.2 231.503 120.2H231.131C230.735 120.2 230.411 120.524 230.411 120.92ZM235.821 118.88L236.253 119.564C236.625 119.072 237.165 118.76 237.801 118.76H238.509V120.26H237.321C236.901 120.26 236.613 120.548 236.613 120.968V125H235.137V118.88H235.821ZM242.833 125H241.909C240.625 125 239.953 124.316 239.953 123.032V120.284H238.873V118.88H239.953V117.44L241.429 117.2V118.88H242.833V120.284H241.429V122.96C241.429 123.356 241.633 123.56 242.029 123.56H242.833V125ZM245.625 125H244.149V118.88H245.625V125ZM244.149 117.836V116.6H245.625V117.836H244.149ZM249.5 116.6H250.424V118.004H249.62C249.224 118.004 249.02 118.208 249.02 118.604V118.88H250.304V120.284H249.02V125H247.544V120.284H246.464V118.88H247.544V118.568C247.544 117.284 248.216 116.6 249.5 116.6ZM252.621 125H251.145V118.88H252.621V125ZM251.145 117.836V116.6H252.621V117.836H251.145ZM257.348 122.96V122.672L258.824 122.816V122.912C258.824 124.184 257.912 125.12 256.628 125.12H256.256C254.972 125.12 254.06 124.184 254.06 122.912V120.968C254.06 119.696 254.972 118.76 256.256 118.76H256.628C257.912 118.76 258.824 119.696 258.824 120.968V121.064L257.348 121.208V120.92C257.348 120.524 257.024 120.2 256.628 120.2H256.256C255.86 120.2 255.536 120.524 255.536 120.92V122.96C255.536 123.356 255.86 123.68 256.256 123.68H256.628C257.024 123.68 257.348 123.356 257.348 122.96ZM264.198 125L263.778 124.34C263.454 124.82 262.866 125.12 262.146 125.12H262.122C260.886 125.12 260.142 124.412 260.142 123.404V123.164C260.142 122.156 260.886 121.472 262.122 121.472H263.406V120.836C263.406 120.488 263.082 120.2 262.686 120.2H262.398C262.002 120.2 261.678 120.488 261.678 120.836V121.064L260.202 120.92V120.884C260.202 119.684 261.114 118.76 262.398 118.76H262.686C263.97 118.76 264.882 119.684 264.882 120.884V125H264.198ZM261.618 123.14V123.176C261.618 123.5 261.87 123.752 262.242 123.752H262.794C263.118 123.752 263.406 123.512 263.406 123.188V122.564H262.242C261.87 122.564 261.618 122.816 261.618 123.14ZM269.74 125H268.816C267.532 125 266.86 124.316 266.86 123.032V120.284H265.78V118.88H266.86V117.44L268.336 117.2V118.88H269.74V120.284H268.336V122.96C268.336 123.356 268.54 123.56 268.936 123.56H269.74V125ZM272.531 125H271.055V118.88H272.531V125ZM271.055 117.836V116.6H272.531V117.836H271.055ZM277.259 122.96V120.92C277.259 120.524 276.935 120.2 276.539 120.2H276.167C275.771 120.2 275.447 120.524 275.447 120.92V122.96C275.447 123.356 275.771 123.68 276.167 123.68H276.539C276.935 123.68 277.259 123.356 277.259 122.96ZM278.735 120.968V122.912C278.735 124.184 277.823 125.12 276.539 125.12H276.167C274.883 125.12 273.971 124.184 273.971 122.912V120.968C273.971 119.696 274.883 118.76 276.167 118.76H276.539C277.823 118.76 278.735 119.696 278.735 120.968ZM280.857 118.88L281.289 119.564C281.661 119.072 282.201 118.76 282.837 118.76H282.861C284.193 118.76 284.937 119.552 284.937 120.956V125H283.461V120.908C283.461 120.488 283.173 120.2 282.753 120.2H282.357C281.937 120.2 281.649 120.488 281.649 120.908V125H280.173V118.88H280.857Z" fill="#2A2C35"/>
<path d="M145.78 26.784V25.344H148.528V30H147.94L147.508 29.34C147.112 29.832 146.548 30.12 145.84 30.12H145.48C144.088 30.12 143.032 29.076 143.032 27.696V23.904C143.032 22.524 144.088 21.48 145.48 21.48H146.08C147.472 21.48 148.528 22.524 148.528 23.904V24.336L147.016 24.48V23.904C147.016 23.34 146.62 22.92 146.056 22.92H145.504C144.94 22.92 144.544 23.34 144.544 23.904V27.696C144.544 28.26 144.94 28.68 145.504 28.68H146.056C146.62 28.68 147.016 28.26 147.016 27.696V26.784H145.78ZM151.563 30H150.087V21.6H151.563V30ZM156.173 27.96V25.92C156.173 25.524 155.849 25.2 155.453 25.2H155.081C154.685 25.2 154.361 25.524 154.361 25.92V27.96C154.361 28.356 154.685 28.68 155.081 28.68H155.453C155.849 28.68 156.173 28.356 156.173 27.96ZM157.649 25.968V27.912C157.649 29.184 156.737 30.12 155.453 30.12H155.081C153.797 30.12 152.885 29.184 152.885 27.912V25.968C152.885 24.696 153.797 23.76 155.081 23.76H155.453C156.737 23.76 157.649 24.696 157.649 25.968ZM159.027 27.912V21.6H160.503V24.192C160.839 23.904 161.235 23.76 161.691 23.76H161.715C163.047 23.76 163.791 24.552 163.791 25.956V27.912C163.791 29.184 162.879 30.12 161.595 30.12H161.223C159.939 30.12 159.027 29.184 159.027 27.912ZM160.503 25.908V27.972C160.503 28.392 160.791 28.68 161.211 28.68H161.607C162.027 28.68 162.315 28.392 162.315 27.972V25.908C162.315 25.488 162.027 25.2 161.607 25.2H161.211C160.791 25.2 160.503 25.488 160.503 25.908ZM169.163 30L168.743 29.34C168.419 29.82 167.831 30.12 167.111 30.12H167.087C165.851 30.12 165.107 29.412 165.107 28.404V28.164C165.107 27.156 165.851 26.472 167.087 26.472H168.371V25.836C168.371 25.488 168.047 25.2 167.651 25.2H167.363C166.967 25.2 166.643 25.488 166.643 25.836V26.064L165.167 25.92V25.884C165.167 24.684 166.079 23.76 167.363 23.76H167.651C168.935 23.76 169.847 24.684 169.847 25.884V30H169.163ZM166.583 28.14V28.176C166.583 28.5 166.835 28.752 167.207 28.752H167.759C168.083 28.752 168.371 28.512 168.371 28.188V27.564H167.207C166.835 27.564 166.583 27.816 166.583 28.14ZM172.82 30H171.344V21.6H172.82V30ZM182.629 30H177.265V21.6H182.629V23.04H178.777V25.08H181.873V26.52H178.777V28.56H182.629V30ZM186.969 30L185.913 28.188L184.857 30H183.225L185.097 26.892L183.285 23.88H184.917L185.913 25.596L186.909 23.88H188.541L186.729 26.892L188.601 30H186.969ZM190.239 23.88L190.671 24.564C191.043 24.072 191.583 23.76 192.219 23.76H192.243C193.575 23.76 194.319 24.552 194.319 25.956V27.924C194.319 29.328 193.575 30.12 192.243 30.12H192.219C191.751 30.12 191.355 29.976 191.031 29.7V32.4H189.555V23.88H190.239ZM191.031 25.908V27.972C191.031 28.392 191.319 28.68 191.739 28.68H192.135C192.555 28.68 192.843 28.392 192.843 27.972V25.908C192.843 25.488 192.555 25.2 192.135 25.2H191.739C191.319 25.2 191.031 25.488 191.031 25.908ZM199.691 30L199.271 29.34C198.947 29.82 198.359 30.12 197.639 30.12H197.615C196.379 30.12 195.635 29.412 195.635 28.404V28.164C195.635 27.156 196.379 26.472 197.615 26.472H198.899V25.836C198.899 25.488 198.575 25.2 198.179 25.2H197.891C197.495 25.2 197.171 25.488 197.171 25.836V26.064L195.695 25.92V25.884C195.695 24.684 196.607 23.76 197.891 23.76H198.179C199.463 23.76 200.375 24.684 200.375 25.884V30H199.691ZM197.111 28.14V28.176C197.111 28.5 197.363 28.752 197.735 28.752H198.287C198.611 28.752 198.899 28.512 198.899 28.188V27.564H197.735C197.363 27.564 197.111 27.816 197.111 28.14ZM202.556 23.88L202.988 24.564C203.36 24.072 203.9 23.76 204.536 23.76H204.56C205.892 23.76 206.636 24.552 206.636 25.956V30H205.16V25.908C205.16 25.488 204.872 25.2 204.452 25.2H204.056C203.636 25.2 203.348 25.488 203.348 25.908V30H201.872V23.88H202.556ZM209.557 25.644C209.557 26.7 212.761 25.788 212.761 28.284C212.761 29.34 211.861 30.12 210.589 30.12H210.229C208.945 30.12 208.009 29.232 208.009 28.032V27.996L209.485 27.876V28.104C209.485 28.476 209.749 28.74 210.145 28.74H210.697C211.033 28.74 211.273 28.536 211.273 28.26C211.273 27.156 208.081 28.104 208.081 25.596C208.081 24.54 208.981 23.76 210.253 23.76H210.469C211.741 23.76 212.689 24.624 212.689 25.824V25.86L211.213 26.004V25.776C211.213 25.404 210.937 25.14 210.553 25.14H210.157C209.809 25.14 209.557 25.356 209.557 25.644ZM215.617 30H214.141V23.88H215.617V30ZM214.141 22.836V21.6H215.617V22.836H214.141ZM220.344 27.96V25.92C220.344 25.524 220.02 25.2 219.624 25.2H219.252C218.856 25.2 218.532 25.524 218.532 25.92V27.96C218.532 28.356 218.856 28.68 219.252 28.68H219.624C220.02 28.68 220.344 28.356 220.344 27.96ZM221.82 25.968V27.912C221.82 29.184 220.908 30.12 219.624 30.12H219.252C217.968 30.12 217.056 29.184 217.056 27.912V25.968C217.056 24.696 217.968 23.76 219.252 23.76H219.624C220.908 23.76 221.82 24.696 221.82 25.968ZM223.943 23.88L224.375 24.564C224.747 24.072 225.287 23.76 225.923 23.76H225.947C227.279 23.76 228.023 24.552 228.023 25.956V30H226.547V25.908C226.547 25.488 226.259 25.2 225.839 25.2H225.443C225.023 25.2 224.735 25.488 224.735 25.908V30H223.259V23.88H223.943ZM147.074 37.5586V36.5977H147.912V37.5586H147.074ZM147.133 45V39H147.854V45H147.133ZM152.828 45V40.6055C152.828 40.4609 152.801 40.3262 152.746 40.2012C152.691 40.0723 152.617 39.9609 152.523 39.8672C152.43 39.7734 152.318 39.6992 152.189 39.6445C152.064 39.5898 151.93 39.5625 151.785 39.5625H151.305C151.16 39.5625 151.023 39.5898 150.895 39.6445C150.77 39.6992 150.66 39.7734 150.566 39.8672C150.473 39.9609 150.398 40.0723 150.344 40.2012C150.289 40.3262 150.262 40.4609 150.262 40.6055V45H149.541V39H149.781L150.174 39.6094C150.338 39.3867 150.543 39.2109 150.789 39.082C151.039 38.9492 151.311 38.8828 151.604 38.8828H151.785C152.027 38.8828 152.256 38.9297 152.471 39.0234C152.686 39.1133 152.873 39.2383 153.033 39.3984C153.193 39.5586 153.318 39.7461 153.408 39.9609C153.502 40.1758 153.549 40.4043 153.549 40.6465V45H152.828ZM157.176 45C156.957 45 156.75 44.959 156.555 44.877C156.363 44.7949 156.195 44.6816 156.051 44.5371C155.91 44.3926 155.797 44.2246 155.711 44.0332C155.629 43.8418 155.588 43.6367 155.588 43.418V39.6855H154.51V39H155.588V37.5586L156.309 37.4414V39H157.832V39.6855H156.309V43.4531C156.309 43.5742 156.33 43.6875 156.373 43.793C156.42 43.8945 156.482 43.9844 156.561 44.0625C156.639 44.1406 156.73 44.2031 156.836 44.25C156.941 44.293 157.055 44.3145 157.176 44.3145H157.832V45H157.176ZM163.17 43.3535C163.17 43.5957 163.123 43.8242 163.029 44.0391C162.939 44.2539 162.814 44.4414 162.654 44.6016C162.494 44.7617 162.307 44.8887 162.092 44.9824C161.877 45.0723 161.648 45.1172 161.406 45.1172H160.926C160.684 45.1172 160.455 45.0723 160.24 44.9824C160.025 44.8887 159.838 44.7617 159.678 44.6016C159.518 44.4414 159.391 44.2539 159.297 44.0391C159.207 43.8242 159.162 43.5957 159.162 43.3535V40.6465C159.162 40.4043 159.207 40.1758 159.297 39.9609C159.391 39.7461 159.518 39.5586 159.678 39.3984C159.838 39.2383 160.025 39.1133 160.24 39.0234C160.455 38.9297 160.684 38.8828 160.926 38.8828H161.406C161.648 38.8828 161.877 38.9297 162.092 39.0234C162.307 39.1133 162.494 39.2383 162.654 39.3984C162.814 39.5586 162.939 39.7461 163.029 39.9609C163.123 40.1758 163.17 40.4043 163.17 40.6465V43.3535ZM162.449 40.6055C162.449 40.4609 162.422 40.3262 162.367 40.2012C162.312 40.0723 162.238 39.9609 162.145 39.8672C162.051 39.7734 161.939 39.6992 161.811 39.6445C161.686 39.5898 161.551 39.5625 161.406 39.5625H160.926C160.781 39.5625 160.645 39.5898 160.516 39.6445C160.391 39.6992 160.281 39.7734 160.188 39.8672C160.094 39.9609 160.02 40.0723 159.965 40.2012C159.91 40.3262 159.883 40.4609 159.883 40.6055V43.3945C159.883 43.5391 159.91 43.6758 159.965 43.8047C160.02 43.9297 160.094 44.0391 160.188 44.1328C160.281 44.2266 160.391 44.3008 160.516 44.3555C160.645 44.4102 160.781 44.4375 160.926 44.4375H161.406C161.551 44.4375 161.686 44.4102 161.811 44.3555C161.939 44.3008 162.051 44.2266 162.145 44.1328C162.238 44.0391 162.312 43.9297 162.367 43.8047C162.422 43.6758 162.449 43.5391 162.449 43.3945V40.6055ZM167.617 45V44.2793H169.621V37.3184L167.617 38.1621V37.4414L169.621 36.5977H170.377V44.2793H172.381V45H167.617ZM178.193 43.0547C178.193 43.3398 178.139 43.6074 178.029 43.8574C177.924 44.1074 177.777 44.3262 177.59 44.5137C177.402 44.7012 177.184 44.8496 176.934 44.959C176.684 45.0645 176.416 45.1172 176.131 45.1172H175.773C175.488 45.1172 175.219 45.0645 174.965 44.959C174.715 44.8496 174.496 44.7012 174.309 44.5137C174.121 44.3262 173.973 44.1074 173.863 43.8574C173.758 43.6074 173.705 43.3398 173.705 43.0547V38.543C173.705 38.2578 173.758 37.9902 173.863 37.7402C173.973 37.4902 174.121 37.2715 174.309 37.084C174.496 36.8965 174.715 36.75 174.965 36.6445C175.219 36.5352 175.488 36.4805 175.773 36.4805H176.131C176.416 36.4805 176.684 36.5352 176.934 36.6445C177.184 36.75 177.402 36.8965 177.59 37.084C177.777 37.2715 177.924 37.4902 178.029 37.7402C178.139 37.9902 178.193 38.2578 178.193 38.543V43.0547ZM177.438 38.543C177.438 38.3555 177.402 38.1816 177.332 38.0215C177.262 37.8574 177.166 37.7148 177.045 37.5938C176.924 37.4727 176.781 37.377 176.617 37.3066C176.457 37.2363 176.283 37.2012 176.096 37.2012H175.809C175.621 37.2012 175.445 37.2363 175.281 37.3066C175.121 37.377 174.979 37.4727 174.854 37.5938C174.732 37.7148 174.637 37.8574 174.566 38.0215C174.496 38.1816 174.461 38.3555 174.461 38.543V43.0547C174.461 43.2422 174.496 43.418 174.566 43.582C174.637 43.7422 174.732 43.8848 174.854 44.0098C174.979 44.1309 175.121 44.2266 175.281 44.2969C175.445 44.3672 175.621 44.4023 175.809 44.4023H176.096C176.283 44.4023 176.457 44.3672 176.617 44.2969C176.781 44.2266 176.924 44.1309 177.045 44.0098C177.166 43.8848 177.262 43.7422 177.332 43.582C177.402 43.418 177.438 43.2422 177.438 43.0547V38.543ZM186.537 43.3535C186.537 43.5957 186.49 43.8242 186.396 44.0391C186.307 44.2539 186.182 44.4414 186.021 44.6016C185.861 44.7617 185.674 44.8887 185.459 44.9824C185.244 45.0723 185.016 45.1172 184.773 45.1172H184.293C184.051 45.1172 183.822 45.0723 183.607 44.9824C183.393 44.8887 183.205 44.7617 183.045 44.6016C182.885 44.4414 182.758 44.2539 182.664 44.0391C182.574 43.8242 182.529 43.5957 182.529 43.3535V40.6465C182.529 40.4043 182.574 40.1758 182.664 39.9609C182.758 39.7461 182.885 39.5586 183.045 39.3984C183.205 39.2383 183.393 39.1133 183.607 39.0234C183.822 38.9297 184.051 38.8828 184.293 38.8828H184.773C185.016 38.8828 185.244 38.9297 185.459 39.0234C185.674 39.1133 185.861 39.2383 186.021 39.3984C186.182 39.5586 186.307 39.7461 186.396 39.9609C186.49 40.1758 186.537 40.4043 186.537 40.6465V40.8867L185.816 41.0039V40.6055C185.816 40.4609 185.789 40.3262 185.734 40.2012C185.68 40.0723 185.605 39.9609 185.512 39.8672C185.418 39.7734 185.307 39.6992 185.178 39.6445C185.053 39.5898 184.918 39.5625 184.773 39.5625H184.293C184.148 39.5625 184.012 39.5898 183.883 39.6445C183.758 39.6992 183.648 39.7734 183.555 39.8672C183.461 39.9609 183.387 40.0723 183.332 40.2012C183.277 40.3262 183.25 40.4609 183.25 40.6055V43.3945C183.25 43.5391 183.277 43.6758 183.332 43.8047C183.387 43.9297 183.461 44.0391 183.555 44.1328C183.648 44.2266 183.758 44.3008 183.883 44.3555C184.012 44.4102 184.148 44.4375 184.293 44.4375H184.773C184.918 44.4375 185.053 44.4102 185.178 44.3555C185.307 44.3008 185.418 44.2266 185.512 44.1328C185.605 44.0391 185.68 43.9297 185.734 43.8047C185.789 43.6758 185.816 43.5391 185.816 43.3945V42.9961L186.537 43.1133V43.3535ZM191.986 43.3535C191.986 43.5957 191.939 43.8242 191.846 44.0391C191.756 44.2539 191.631 44.4414 191.471 44.6016C191.311 44.7617 191.123 44.8887 190.908 44.9824C190.693 45.0723 190.465 45.1172 190.223 45.1172H189.742C189.5 45.1172 189.271 45.0723 189.057 44.9824C188.842 44.8887 188.654 44.7617 188.494 44.6016C188.334 44.4414 188.207 44.2539 188.113 44.0391C188.023 43.8242 187.979 43.5957 187.979 43.3535V40.6465C187.979 40.4043 188.023 40.1758 188.113 39.9609C188.207 39.7461 188.334 39.5586 188.494 39.3984C188.654 39.2383 188.842 39.1133 189.057 39.0234C189.271 38.9297 189.5 38.8828 189.742 38.8828H190.223C190.465 38.8828 190.693 38.9297 190.908 39.0234C191.123 39.1133 191.311 39.2383 191.471 39.3984C191.631 39.5586 191.756 39.7461 191.846 39.9609C191.939 40.1758 191.986 40.4043 191.986 40.6465V43.3535ZM191.266 40.6055C191.266 40.4609 191.238 40.3262 191.184 40.2012C191.129 40.0723 191.055 39.9609 190.961 39.8672C190.867 39.7734 190.756 39.6992 190.627 39.6445C190.502 39.5898 190.367 39.5625 190.223 39.5625H189.742C189.598 39.5625 189.461 39.5898 189.332 39.6445C189.207 39.6992 189.098 39.7734 189.004 39.8672C188.91 39.9609 188.836 40.0723 188.781 40.2012C188.727 40.3262 188.699 40.4609 188.699 40.6055V43.3945C188.699 43.5391 188.727 43.6758 188.781 43.8047C188.836 43.9297 188.91 44.0391 189.004 44.1328C189.098 44.2266 189.207 44.3008 189.332 44.3555C189.461 44.4102 189.598 44.4375 189.742 44.4375H190.223C190.367 44.4375 190.502 44.4102 190.627 44.3555C190.756 44.3008 190.867 44.2266 190.961 44.1328C191.055 44.0391 191.129 43.9297 191.184 43.8047C191.238 43.6758 191.266 43.5391 191.266 43.3945V40.6055ZM197.195 45L196.797 44.3906C196.633 44.6133 196.428 44.791 196.182 44.9238C195.936 45.0527 195.666 45.1172 195.373 45.1172H195.191C194.949 45.1172 194.721 45.0723 194.506 44.9824C194.291 44.8887 194.104 44.7617 193.943 44.6016C193.783 44.4414 193.656 44.2539 193.562 44.0391C193.473 43.8242 193.428 43.5957 193.428 43.3535V39H194.148V43.3945C194.148 43.5391 194.176 43.6758 194.23 43.8047C194.285 43.9297 194.359 44.0391 194.453 44.1328C194.547 44.2266 194.656 44.3008 194.781 44.3555C194.91 44.4102 195.047 44.4375 195.191 44.4375H195.672C195.816 44.4375 195.951 44.4102 196.076 44.3555C196.205 44.3008 196.316 44.2266 196.41 44.1328C196.504 44.0391 196.578 43.9297 196.633 43.8047C196.688 43.6758 196.715 43.5391 196.715 43.3945V39H197.436V45H197.195ZM202.164 45V40.6055C202.164 40.4609 202.137 40.3262 202.082 40.2012C202.027 40.0723 201.953 39.9609 201.859 39.8672C201.766 39.7734 201.654 39.6992 201.525 39.6445C201.4 39.5898 201.266 39.5625 201.121 39.5625H200.641C200.496 39.5625 200.359 39.5898 200.23 39.6445C200.105 39.6992 199.996 39.7734 199.902 39.8672C199.809 39.9609 199.734 40.0723 199.68 40.2012C199.625 40.3262 199.598 40.4609 199.598 40.6055V45H198.877V39H199.117L199.51 39.6094C199.674 39.3867 199.879 39.2109 200.125 39.082C200.375 38.9492 200.646 38.8828 200.939 38.8828H201.121C201.363 38.8828 201.592 38.9297 201.807 39.0234C202.021 39.1133 202.209 39.2383 202.369 39.3984C202.529 39.5586 202.654 39.7461 202.744 39.9609C202.838 40.1758 202.885 40.4043 202.885 40.6465V45H202.164ZM206.512 45C206.293 45 206.086 44.959 205.891 44.877C205.699 44.7949 205.531 44.6816 205.387 44.5371C205.246 44.3926 205.133 44.2246 205.047 44.0332C204.965 43.8418 204.924 43.6367 204.924 43.418V39.6855H203.846V39H204.924V37.5586L205.645 37.4414V39H207.168V39.6855H205.645V43.4531C205.645 43.5742 205.666 43.6875 205.709 43.793C205.756 43.8945 205.818 43.9844 205.896 44.0625C205.975 44.1406 206.066 44.2031 206.172 44.25C206.277 44.293 206.391 44.3145 206.512 44.3145H207.168V45H206.512ZM210.262 39.6855C210.117 39.6855 209.98 39.7129 209.852 39.7676C209.727 39.8223 209.617 39.8965 209.523 39.9902C209.43 40.084 209.355 40.1953 209.301 40.3242C209.246 40.4492 209.219 40.584 209.219 40.7285V45H208.498V39H208.738L209.131 39.6094C209.295 39.3867 209.5 39.2109 209.746 39.082C209.996 38.9492 210.268 38.8828 210.561 38.8828H210.982V39.6855H210.262ZM212.125 37.5586V36.5977H212.963V37.5586H212.125ZM212.184 45V39H212.904V45H212.184ZM218.6 43.3535C218.6 43.5957 218.553 43.8242 218.459 44.0391C218.369 44.2539 218.244 44.4414 218.084 44.6016C217.924 44.7617 217.736 44.8887 217.521 44.9824C217.307 45.0723 217.078 45.1172 216.836 45.1172H216.355C216.113 45.1172 215.885 45.0723 215.67 44.9824C215.455 44.8887 215.268 44.7617 215.107 44.6016C214.947 44.4414 214.82 44.2539 214.727 44.0391C214.637 43.8242 214.592 43.5957 214.592 43.3535V40.6465C214.592 40.4043 214.637 40.1758 214.727 39.9609C214.82 39.7461 214.947 39.5586 215.107 39.3984C215.268 39.2383 215.455 39.1133 215.67 39.0234C215.885 38.9297 216.113 38.8828 216.355 38.8828H216.836C217.078 38.8828 217.307 38.9297 217.521 39.0234C217.736 39.1133 217.924 39.2383 218.084 39.3984C218.244 39.5586 218.369 39.7461 218.459 39.9609C218.553 40.1758 218.6 40.4043 218.6 40.6465V42.0586H215.312V43.3945C215.312 43.5391 215.34 43.6758 215.395 43.8047C215.449 43.9297 215.523 44.0391 215.617 44.1328C215.711 44.2266 215.82 44.3008 215.945 44.3555C216.074 44.4102 216.211 44.4375 216.355 44.4375H216.836C216.98 44.4375 217.115 44.4102 217.24 44.3555C217.369 44.3008 217.48 44.2266 217.574 44.1328C217.668 44.0391 217.742 43.9297 217.797 43.8047C217.852 43.6758 217.879 43.5391 217.879 43.3945V42.9961L218.6 43.1133V43.3535ZM217.879 40.6055C217.879 40.4609 217.852 40.3262 217.797 40.2012C217.742 40.0723 217.668 39.9609 217.574 39.8672C217.48 39.7734 217.369 39.6992 217.24 39.6445C217.115 39.5898 216.98 39.5625 216.836 39.5625H216.355C216.211 39.5625 216.074 39.5898 215.945 39.6445C215.82 39.6992 215.711 39.7734 215.617 39.8672C215.523 39.9609 215.449 40.0723 215.395 40.2012C215.34 40.3262 215.312 40.4609 215.312 40.6055V41.4961H217.879V40.6055ZM224.166 43.4766C224.166 43.7188 224.117 43.9414 224.02 44.1445C223.922 44.3438 223.789 44.5156 223.621 44.6602C223.453 44.8047 223.258 44.918 223.035 45C222.816 45.0781 222.586 45.1172 222.344 45.1172H221.863C221.621 45.1172 221.389 45.0723 221.166 44.9824C220.947 44.8887 220.754 44.7617 220.586 44.6016C220.422 44.4414 220.289 44.2539 220.188 44.0391C220.09 43.8242 220.041 43.5957 220.041 43.3535V43.1133L220.762 42.9961V43.3945C220.762 43.5391 220.791 43.6758 220.85 43.8047C220.912 43.9297 220.994 44.0391 221.096 44.1328C221.197 44.2266 221.314 44.3008 221.447 44.3555C221.58 44.4102 221.719 44.4375 221.863 44.4375H222.344C222.488 44.4375 222.627 44.416 222.76 44.373C222.893 44.3301 223.01 44.2695 223.111 44.1914C223.217 44.1094 223.299 44.0117 223.357 43.8984C223.42 43.7852 223.451 43.6562 223.451 43.5117C223.451 43.2969 223.404 43.1211 223.311 42.9844C223.217 42.8477 223.092 42.7344 222.936 42.6445C222.783 42.5508 222.607 42.4746 222.408 42.416C222.213 42.3535 222.012 42.293 221.805 42.2344C221.598 42.1719 221.395 42.1016 221.195 42.0234C221 41.9453 220.824 41.8438 220.668 41.7188C220.516 41.5898 220.393 41.4297 220.299 41.2383C220.205 41.0469 220.158 40.8086 220.158 40.5234C220.158 40.2812 220.205 40.0605 220.299 39.8613C220.393 39.6582 220.52 39.4844 220.68 39.3398C220.84 39.1953 221.025 39.084 221.236 39.0059C221.451 38.9238 221.68 38.8828 221.922 38.8828H222.344C222.586 38.8828 222.814 38.9297 223.029 39.0234C223.244 39.1133 223.432 39.2383 223.592 39.3984C223.752 39.5586 223.877 39.7461 223.967 39.9609C224.061 40.1758 224.107 40.4043 224.107 40.6465V40.6699L223.387 40.7871V40.6055C223.387 40.4609 223.359 40.3262 223.305 40.2012C223.25 40.0723 223.176 39.9609 223.082 39.8672C222.988 39.7734 222.877 39.6992 222.748 39.6445C222.623 39.5898 222.488 39.5625 222.344 39.5625H221.922C221.777 39.5625 221.641 39.584 221.512 39.627C221.387 39.6699 221.277 39.7324 221.184 39.8145C221.09 39.8926 221.016 39.9883 220.961 40.1016C220.906 40.2148 220.879 40.3438 220.879 40.4883C220.879 40.6953 220.926 40.8652 221.02 40.998C221.113 41.127 221.236 41.2363 221.389 41.3262C221.545 41.416 221.721 41.4922 221.916 41.5547C222.115 41.6133 222.316 41.6758 222.52 41.7422C222.727 41.8047 222.928 41.877 223.123 41.959C223.322 42.041 223.498 42.1465 223.65 42.2754C223.807 42.4043 223.932 42.5664 224.025 42.7617C224.119 42.9531 224.166 43.1914 224.166 43.4766Z" fill="#2A2C35"/>
<path d="M68.0305 104.024V104.828C68.0305 106.208 66.9745 107.252 65.5825 107.252H63.9745V110H62.4625V101.6H65.5825C66.9745 101.6 68.0305 102.644 68.0305 104.024ZM66.5185 104.828V104.024C66.5185 103.46 66.1225 103.04 65.5585 103.04H63.9745V105.812H65.5585C66.1225 105.812 66.5185 105.392 66.5185 104.828ZM69.9171 103.88L70.3491 104.564C70.7211 104.072 71.2611 103.76 71.8971 103.76H72.6051V105.26H71.4171C70.9971 105.26 70.7091 105.548 70.7091 105.968V110H69.2331V103.88H69.9171ZM76.7371 107.96V105.92C76.7371 105.524 76.4131 105.2 76.0171 105.2H75.6451C75.2491 105.2 74.9251 105.524 74.9251 105.92V107.96C74.9251 108.356 75.2491 108.68 75.6451 108.68H76.0171C76.4131 108.68 76.7371 108.356 76.7371 107.96ZM78.2131 105.968V107.912C78.2131 109.184 77.3011 110.12 76.0171 110.12H75.6451C74.3611 110.12 73.4491 109.184 73.4491 107.912V105.968C73.4491 104.696 74.3611 103.76 75.6451 103.76H76.0171C77.3011 103.76 78.2131 104.696 78.2131 105.968ZM83.6111 110L83.1671 109.316C82.7951 109.832 82.2671 110.12 81.6311 110.12H81.6071C80.2751 110.12 79.5311 109.328 79.5311 107.924V105.956C79.5311 104.552 80.2751 103.76 81.6071 103.76H81.6311C82.0751 103.76 82.4711 103.904 82.8191 104.192V101.6H84.2951V110H83.6111ZM82.8191 107.972V105.908C82.8191 105.488 82.5311 105.2 82.1111 105.2H81.7151C81.2951 105.2 81.0071 105.488 81.0071 105.908V107.972C81.0071 108.392 81.2951 108.68 81.7151 108.68H82.1111C82.5311 108.68 82.8191 108.392 82.8191 107.972ZM89.8703 110L89.4263 109.316C89.0543 109.832 88.5263 110.12 87.8903 110.12H87.8663C86.5343 110.12 85.7903 109.328 85.7903 107.924V103.88H87.2663V107.972C87.2663 108.392 87.5543 108.68 87.9743 108.68H88.3703C88.7903 108.68 89.0783 108.392 89.0783 107.972V103.88H90.5543V110H89.8703ZM95.2878 107.96V107.672L96.7638 107.816V107.912C96.7638 109.184 95.8518 110.12 94.5678 110.12H94.1958C92.9118 110.12 91.9998 109.184 91.9998 107.912V105.968C91.9998 104.696 92.9118 103.76 94.1958 103.76H94.5678C95.8518 103.76 96.7638 104.696 96.7638 105.968V106.064L95.2878 106.208V105.92C95.2878 105.524 94.9638 105.2 94.5678 105.2H94.1958C93.7998 105.2 93.4758 105.524 93.4758 105.92V107.96C93.4758 108.356 93.7998 108.68 94.1958 108.68H94.5678C94.9638 108.68 95.2878 108.356 95.2878 107.96ZM101.562 110H100.638C99.3539 110 98.6819 109.316 98.6819 108.032V105.284H97.6019V103.88H98.6819V102.44L100.158 102.2V103.88H101.562V105.284H100.158V107.96C100.158 108.356 100.362 108.56 100.758 108.56H101.562V110ZM110.251 110H105.643V101.6H107.155V108.56H110.251V110ZM115.146 110L114.726 109.34C114.402 109.82 113.814 110.12 113.094 110.12H113.07C111.834 110.12 111.09 109.412 111.09 108.404V108.164C111.09 107.156 111.834 106.472 113.07 106.472H114.354V105.836C114.354 105.488 114.03 105.2 113.634 105.2H113.346C112.95 105.2 112.626 105.488 112.626 105.836V106.064L111.15 105.92V105.884C111.15 104.684 112.062 103.76 113.346 103.76H113.634C114.918 103.76 115.83 104.684 115.83 105.884V110H115.146ZM112.566 108.14V108.176C112.566 108.5 112.818 108.752 113.19 108.752H113.742C114.066 108.752 114.354 108.512 114.354 108.188V107.564H113.19C112.818 107.564 112.566 107.816 112.566 108.14ZM121.347 110L120.903 109.316C120.531 109.832 120.003 110.12 119.367 110.12H119.343C118.011 110.12 117.267 109.328 117.267 107.924V103.88H118.743V107.972C118.743 108.392 119.031 108.68 119.451 108.68H119.847C120.267 108.68 120.555 108.392 120.555 107.972V103.88H122.031V110H121.347ZM124.28 103.88L124.712 104.564C125.084 104.072 125.624 103.76 126.26 103.76H126.284C127.616 103.76 128.36 104.552 128.36 105.956V110H126.884V105.908C126.884 105.488 126.596 105.2 126.176 105.2H125.78C125.36 105.2 125.072 105.488 125.072 105.908V110H123.596V103.88H124.28ZM133.034 107.96V107.672L134.51 107.816V107.912C134.51 109.184 133.598 110.12 132.314 110.12H131.942C130.658 110.12 129.746 109.184 129.746 107.912V105.968C129.746 104.696 130.658 103.76 131.942 103.76H132.314C133.598 103.76 134.51 104.696 134.51 105.968V106.064L133.034 106.208V105.92C133.034 105.524 132.71 105.2 132.314 105.2H131.942C131.546 105.2 131.222 105.524 131.222 105.92V107.96C131.222 108.356 131.546 108.68 131.942 108.68H132.314C132.71 108.68 133.034 108.356 133.034 107.96ZM135.948 101.6H137.304V104.3C137.652 103.964 138.096 103.76 138.612 103.76H138.636C139.968 103.76 140.712 104.552 140.712 105.956V110H139.236V105.908C139.236 105.488 138.948 105.2 138.528 105.2H138.132C137.712 105.2 137.424 105.488 137.424 105.908V110H135.948V101.6ZM65.1895 123.354C65.1895 123.596 65.1426 123.824 65.0488 124.039C64.959 124.254 64.834 124.441 64.6738 124.602C64.5137 124.762 64.3262 124.889 64.1113 124.982C63.8965 125.072 63.668 125.117 63.4258 125.117H62.9453C62.7031 125.117 62.4746 125.072 62.2598 124.982C62.0449 124.889 61.8574 124.762 61.6973 124.602C61.5371 124.441 61.4102 124.254 61.3164 124.039C61.2266 123.824 61.1816 123.596 61.1816 123.354V116.598H61.9023V119.504C62.0664 119.309 62.2637 119.156 62.4941 119.047C62.7246 118.938 62.9746 118.883 63.2441 118.883H63.4258C63.668 118.883 63.8965 118.93 64.1113 119.023C64.3262 119.113 64.5137 119.238 64.6738 119.398C64.834 119.559 64.959 119.746 65.0488 119.961C65.1426 120.176 65.1895 120.404 65.1895 120.646V123.354ZM64.4688 120.605C64.4688 120.461 64.4414 120.326 64.3867 120.201C64.332 120.072 64.2578 119.961 64.1641 119.867C64.0703 119.773 63.959 119.699 63.8301 119.645C63.7051 119.59 63.5703 119.562 63.4258 119.562H62.9453C62.8008 119.562 62.6641 119.59 62.5352 119.645C62.4102 119.699 62.3008 119.773 62.207 119.867C62.1133 119.961 62.0391 120.072 61.9844 120.201C61.9297 120.326 61.9023 120.461 61.9023 120.605V123.395C61.9023 123.539 61.9297 123.676 61.9844 123.805C62.0391 123.93 62.1133 124.039 62.207 124.133C62.3008 124.227 62.4102 124.301 62.5352 124.355C62.6641 124.41 62.8008 124.438 62.9453 124.438H63.4258C63.5703 124.438 63.7051 124.41 63.8301 124.355C63.959 124.301 64.0703 124.227 64.1641 124.133C64.2578 124.039 64.332 123.93 64.3867 123.805C64.4414 123.676 64.4688 123.539 64.4688 123.395V120.605ZM66.8125 117.559V116.598H67.6504V117.559H66.8125ZM66.8711 125V119H67.5918V125H66.8711ZM73.2871 123.354C73.2871 123.596 73.2402 123.824 73.1465 124.039C73.0566 124.254 72.9316 124.441 72.7715 124.602C72.6113 124.762 72.4238 124.889 72.209 124.982C71.9941 125.072 71.7656 125.117 71.5234 125.117H71.043C70.8008 125.117 70.5723 125.072 70.3574 124.982C70.1426 124.889 69.9551 124.762 69.7949 124.602C69.6348 124.441 69.5078 124.254 69.4141 124.039C69.3242 123.824 69.2793 123.596 69.2793 123.354V120.646C69.2793 120.404 69.3242 120.176 69.4141 119.961C69.5078 119.746 69.6348 119.559 69.7949 119.398C69.9551 119.238 70.1426 119.113 70.3574 119.023C70.5723 118.93 70.8008 118.883 71.043 118.883H71.5234C71.7656 118.883 71.9941 118.93 72.209 119.023C72.4238 119.113 72.6113 119.238 72.7715 119.398C72.9316 119.559 73.0566 119.746 73.1465 119.961C73.2402 120.176 73.2871 120.404 73.2871 120.646V123.354ZM72.5664 120.605C72.5664 120.461 72.5391 120.326 72.4844 120.201C72.4297 120.072 72.3555 119.961 72.2617 119.867C72.168 119.773 72.0566 119.699 71.9277 119.645C71.8027 119.59 71.668 119.562 71.5234 119.562H71.043C70.8984 119.562 70.7617 119.59 70.6328 119.645C70.5078 119.699 70.3984 119.773 70.3047 119.867C70.2109 119.961 70.1367 120.072 70.082 120.201C70.0273 120.326 70 120.461 70 120.605V123.395C70 123.539 70.0273 123.676 70.082 123.805C70.1367 123.93 70.2109 124.039 70.3047 124.133C70.3984 124.227 70.5078 124.301 70.6328 124.355C70.7617 124.41 70.8984 124.438 71.043 124.438H71.5234C71.668 124.438 71.8027 124.41 71.9277 124.355C72.0566 124.301 72.168 124.227 72.2617 124.133C72.3555 124.039 72.4297 123.93 72.4844 123.805C72.5391 123.676 72.5664 123.539 72.5664 123.395V120.605ZM78.4961 125L78.0977 124.391C77.9336 124.613 77.7285 124.791 77.4824 124.924C77.2363 125.053 76.9668 125.117 76.6738 125.117H76.4922C76.25 125.117 76.0215 125.072 75.8066 124.982C75.5918 124.889 75.4043 124.762 75.2441 124.602C75.084 124.441 74.957 124.254 74.8633 124.039C74.7734 123.824 74.7285 123.596 74.7285 123.354V120.646C74.7285 120.404 74.7734 120.176 74.8633 119.961C74.957 119.746 75.084 119.559 75.2441 119.398C75.4043 119.238 75.5918 119.113 75.8066 119.023C76.0215 118.93 76.25 118.883 76.4922 118.883H76.6738C76.9434 118.883 77.1934 118.938 77.4238 119.047C77.6543 119.156 77.8516 119.309 78.0156 119.504V116.598H78.7363V125H78.4961ZM78.0156 120.605C78.0156 120.461 77.9883 120.326 77.9336 120.201C77.8789 120.072 77.8047 119.961 77.7109 119.867C77.6172 119.773 77.5059 119.699 77.377 119.645C77.252 119.59 77.1172 119.562 76.9727 119.562H76.4922C76.3477 119.562 76.2109 119.59 76.082 119.645C75.957 119.699 75.8477 119.773 75.7539 119.867C75.6602 119.961 75.5859 120.072 75.5312 120.201C75.4766 120.326 75.4492 120.461 75.4492 120.605V123.395C75.4492 123.539 75.4766 123.676 75.5312 123.805C75.5859 123.93 75.6602 124.039 75.7539 124.133C75.8477 124.227 75.957 124.301 76.082 124.355C76.2109 124.41 76.3477 124.438 76.4922 124.438H76.9727C77.1172 124.438 77.252 124.41 77.377 124.355C77.5059 124.301 77.6172 124.227 77.7109 124.133C77.8047 124.039 77.8789 123.93 77.9336 123.805C77.9883 123.676 78.0156 123.539 78.0156 123.395V120.605ZM84.1855 123.354C84.1855 123.596 84.1387 123.824 84.0449 124.039C83.9551 124.254 83.8301 124.441 83.6699 124.602C83.5098 124.762 83.3223 124.889 83.1074 124.982C82.8926 125.072 82.6641 125.117 82.4219 125.117H81.9414C81.6992 125.117 81.4707 125.072 81.2559 124.982C81.041 124.889 80.8535 124.762 80.6934 124.602C80.5332 124.441 80.4062 124.254 80.3125 124.039C80.2227 123.824 80.1777 123.596 80.1777 123.354V120.646C80.1777 120.404 80.2227 120.176 80.3125 119.961C80.4062 119.746 80.5332 119.559 80.6934 119.398C80.8535 119.238 81.041 119.113 81.2559 119.023C81.4707 118.93 81.6992 118.883 81.9414 118.883H82.4219C82.6641 118.883 82.8926 118.93 83.1074 119.023C83.3223 119.113 83.5098 119.238 83.6699 119.398C83.8301 119.559 83.9551 119.746 84.0449 119.961C84.1387 120.176 84.1855 120.404 84.1855 120.646V122.059H80.8984V123.395C80.8984 123.539 80.9258 123.676 80.9805 123.805C81.0352 123.93 81.1094 124.039 81.2031 124.133C81.2969 124.227 81.4062 124.301 81.5312 124.355C81.6602 124.41 81.7969 124.438 81.9414 124.438H82.4219C82.5664 124.438 82.7012 124.41 82.8262 124.355C82.9551 124.301 83.0664 124.227 83.1602 124.133C83.2539 124.039 83.3281 123.93 83.3828 123.805C83.4375 123.676 83.4648 123.539 83.4648 123.395V122.996L84.1855 123.113V123.354ZM83.4648 120.605C83.4648 120.461 83.4375 120.326 83.3828 120.201C83.3281 120.072 83.2539 119.961 83.1602 119.867C83.0664 119.773 82.9551 119.699 82.8262 119.645C82.7012 119.59 82.5664 119.562 82.4219 119.562H81.9414C81.7969 119.562 81.6602 119.59 81.5312 119.645C81.4062 119.699 81.2969 119.773 81.2031 119.867C81.1094 119.961 81.0352 120.072 80.9805 120.201C80.9258 120.326 80.8984 120.461 80.8984 120.605V121.496H83.4648V120.605ZM89.6934 125.756C89.6934 125.998 89.6465 126.221 89.5527 126.424C89.4629 126.627 89.3379 126.801 89.1777 126.945C89.0176 127.09 88.8301 127.201 88.6152 127.279C88.4004 127.361 88.1719 127.402 87.9297 127.402H87.6309C87.3887 127.402 87.1602 127.361 86.9453 127.279C86.7305 127.201 86.543 127.09 86.3828 126.945C86.2227 126.801 86.0957 126.627 86.002 126.424C85.9121 126.221 85.8672 125.998 85.8672 125.756V125.732C85.8672 125.498 85.9102 125.283 85.9961 125.088C86.082 124.893 86.1992 124.723 86.3477 124.578C86.1602 124.465 86.0098 124.312 85.8965 124.121C85.7871 123.926 85.7324 123.711 85.7324 123.477C85.7324 123.266 85.7773 123.07 85.8672 122.891C85.957 122.707 86.0801 122.559 86.2363 122.445C86.0488 122.281 85.9004 122.084 85.791 121.854C85.6816 121.623 85.627 121.371 85.627 121.098V120.646C85.627 120.404 85.6719 120.176 85.7617 119.961C85.8555 119.746 85.9824 119.559 86.1426 119.398C86.3027 119.238 86.4902 119.113 86.7051 119.023C86.9199 118.93 87.1484 118.883 87.3906 118.883H87.6895C87.9824 118.883 88.252 118.949 88.498 119.082C88.748 119.211 88.9551 119.387 89.1191 119.609L89.5117 119H89.752V121.098C89.752 121.34 89.7051 121.568 89.6113 121.783C89.5215 121.998 89.3965 122.186 89.2363 122.346C89.0762 122.506 88.8887 122.633 88.6738 122.727C88.459 122.816 88.2305 122.861 87.9883 122.861H86.9453C86.8633 122.861 86.7852 122.879 86.7109 122.914C86.6367 122.945 86.5703 122.988 86.5117 123.043C86.457 123.098 86.4141 123.164 86.3828 123.242C86.3516 123.316 86.3359 123.395 86.3359 123.477C86.3359 123.559 86.3516 123.637 86.3828 123.711C86.4141 123.785 86.457 123.852 86.5117 123.91C86.5703 123.965 86.6367 124.008 86.7109 124.039C86.7852 124.07 86.8633 124.086 86.9453 124.086H87.9297C88.1719 124.086 88.4004 124.127 88.6152 124.209C88.8301 124.287 89.0176 124.398 89.1777 124.543C89.3379 124.688 89.4629 124.861 89.5527 125.064C89.6465 125.268 89.6934 125.49 89.6934 125.732V125.756ZM89.0371 120.605C89.0371 120.461 89.0098 120.326 88.9551 120.201C88.9004 120.072 88.8242 119.961 88.7266 119.867C88.6328 119.773 88.5215 119.699 88.3926 119.645C88.2676 119.59 88.1328 119.562 87.9883 119.562H87.3906C87.2461 119.562 87.1094 119.59 86.9805 119.645C86.8555 119.699 86.7461 119.773 86.6523 119.867C86.5586 119.961 86.4844 120.072 86.4297 120.201C86.375 120.326 86.3477 120.461 86.3477 120.605V121.139C86.3477 121.283 86.375 121.42 86.4297 121.549C86.4844 121.674 86.5586 121.783 86.6523 121.877C86.7461 121.971 86.8555 122.045 86.9805 122.1C87.1094 122.154 87.2461 122.182 87.3906 122.182H87.9883C88.1328 122.182 88.2676 122.154 88.3926 122.1C88.5215 122.045 88.6328 121.971 88.7266 121.877C88.8242 121.783 88.9004 121.674 88.9551 121.549C89.0098 121.42 89.0371 121.283 89.0371 121.139V120.605ZM89.0078 125.697C89.0078 125.553 88.9805 125.422 88.9258 125.305C88.8711 125.191 88.7969 125.096 88.7031 125.018C88.6094 124.939 88.498 124.879 88.3691 124.836C88.2441 124.793 88.1094 124.771 87.9648 124.771H87.5957C87.4512 124.771 87.3145 124.793 87.1855 124.836C87.0605 124.879 86.9512 124.939 86.8574 125.018C86.7637 125.096 86.6895 125.191 86.6348 125.305C86.5801 125.422 86.5527 125.553 86.5527 125.697V125.791C86.5527 125.936 86.5801 126.064 86.6348 126.178C86.6895 126.291 86.7637 126.387 86.8574 126.465C86.9512 126.547 87.0605 126.609 87.1855 126.652C87.3145 126.695 87.4512 126.717 87.5957 126.717H87.9648C88.1094 126.717 88.2441 126.695 88.3691 126.652C88.498 126.609 88.6094 126.547 88.7031 126.465C88.7969 126.387 88.8711 126.291 88.9258 126.178C88.9805 126.064 89.0078 125.936 89.0078 125.791V125.697ZM92.8398 119.686C92.6953 119.686 92.5586 119.713 92.4297 119.768C92.3047 119.822 92.1953 119.896 92.1016 119.99C92.0078 120.084 91.9336 120.195 91.8789 120.324C91.8242 120.449 91.7969 120.584 91.7969 120.729V125H91.0762V119H91.3164L91.709 119.609C91.873 119.387 92.0781 119.211 92.3242 119.082C92.5742 118.949 92.8457 118.883 93.1387 118.883H93.5605V119.686H92.8398ZM98.2891 125L97.8906 124.402C97.7266 124.617 97.5215 124.791 97.2754 124.924C97.0293 125.053 96.7598 125.117 96.4668 125.117H96.2852C96.043 125.117 95.8145 125.072 95.5996 124.982C95.3848 124.889 95.1973 124.762 95.0371 124.602C94.877 124.441 94.75 124.254 94.6562 124.039C94.5664 123.824 94.5215 123.596 94.5215 123.354V123.295C94.5215 123.053 94.5664 122.824 94.6562 122.609C94.75 122.395 94.877 122.207 95.0371 122.047C95.1973 121.887 95.3848 121.762 95.5996 121.672C95.8145 121.578 96.043 121.531 96.2852 121.531H97.8086V120.605C97.8086 120.461 97.7812 120.326 97.7266 120.201C97.6719 120.072 97.5977 119.961 97.5039 119.867C97.4102 119.773 97.2988 119.699 97.1699 119.645C97.0449 119.59 96.9102 119.562 96.7656 119.562H96.3438C96.1992 119.562 96.0625 119.59 95.9336 119.645C95.8086 119.699 95.6992 119.773 95.6055 119.867C95.5117 119.961 95.4375 120.072 95.3828 120.201C95.3281 120.326 95.3008 120.461 95.3008 120.605V120.822L94.5801 120.705V120.646C94.5801 120.404 94.625 120.176 94.7148 119.961C94.8086 119.746 94.9355 119.559 95.0957 119.398C95.2559 119.238 95.4434 119.113 95.6582 119.023C95.873 118.93 96.1016 118.883 96.3438 118.883H96.7656C97.0078 118.883 97.2363 118.93 97.4512 119.023C97.666 119.113 97.8535 119.238 98.0137 119.398C98.1738 119.559 98.2988 119.746 98.3887 119.961C98.4824 120.176 98.5293 120.404 98.5293 120.646V125H98.2891ZM97.8086 122.094H96.2852C96.1406 122.094 96.0039 122.121 95.875 122.176C95.75 122.23 95.6406 122.307 95.5469 122.404C95.4531 122.498 95.3789 122.609 95.3242 122.738C95.2695 122.863 95.2422 122.998 95.2422 123.143V123.395C95.2422 123.539 95.2695 123.676 95.3242 123.805C95.3789 123.93 95.4531 124.039 95.5469 124.133C95.6406 124.227 95.75 124.301 95.875 124.355C96.0039 124.41 96.1406 124.438 96.2852 124.438H96.7656C96.9102 124.438 97.0449 124.41 97.1699 124.355C97.2988 124.301 97.4102 124.227 97.5039 124.133C97.5977 124.039 97.6719 123.93 97.7266 123.805C97.7812 123.676 97.8086 123.539 97.8086 123.395V122.094ZM103.738 125L103.34 124.391C103.176 124.613 102.971 124.791 102.725 124.924C102.479 125.053 102.209 125.117 101.916 125.117H101.734C101.492 125.117 101.264 125.072 101.049 124.982C100.834 124.889 100.646 124.762 100.486 124.602C100.326 124.441 100.199 124.254 100.105 124.039C100.016 123.824 99.9707 123.596 99.9707 123.354V120.646C99.9707 120.404 100.016 120.176 100.105 119.961C100.199 119.746 100.326 119.559 100.486 119.398C100.646 119.238 100.834 119.113 101.049 119.023C101.264 118.93 101.492 118.883 101.734 118.883H101.916C102.186 118.883 102.436 118.938 102.666 119.047C102.896 119.156 103.094 119.309 103.258 119.504V116.598H103.979V125H103.738ZM103.258 120.605C103.258 120.461 103.23 120.326 103.176 120.201C103.121 120.072 103.047 119.961 102.953 119.867C102.859 119.773 102.748 119.699 102.619 119.645C102.494 119.59 102.359 119.562 102.215 119.562H101.734C101.59 119.562 101.453 119.59 101.324 119.645C101.199 119.699 101.09 119.773 100.996 119.867C100.902 119.961 100.828 120.072 100.773 120.201C100.719 120.326 100.691 120.461 100.691 120.605V123.395C100.691 123.539 100.719 123.676 100.773 123.805C100.828 123.93 100.902 124.039 100.996 124.133C101.09 124.227 101.199 124.301 101.324 124.355C101.453 124.41 101.59 124.438 101.734 124.438H102.215C102.359 124.438 102.494 124.41 102.619 124.355C102.748 124.301 102.859 124.227 102.953 124.133C103.047 124.039 103.121 123.93 103.176 123.805C103.23 123.676 103.258 123.539 103.258 123.395V120.605ZM109.188 125L108.789 124.402C108.625 124.617 108.42 124.791 108.174 124.924C107.928 125.053 107.658 125.117 107.365 125.117H107.184C106.941 125.117 106.713 125.072 106.498 124.982C106.283 124.889 106.096 124.762 105.936 124.602C105.775 124.441 105.648 124.254 105.555 124.039C105.465 123.824 105.42 123.596 105.42 123.354V123.295C105.42 123.053 105.465 122.824 105.555 122.609C105.648 122.395 105.775 122.207 105.936 122.047C106.096 121.887 106.283 121.762 106.498 121.672C106.713 121.578 106.941 121.531 107.184 121.531H108.707V120.605C108.707 120.461 108.68 120.326 108.625 120.201C108.57 120.072 108.496 119.961 108.402 119.867C108.309 119.773 108.197 119.699 108.068 119.645C107.943 119.59 107.809 119.562 107.664 119.562H107.242C107.098 119.562 106.961 119.59 106.832 119.645C106.707 119.699 106.598 119.773 106.504 119.867C106.41 119.961 106.336 120.072 106.281 120.201C106.227 120.326 106.199 120.461 106.199 120.605V120.822L105.479 120.705V120.646C105.479 120.404 105.523 120.176 105.613 119.961C105.707 119.746 105.834 119.559 105.994 119.398C106.154 119.238 106.342 119.113 106.557 119.023C106.771 118.93 107 118.883 107.242 118.883H107.664C107.906 118.883 108.135 118.93 108.35 119.023C108.564 119.113 108.752 119.238 108.912 119.398C109.072 119.559 109.197 119.746 109.287 119.961C109.381 120.176 109.428 120.404 109.428 120.646V125H109.188ZM108.707 122.094H107.184C107.039 122.094 106.902 122.121 106.773 122.176C106.648 122.23 106.539 122.307 106.445 122.404C106.352 122.498 106.277 122.609 106.223 122.738C106.168 122.863 106.141 122.998 106.141 123.143V123.395C106.141 123.539 106.168 123.676 106.223 123.805C106.277 123.93 106.352 124.039 106.445 124.133C106.539 124.227 106.648 124.301 106.773 124.355C106.902 124.41 107.039 124.438 107.184 124.438H107.664C107.809 124.438 107.943 124.41 108.068 124.355C108.197 124.301 108.309 124.227 108.402 124.133C108.496 124.039 108.57 123.93 108.625 123.805C108.68 123.676 108.707 123.539 108.707 123.395V122.094ZM114.877 123.354C114.877 123.596 114.83 123.824 114.736 124.039C114.646 124.254 114.521 124.441 114.361 124.602C114.201 124.762 114.014 124.889 113.799 124.982C113.584 125.072 113.355 125.117 113.113 125.117H112.633C112.391 125.117 112.162 125.072 111.947 124.982C111.732 124.889 111.545 124.762 111.385 124.602C111.225 124.441 111.098 124.254 111.004 124.039C110.914 123.824 110.869 123.596 110.869 123.354V116.598H111.59V119.504C111.754 119.309 111.951 119.156 112.182 119.047C112.412 118.938 112.662 118.883 112.932 118.883H113.113C113.355 118.883 113.584 118.93 113.799 119.023C114.014 119.113 114.201 119.238 114.361 119.398C114.521 119.559 114.646 119.746 114.736 119.961C114.83 120.176 114.877 120.404 114.877 120.646V123.354ZM114.156 120.605C114.156 120.461 114.129 120.326 114.074 120.201C114.02 120.072 113.945 119.961 113.852 119.867C113.758 119.773 113.646 119.699 113.518 119.645C113.393 119.59 113.258 119.562 113.113 119.562H112.633C112.488 119.562 112.352 119.59 112.223 119.645C112.098 119.699 111.988 119.773 111.895 119.867C111.801 119.961 111.727 120.072 111.672 120.201C111.617 120.326 111.59 120.461 111.59 120.605V123.395C111.59 123.539 111.617 123.676 111.672 123.805C111.727 123.93 111.801 124.039 111.895 124.133C111.988 124.227 112.098 124.301 112.223 124.355C112.352 124.41 112.488 124.438 112.633 124.438H113.113C113.258 124.438 113.393 124.41 113.518 124.355C113.646 124.301 113.758 124.227 113.852 124.133C113.945 124.039 114.02 123.93 114.074 123.805C114.129 123.676 114.156 123.539 114.156 123.395V120.605ZM116.441 125V116.598H117.162V125H116.441ZM122.857 123.354C122.857 123.596 122.811 123.824 122.717 124.039C122.627 124.254 122.502 124.441 122.342 124.602C122.182 124.762 121.994 124.889 121.779 124.982C121.564 125.072 121.336 125.117 121.094 125.117H120.613C120.371 125.117 120.143 125.072 119.928 124.982C119.713 124.889 119.525 124.762 119.365 124.602C119.205 124.441 119.078 124.254 118.984 124.039C118.895 123.824 118.85 123.596 118.85 123.354V120.646C118.85 120.404 118.895 120.176 118.984 119.961C119.078 119.746 119.205 119.559 119.365 119.398C119.525 119.238 119.713 119.113 119.928 119.023C120.143 118.93 120.371 118.883 120.613 118.883H121.094C121.336 118.883 121.564 118.93 121.779 119.023C121.994 119.113 122.182 119.238 122.342 119.398C122.502 119.559 122.627 119.746 122.717 119.961C122.811 120.176 122.857 120.404 122.857 120.646V122.059H119.57V123.395C119.57 123.539 119.598 123.676 119.652 123.805C119.707 123.93 119.781 124.039 119.875 124.133C119.969 124.227 120.078 124.301 120.203 124.355C120.332 124.41 120.469 124.438 120.613 124.438H121.094C121.238 124.438 121.373 124.41 121.498 124.355C121.627 124.301 121.738 124.227 121.832 124.133C121.926 124.039 122 123.93 122.055 123.805C122.109 123.676 122.137 123.539 122.137 123.395V122.996L122.857 123.113V123.354ZM122.137 120.605C122.137 120.461 122.109 120.326 122.055 120.201C122 120.072 121.926 119.961 121.832 119.867C121.738 119.773 121.627 119.699 121.498 119.645C121.373 119.59 121.238 119.562 121.094 119.562H120.613C120.469 119.562 120.332 119.59 120.203 119.645C120.078 119.699 119.969 119.773 119.875 119.867C119.781 119.961 119.707 120.072 119.652 120.201C119.598 120.326 119.57 120.461 119.57 120.605V121.496H122.137V120.605ZM127.305 125V116.598H128.025V125H127.305ZM129.895 117.559V116.598H130.732V117.559H129.895ZM129.953 125V119H130.674V125H129.953ZM135.648 125V120.605C135.648 120.461 135.621 120.326 135.566 120.201C135.512 120.072 135.438 119.961 135.344 119.867C135.25 119.773 135.139 119.699 135.01 119.645C134.885 119.59 134.75 119.562 134.605 119.562H134.125C133.98 119.562 133.844 119.59 133.715 119.645C133.59 119.699 133.48 119.773 133.387 119.867C133.293 119.961 133.219 120.072 133.164 120.201C133.109 120.326 133.082 120.461 133.082 120.605V125H132.361V119H132.602L132.994 119.609C133.158 119.387 133.363 119.211 133.609 119.082C133.859 118.949 134.131 118.883 134.424 118.883H134.605C134.848 118.883 135.076 118.93 135.291 119.023C135.506 119.113 135.693 119.238 135.854 119.398C136.014 119.559 136.139 119.746 136.229 119.961C136.322 120.176 136.369 120.404 136.369 120.646V125H135.648ZM141.818 123.354C141.818 123.596 141.771 123.824 141.678 124.039C141.588 124.254 141.463 124.441 141.303 124.602C141.143 124.762 140.955 124.889 140.74 124.982C140.525 125.072 140.297 125.117 140.055 125.117H139.574C139.332 125.117 139.104 125.072 138.889 124.982C138.674 124.889 138.486 124.762 138.326 124.602C138.166 124.441 138.039 124.254 137.945 124.039C137.855 123.824 137.811 123.596 137.811 123.354V120.646C137.811 120.404 137.855 120.176 137.945 119.961C138.039 119.746 138.166 119.559 138.326 119.398C138.486 119.238 138.674 119.113 138.889 119.023C139.104 118.93 139.332 118.883 139.574 118.883H140.055C140.297 118.883 140.525 118.93 140.74 119.023C140.955 119.113 141.143 119.238 141.303 119.398C141.463 119.559 141.588 119.746 141.678 119.961C141.771 120.176 141.818 120.404 141.818 120.646V122.059H138.531V123.395C138.531 123.539 138.559 123.676 138.613 123.805C138.668 123.93 138.742 124.039 138.836 124.133C138.93 124.227 139.039 124.301 139.164 124.355C139.293 124.41 139.43 124.438 139.574 124.438H140.055C140.199 124.438 140.334 124.41 140.459 124.355C140.588 124.301 140.699 124.227 140.793 124.133C140.887 124.039 140.961 123.93 141.016 123.805C141.07 123.676 141.098 123.539 141.098 123.395V122.996L141.818 123.113V123.354ZM141.098 120.605C141.098 120.461 141.07 120.326 141.016 120.201C140.961 120.072 140.887 119.961 140.793 119.867C140.699 119.773 140.588 119.699 140.459 119.645C140.334 119.59 140.199 119.562 140.055 119.562H139.574C139.43 119.562 139.293 119.59 139.164 119.645C139.039 119.699 138.93 119.773 138.836 119.867C138.742 119.961 138.668 120.072 138.613 120.201C138.559 120.326 138.531 120.461 138.531 120.605V121.496H141.098V120.605Z" fill="#2A2C35"/>
<path d="M33.9906 38.04H30.1386V40.08H33.2346V41.52H30.1386V45H28.6266V36.6H33.9906V38.04ZM38.1199 42.96V40.92C38.1199 40.524 37.7959 40.2 37.3999 40.2H37.0279C36.6319 40.2 36.3079 40.524 36.3079 40.92V42.96C36.3079 43.356 36.6319 43.68 37.0279 43.68H37.3999C37.7959 43.68 38.1199 43.356 38.1199 42.96ZM39.5959 40.968V42.912C39.5959 44.184 38.6839 45.12 37.3999 45.12H37.0279C35.7439 45.12 34.8319 44.184 34.8319 42.912V40.968C34.8319 39.696 35.7439 38.76 37.0279 38.76H37.3999C38.6839 38.76 39.5959 39.696 39.5959 40.968ZM45.0539 45L44.6099 44.316C44.2379 44.832 43.7099 45.12 43.0739 45.12H43.0499C41.7179 45.12 40.9739 44.328 40.9739 42.924V38.88H42.4499V42.972C42.4499 43.392 42.7379 43.68 43.1579 43.68H43.5539C43.9739 43.68 44.2619 43.392 44.2619 42.972V38.88H45.7379V45H45.0539ZM47.9874 38.88L48.4194 39.564C48.7914 39.072 49.3314 38.76 49.9674 38.76H49.9914C51.3234 38.76 52.0674 39.552 52.0674 40.956V45H50.5914V40.908C50.5914 40.488 50.3034 40.2 49.8834 40.2H49.4874C49.0674 40.2 48.7794 40.488 48.7794 40.908V45H47.3034V38.88H47.9874ZM57.533 45L57.089 44.316C56.717 44.832 56.189 45.12 55.553 45.12H55.529C54.197 45.12 53.453 44.328 53.453 42.924V40.956C53.453 39.552 54.197 38.76 55.529 38.76H55.553C55.997 38.76 56.393 38.904 56.741 39.192V36.6H58.217V45H57.533ZM56.741 42.972V40.908C56.741 40.488 56.453 40.2 56.033 40.2H55.637C55.217 40.2 54.929 40.488 54.929 40.908V42.972C54.929 43.392 55.217 43.68 55.637 43.68H56.033C56.453 43.68 56.741 43.392 56.741 42.972ZM62.9402 42.96V42.756L64.4162 42.9V42.912C64.4162 44.184 63.5042 45.12 62.2202 45.12H61.8482C60.5642 45.12 59.6522 44.184 59.6522 42.912V40.968C59.6522 39.696 60.5642 38.76 61.8482 38.76H62.2202C63.5042 38.76 64.4162 39.696 64.4162 40.968V42.216H61.1282V42.96C61.1282 43.356 61.4522 43.68 61.8482 43.68H62.2202C62.6162 43.68 62.9402 43.356 62.9402 42.96ZM61.1282 40.92V41.292H62.9402V40.92C62.9402 40.524 62.6162 40.2 62.2202 40.2H61.8482C61.4522 40.2 61.1282 40.524 61.1282 40.92ZM69.8142 45L69.3702 44.316C68.9982 44.832 68.4702 45.12 67.8342 45.12H67.8102C66.4782 45.12 65.7342 44.328 65.7342 42.924V40.956C65.7342 39.552 66.4782 38.76 67.8102 38.76H67.8342C68.2782 38.76 68.6742 38.904 69.0222 39.192V36.6H70.4982V45H69.8142ZM69.0222 42.972V40.908C69.0222 40.488 68.7342 40.2 68.3142 40.2H67.9182C67.4982 40.2 67.2102 40.488 67.2102 40.908V42.972C67.2102 43.392 67.4982 43.68 67.9182 43.68H68.3142C68.7342 43.68 69.0222 43.392 69.0222 42.972Z" fill="#2A2C35"/>
<path d="M280.28 12.696V12.12L281.792 12.264V12.696C281.792 14.076 280.736 15.12 279.344 15.12H278.744C277.352 15.12 276.296 14.076 276.296 12.696V8.904C276.296 7.524 277.352 6.48 278.744 6.48H279.344C280.736 6.48 281.792 7.524 281.792 8.904V9.336L280.28 9.48V8.904C280.28 8.34 279.884 7.92 279.32 7.92H278.768C278.204 7.92 277.808 8.34 277.808 8.904V12.696C277.808 13.26 278.204 13.68 278.768 13.68H279.32C279.884 13.68 280.28 13.26 280.28 12.696ZM287.169 15L286.749 14.34C286.425 14.82 285.837 15.12 285.117 15.12H285.093C283.857 15.12 283.113 14.412 283.113 13.404V13.164C283.113 12.156 283.857 11.472 285.093 11.472H286.377V10.836C286.377 10.488 286.053 10.2 285.657 10.2H285.369C284.973 10.2 284.649 10.488 284.649 10.836V11.064L283.173 10.92V10.884C283.173 9.684 284.085 8.76 285.369 8.76H285.657C286.941 8.76 287.853 9.684 287.853 10.884V15H287.169ZM284.589 13.14V13.176C284.589 13.5 284.841 13.752 285.213 13.752H285.765C286.089 13.752 286.377 13.512 286.377 13.188V12.564H285.213C284.841 12.564 284.589 12.816 284.589 13.14ZM290.034 8.88L290.466 9.564C290.838 9.072 291.378 8.76 292.014 8.76H292.722V10.26H291.534C291.114 10.26 290.826 10.548 290.826 10.968V15H289.35V8.88H290.034ZM293.626 12.912V6.6H295.102V9.192C295.438 8.904 295.834 8.76 296.29 8.76H296.314C297.646 8.76 298.39 9.552 298.39 10.956V12.912C298.39 14.184 297.478 15.12 296.194 15.12H295.822C294.538 15.12 293.626 14.184 293.626 12.912ZM295.102 10.908V12.972C295.102 13.392 295.39 13.68 295.81 13.68H296.206C296.626 13.68 296.914 13.392 296.914 12.972V10.908C296.914 10.488 296.626 10.2 296.206 10.2H295.81C295.39 10.2 295.102 10.488 295.102 10.908ZM302.995 12.96V10.92C302.995 10.524 302.671 10.2 302.275 10.2H301.903C301.507 10.2 301.183 10.524 301.183 10.92V12.96C301.183 13.356 301.507 13.68 301.903 13.68H302.275C302.671 13.68 302.995 13.356 302.995 12.96ZM304.471 10.968V12.912C304.471 14.184 303.559 15.12 302.275 15.12H301.903C300.619 15.12 299.707 14.184 299.707 12.912V10.968C299.707 9.696 300.619 8.76 301.903 8.76H302.275C303.559 8.76 304.471 9.696 304.471 10.968ZM306.593 8.88L307.025 9.564C307.397 9.072 307.937 8.76 308.573 8.76H308.597C309.929 8.76 310.673 9.552 310.673 10.956V15H309.197V10.908C309.197 10.488 308.909 10.2 308.489 10.2H308.093C307.673 10.2 307.385 10.488 307.385 10.908V15H305.909V8.88H306.593ZM321.184 15H319.852L316.648 9.612L316.576 9.252V15H315.064V6.6H316.396L319.6 11.988L319.672 12.348V6.6H321.184V15ZM325.917 12.96V12.756L327.393 12.9V12.912C327.393 14.184 326.481 15.12 325.197 15.12H324.825C323.541 15.12 322.629 14.184 322.629 12.912V10.968C322.629 9.696 323.541 8.76 324.825 8.76H325.197C326.481 8.76 327.393 9.696 327.393 10.968V12.216H324.105V12.96C324.105 13.356 324.429 13.68 324.825 13.68H325.197C325.593 13.68 325.917 13.356 325.917 12.96ZM324.105 10.92V11.292H325.917V10.92C325.917 10.524 325.593 10.2 325.197 10.2H324.825C324.429 10.2 324.105 10.524 324.105 10.92ZM332.851 15L332.407 14.316C332.035 14.832 331.507 15.12 330.871 15.12H330.847C329.515 15.12 328.771 14.328 328.771 12.924V8.88H330.247V12.972C330.247 13.392 330.535 13.68 330.955 13.68H331.351C331.771 13.68 332.059 13.392 332.059 12.972V8.88H333.535V15H332.851ZM338.46 15H337.536C336.252 15 335.58 14.316 335.58 13.032V10.284H334.5V8.88H335.58V7.44L337.056 7.2V8.88H338.46V10.284H337.056V12.96C337.056 13.356 337.26 13.56 337.656 13.56H338.46V15ZM340.46 8.88L340.892 9.564C341.264 9.072 341.804 8.76 342.44 8.76H343.148V10.26H341.96C341.54 10.26 341.252 10.548 341.252 10.968V15H339.776V8.88H340.46ZM348.048 15L347.628 14.34C347.304 14.82 346.716 15.12 345.996 15.12H345.972C344.736 15.12 343.992 14.412 343.992 13.404V13.164C343.992 12.156 344.736 11.472 345.972 11.472H347.256V10.836C347.256 10.488 346.932 10.2 346.536 10.2H346.248C345.852 10.2 345.528 10.488 345.528 10.836V11.064L344.052 10.92V10.884C344.052 9.684 344.964 8.76 346.248 8.76H346.536C347.82 8.76 348.732 9.684 348.732 10.884V15H348.048ZM345.468 13.14V13.176C345.468 13.5 345.72 13.752 346.092 13.752H346.644C346.968 13.752 347.256 13.512 347.256 13.188V12.564H346.092C345.72 12.564 345.468 12.816 345.468 13.14ZM351.705 15H350.229V6.6H351.705V15ZM278.434 30L278.035 29.4023C277.871 29.6172 277.666 29.791 277.42 29.9238C277.174 30.0527 276.904 30.1172 276.611 30.1172H276.43C276.188 30.1172 275.959 30.0723 275.744 29.9824C275.529 29.8887 275.342 29.7617 275.182 29.6016C275.021 29.4414 274.895 29.2539 274.801 29.0391C274.711 28.8242 274.666 28.5957 274.666 28.3535V28.2949C274.666 28.0527 274.711 27.8242 274.801 27.6094C274.895 27.3945 275.021 27.207 275.182 27.0469C275.342 26.8867 275.529 26.7617 275.744 26.6719C275.959 26.5781 276.188 26.5312 276.43 26.5312H277.953V25.6055C277.953 25.4609 277.926 25.3262 277.871 25.2012C277.816 25.0723 277.742 24.9609 277.648 24.8672C277.555 24.7734 277.443 24.6992 277.314 24.6445C277.189 24.5898 277.055 24.5625 276.91 24.5625H276.488C276.344 24.5625 276.207 24.5898 276.078 24.6445C275.953 24.6992 275.844 24.7734 275.75 24.8672C275.656 24.9609 275.582 25.0723 275.527 25.2012C275.473 25.3262 275.445 25.4609 275.445 25.6055V25.8223L274.725 25.7051V25.6465C274.725 25.4043 274.77 25.1758 274.859 24.9609C274.953 24.7461 275.08 24.5586 275.24 24.3984C275.4 24.2383 275.588 24.1133 275.803 24.0234C276.018 23.9297 276.246 23.8828 276.488 23.8828H276.91C277.152 23.8828 277.381 23.9297 277.596 24.0234C277.811 24.1133 277.998 24.2383 278.158 24.3984C278.318 24.5586 278.443 24.7461 278.533 24.9609C278.627 25.1758 278.674 25.4043 278.674 25.6465V30H278.434ZM277.953 27.0938H276.43C276.285 27.0938 276.148 27.1211 276.02 27.1758C275.895 27.2305 275.785 27.3066 275.691 27.4043C275.598 27.498 275.523 27.6094 275.469 27.7383C275.414 27.8633 275.387 27.998 275.387 28.1426V28.3945C275.387 28.5391 275.414 28.6758 275.469 28.8047C275.523 28.9297 275.598 29.0391 275.691 29.1328C275.785 29.2266 275.895 29.3008 276.02 29.3555C276.148 29.4102 276.285 29.4375 276.43 29.4375H276.91C277.055 29.4375 277.189 29.4102 277.314 29.3555C277.443 29.3008 277.555 29.2266 277.648 29.1328C277.742 29.0391 277.816 28.9297 277.871 28.8047C277.926 28.6758 277.953 28.5391 277.953 28.3945V27.0938ZM284.123 28.3535C284.123 28.5957 284.076 28.8242 283.982 29.0391C283.893 29.2539 283.768 29.4414 283.607 29.6016C283.447 29.7617 283.26 29.8887 283.045 29.9824C282.83 30.0723 282.602 30.1172 282.359 30.1172H281.879C281.637 30.1172 281.408 30.0723 281.193 29.9824C280.979 29.8887 280.791 29.7617 280.631 29.6016C280.471 29.4414 280.344 29.2539 280.25 29.0391C280.16 28.8242 280.115 28.5957 280.115 28.3535V25.6465C280.115 25.4043 280.16 25.1758 280.25 24.9609C280.344 24.7461 280.471 24.5586 280.631 24.3984C280.791 24.2383 280.979 24.1133 281.193 24.0234C281.408 23.9297 281.637 23.8828 281.879 23.8828H282.359C282.602 23.8828 282.83 23.9297 283.045 24.0234C283.26 24.1133 283.447 24.2383 283.607 24.3984C283.768 24.5586 283.893 24.7461 283.982 24.9609C284.076 25.1758 284.123 25.4043 284.123 25.6465V25.8867L283.402 26.0039V25.6055C283.402 25.4609 283.375 25.3262 283.32 25.2012C283.266 25.0723 283.191 24.9609 283.098 24.8672C283.004 24.7734 282.893 24.6992 282.764 24.6445C282.639 24.5898 282.504 24.5625 282.359 24.5625H281.879C281.734 24.5625 281.598 24.5898 281.469 24.6445C281.344 24.6992 281.234 24.7734 281.141 24.8672C281.047 24.9609 280.973 25.0723 280.918 25.2012C280.863 25.3262 280.836 25.4609 280.836 25.6055V28.3945C280.836 28.5391 280.863 28.6758 280.918 28.8047C280.973 28.9297 281.047 29.0391 281.141 29.1328C281.234 29.2266 281.344 29.3008 281.469 29.3555C281.598 29.4102 281.734 29.4375 281.879 29.4375H282.359C282.504 29.4375 282.639 29.4102 282.764 29.3555C282.893 29.3008 283.004 29.2266 283.098 29.1328C283.191 29.0391 283.266 28.9297 283.32 28.8047C283.375 28.6758 283.402 28.5391 283.402 28.3945V27.9961L284.123 28.1133V28.3535ZM288.852 30V25.6055C288.852 25.4609 288.824 25.3262 288.77 25.2012C288.715 25.0723 288.641 24.9609 288.547 24.8672C288.453 24.7734 288.342 24.6992 288.213 24.6445C288.088 24.5898 287.953 24.5625 287.809 24.5625H287.328C287.184 24.5625 287.047 24.5898 286.918 24.6445C286.793 24.6992 286.684 24.7734 286.59 24.8672C286.496 24.9609 286.422 25.0723 286.367 25.2012C286.312 25.3262 286.285 25.4609 286.285 25.6055V30H285.564V21.5977H286.285V24.5039C286.449 24.3086 286.646 24.1562 286.877 24.0469C287.107 23.9375 287.357 23.8828 287.627 23.8828H287.809C288.051 23.8828 288.279 23.9297 288.494 24.0234C288.709 24.1133 288.896 24.2383 289.057 24.3984C289.217 24.5586 289.342 24.7461 289.432 24.9609C289.525 25.1758 289.572 25.4043 289.572 25.6465V30H288.852ZM291.195 22.5586V21.5977H292.033V22.5586H291.195ZM291.254 30V24H291.975V30H291.254ZM297.67 28.3535C297.67 28.5957 297.623 28.8242 297.529 29.0391C297.439 29.2539 297.314 29.4414 297.154 29.6016C296.994 29.7617 296.807 29.8887 296.592 29.9824C296.377 30.0723 296.148 30.1172 295.906 30.1172H295.426C295.184 30.1172 294.955 30.0723 294.74 29.9824C294.525 29.8887 294.338 29.7617 294.178 29.6016C294.018 29.4414 293.891 29.2539 293.797 29.0391C293.707 28.8242 293.662 28.5957 293.662 28.3535V25.6465C293.662 25.4043 293.707 25.1758 293.797 24.9609C293.891 24.7461 294.018 24.5586 294.178 24.3984C294.338 24.2383 294.525 24.1133 294.74 24.0234C294.955 23.9297 295.184 23.8828 295.426 23.8828H295.906C296.148 23.8828 296.377 23.9297 296.592 24.0234C296.807 24.1133 296.994 24.2383 297.154 24.3984C297.314 24.5586 297.439 24.7461 297.529 24.9609C297.623 25.1758 297.67 25.4043 297.67 25.6465V27.0586H294.383V28.3945C294.383 28.5391 294.41 28.6758 294.465 28.8047C294.52 28.9297 294.594 29.0391 294.688 29.1328C294.781 29.2266 294.891 29.3008 295.016 29.3555C295.145 29.4102 295.281 29.4375 295.426 29.4375H295.906C296.051 29.4375 296.186 29.4102 296.311 29.3555C296.439 29.3008 296.551 29.2266 296.645 29.1328C296.738 29.0391 296.812 28.9297 296.867 28.8047C296.922 28.6758 296.949 28.5391 296.949 28.3945V27.9961L297.67 28.1133V28.3535ZM296.949 25.6055C296.949 25.4609 296.922 25.3262 296.867 25.2012C296.812 25.0723 296.738 24.9609 296.645 24.8672C296.551 24.7734 296.439 24.6992 296.311 24.6445C296.186 24.5898 296.051 24.5625 295.906 24.5625H295.426C295.281 24.5625 295.145 24.5898 295.016 24.6445C294.891 24.6992 294.781 24.7734 294.688 24.8672C294.594 24.9609 294.52 25.0723 294.465 25.2012C294.41 25.3262 294.383 25.4609 294.383 25.6055V26.4961H296.949V25.6055ZM300.992 30H300.635L298.508 24H299.229L300.793 28.5469L300.816 28.8574L300.84 28.5469L302.398 24H303.119L300.992 30ZM307.971 28.3535C307.971 28.5957 307.924 28.8242 307.83 29.0391C307.74 29.2539 307.615 29.4414 307.455 29.6016C307.295 29.7617 307.107 29.8887 306.893 29.9824C306.678 30.0723 306.449 30.1172 306.207 30.1172H305.727C305.484 30.1172 305.256 30.0723 305.041 29.9824C304.826 29.8887 304.639 29.7617 304.479 29.6016C304.318 29.4414 304.191 29.2539 304.098 29.0391C304.008 28.8242 303.963 28.5957 303.963 28.3535V25.6465C303.963 25.4043 304.008 25.1758 304.098 24.9609C304.191 24.7461 304.318 24.5586 304.479 24.3984C304.639 24.2383 304.826 24.1133 305.041 24.0234C305.256 23.9297 305.484 23.8828 305.727 23.8828H306.207C306.449 23.8828 306.678 23.9297 306.893 24.0234C307.107 24.1133 307.295 24.2383 307.455 24.3984C307.615 24.5586 307.74 24.7461 307.83 24.9609C307.924 25.1758 307.971 25.4043 307.971 25.6465V27.0586H304.684V28.3945C304.684 28.5391 304.711 28.6758 304.766 28.8047C304.82 28.9297 304.895 29.0391 304.988 29.1328C305.082 29.2266 305.191 29.3008 305.316 29.3555C305.445 29.4102 305.582 29.4375 305.727 29.4375H306.207C306.352 29.4375 306.486 29.4102 306.611 29.3555C306.74 29.3008 306.852 29.2266 306.945 29.1328C307.039 29.0391 307.113 28.9297 307.168 28.8047C307.223 28.6758 307.25 28.5391 307.25 28.3945V27.9961L307.971 28.1133V28.3535ZM307.25 25.6055C307.25 25.4609 307.223 25.3262 307.168 25.2012C307.113 25.0723 307.039 24.9609 306.945 24.8672C306.852 24.7734 306.74 24.6992 306.611 24.6445C306.486 24.5898 306.352 24.5625 306.207 24.5625H305.727C305.582 24.5625 305.445 24.5898 305.316 24.6445C305.191 24.6992 305.082 24.7734 304.988 24.8672C304.895 24.9609 304.82 25.0723 304.766 25.2012C304.711 25.3262 304.684 25.4609 304.684 25.6055V26.4961H307.25V25.6055ZM313.18 30L312.781 29.3906C312.617 29.6133 312.412 29.791 312.166 29.9238C311.92 30.0527 311.65 30.1172 311.357 30.1172H311.176C310.934 30.1172 310.705 30.0723 310.49 29.9824C310.275 29.8887 310.088 29.7617 309.928 29.6016C309.768 29.4414 309.641 29.2539 309.547 29.0391C309.457 28.8242 309.412 28.5957 309.412 28.3535V25.6465C309.412 25.4043 309.457 25.1758 309.547 24.9609C309.641 24.7461 309.768 24.5586 309.928 24.3984C310.088 24.2383 310.275 24.1133 310.49 24.0234C310.705 23.9297 310.934 23.8828 311.176 23.8828H311.357C311.627 23.8828 311.877 23.9375 312.107 24.0469C312.338 24.1562 312.535 24.3086 312.699 24.5039V21.5977H313.42V30H313.18ZM312.699 25.6055C312.699 25.4609 312.672 25.3262 312.617 25.2012C312.562 25.0723 312.488 24.9609 312.395 24.8672C312.301 24.7734 312.189 24.6992 312.061 24.6445C311.936 24.5898 311.801 24.5625 311.656 24.5625H311.176C311.031 24.5625 310.895 24.5898 310.766 24.6445C310.641 24.6992 310.531 24.7734 310.438 24.8672C310.344 24.9609 310.27 25.0723 310.215 25.2012C310.16 25.3262 310.133 25.4609 310.133 25.6055V28.3945C310.133 28.5391 310.16 28.6758 310.215 28.8047C310.27 28.9297 310.344 29.0391 310.438 29.1328C310.531 29.2266 310.641 29.3008 310.766 29.3555C310.895 29.4102 311.031 29.4375 311.176 29.4375H311.656C311.801 29.4375 311.936 29.4102 312.061 29.3555C312.189 29.3008 312.301 29.2266 312.395 29.1328C312.488 29.0391 312.562 28.9297 312.617 28.8047C312.672 28.6758 312.699 28.5391 312.699 28.3945V25.6055ZM317.387 30V29.6777L320.41 24.6855H317.504V24H321.395V24.3223L318.371 29.3145H321.395V30H317.387ZM326.604 28.3535C326.604 28.5957 326.557 28.8242 326.463 29.0391C326.373 29.2539 326.248 29.4414 326.088 29.6016C325.928 29.7617 325.74 29.8887 325.525 29.9824C325.311 30.0723 325.082 30.1172 324.84 30.1172H324.359C324.117 30.1172 323.889 30.0723 323.674 29.9824C323.459 29.8887 323.271 29.7617 323.111 29.6016C322.951 29.4414 322.824 29.2539 322.73 29.0391C322.641 28.8242 322.596 28.5957 322.596 28.3535V25.6465C322.596 25.4043 322.641 25.1758 322.73 24.9609C322.824 24.7461 322.951 24.5586 323.111 24.3984C323.271 24.2383 323.459 24.1133 323.674 24.0234C323.889 23.9297 324.117 23.8828 324.359 23.8828H324.84C325.082 23.8828 325.311 23.9297 325.525 24.0234C325.74 24.1133 325.928 24.2383 326.088 24.3984C326.248 24.5586 326.373 24.7461 326.463 24.9609C326.557 25.1758 326.604 25.4043 326.604 25.6465V27.0586H323.316V28.3945C323.316 28.5391 323.344 28.6758 323.398 28.8047C323.453 28.9297 323.527 29.0391 323.621 29.1328C323.715 29.2266 323.824 29.3008 323.949 29.3555C324.078 29.4102 324.215 29.4375 324.359 29.4375H324.84C324.984 29.4375 325.119 29.4102 325.244 29.3555C325.373 29.3008 325.484 29.2266 325.578 29.1328C325.672 29.0391 325.746 28.9297 325.801 28.8047C325.855 28.6758 325.883 28.5391 325.883 28.3945V27.9961L326.604 28.1133V28.3535ZM325.883 25.6055C325.883 25.4609 325.855 25.3262 325.801 25.2012C325.746 25.0723 325.672 24.9609 325.578 24.8672C325.484 24.7734 325.373 24.6992 325.244 24.6445C325.119 24.5898 324.984 24.5625 324.84 24.5625H324.359C324.215 24.5625 324.078 24.5898 323.949 24.6445C323.824 24.6992 323.715 24.7734 323.621 24.8672C323.527 24.9609 323.453 25.0723 323.398 25.2012C323.344 25.3262 323.316 25.4609 323.316 25.6055V26.4961H325.883V25.6055ZM329.809 24.6855C329.664 24.6855 329.527 24.7129 329.398 24.7676C329.273 24.8223 329.164 24.8965 329.07 24.9902C328.977 25.084 328.902 25.1953 328.848 25.3242C328.793 25.4492 328.766 25.584 328.766 25.7285V30H328.045V24H328.285L328.678 24.6094C328.842 24.3867 329.047 24.2109 329.293 24.082C329.543 23.9492 329.814 23.8828 330.107 23.8828H330.529V24.6855H329.809ZM335.498 28.3535C335.498 28.5957 335.451 28.8242 335.357 29.0391C335.268 29.2539 335.143 29.4414 334.982 29.6016C334.822 29.7617 334.635 29.8887 334.42 29.9824C334.205 30.0723 333.977 30.1172 333.734 30.1172H333.254C333.012 30.1172 332.783 30.0723 332.568 29.9824C332.354 29.8887 332.166 29.7617 332.006 29.6016C331.846 29.4414 331.719 29.2539 331.625 29.0391C331.535 28.8242 331.49 28.5957 331.49 28.3535V25.6465C331.49 25.4043 331.535 25.1758 331.625 24.9609C331.719 24.7461 331.846 24.5586 332.006 24.3984C332.166 24.2383 332.354 24.1133 332.568 24.0234C332.783 23.9297 333.012 23.8828 333.254 23.8828H333.734C333.977 23.8828 334.205 23.9297 334.42 24.0234C334.635 24.1133 334.822 24.2383 334.982 24.3984C335.143 24.5586 335.268 24.7461 335.357 24.9609C335.451 25.1758 335.498 25.4043 335.498 25.6465V28.3535ZM334.777 25.6055C334.777 25.4609 334.75 25.3262 334.695 25.2012C334.641 25.0723 334.566 24.9609 334.473 24.8672C334.379 24.7734 334.268 24.6992 334.139 24.6445C334.014 24.5898 333.879 24.5625 333.734 24.5625H333.254C333.109 24.5625 332.973 24.5898 332.844 24.6445C332.719 24.6992 332.609 24.7734 332.516 24.8672C332.422 24.9609 332.348 25.0723 332.293 25.2012C332.238 25.3262 332.211 25.4609 332.211 25.6055V28.3945C332.211 28.5391 332.238 28.6758 332.293 28.8047C332.348 28.9297 332.422 29.0391 332.516 29.1328C332.609 29.2266 332.719 29.3008 332.844 29.3555C332.973 29.4102 333.109 29.4375 333.254 29.4375H333.734C333.879 29.4375 334.014 29.4102 334.139 29.3555C334.268 29.3008 334.379 29.2266 334.473 29.1328C334.566 29.0391 334.641 28.9297 334.695 28.8047C334.75 28.6758 334.777 28.5391 334.777 28.3945V25.6055ZM342.992 30V25.6055C342.992 25.4609 342.965 25.3262 342.91 25.2012C342.855 25.0723 342.781 24.9609 342.688 24.8672C342.594 24.7734 342.482 24.6992 342.354 24.6445C342.229 24.5898 342.094 24.5625 341.949 24.5625H341.469C341.324 24.5625 341.188 24.5898 341.059 24.6445C340.934 24.6992 340.824 24.7734 340.73 24.8672C340.637 24.9609 340.562 25.0723 340.508 25.2012C340.453 25.3262 340.426 25.4609 340.426 25.6055V30H339.705V24H339.945L340.338 24.6094C340.502 24.3867 340.707 24.2109 340.953 24.082C341.203 23.9492 341.475 23.8828 341.768 23.8828H341.949C342.191 23.8828 342.42 23.9297 342.635 24.0234C342.85 24.1133 343.037 24.2383 343.197 24.3984C343.357 24.5586 343.482 24.7461 343.572 24.9609C343.666 25.1758 343.713 25.4043 343.713 25.6465V30H342.992ZM349.162 28.3535C349.162 28.5957 349.115 28.8242 349.021 29.0391C348.932 29.2539 348.807 29.4414 348.646 29.6016C348.486 29.7617 348.299 29.8887 348.084 29.9824C347.869 30.0723 347.641 30.1172 347.398 30.1172H346.918C346.676 30.1172 346.447 30.0723 346.232 29.9824C346.018 29.8887 345.83 29.7617 345.67 29.6016C345.51 29.4414 345.383 29.2539 345.289 29.0391C345.199 28.8242 345.154 28.5957 345.154 28.3535V25.6465C345.154 25.4043 345.199 25.1758 345.289 24.9609C345.383 24.7461 345.51 24.5586 345.67 24.3984C345.83 24.2383 346.018 24.1133 346.232 24.0234C346.447 23.9297 346.676 23.8828 346.918 23.8828H347.398C347.641 23.8828 347.869 23.9297 348.084 24.0234C348.299 24.1133 348.486 24.2383 348.646 24.3984C348.807 24.5586 348.932 24.7461 349.021 24.9609C349.115 25.1758 349.162 25.4043 349.162 25.6465V27.0586H345.875V28.3945C345.875 28.5391 345.902 28.6758 345.957 28.8047C346.012 28.9297 346.086 29.0391 346.18 29.1328C346.273 29.2266 346.383 29.3008 346.508 29.3555C346.637 29.4102 346.773 29.4375 346.918 29.4375H347.398C347.543 29.4375 347.678 29.4102 347.803 29.3555C347.932 29.3008 348.043 29.2266 348.137 29.1328C348.23 29.0391 348.305 28.9297 348.359 28.8047C348.414 28.6758 348.441 28.5391 348.441 28.3945V27.9961L349.162 28.1133V28.3535ZM348.441 25.6055C348.441 25.4609 348.414 25.3262 348.359 25.2012C348.305 25.0723 348.23 24.9609 348.137 24.8672C348.043 24.7734 347.932 24.6992 347.803 24.6445C347.678 24.5898 347.543 24.5625 347.398 24.5625H346.918C346.773 24.5625 346.637 24.5898 346.508 24.6445C346.383 24.6992 346.273 24.7734 346.18 24.8672C346.086 24.9609 346.012 25.0723 345.957 25.2012C345.902 25.3262 345.875 25.4609 345.875 25.6055V26.4961H348.441V25.6055ZM352.789 30C352.57 30 352.363 29.959 352.168 29.877C351.977 29.7949 351.809 29.6816 351.664 29.5371C351.523 29.3926 351.41 29.2246 351.324 29.0332C351.242 28.8418 351.201 28.6367 351.201 28.418V24.6855H350.123V24H351.201V22.5586L351.922 22.4414V24H353.445V24.6855H351.922V28.4531C351.922 28.5742 351.943 28.6875 351.986 28.793C352.033 28.8945 352.096 28.9844 352.174 29.0625C352.252 29.1406 352.344 29.2031 352.449 29.25C352.555 29.293 352.668 29.3145 352.789 29.3145H353.445V30H352.789ZM295.396 43.3535C295.396 43.5957 295.35 43.8242 295.256 44.0391C295.166 44.2539 295.041 44.4414 294.881 44.6016C294.721 44.7617 294.533 44.8887 294.318 44.9824C294.104 45.0723 293.875 45.1172 293.633 45.1172H293.152C292.91 45.1172 292.682 45.0723 292.467 44.9824C292.252 44.8887 292.064 44.7617 291.904 44.6016C291.744 44.4414 291.617 44.2539 291.523 44.0391C291.434 43.8242 291.389 43.5957 291.389 43.3535V40.6465C291.389 40.4043 291.434 40.1758 291.523 39.9609C291.617 39.7461 291.744 39.5586 291.904 39.3984C292.064 39.2383 292.252 39.1133 292.467 39.0234C292.682 38.9297 292.91 38.8828 293.152 38.8828H293.633C293.875 38.8828 294.104 38.9297 294.318 39.0234C294.533 39.1133 294.721 39.2383 294.881 39.3984C295.041 39.5586 295.166 39.7461 295.256 39.9609C295.35 40.1758 295.396 40.4043 295.396 40.6465V42.0586H292.109V43.3945C292.109 43.5391 292.137 43.6758 292.191 43.8047C292.246 43.9297 292.32 44.0391 292.414 44.1328C292.508 44.2266 292.617 44.3008 292.742 44.3555C292.871 44.4102 293.008 44.4375 293.152 44.4375H293.633C293.777 44.4375 293.912 44.4102 294.037 44.3555C294.166 44.3008 294.277 44.2266 294.371 44.1328C294.465 44.0391 294.539 43.9297 294.594 43.8047C294.648 43.6758 294.676 43.5391 294.676 43.3945V42.9961L295.396 43.1133V43.3535ZM294.676 40.6055C294.676 40.4609 294.648 40.3262 294.594 40.2012C294.539 40.0723 294.465 39.9609 294.371 39.8672C294.277 39.7734 294.166 39.6992 294.037 39.6445C293.912 39.5898 293.777 39.5625 293.633 39.5625H293.152C293.008 39.5625 292.871 39.5898 292.742 39.6445C292.617 39.6992 292.508 39.7734 292.414 39.8672C292.32 39.9609 292.246 40.0723 292.191 40.2012C292.137 40.3262 292.109 40.4609 292.109 40.6055V41.4961H294.676V40.6055ZM303.172 45V40.6055C303.172 40.4609 303.145 40.3262 303.09 40.2012C303.035 40.0723 302.961 39.9609 302.867 39.8672C302.773 39.7734 302.662 39.6992 302.533 39.6445C302.408 39.5898 302.273 39.5625 302.129 39.5625H301.771C301.627 39.5625 301.49 39.5898 301.361 39.6445C301.236 39.6992 301.125 39.7734 301.027 39.8672C300.934 39.9609 300.859 40.0723 300.805 40.2012C300.75 40.3262 300.723 40.4609 300.723 40.6055V45H300.008V40.6055C300.008 40.4609 299.98 40.3262 299.926 40.2012C299.871 40.0723 299.795 39.9609 299.697 39.8672C299.604 39.7734 299.492 39.6992 299.363 39.6445C299.238 39.5898 299.104 39.5625 298.959 39.5625H298.602C298.457 39.5625 298.32 39.5898 298.191 39.6445C298.066 39.6992 297.957 39.7734 297.863 39.8672C297.77 39.9609 297.695 40.0723 297.641 40.2012C297.586 40.3262 297.559 40.4609 297.559 40.6055V45H296.838V39H297.078L297.471 39.6094C297.635 39.3867 297.84 39.2109 298.086 39.082C298.336 38.9492 298.607 38.8828 298.9 38.8828H298.959C299.299 38.8828 299.605 38.9668 299.879 39.1348C300.152 39.3027 300.363 39.5254 300.512 39.8027C300.586 39.666 300.678 39.541 300.787 39.4277C300.896 39.3145 301.018 39.2188 301.15 39.1406C301.283 39.0586 301.428 38.9961 301.584 38.9531C301.74 38.9062 301.902 38.8828 302.07 38.8828H302.129C302.371 38.8828 302.6 38.9297 302.814 39.0234C303.029 39.1133 303.217 39.2383 303.377 39.3984C303.537 39.5586 303.662 39.7461 303.752 39.9609C303.846 40.1758 303.893 40.4043 303.893 40.6465V45H303.172ZM305.516 37.5586V36.5977H306.354V37.5586H305.516ZM305.574 45V39H306.295V45H305.574ZM312.107 43.4766C312.107 43.7188 312.059 43.9414 311.961 44.1445C311.863 44.3438 311.73 44.5156 311.562 44.6602C311.395 44.8047 311.199 44.918 310.977 45C310.758 45.0781 310.527 45.1172 310.285 45.1172H309.805C309.562 45.1172 309.33 45.0723 309.107 44.9824C308.889 44.8887 308.695 44.7617 308.527 44.6016C308.363 44.4414 308.23 44.2539 308.129 44.0391C308.031 43.8242 307.982 43.5957 307.982 43.3535V43.1133L308.703 42.9961V43.3945C308.703 43.5391 308.732 43.6758 308.791 43.8047C308.854 43.9297 308.936 44.0391 309.037 44.1328C309.139 44.2266 309.256 44.3008 309.389 44.3555C309.521 44.4102 309.66 44.4375 309.805 44.4375H310.285C310.43 44.4375 310.568 44.416 310.701 44.373C310.834 44.3301 310.951 44.2695 311.053 44.1914C311.158 44.1094 311.24 44.0117 311.299 43.8984C311.361 43.7852 311.393 43.6562 311.393 43.5117C311.393 43.2969 311.346 43.1211 311.252 42.9844C311.158 42.8477 311.033 42.7344 310.877 42.6445C310.725 42.5508 310.549 42.4746 310.35 42.416C310.154 42.3535 309.953 42.293 309.746 42.2344C309.539 42.1719 309.336 42.1016 309.137 42.0234C308.941 41.9453 308.766 41.8438 308.609 41.7188C308.457 41.5898 308.334 41.4297 308.24 41.2383C308.146 41.0469 308.1 40.8086 308.1 40.5234C308.1 40.2812 308.146 40.0605 308.24 39.8613C308.334 39.6582 308.461 39.4844 308.621 39.3398C308.781 39.1953 308.967 39.084 309.178 39.0059C309.393 38.9238 309.621 38.8828 309.863 38.8828H310.285C310.527 38.8828 310.756 38.9297 310.971 39.0234C311.186 39.1133 311.373 39.2383 311.533 39.3984C311.693 39.5586 311.818 39.7461 311.908 39.9609C312.002 40.1758 312.049 40.4043 312.049 40.6465V40.6699L311.328 40.7871V40.6055C311.328 40.4609 311.301 40.3262 311.246 40.2012C311.191 40.0723 311.117 39.9609 311.023 39.8672C310.93 39.7734 310.818 39.6992 310.689 39.6445C310.564 39.5898 310.43 39.5625 310.285 39.5625H309.863C309.719 39.5625 309.582 39.584 309.453 39.627C309.328 39.6699 309.219 39.7324 309.125 39.8145C309.031 39.8926 308.957 39.9883 308.902 40.1016C308.848 40.2148 308.82 40.3438 308.82 40.4883C308.82 40.6953 308.867 40.8652 308.961 40.998C309.055 41.127 309.178 41.2363 309.33 41.3262C309.486 41.416 309.662 41.4922 309.857 41.5547C310.057 41.6133 310.258 41.6758 310.461 41.7422C310.668 41.8047 310.869 41.877 311.064 41.959C311.264 42.041 311.439 42.1465 311.592 42.2754C311.748 42.4043 311.873 42.5664 311.967 42.7617C312.061 42.9531 312.107 43.1914 312.107 43.4766ZM317.615 43.4766C317.615 43.7188 317.566 43.9414 317.469 44.1445C317.371 44.3438 317.238 44.5156 317.07 44.6602C316.902 44.8047 316.707 44.918 316.484 45C316.266 45.0781 316.035 45.1172 315.793 45.1172H315.312C315.07 45.1172 314.838 45.0723 314.615 44.9824C314.396 44.8887 314.203 44.7617 314.035 44.6016C313.871 44.4414 313.738 44.2539 313.637 44.0391C313.539 43.8242 313.49 43.5957 313.49 43.3535V43.1133L314.211 42.9961V43.3945C314.211 43.5391 314.24 43.6758 314.299 43.8047C314.361 43.9297 314.443 44.0391 314.545 44.1328C314.646 44.2266 314.764 44.3008 314.896 44.3555C315.029 44.4102 315.168 44.4375 315.312 44.4375H315.793C315.938 44.4375 316.076 44.416 316.209 44.373C316.342 44.3301 316.459 44.2695 316.561 44.1914C316.666 44.1094 316.748 44.0117 316.807 43.8984C316.869 43.7852 316.9 43.6562 316.9 43.5117C316.9 43.2969 316.854 43.1211 316.76 42.9844C316.666 42.8477 316.541 42.7344 316.385 42.6445C316.232 42.5508 316.057 42.4746 315.857 42.416C315.662 42.3535 315.461 42.293 315.254 42.2344C315.047 42.1719 314.844 42.1016 314.645 42.0234C314.449 41.9453 314.273 41.8438 314.117 41.7188C313.965 41.5898 313.842 41.4297 313.748 41.2383C313.654 41.0469 313.607 40.8086 313.607 40.5234C313.607 40.2812 313.654 40.0605 313.748 39.8613C313.842 39.6582 313.969 39.4844 314.129 39.3398C314.289 39.1953 314.475 39.084 314.686 39.0059C314.9 38.9238 315.129 38.8828 315.371 38.8828H315.793C316.035 38.8828 316.264 38.9297 316.479 39.0234C316.693 39.1133 316.881 39.2383 317.041 39.3984C317.201 39.5586 317.326 39.7461 317.416 39.9609C317.51 40.1758 317.557 40.4043 317.557 40.6465V40.6699L316.836 40.7871V40.6055C316.836 40.4609 316.809 40.3262 316.754 40.2012C316.699 40.0723 316.625 39.9609 316.531 39.8672C316.438 39.7734 316.326 39.6992 316.197 39.6445C316.072 39.5898 315.938 39.5625 315.793 39.5625H315.371C315.227 39.5625 315.09 39.584 314.961 39.627C314.836 39.6699 314.727 39.7324 314.633 39.8145C314.539 39.8926 314.465 39.9883 314.41 40.1016C314.355 40.2148 314.328 40.3438 314.328 40.4883C314.328 40.6953 314.375 40.8652 314.469 40.998C314.562 41.127 314.686 41.2363 314.838 41.3262C314.994 41.416 315.17 41.4922 315.365 41.5547C315.564 41.6133 315.766 41.6758 315.969 41.7422C316.176 41.8047 316.377 41.877 316.572 41.959C316.771 42.041 316.947 42.1465 317.1 42.2754C317.256 42.4043 317.381 42.5664 317.475 42.7617C317.568 42.9531 317.615 43.1914 317.615 43.4766ZM319.18 37.5586V36.5977H320.018V37.5586H319.18ZM319.238 45V39H319.959V45H319.238ZM325.654 43.3535C325.654 43.5957 325.607 43.8242 325.514 44.0391C325.424 44.2539 325.299 44.4414 325.139 44.6016C324.979 44.7617 324.791 44.8887 324.576 44.9824C324.361 45.0723 324.133 45.1172 323.891 45.1172H323.41C323.168 45.1172 322.939 45.0723 322.725 44.9824C322.51 44.8887 322.322 44.7617 322.162 44.6016C322.002 44.4414 321.875 44.2539 321.781 44.0391C321.691 43.8242 321.646 43.5957 321.646 43.3535V40.6465C321.646 40.4043 321.691 40.1758 321.781 39.9609C321.875 39.7461 322.002 39.5586 322.162 39.3984C322.322 39.2383 322.51 39.1133 322.725 39.0234C322.939 38.9297 323.168 38.8828 323.41 38.8828H323.891C324.133 38.8828 324.361 38.9297 324.576 39.0234C324.791 39.1133 324.979 39.2383 325.139 39.3984C325.299 39.5586 325.424 39.7461 325.514 39.9609C325.607 40.1758 325.654 40.4043 325.654 40.6465V43.3535ZM324.934 40.6055C324.934 40.4609 324.906 40.3262 324.852 40.2012C324.797 40.0723 324.723 39.9609 324.629 39.8672C324.535 39.7734 324.424 39.6992 324.295 39.6445C324.17 39.5898 324.035 39.5625 323.891 39.5625H323.41C323.266 39.5625 323.129 39.5898 323 39.6445C322.875 39.6992 322.766 39.7734 322.672 39.8672C322.578 39.9609 322.504 40.0723 322.449 40.2012C322.395 40.3262 322.367 40.4609 322.367 40.6055V43.3945C322.367 43.5391 322.395 43.6758 322.449 43.8047C322.504 43.9297 322.578 44.0391 322.672 44.1328C322.766 44.2266 322.875 44.3008 323 44.3555C323.129 44.4102 323.266 44.4375 323.41 44.4375H323.891C324.035 44.4375 324.17 44.4102 324.295 44.3555C324.424 44.3008 324.535 44.2266 324.629 44.1328C324.723 44.0391 324.797 43.9297 324.852 43.8047C324.906 43.6758 324.934 43.5391 324.934 43.3945V40.6055ZM330.383 45V40.6055C330.383 40.4609 330.355 40.3262 330.301 40.2012C330.246 40.0723 330.172 39.9609 330.078 39.8672C329.984 39.7734 329.873 39.6992 329.744 39.6445C329.619 39.5898 329.484 39.5625 329.34 39.5625H328.859C328.715 39.5625 328.578 39.5898 328.449 39.6445C328.324 39.6992 328.215 39.7734 328.121 39.8672C328.027 39.9609 327.953 40.0723 327.898 40.2012C327.844 40.3262 327.816 40.4609 327.816 40.6055V45H327.096V39H327.336L327.729 39.6094C327.893 39.3867 328.098 39.2109 328.344 39.082C328.594 38.9492 328.865 38.8828 329.158 38.8828H329.34C329.582 38.8828 329.811 38.9297 330.025 39.0234C330.24 39.1133 330.428 39.2383 330.588 39.3984C330.748 39.5586 330.873 39.7461 330.963 39.9609C331.057 40.1758 331.104 40.4043 331.104 40.6465V45H330.383ZM336.67 43.4766C336.67 43.7188 336.621 43.9414 336.523 44.1445C336.426 44.3438 336.293 44.5156 336.125 44.6602C335.957 44.8047 335.762 44.918 335.539 45C335.32 45.0781 335.09 45.1172 334.848 45.1172H334.367C334.125 45.1172 333.893 45.0723 333.67 44.9824C333.451 44.8887 333.258 44.7617 333.09 44.6016C332.926 44.4414 332.793 44.2539 332.691 44.0391C332.594 43.8242 332.545 43.5957 332.545 43.3535V43.1133L333.266 42.9961V43.3945C333.266 43.5391 333.295 43.6758 333.354 43.8047C333.416 43.9297 333.498 44.0391 333.6 44.1328C333.701 44.2266 333.818 44.3008 333.951 44.3555C334.084 44.4102 334.223 44.4375 334.367 44.4375H334.848C334.992 44.4375 335.131 44.416 335.264 44.373C335.396 44.3301 335.514 44.2695 335.615 44.1914C335.721 44.1094 335.803 44.0117 335.861 43.8984C335.924 43.7852 335.955 43.6562 335.955 43.5117C335.955 43.2969 335.908 43.1211 335.814 42.9844C335.721 42.8477 335.596 42.7344 335.439 42.6445C335.287 42.5508 335.111 42.4746 334.912 42.416C334.717 42.3535 334.516 42.293 334.309 42.2344C334.102 42.1719 333.898 42.1016 333.699 42.0234C333.504 41.9453 333.328 41.8438 333.172 41.7188C333.02 41.5898 332.896 41.4297 332.803 41.2383C332.709 41.0469 332.662 40.8086 332.662 40.5234C332.662 40.2812 332.709 40.0605 332.803 39.8613C332.896 39.6582 333.023 39.4844 333.184 39.3398C333.344 39.1953 333.529 39.084 333.74 39.0059C333.955 38.9238 334.184 38.8828 334.426 38.8828H334.848C335.09 38.8828 335.318 38.9297 335.533 39.0234C335.748 39.1133 335.936 39.2383 336.096 39.3984C336.256 39.5586 336.381 39.7461 336.471 39.9609C336.564 40.1758 336.611 40.4043 336.611 40.6465V40.6699L335.891 40.7871V40.6055C335.891 40.4609 335.863 40.3262 335.809 40.2012C335.754 40.0723 335.68 39.9609 335.586 39.8672C335.492 39.7734 335.381 39.6992 335.252 39.6445C335.127 39.5898 334.992 39.5625 334.848 39.5625H334.426C334.281 39.5625 334.145 39.584 334.016 39.627C333.891 39.6699 333.781 39.7324 333.688 39.8145C333.594 39.8926 333.52 39.9883 333.465 40.1016C333.41 40.2148 333.383 40.3438 333.383 40.4883C333.383 40.6953 333.43 40.8652 333.523 40.998C333.617 41.127 333.74 41.2363 333.893 41.3262C334.049 41.416 334.225 41.4922 334.42 41.5547C334.619 41.6133 334.82 41.6758 335.023 41.7422C335.23 41.8047 335.432 41.877 335.627 41.959C335.826 42.041 336.002 42.1465 336.154 42.2754C336.311 42.4043 336.436 42.5664 336.529 42.7617C336.623 42.9531 336.67 43.1914 336.67 43.4766Z" fill="#2A2C35"/>
</svg>
