<svg width="21" height="20" viewBox="0 0 21 20" fill="none" xmlns="http://www.w3.org/2000/svg">
<g id="logos:google-icon" clip-path="url(#clip0_408_418)">
<path id="Vector" d="M20.4905 10.1873C20.4905 9.36792 20.4224 8.76998 20.2752 8.1499H10.6992V11.8482H16.3201C16.2068 12.7673 15.5948 14.1514 14.2349 15.0815L14.2159 15.2053L17.2436 17.4972L17.4534 17.5176C19.3798 15.7791 20.4905 13.2213 20.4905 10.1873Z" fill="#4285F4"/>
<path id="Vector_2" d="M10.6992 19.9312C13.453 19.9312 15.7648 19.0453 17.4534 17.5173L14.2349 15.0812C13.3737 15.6681 12.2177 16.0777 10.6992 16.0777C8.00211 16.0777 5.71297 14.3393 4.89695 11.9365L4.77734 11.9464L1.62906 14.3271L1.58789 14.439C3.26508 17.6944 6.71016 19.9312 10.6992 19.9312Z" fill="#34A853"/>
<path id="Vector_3" d="M4.89695 11.9368C4.68164 11.3167 4.55703 10.6523 4.55703 9.96583C4.55703 9.27927 4.68164 8.61492 4.88562 7.99484L4.87992 7.86278L1.69219 5.44385L1.58789 5.49232C0.896641 6.84324 0.5 8.36026 0.5 9.96583C0.5 11.5714 0.896641 13.0884 1.58789 14.4393L4.89695 11.9368Z" fill="#FBBC05"/>
<path id="Vector_4" d="M10.6992 3.85336C12.6144 3.85336 13.9062 4.66168 14.6429 5.33718L17.5213 2.59107C15.7535 0.985496 13.453 0 10.6992 0C6.71016 0 3.26508 2.23672 1.58789 5.49214L4.88563 7.99466C5.71297 5.59183 8.00211 3.85336 10.6992 3.85336Z" fill="#EB4335"/>
</g>
<defs>
<clipPath id="clip0_408_418">
<rect width="20" height="20" fill="white" transform="translate(0.5)"/>
</clipPath>
</defs>
</svg>
