<svg width="438" height="343" viewBox="0 0 438 343" fill="none" xmlns="http://www.w3.org/2000/svg">
<ellipse cx="313.5" cy="211" rx="35.5" ry="36" fill="#C3CCC0"/>
<path d="M287.539 265L284.5 260.219H283.117V265H282.109V253.797H285.664C286.044 253.797 286.401 253.87 286.734 254.016C287.068 254.156 287.359 254.352 287.609 254.602C287.859 254.852 288.055 255.146 288.195 255.484C288.341 255.818 288.414 256.174 288.414 256.555V257.461C288.414 257.841 288.341 258.201 288.195 258.539C288.055 258.872 287.859 259.164 287.609 259.414C287.359 259.664 287.068 259.862 286.734 260.008C286.401 260.148 286.044 260.219 285.664 260.219L288.703 265H287.539ZM287.406 256.555C287.406 256.305 287.359 256.073 287.266 255.859C287.172 255.641 287.044 255.451 286.883 255.289C286.721 255.122 286.531 254.992 286.312 254.898C286.099 254.805 285.867 254.758 285.617 254.758H283.117V259.258H285.617C285.867 259.258 286.099 259.211 286.312 259.117C286.531 259.023 286.721 258.896 286.883 258.734C287.044 258.568 287.172 258.378 287.266 258.164C287.359 257.945 287.406 257.711 287.406 257.461V256.555ZM295.656 262.805C295.656 263.128 295.594 263.432 295.469 263.719C295.349 264.005 295.182 264.255 294.969 264.469C294.755 264.682 294.505 264.852 294.219 264.977C293.932 265.096 293.628 265.156 293.305 265.156H292.664C292.341 265.156 292.036 265.096 291.75 264.977C291.464 264.852 291.214 264.682 291 264.469C290.786 264.255 290.617 264.005 290.492 263.719C290.372 263.432 290.312 263.128 290.312 262.805V259.195C290.312 258.872 290.372 258.568 290.492 258.281C290.617 257.995 290.786 257.745 291 257.531C291.214 257.318 291.464 257.151 291.75 257.031C292.036 256.906 292.341 256.844 292.664 256.844H293.305C293.628 256.844 293.932 256.906 294.219 257.031C294.505 257.151 294.755 257.318 294.969 257.531C295.182 257.745 295.349 257.995 295.469 258.281C295.594 258.568 295.656 258.872 295.656 259.195V261.078H291.273V262.859C291.273 263.052 291.31 263.234 291.383 263.406C291.456 263.573 291.555 263.719 291.68 263.844C291.805 263.969 291.951 264.068 292.117 264.141C292.289 264.214 292.471 264.25 292.664 264.25H293.305C293.497 264.25 293.677 264.214 293.844 264.141C294.016 264.068 294.164 263.969 294.289 263.844C294.414 263.719 294.513 263.573 294.586 263.406C294.659 263.234 294.695 263.052 294.695 262.859V262.328L295.656 262.484V262.805ZM294.695 259.141C294.695 258.948 294.659 258.768 294.586 258.602C294.513 258.43 294.414 258.281 294.289 258.156C294.164 258.031 294.016 257.932 293.844 257.859C293.677 257.786 293.497 257.75 293.305 257.75H292.664C292.471 257.75 292.289 257.786 292.117 257.859C291.951 257.932 291.805 258.031 291.68 258.156C291.555 258.281 291.456 258.43 291.383 258.602C291.31 258.768 291.273 258.948 291.273 259.141V260.328H294.695V259.141ZM302.922 262.805C302.922 263.128 302.859 263.432 302.734 263.719C302.615 264.005 302.448 264.255 302.234 264.469C302.021 264.682 301.771 264.852 301.484 264.977C301.198 265.096 300.893 265.156 300.57 265.156H299.93C299.607 265.156 299.302 265.096 299.016 264.977C298.729 264.852 298.479 264.682 298.266 264.469C298.052 264.255 297.883 264.005 297.758 263.719C297.638 263.432 297.578 263.128 297.578 262.805V259.195C297.578 258.872 297.638 258.568 297.758 258.281C297.883 257.995 298.052 257.745 298.266 257.531C298.479 257.318 298.729 257.151 299.016 257.031C299.302 256.906 299.607 256.844 299.93 256.844H300.57C300.893 256.844 301.198 256.906 301.484 257.031C301.771 257.151 302.021 257.318 302.234 257.531C302.448 257.745 302.615 257.995 302.734 258.281C302.859 258.568 302.922 258.872 302.922 259.195V259.516L301.961 259.672V259.141C301.961 258.948 301.924 258.768 301.852 258.602C301.779 258.43 301.68 258.281 301.555 258.156C301.43 258.031 301.281 257.932 301.109 257.859C300.943 257.786 300.763 257.75 300.57 257.75H299.93C299.737 257.75 299.555 257.786 299.383 257.859C299.216 257.932 299.07 258.031 298.945 258.156C298.82 258.281 298.721 258.43 298.648 258.602C298.576 258.768 298.539 258.948 298.539 259.141V262.859C298.539 263.052 298.576 263.234 298.648 263.406C298.721 263.573 298.82 263.719 298.945 263.844C299.07 263.969 299.216 264.068 299.383 264.141C299.555 264.214 299.737 264.25 299.93 264.25H300.57C300.763 264.25 300.943 264.214 301.109 264.141C301.281 264.068 301.43 263.969 301.555 263.844C301.68 263.719 301.779 263.573 301.852 263.406C301.924 263.234 301.961 263.052 301.961 262.859V262.328L302.922 262.484V262.805ZM306.141 268.203H305.211L306.633 264.312L304.039 257H305L307.086 263.062L307.117 263.477L307.148 263.062L309.227 257H310.188L306.141 268.203ZM316.5 262.805C316.5 263.128 316.438 263.432 316.312 263.719C316.193 264.005 316.026 264.255 315.812 264.469C315.599 264.682 315.349 264.852 315.062 264.977C314.776 265.096 314.471 265.156 314.148 265.156H313.508C313.185 265.156 312.88 265.096 312.594 264.977C312.307 264.852 312.057 264.682 311.844 264.469C311.63 264.255 311.461 264.005 311.336 263.719C311.216 263.432 311.156 263.128 311.156 262.805V259.195C311.156 258.872 311.216 258.568 311.336 258.281C311.461 257.995 311.63 257.745 311.844 257.531C312.057 257.318 312.307 257.151 312.594 257.031C312.88 256.906 313.185 256.844 313.508 256.844H314.148C314.471 256.844 314.776 256.906 315.062 257.031C315.349 257.151 315.599 257.318 315.812 257.531C316.026 257.745 316.193 257.995 316.312 258.281C316.438 258.568 316.5 258.872 316.5 259.195V259.516L315.539 259.672V259.141C315.539 258.948 315.503 258.768 315.43 258.602C315.357 258.43 315.258 258.281 315.133 258.156C315.008 258.031 314.859 257.932 314.688 257.859C314.521 257.786 314.341 257.75 314.148 257.75H313.508C313.315 257.75 313.133 257.786 312.961 257.859C312.794 257.932 312.648 258.031 312.523 258.156C312.398 258.281 312.299 258.43 312.227 258.602C312.154 258.768 312.117 258.948 312.117 259.141V262.859C312.117 263.052 312.154 263.234 312.227 263.406C312.299 263.573 312.398 263.719 312.523 263.844C312.648 263.969 312.794 264.068 312.961 264.141C313.133 264.214 313.315 264.25 313.508 264.25H314.148C314.341 264.25 314.521 264.214 314.688 264.141C314.859 264.068 315.008 263.969 315.133 263.844C315.258 263.719 315.357 263.573 315.43 263.406C315.503 263.234 315.539 263.052 315.539 262.859V262.328L316.5 262.484V262.805ZM318.586 265V253.797H319.547V265H318.586ZM326.82 265L326.289 264.203C326.07 264.49 325.797 264.721 325.469 264.898C325.141 265.07 324.781 265.156 324.391 265.156H324.148C323.826 265.156 323.521 265.096 323.234 264.977C322.948 264.852 322.698 264.682 322.484 264.469C322.271 264.255 322.102 264.005 321.977 263.719C321.857 263.432 321.797 263.128 321.797 262.805V262.727C321.797 262.404 321.857 262.099 321.977 261.812C322.102 261.526 322.271 261.276 322.484 261.062C322.698 260.849 322.948 260.682 323.234 260.562C323.521 260.438 323.826 260.375 324.148 260.375H326.18V259.141C326.18 258.948 326.143 258.768 326.07 258.602C325.997 258.43 325.898 258.281 325.773 258.156C325.648 258.031 325.5 257.932 325.328 257.859C325.161 257.786 324.982 257.75 324.789 257.75H324.227C324.034 257.75 323.852 257.786 323.68 257.859C323.513 257.932 323.367 258.031 323.242 258.156C323.117 258.281 323.018 258.43 322.945 258.602C322.872 258.768 322.836 258.948 322.836 259.141V259.43L321.875 259.273V259.195C321.875 258.872 321.935 258.568 322.055 258.281C322.18 257.995 322.349 257.745 322.562 257.531C322.776 257.318 323.026 257.151 323.312 257.031C323.599 256.906 323.904 256.844 324.227 256.844H324.789C325.112 256.844 325.417 256.906 325.703 257.031C325.99 257.151 326.24 257.318 326.453 257.531C326.667 257.745 326.833 257.995 326.953 258.281C327.078 258.568 327.141 258.872 327.141 259.195V265H326.82ZM326.18 261.125H324.148C323.956 261.125 323.773 261.161 323.602 261.234C323.435 261.307 323.289 261.409 323.164 261.539C323.039 261.664 322.94 261.812 322.867 261.984C322.794 262.151 322.758 262.331 322.758 262.523V262.859C322.758 263.052 322.794 263.234 322.867 263.406C322.94 263.573 323.039 263.719 323.164 263.844C323.289 263.969 323.435 264.068 323.602 264.141C323.773 264.214 323.956 264.25 324.148 264.25H324.789C324.982 264.25 325.161 264.214 325.328 264.141C325.5 264.068 325.648 263.969 325.773 263.844C325.898 263.719 325.997 263.573 326.07 263.406C326.143 263.234 326.18 263.052 326.18 262.859V261.125ZM334.406 262.805C334.406 263.128 334.344 263.432 334.219 263.719C334.099 264.005 333.932 264.255 333.719 264.469C333.505 264.682 333.255 264.852 332.969 264.977C332.682 265.096 332.378 265.156 332.055 265.156H331.414C331.091 265.156 330.786 265.096 330.5 264.977C330.214 264.852 329.964 264.682 329.75 264.469C329.536 264.255 329.367 264.005 329.242 263.719C329.122 263.432 329.062 263.128 329.062 262.805V253.797H330.023V257.672C330.242 257.411 330.505 257.208 330.812 257.062C331.12 256.917 331.453 256.844 331.812 256.844H332.055C332.378 256.844 332.682 256.906 332.969 257.031C333.255 257.151 333.505 257.318 333.719 257.531C333.932 257.745 334.099 257.995 334.219 258.281C334.344 258.568 334.406 258.872 334.406 259.195V262.805ZM333.445 259.141C333.445 258.948 333.409 258.768 333.336 258.602C333.263 258.43 333.164 258.281 333.039 258.156C332.914 258.031 332.766 257.932 332.594 257.859C332.427 257.786 332.247 257.75 332.055 257.75H331.414C331.221 257.75 331.039 257.786 330.867 257.859C330.701 257.932 330.555 258.031 330.43 258.156C330.305 258.281 330.206 258.43 330.133 258.602C330.06 258.768 330.023 258.948 330.023 259.141V262.859C330.023 263.052 330.06 263.234 330.133 263.406C330.206 263.573 330.305 263.719 330.43 263.844C330.555 263.969 330.701 264.068 330.867 264.141C331.039 264.214 331.221 264.25 331.414 264.25H332.055C332.247 264.25 332.427 264.214 332.594 264.141C332.766 264.068 332.914 263.969 333.039 263.844C333.164 263.719 333.263 263.573 333.336 263.406C333.409 263.234 333.445 263.052 333.445 262.859V259.141ZM336.492 265V253.797H337.453V265H336.492ZM345.047 262.805C345.047 263.128 344.984 263.432 344.859 263.719C344.74 264.005 344.573 264.255 344.359 264.469C344.146 264.682 343.896 264.852 343.609 264.977C343.323 265.096 343.018 265.156 342.695 265.156H342.055C341.732 265.156 341.427 265.096 341.141 264.977C340.854 264.852 340.604 264.682 340.391 264.469C340.177 264.255 340.008 264.005 339.883 263.719C339.763 263.432 339.703 263.128 339.703 262.805V259.195C339.703 258.872 339.763 258.568 339.883 258.281C340.008 257.995 340.177 257.745 340.391 257.531C340.604 257.318 340.854 257.151 341.141 257.031C341.427 256.906 341.732 256.844 342.055 256.844H342.695C343.018 256.844 343.323 256.906 343.609 257.031C343.896 257.151 344.146 257.318 344.359 257.531C344.573 257.745 344.74 257.995 344.859 258.281C344.984 258.568 345.047 258.872 345.047 259.195V261.078H340.664V262.859C340.664 263.052 340.701 263.234 340.773 263.406C340.846 263.573 340.945 263.719 341.07 263.844C341.195 263.969 341.341 264.068 341.508 264.141C341.68 264.214 341.862 264.25 342.055 264.25H342.695C342.888 264.25 343.068 264.214 343.234 264.141C343.406 264.068 343.555 263.969 343.68 263.844C343.805 263.719 343.904 263.573 343.977 263.406C344.049 263.234 344.086 263.052 344.086 262.859V262.328L345.047 262.484V262.805ZM344.086 259.141C344.086 258.948 344.049 258.768 343.977 258.602C343.904 258.43 343.805 258.281 343.68 258.156C343.555 258.031 343.406 257.932 343.234 257.859C343.068 257.786 342.888 257.75 342.695 257.75H342.055C341.862 257.75 341.68 257.786 341.508 257.859C341.341 257.932 341.195 258.031 341.07 258.156C340.945 258.281 340.846 258.43 340.773 258.602C340.701 258.768 340.664 258.948 340.664 259.141V260.328H344.086V259.141Z" fill="#2A2C35"/>
<path d="M307.428 226.967C307.428 227.394 307.255 227.803 306.946 228.105C306.638 228.406 306.22 228.576 305.785 228.576H295.926C295.061 228.575 294.212 228.352 293.463 227.928C292.714 227.504 292.092 226.895 291.66 226.162C291.227 225.429 291 224.597 291 223.75C291 222.904 291.228 222.072 291.66 221.339L298.703 209.429L295.817 210.183C295.608 210.237 295.39 210.251 295.176 210.223C294.961 210.195 294.755 210.127 294.567 210.021C294.189 209.806 293.913 209.454 293.8 209.041C293.688 208.628 293.747 208.188 293.966 207.817C294.185 207.447 294.545 207.177 294.967 207.067L301.698 205.304C301.906 205.249 302.123 205.235 302.337 205.263C302.551 205.29 302.758 205.359 302.945 205.465C303.132 205.57 303.295 205.711 303.427 205.879C303.558 206.046 303.654 206.238 303.71 206.442L305.516 213.029C305.573 213.234 305.588 213.448 305.56 213.659C305.532 213.869 305.461 214.073 305.353 214.256C305.244 214.44 305.099 214.601 304.927 214.73C304.754 214.859 304.557 214.953 304.347 215.007C304.207 215.042 304.064 215.061 303.92 215.061C303.558 215.061 303.207 214.944 302.92 214.728C302.634 214.513 302.428 214.211 302.334 213.869L301.554 211.025L294.511 222.947C294.367 223.191 294.291 223.468 294.291 223.749C294.291 224.031 294.366 224.308 294.509 224.552C294.652 224.796 294.859 224.999 295.107 225.141C295.356 225.283 295.638 225.358 295.926 225.359H305.785C306.22 225.359 306.638 225.529 306.946 225.83C307.255 226.132 307.428 226.541 307.428 226.967ZM336.331 221.339L331.579 213.298C331.351 212.948 330.995 212.698 330.583 212.599C330.171 212.5 329.737 212.561 329.37 212.769C329.003 212.976 328.732 213.315 328.614 213.713C328.496 214.111 328.54 214.539 328.736 214.906L333.489 222.947C333.633 223.191 333.709 223.468 333.709 223.749C333.709 224.031 333.634 224.308 333.491 224.552C333.348 224.796 333.141 224.999 332.893 225.141C332.644 225.283 332.362 225.358 332.074 225.359H317.966L320.09 223.281C320.398 222.979 320.571 222.57 320.571 222.144C320.572 221.717 320.399 221.308 320.091 221.006C319.783 220.705 319.365 220.535 318.929 220.535C318.493 220.535 318.075 220.704 317.767 221.005L312.838 225.83C312.685 225.979 312.564 226.156 312.481 226.352C312.398 226.547 312.356 226.756 312.356 226.967C312.356 227.179 312.398 227.388 312.481 227.583C312.564 227.778 312.685 227.956 312.838 228.105L317.767 232.93C317.919 233.079 318.101 233.197 318.3 233.278C318.499 233.359 318.713 233.4 318.929 233.4C319.145 233.4 319.358 233.358 319.558 233.277C319.757 233.197 319.938 233.078 320.091 232.929C320.243 232.779 320.364 232.602 320.447 232.407C320.529 232.211 320.572 232.002 320.571 231.791C320.571 231.58 320.529 231.371 320.446 231.176C320.363 230.981 320.242 230.803 320.09 230.654L317.966 228.576H332.074C332.939 228.575 333.788 228.352 334.537 227.928C335.286 227.504 335.908 226.895 336.34 226.162C336.773 225.429 337 224.597 337 223.75C337 222.904 336.772 222.072 336.34 221.339H336.331ZM314 191.589C314.289 191.586 314.573 191.659 314.823 191.8C315.073 191.942 315.28 192.146 315.421 192.393L322.464 204.303L319.572 203.543C319.156 203.448 318.719 203.514 318.353 203.729C317.986 203.944 317.72 204.29 317.609 204.693C317.499 205.097 317.554 205.527 317.762 205.892C317.97 206.257 318.315 206.528 318.724 206.649L325.456 208.416C325.595 208.451 325.738 208.47 325.881 208.47C326.243 208.47 326.594 208.353 326.881 208.137C327.167 207.922 327.374 207.62 327.467 207.278L329.272 200.687C329.334 200.481 329.354 200.265 329.329 200.052C329.304 199.839 329.237 199.632 329.129 199.445C329.022 199.258 328.878 199.094 328.705 198.962C328.532 198.831 328.333 198.734 328.122 198.679C327.91 198.623 327.689 198.61 327.472 198.639C327.255 198.668 327.046 198.74 326.857 198.849C326.669 198.959 326.505 199.104 326.374 199.277C326.244 199.449 326.151 199.646 326.099 199.854L325.319 202.703L318.266 190.785C317.833 190.053 317.211 189.445 316.462 189.022C315.713 188.6 314.864 188.377 314 188.377C313.136 188.377 312.287 188.6 311.538 189.022C310.789 189.445 310.167 190.053 309.734 190.785L304.977 198.825C304.773 199.194 304.724 199.625 304.84 200.029C304.956 200.432 305.229 200.775 305.6 200.985C305.97 201.195 306.41 201.254 306.825 201.151C307.241 201.048 307.598 200.791 307.822 200.433L312.579 192.393C312.72 192.146 312.927 191.942 313.177 191.8C313.427 191.659 313.711 191.586 314 191.589Z" fill="#2A2C35"/>
<path d="M117.844 265L114.805 260.219H113.422V265H112.414V253.797H115.969C116.349 253.797 116.706 253.87 117.039 254.016C117.372 254.156 117.664 254.352 117.914 254.602C118.164 254.852 118.359 255.146 118.5 255.484C118.646 255.818 118.719 256.174 118.719 256.555V257.461C118.719 257.841 118.646 258.201 118.5 258.539C118.359 258.872 118.164 259.164 117.914 259.414C117.664 259.664 117.372 259.862 117.039 260.008C116.706 260.148 116.349 260.219 115.969 260.219L119.008 265H117.844ZM117.711 256.555C117.711 256.305 117.664 256.073 117.57 255.859C117.477 255.641 117.349 255.451 117.188 255.289C117.026 255.122 116.836 254.992 116.617 254.898C116.404 254.805 116.172 254.758 115.922 254.758H113.422V259.258H115.922C116.172 259.258 116.404 259.211 116.617 259.117C116.836 259.023 117.026 258.896 117.188 258.734C117.349 258.568 117.477 258.378 117.57 258.164C117.664 257.945 117.711 257.711 117.711 257.461V256.555ZM125.961 262.805C125.961 263.128 125.898 263.432 125.773 263.719C125.654 264.005 125.487 264.255 125.273 264.469C125.06 264.682 124.81 264.852 124.523 264.977C124.237 265.096 123.932 265.156 123.609 265.156H122.969C122.646 265.156 122.341 265.096 122.055 264.977C121.768 264.852 121.518 264.682 121.305 264.469C121.091 264.255 120.922 264.005 120.797 263.719C120.677 263.432 120.617 263.128 120.617 262.805V259.195C120.617 258.872 120.677 258.568 120.797 258.281C120.922 257.995 121.091 257.745 121.305 257.531C121.518 257.318 121.768 257.151 122.055 257.031C122.341 256.906 122.646 256.844 122.969 256.844H123.609C123.932 256.844 124.237 256.906 124.523 257.031C124.81 257.151 125.06 257.318 125.273 257.531C125.487 257.745 125.654 257.995 125.773 258.281C125.898 258.568 125.961 258.872 125.961 259.195V261.078H121.578V262.859C121.578 263.052 121.615 263.234 121.688 263.406C121.76 263.573 121.859 263.719 121.984 263.844C122.109 263.969 122.255 264.068 122.422 264.141C122.594 264.214 122.776 264.25 122.969 264.25H123.609C123.802 264.25 123.982 264.214 124.148 264.141C124.32 264.068 124.469 263.969 124.594 263.844C124.719 263.719 124.818 263.573 124.891 263.406C124.964 263.234 125 263.052 125 262.859V262.328L125.961 262.484V262.805ZM125 259.141C125 258.948 124.964 258.768 124.891 258.602C124.818 258.43 124.719 258.281 124.594 258.156C124.469 258.031 124.32 257.932 124.148 257.859C123.982 257.786 123.802 257.75 123.609 257.75H122.969C122.776 257.75 122.594 257.786 122.422 257.859C122.255 257.932 122.109 258.031 121.984 258.156C121.859 258.281 121.76 258.43 121.688 258.602C121.615 258.768 121.578 258.948 121.578 259.141V260.328H125V259.141ZM132.906 265L132.375 264.188C132.156 264.484 131.883 264.721 131.555 264.898C131.227 265.07 130.867 265.156 130.477 265.156H130.234C129.911 265.156 129.607 265.096 129.32 264.977C129.034 264.852 128.784 264.682 128.57 264.469C128.357 264.255 128.188 264.005 128.062 263.719C127.943 263.432 127.883 263.128 127.883 262.805V257H128.844V262.859C128.844 263.052 128.88 263.234 128.953 263.406C129.026 263.573 129.125 263.719 129.25 263.844C129.375 263.969 129.521 264.068 129.688 264.141C129.859 264.214 130.042 264.25 130.234 264.25H130.875C131.068 264.25 131.247 264.214 131.414 264.141C131.586 264.068 131.734 263.969 131.859 263.844C131.984 263.719 132.083 263.573 132.156 263.406C132.229 263.234 132.266 263.052 132.266 262.859V257H133.227V265H132.906ZM140.648 262.969C140.648 263.292 140.583 263.589 140.453 263.859C140.323 264.125 140.146 264.354 139.922 264.547C139.698 264.74 139.438 264.891 139.141 265C138.849 265.104 138.542 265.156 138.219 265.156H137.578C137.255 265.156 136.945 265.096 136.648 264.977C136.357 264.852 136.099 264.682 135.875 264.469C135.656 264.255 135.479 264.005 135.344 263.719C135.214 263.432 135.148 263.128 135.148 262.805V262.484L136.109 262.328V262.859C136.109 263.052 136.148 263.234 136.227 263.406C136.31 263.573 136.419 263.719 136.555 263.844C136.69 263.969 136.846 264.068 137.023 264.141C137.201 264.214 137.385 264.25 137.578 264.25H138.219C138.411 264.25 138.596 264.221 138.773 264.164C138.951 264.107 139.107 264.026 139.242 263.922C139.383 263.812 139.492 263.682 139.57 263.531C139.654 263.38 139.695 263.208 139.695 263.016C139.695 262.729 139.633 262.495 139.508 262.312C139.383 262.13 139.216 261.979 139.008 261.859C138.805 261.734 138.57 261.633 138.305 261.555C138.044 261.471 137.776 261.391 137.5 261.312C137.224 261.229 136.953 261.135 136.688 261.031C136.427 260.927 136.193 260.792 135.984 260.625C135.781 260.453 135.617 260.24 135.492 259.984C135.367 259.729 135.305 259.411 135.305 259.031C135.305 258.708 135.367 258.414 135.492 258.148C135.617 257.878 135.786 257.646 136 257.453C136.214 257.26 136.461 257.112 136.742 257.008C137.029 256.898 137.333 256.844 137.656 256.844H138.219C138.542 256.844 138.846 256.906 139.133 257.031C139.419 257.151 139.669 257.318 139.883 257.531C140.096 257.745 140.263 257.995 140.383 258.281C140.508 258.568 140.57 258.872 140.57 259.195V259.227L139.609 259.383V259.141C139.609 258.948 139.573 258.768 139.5 258.602C139.427 258.43 139.328 258.281 139.203 258.156C139.078 258.031 138.93 257.932 138.758 257.859C138.591 257.786 138.411 257.75 138.219 257.75H137.656C137.464 257.75 137.281 257.779 137.109 257.836C136.943 257.893 136.797 257.977 136.672 258.086C136.547 258.19 136.448 258.318 136.375 258.469C136.302 258.62 136.266 258.792 136.266 258.984C136.266 259.26 136.328 259.487 136.453 259.664C136.578 259.836 136.742 259.982 136.945 260.102C137.154 260.221 137.388 260.323 137.648 260.406C137.914 260.484 138.182 260.568 138.453 260.656C138.729 260.74 138.997 260.836 139.258 260.945C139.523 261.055 139.758 261.195 139.961 261.367C140.169 261.539 140.336 261.755 140.461 262.016C140.586 262.271 140.648 262.589 140.648 262.969ZM147.516 265L146.984 264.203C146.766 264.49 146.492 264.721 146.164 264.898C145.836 265.07 145.477 265.156 145.086 265.156H144.844C144.521 265.156 144.216 265.096 143.93 264.977C143.643 264.852 143.393 264.682 143.18 264.469C142.966 264.255 142.797 264.005 142.672 263.719C142.552 263.432 142.492 263.128 142.492 262.805V262.727C142.492 262.404 142.552 262.099 142.672 261.812C142.797 261.526 142.966 261.276 143.18 261.062C143.393 260.849 143.643 260.682 143.93 260.562C144.216 260.438 144.521 260.375 144.844 260.375H146.875V259.141C146.875 258.948 146.839 258.768 146.766 258.602C146.693 258.43 146.594 258.281 146.469 258.156C146.344 258.031 146.195 257.932 146.023 257.859C145.857 257.786 145.677 257.75 145.484 257.75H144.922C144.729 257.75 144.547 257.786 144.375 257.859C144.208 257.932 144.062 258.031 143.938 258.156C143.812 258.281 143.714 258.43 143.641 258.602C143.568 258.768 143.531 258.948 143.531 259.141V259.43L142.57 259.273V259.195C142.57 258.872 142.63 258.568 142.75 258.281C142.875 257.995 143.044 257.745 143.258 257.531C143.471 257.318 143.721 257.151 144.008 257.031C144.294 256.906 144.599 256.844 144.922 256.844H145.484C145.807 256.844 146.112 256.906 146.398 257.031C146.685 257.151 146.935 257.318 147.148 257.531C147.362 257.745 147.529 257.995 147.648 258.281C147.773 258.568 147.836 258.872 147.836 259.195V265H147.516ZM146.875 261.125H144.844C144.651 261.125 144.469 261.161 144.297 261.234C144.13 261.307 143.984 261.409 143.859 261.539C143.734 261.664 143.635 261.812 143.562 261.984C143.49 262.151 143.453 262.331 143.453 262.523V262.859C143.453 263.052 143.49 263.234 143.562 263.406C143.635 263.573 143.734 263.719 143.859 263.844C143.984 263.969 144.13 264.068 144.297 264.141C144.469 264.214 144.651 264.25 144.844 264.25H145.484C145.677 264.25 145.857 264.214 146.023 264.141C146.195 264.068 146.344 263.969 146.469 263.844C146.594 263.719 146.693 263.573 146.766 263.406C146.839 263.234 146.875 263.052 146.875 262.859V261.125ZM155.102 262.805C155.102 263.128 155.039 263.432 154.914 263.719C154.794 264.005 154.628 264.255 154.414 264.469C154.201 264.682 153.951 264.852 153.664 264.977C153.378 265.096 153.073 265.156 152.75 265.156H152.109C151.786 265.156 151.482 265.096 151.195 264.977C150.909 264.852 150.659 264.682 150.445 264.469C150.232 264.255 150.062 264.005 149.938 263.719C149.818 263.432 149.758 263.128 149.758 262.805V253.797H150.719V257.672C150.938 257.411 151.201 257.208 151.508 257.062C151.815 256.917 152.148 256.844 152.508 256.844H152.75C153.073 256.844 153.378 256.906 153.664 257.031C153.951 257.151 154.201 257.318 154.414 257.531C154.628 257.745 154.794 257.995 154.914 258.281C155.039 258.568 155.102 258.872 155.102 259.195V262.805ZM154.141 259.141C154.141 258.948 154.104 258.768 154.031 258.602C153.958 258.43 153.859 258.281 153.734 258.156C153.609 258.031 153.461 257.932 153.289 257.859C153.122 257.786 152.943 257.75 152.75 257.75H152.109C151.917 257.75 151.734 257.786 151.562 257.859C151.396 257.932 151.25 258.031 151.125 258.156C151 258.281 150.901 258.43 150.828 258.602C150.755 258.768 150.719 258.948 150.719 259.141V262.859C150.719 263.052 150.755 263.234 150.828 263.406C150.901 263.573 151 263.719 151.125 263.844C151.25 263.969 151.396 264.068 151.562 264.141C151.734 264.214 151.917 264.25 152.109 264.25H152.75C152.943 264.25 153.122 264.214 153.289 264.141C153.461 264.068 153.609 263.969 153.734 263.844C153.859 263.719 153.958 263.573 154.031 263.406C154.104 263.234 154.141 263.052 154.141 262.859V259.141ZM157.188 265V253.797H158.148V265H157.188ZM165.742 262.805C165.742 263.128 165.68 263.432 165.555 263.719C165.435 264.005 165.268 264.255 165.055 264.469C164.841 264.682 164.591 264.852 164.305 264.977C164.018 265.096 163.714 265.156 163.391 265.156H162.75C162.427 265.156 162.122 265.096 161.836 264.977C161.549 264.852 161.299 264.682 161.086 264.469C160.872 264.255 160.703 264.005 160.578 263.719C160.458 263.432 160.398 263.128 160.398 262.805V259.195C160.398 258.872 160.458 258.568 160.578 258.281C160.703 257.995 160.872 257.745 161.086 257.531C161.299 257.318 161.549 257.151 161.836 257.031C162.122 256.906 162.427 256.844 162.75 256.844H163.391C163.714 256.844 164.018 256.906 164.305 257.031C164.591 257.151 164.841 257.318 165.055 257.531C165.268 257.745 165.435 257.995 165.555 258.281C165.68 258.568 165.742 258.872 165.742 259.195V261.078H161.359V262.859C161.359 263.052 161.396 263.234 161.469 263.406C161.542 263.573 161.641 263.719 161.766 263.844C161.891 263.969 162.036 264.068 162.203 264.141C162.375 264.214 162.557 264.25 162.75 264.25H163.391C163.583 264.25 163.763 264.214 163.93 264.141C164.102 264.068 164.25 263.969 164.375 263.844C164.5 263.719 164.599 263.573 164.672 263.406C164.745 263.234 164.781 263.052 164.781 262.859V262.328L165.742 262.484V262.805ZM164.781 259.141C164.781 258.948 164.745 258.768 164.672 258.602C164.599 258.43 164.5 258.281 164.375 258.156C164.25 258.031 164.102 257.932 163.93 257.859C163.763 257.786 163.583 257.75 163.391 257.75H162.75C162.557 257.75 162.375 257.786 162.203 257.859C162.036 257.932 161.891 258.031 161.766 258.156C161.641 258.281 161.542 258.43 161.469 258.602C161.396 258.768 161.359 258.948 161.359 259.141V260.328H164.781V259.141Z" fill="#2A2C35"/>
<circle cx="139" cy="212" r="36" fill="#C3CCC0"/>
<path d="M121 192.45H134.214M134.214 192.45V205.384M134.214 192.45C125.406 199.789 121 207.117 121 214.437C121 221.758 123.643 228.224 128.929 233.837M158 233.837H144.786M144.786 233.837V220.904M144.786 233.837C153.594 226.499 158 219.171 158 211.851C158 204.53 155.357 198.063 150.072 192.45" stroke="#2A2C35" stroke-width="4.28571" stroke-linecap="round" stroke-linejoin="round"/>
<path d="M195.773 137L192.734 132.219H191.352V137H190.344V125.797H193.898C194.279 125.797 194.635 125.87 194.969 126.016C195.302 126.156 195.594 126.352 195.844 126.602C196.094 126.852 196.289 127.146 196.43 127.484C196.576 127.818 196.648 128.174 196.648 128.555V129.461C196.648 129.841 196.576 130.201 196.43 130.539C196.289 130.872 196.094 131.164 195.844 131.414C195.594 131.664 195.302 131.862 194.969 132.008C194.635 132.148 194.279 132.219 193.898 132.219L196.938 137H195.773ZM195.641 128.555C195.641 128.305 195.594 128.073 195.5 127.859C195.406 127.641 195.279 127.451 195.117 127.289C194.956 127.122 194.766 126.992 194.547 126.898C194.333 126.805 194.102 126.758 193.852 126.758H191.352V131.258H193.852C194.102 131.258 194.333 131.211 194.547 131.117C194.766 131.023 194.956 130.896 195.117 130.734C195.279 130.568 195.406 130.378 195.5 130.164C195.594 129.945 195.641 129.711 195.641 129.461V128.555ZM203.891 134.805C203.891 135.128 203.828 135.432 203.703 135.719C203.583 136.005 203.417 136.255 203.203 136.469C202.99 136.682 202.74 136.852 202.453 136.977C202.167 137.096 201.862 137.156 201.539 137.156H200.898C200.576 137.156 200.271 137.096 199.984 136.977C199.698 136.852 199.448 136.682 199.234 136.469C199.021 136.255 198.852 136.005 198.727 135.719C198.607 135.432 198.547 135.128 198.547 134.805V131.195C198.547 130.872 198.607 130.568 198.727 130.281C198.852 129.995 199.021 129.745 199.234 129.531C199.448 129.318 199.698 129.151 199.984 129.031C200.271 128.906 200.576 128.844 200.898 128.844H201.539C201.862 128.844 202.167 128.906 202.453 129.031C202.74 129.151 202.99 129.318 203.203 129.531C203.417 129.745 203.583 129.995 203.703 130.281C203.828 130.568 203.891 130.872 203.891 131.195V133.078H199.508V134.859C199.508 135.052 199.544 135.234 199.617 135.406C199.69 135.573 199.789 135.719 199.914 135.844C200.039 135.969 200.185 136.068 200.352 136.141C200.523 136.214 200.706 136.25 200.898 136.25H201.539C201.732 136.25 201.911 136.214 202.078 136.141C202.25 136.068 202.398 135.969 202.523 135.844C202.648 135.719 202.747 135.573 202.82 135.406C202.893 135.234 202.93 135.052 202.93 134.859V134.328L203.891 134.484V134.805ZM202.93 131.141C202.93 130.948 202.893 130.768 202.82 130.602C202.747 130.43 202.648 130.281 202.523 130.156C202.398 130.031 202.25 129.932 202.078 129.859C201.911 129.786 201.732 129.75 201.539 129.75H200.898C200.706 129.75 200.523 129.786 200.352 129.859C200.185 129.932 200.039 130.031 199.914 130.156C199.789 130.281 199.69 130.43 199.617 130.602C199.544 130.768 199.508 130.948 199.508 131.141V132.328H202.93V131.141ZM211.312 134.969C211.312 135.292 211.247 135.589 211.117 135.859C210.987 136.125 210.81 136.354 210.586 136.547C210.362 136.74 210.102 136.891 209.805 137C209.513 137.104 209.206 137.156 208.883 137.156H208.242C207.919 137.156 207.609 137.096 207.312 136.977C207.021 136.852 206.763 136.682 206.539 136.469C206.32 136.255 206.143 136.005 206.008 135.719C205.878 135.432 205.812 135.128 205.812 134.805V134.484L206.773 134.328V134.859C206.773 135.052 206.812 135.234 206.891 135.406C206.974 135.573 207.083 135.719 207.219 135.844C207.354 135.969 207.51 136.068 207.688 136.141C207.865 136.214 208.049 136.25 208.242 136.25H208.883C209.076 136.25 209.26 136.221 209.438 136.164C209.615 136.107 209.771 136.026 209.906 135.922C210.047 135.812 210.156 135.682 210.234 135.531C210.318 135.38 210.359 135.208 210.359 135.016C210.359 134.729 210.297 134.495 210.172 134.312C210.047 134.13 209.88 133.979 209.672 133.859C209.469 133.734 209.234 133.633 208.969 133.555C208.708 133.471 208.44 133.391 208.164 133.312C207.888 133.229 207.617 133.135 207.352 133.031C207.091 132.927 206.857 132.792 206.648 132.625C206.445 132.453 206.281 132.24 206.156 131.984C206.031 131.729 205.969 131.411 205.969 131.031C205.969 130.708 206.031 130.414 206.156 130.148C206.281 129.878 206.451 129.646 206.664 129.453C206.878 129.26 207.125 129.112 207.406 129.008C207.693 128.898 207.997 128.844 208.32 128.844H208.883C209.206 128.844 209.51 128.906 209.797 129.031C210.083 129.151 210.333 129.318 210.547 129.531C210.76 129.745 210.927 129.995 211.047 130.281C211.172 130.568 211.234 130.872 211.234 131.195V131.227L210.273 131.383V131.141C210.273 130.948 210.237 130.768 210.164 130.602C210.091 130.43 209.992 130.281 209.867 130.156C209.742 130.031 209.594 129.932 209.422 129.859C209.255 129.786 209.076 129.75 208.883 129.75H208.32C208.128 129.75 207.945 129.779 207.773 129.836C207.607 129.893 207.461 129.977 207.336 130.086C207.211 130.19 207.112 130.318 207.039 130.469C206.966 130.62 206.93 130.792 206.93 130.984C206.93 131.26 206.992 131.487 207.117 131.664C207.242 131.836 207.406 131.982 207.609 132.102C207.818 132.221 208.052 132.323 208.312 132.406C208.578 132.484 208.846 132.568 209.117 132.656C209.393 132.74 209.661 132.836 209.922 132.945C210.188 133.055 210.422 133.195 210.625 133.367C210.833 133.539 211 133.755 211.125 134.016C211.25 134.271 211.312 134.589 211.312 134.969ZM218.5 134.805C218.5 135.128 218.438 135.432 218.312 135.719C218.193 136.005 218.026 136.255 217.812 136.469C217.599 136.682 217.349 136.852 217.062 136.977C216.776 137.096 216.471 137.156 216.148 137.156H215.906C215.547 137.156 215.214 137.083 214.906 136.938C214.599 136.792 214.336 136.589 214.117 136.328V140.203H213.156V129H213.477L214 129.812C214.219 129.516 214.492 129.281 214.82 129.109C215.154 128.932 215.516 128.844 215.906 128.844H216.148C216.471 128.844 216.776 128.906 217.062 129.031C217.349 129.151 217.599 129.318 217.812 129.531C218.026 129.745 218.193 129.995 218.312 130.281C218.438 130.568 218.5 130.872 218.5 131.195V134.805ZM217.539 131.141C217.539 130.948 217.503 130.768 217.43 130.602C217.357 130.43 217.258 130.281 217.133 130.156C217.008 130.031 216.859 129.932 216.688 129.859C216.521 129.786 216.341 129.75 216.148 129.75H215.508C215.315 129.75 215.133 129.786 214.961 129.859C214.794 129.932 214.648 130.031 214.523 130.156C214.398 130.281 214.299 130.43 214.227 130.602C214.154 130.768 214.117 130.948 214.117 131.141V134.859C214.117 135.052 214.154 135.234 214.227 135.406C214.299 135.573 214.398 135.719 214.523 135.844C214.648 135.969 214.794 136.068 214.961 136.141C215.133 136.214 215.315 136.25 215.508 136.25H216.148C216.341 136.25 216.521 136.214 216.688 136.141C216.859 136.068 217.008 135.969 217.133 135.844C217.258 135.719 217.357 135.573 217.43 135.406C217.503 135.234 217.539 135.052 217.539 134.859V131.141ZM225.766 134.805C225.766 135.128 225.703 135.432 225.578 135.719C225.458 136.005 225.292 136.255 225.078 136.469C224.865 136.682 224.615 136.852 224.328 136.977C224.042 137.096 223.737 137.156 223.414 137.156H222.773C222.451 137.156 222.146 137.096 221.859 136.977C221.573 136.852 221.323 136.682 221.109 136.469C220.896 136.255 220.727 136.005 220.602 135.719C220.482 135.432 220.422 135.128 220.422 134.805V131.195C220.422 130.872 220.482 130.568 220.602 130.281C220.727 129.995 220.896 129.745 221.109 129.531C221.323 129.318 221.573 129.151 221.859 129.031C222.146 128.906 222.451 128.844 222.773 128.844H223.414C223.737 128.844 224.042 128.906 224.328 129.031C224.615 129.151 224.865 129.318 225.078 129.531C225.292 129.745 225.458 129.995 225.578 130.281C225.703 130.568 225.766 130.872 225.766 131.195V134.805ZM224.805 131.141C224.805 130.948 224.768 130.768 224.695 130.602C224.622 130.43 224.523 130.281 224.398 130.156C224.273 130.031 224.125 129.932 223.953 129.859C223.786 129.786 223.607 129.75 223.414 129.75H222.773C222.581 129.75 222.398 129.786 222.227 129.859C222.06 129.932 221.914 130.031 221.789 130.156C221.664 130.281 221.565 130.43 221.492 130.602C221.419 130.768 221.383 130.948 221.383 131.141V134.859C221.383 135.052 221.419 135.234 221.492 135.406C221.565 135.573 221.664 135.719 221.789 135.844C221.914 135.969 222.06 136.068 222.227 136.141C222.398 136.214 222.581 136.25 222.773 136.25H223.414C223.607 136.25 223.786 136.214 223.953 136.141C224.125 136.068 224.273 135.969 224.398 135.844C224.523 135.719 224.622 135.573 224.695 135.406C224.768 135.234 224.805 135.052 224.805 134.859V131.141ZM232.07 137V131.141C232.07 130.948 232.034 130.768 231.961 130.602C231.888 130.43 231.789 130.281 231.664 130.156C231.539 130.031 231.391 129.932 231.219 129.859C231.052 129.786 230.872 129.75 230.68 129.75H230.039C229.846 129.75 229.664 129.786 229.492 129.859C229.326 129.932 229.18 130.031 229.055 130.156C228.93 130.281 228.831 130.43 228.758 130.602C228.685 130.768 228.648 130.948 228.648 131.141V137H227.688V129H228.008L228.531 129.812C228.75 129.516 229.023 129.281 229.352 129.109C229.685 128.932 230.047 128.844 230.438 128.844H230.68C231.003 128.844 231.307 128.906 231.594 129.031C231.88 129.151 232.13 129.318 232.344 129.531C232.557 129.745 232.724 129.995 232.844 130.281C232.969 130.568 233.031 130.872 233.031 131.195V137H232.07ZM240.453 134.969C240.453 135.292 240.388 135.589 240.258 135.859C240.128 136.125 239.951 136.354 239.727 136.547C239.503 136.74 239.242 136.891 238.945 137C238.654 137.104 238.346 137.156 238.023 137.156H237.383C237.06 137.156 236.75 137.096 236.453 136.977C236.161 136.852 235.904 136.682 235.68 136.469C235.461 136.255 235.284 136.005 235.148 135.719C235.018 135.432 234.953 135.128 234.953 134.805V134.484L235.914 134.328V134.859C235.914 135.052 235.953 135.234 236.031 135.406C236.115 135.573 236.224 135.719 236.359 135.844C236.495 135.969 236.651 136.068 236.828 136.141C237.005 136.214 237.19 136.25 237.383 136.25H238.023C238.216 136.25 238.401 136.221 238.578 136.164C238.755 136.107 238.911 136.026 239.047 135.922C239.188 135.812 239.297 135.682 239.375 135.531C239.458 135.38 239.5 135.208 239.5 135.016C239.5 134.729 239.438 134.495 239.312 134.312C239.188 134.13 239.021 133.979 238.812 133.859C238.609 133.734 238.375 133.633 238.109 133.555C237.849 133.471 237.581 133.391 237.305 133.312C237.029 133.229 236.758 133.135 236.492 133.031C236.232 132.927 235.997 132.792 235.789 132.625C235.586 132.453 235.422 132.24 235.297 131.984C235.172 131.729 235.109 131.411 235.109 131.031C235.109 130.708 235.172 130.414 235.297 130.148C235.422 129.878 235.591 129.646 235.805 129.453C236.018 129.26 236.266 129.112 236.547 129.008C236.833 128.898 237.138 128.844 237.461 128.844H238.023C238.346 128.844 238.651 128.906 238.938 129.031C239.224 129.151 239.474 129.318 239.688 129.531C239.901 129.745 240.068 129.995 240.188 130.281C240.312 130.568 240.375 130.872 240.375 131.195V131.227L239.414 131.383V131.141C239.414 130.948 239.378 130.768 239.305 130.602C239.232 130.43 239.133 130.281 239.008 130.156C238.883 130.031 238.734 129.932 238.562 129.859C238.396 129.786 238.216 129.75 238.023 129.75H237.461C237.268 129.75 237.086 129.779 236.914 129.836C236.747 129.893 236.602 129.977 236.477 130.086C236.352 130.19 236.253 130.318 236.18 130.469C236.107 130.62 236.07 130.792 236.07 130.984C236.07 131.26 236.133 131.487 236.258 131.664C236.383 131.836 236.547 131.982 236.75 132.102C236.958 132.221 237.193 132.323 237.453 132.406C237.719 132.484 237.987 132.568 238.258 132.656C238.534 132.74 238.802 132.836 239.062 132.945C239.328 133.055 239.562 133.195 239.766 133.367C239.974 133.539 240.141 133.755 240.266 134.016C240.391 134.271 240.453 134.589 240.453 134.969ZM242.539 127.078V125.797H243.656V127.078H242.539ZM242.617 137V129H243.578V137H242.617ZM251.172 134.805C251.172 135.128 251.109 135.432 250.984 135.719C250.865 136.005 250.698 136.255 250.484 136.469C250.271 136.682 250.021 136.852 249.734 136.977C249.448 137.096 249.143 137.156 248.82 137.156H248.18C247.857 137.156 247.552 137.096 247.266 136.977C246.979 136.852 246.729 136.682 246.516 136.469C246.302 136.255 246.133 136.005 246.008 135.719C245.888 135.432 245.828 135.128 245.828 134.805V125.797H246.789V129.672C247.008 129.411 247.271 129.208 247.578 129.062C247.885 128.917 248.219 128.844 248.578 128.844H248.82C249.143 128.844 249.448 128.906 249.734 129.031C250.021 129.151 250.271 129.318 250.484 129.531C250.698 129.745 250.865 129.995 250.984 130.281C251.109 130.568 251.172 130.872 251.172 131.195V134.805ZM250.211 131.141C250.211 130.948 250.174 130.768 250.102 130.602C250.029 130.43 249.93 130.281 249.805 130.156C249.68 130.031 249.531 129.932 249.359 129.859C249.193 129.786 249.013 129.75 248.82 129.75H248.18C247.987 129.75 247.805 129.786 247.633 129.859C247.466 129.932 247.32 130.031 247.195 130.156C247.07 130.281 246.971 130.43 246.898 130.602C246.826 130.768 246.789 130.948 246.789 131.141V134.859C246.789 135.052 246.826 135.234 246.898 135.406C246.971 135.573 247.07 135.719 247.195 135.844C247.32 135.969 247.466 136.068 247.633 136.141C247.805 136.214 247.987 136.25 248.18 136.25H248.82C249.013 136.25 249.193 136.214 249.359 136.141C249.531 136.068 249.68 135.969 249.805 135.844C249.93 135.719 250.029 135.573 250.102 135.406C250.174 135.234 250.211 135.052 250.211 134.859V131.141ZM253.258 137V125.797H254.219V137H253.258ZM261.812 134.805C261.812 135.128 261.75 135.432 261.625 135.719C261.505 136.005 261.339 136.255 261.125 136.469C260.911 136.682 260.661 136.852 260.375 136.977C260.089 137.096 259.784 137.156 259.461 137.156H258.82C258.497 137.156 258.193 137.096 257.906 136.977C257.62 136.852 257.37 136.682 257.156 136.469C256.943 136.255 256.773 136.005 256.648 135.719C256.529 135.432 256.469 135.128 256.469 134.805V131.195C256.469 130.872 256.529 130.568 256.648 130.281C256.773 129.995 256.943 129.745 257.156 129.531C257.37 129.318 257.62 129.151 257.906 129.031C258.193 128.906 258.497 128.844 258.82 128.844H259.461C259.784 128.844 260.089 128.906 260.375 129.031C260.661 129.151 260.911 129.318 261.125 129.531C261.339 129.745 261.505 129.995 261.625 130.281C261.75 130.568 261.812 130.872 261.812 131.195V133.078H257.43V134.859C257.43 135.052 257.466 135.234 257.539 135.406C257.612 135.573 257.711 135.719 257.836 135.844C257.961 135.969 258.107 136.068 258.273 136.141C258.445 136.214 258.628 136.25 258.82 136.25H259.461C259.654 136.25 259.833 136.214 260 136.141C260.172 136.068 260.32 135.969 260.445 135.844C260.57 135.719 260.669 135.573 260.742 135.406C260.815 135.234 260.852 135.052 260.852 134.859V134.328L261.812 134.484V134.805ZM260.852 131.141C260.852 130.948 260.815 130.768 260.742 130.602C260.669 130.43 260.57 130.281 260.445 130.156C260.32 130.031 260.172 129.932 260 129.859C259.833 129.786 259.654 129.75 259.461 129.75H258.82C258.628 129.75 258.445 129.786 258.273 129.859C258.107 129.932 257.961 130.031 257.836 130.156C257.711 130.281 257.612 130.43 257.539 130.602C257.466 130.768 257.43 130.948 257.43 131.141V132.328H260.852V131.141ZM206.562 154.969C206.562 155.292 206.497 155.589 206.367 155.859C206.237 156.125 206.06 156.354 205.836 156.547C205.612 156.74 205.352 156.891 205.055 157C204.763 157.104 204.456 157.156 204.133 157.156H203.492C203.169 157.156 202.859 157.096 202.562 156.977C202.271 156.852 202.013 156.682 201.789 156.469C201.57 156.255 201.393 156.005 201.258 155.719C201.128 155.432 201.062 155.128 201.062 154.805V154.484L202.023 154.328V154.859C202.023 155.052 202.062 155.234 202.141 155.406C202.224 155.573 202.333 155.719 202.469 155.844C202.604 155.969 202.76 156.068 202.938 156.141C203.115 156.214 203.299 156.25 203.492 156.25H204.133C204.326 156.25 204.51 156.221 204.688 156.164C204.865 156.107 205.021 156.026 205.156 155.922C205.297 155.812 205.406 155.682 205.484 155.531C205.568 155.38 205.609 155.208 205.609 155.016C205.609 154.729 205.547 154.495 205.422 154.312C205.297 154.13 205.13 153.979 204.922 153.859C204.719 153.734 204.484 153.633 204.219 153.555C203.958 153.471 203.69 153.391 203.414 153.312C203.138 153.229 202.867 153.135 202.602 153.031C202.341 152.927 202.107 152.792 201.898 152.625C201.695 152.453 201.531 152.24 201.406 151.984C201.281 151.729 201.219 151.411 201.219 151.031C201.219 150.708 201.281 150.414 201.406 150.148C201.531 149.878 201.701 149.646 201.914 149.453C202.128 149.26 202.375 149.112 202.656 149.008C202.943 148.898 203.247 148.844 203.57 148.844H204.133C204.456 148.844 204.76 148.906 205.047 149.031C205.333 149.151 205.583 149.318 205.797 149.531C206.01 149.745 206.177 149.995 206.297 150.281C206.422 150.568 206.484 150.872 206.484 151.195V151.227L205.523 151.383V151.141C205.523 150.948 205.487 150.768 205.414 150.602C205.341 150.43 205.242 150.281 205.117 150.156C204.992 150.031 204.844 149.932 204.672 149.859C204.505 149.786 204.326 149.75 204.133 149.75H203.57C203.378 149.75 203.195 149.779 203.023 149.836C202.857 149.893 202.711 149.977 202.586 150.086C202.461 150.19 202.362 150.318 202.289 150.469C202.216 150.62 202.18 150.792 202.18 150.984C202.18 151.26 202.242 151.487 202.367 151.664C202.492 151.836 202.656 151.982 202.859 152.102C203.068 152.221 203.302 152.323 203.562 152.406C203.828 152.484 204.096 152.568 204.367 152.656C204.643 152.74 204.911 152.836 205.172 152.945C205.438 153.055 205.672 153.195 205.875 153.367C206.083 153.539 206.25 153.755 206.375 154.016C206.5 154.271 206.562 154.589 206.562 154.969ZM213.75 154.805C213.75 155.128 213.688 155.432 213.562 155.719C213.443 156.005 213.276 156.255 213.062 156.469C212.849 156.682 212.599 156.852 212.312 156.977C212.026 157.096 211.721 157.156 211.398 157.156H210.758C210.435 157.156 210.13 157.096 209.844 156.977C209.557 156.852 209.307 156.682 209.094 156.469C208.88 156.255 208.711 156.005 208.586 155.719C208.466 155.432 208.406 155.128 208.406 154.805V151.195C208.406 150.872 208.466 150.568 208.586 150.281C208.711 149.995 208.88 149.745 209.094 149.531C209.307 149.318 209.557 149.151 209.844 149.031C210.13 148.906 210.435 148.844 210.758 148.844H211.398C211.721 148.844 212.026 148.906 212.312 149.031C212.599 149.151 212.849 149.318 213.062 149.531C213.276 149.745 213.443 149.995 213.562 150.281C213.688 150.568 213.75 150.872 213.75 151.195V154.805ZM212.789 151.141C212.789 150.948 212.753 150.768 212.68 150.602C212.607 150.43 212.508 150.281 212.383 150.156C212.258 150.031 212.109 149.932 211.938 149.859C211.771 149.786 211.591 149.75 211.398 149.75H210.758C210.565 149.75 210.383 149.786 210.211 149.859C210.044 149.932 209.898 150.031 209.773 150.156C209.648 150.281 209.549 150.43 209.477 150.602C209.404 150.768 209.367 150.948 209.367 151.141V154.859C209.367 155.052 209.404 155.234 209.477 155.406C209.549 155.573 209.648 155.719 209.773 155.844C209.898 155.969 210.044 156.068 210.211 156.141C210.383 156.214 210.565 156.25 210.758 156.25H211.398C211.591 156.25 211.771 156.214 211.938 156.141C212.109 156.068 212.258 155.969 212.383 155.844C212.508 155.719 212.607 155.573 212.68 155.406C212.753 155.234 212.789 155.052 212.789 154.859V151.141ZM220.695 157L220.164 156.188C219.945 156.484 219.672 156.721 219.344 156.898C219.016 157.07 218.656 157.156 218.266 157.156H218.023C217.701 157.156 217.396 157.096 217.109 156.977C216.823 156.852 216.573 156.682 216.359 156.469C216.146 156.255 215.977 156.005 215.852 155.719C215.732 155.432 215.672 155.128 215.672 154.805V149H216.633V154.859C216.633 155.052 216.669 155.234 216.742 155.406C216.815 155.573 216.914 155.719 217.039 155.844C217.164 155.969 217.31 156.068 217.477 156.141C217.648 156.214 217.831 156.25 218.023 156.25H218.664C218.857 156.25 219.036 156.214 219.203 156.141C219.375 156.068 219.523 155.969 219.648 155.844C219.773 155.719 219.872 155.573 219.945 155.406C220.018 155.234 220.055 155.052 220.055 154.859V149H221.016V157H220.695ZM225.289 149.914C225.096 149.914 224.914 149.951 224.742 150.023C224.576 150.096 224.43 150.195 224.305 150.32C224.18 150.445 224.081 150.594 224.008 150.766C223.935 150.932 223.898 151.112 223.898 151.305V157H222.938V149H223.258L223.781 149.812C224 149.516 224.273 149.281 224.602 149.109C224.935 148.932 225.297 148.844 225.688 148.844H226.25V149.914H225.289ZM232.875 154.805C232.875 155.128 232.812 155.432 232.688 155.719C232.568 156.005 232.401 156.255 232.188 156.469C231.974 156.682 231.724 156.852 231.438 156.977C231.151 157.096 230.846 157.156 230.523 157.156H229.883C229.56 157.156 229.255 157.096 228.969 156.977C228.682 156.852 228.432 156.682 228.219 156.469C228.005 156.255 227.836 156.005 227.711 155.719C227.591 155.432 227.531 155.128 227.531 154.805V151.195C227.531 150.872 227.591 150.568 227.711 150.281C227.836 149.995 228.005 149.745 228.219 149.531C228.432 149.318 228.682 149.151 228.969 149.031C229.255 148.906 229.56 148.844 229.883 148.844H230.523C230.846 148.844 231.151 148.906 231.438 149.031C231.724 149.151 231.974 149.318 232.188 149.531C232.401 149.745 232.568 149.995 232.688 150.281C232.812 150.568 232.875 150.872 232.875 151.195V151.516L231.914 151.672V151.141C231.914 150.948 231.878 150.768 231.805 150.602C231.732 150.43 231.633 150.281 231.508 150.156C231.383 150.031 231.234 149.932 231.062 149.859C230.896 149.786 230.716 149.75 230.523 149.75H229.883C229.69 149.75 229.508 149.786 229.336 149.859C229.169 149.932 229.023 150.031 228.898 150.156C228.773 150.281 228.674 150.43 228.602 150.602C228.529 150.768 228.492 150.948 228.492 151.141V154.859C228.492 155.052 228.529 155.234 228.602 155.406C228.674 155.573 228.773 155.719 228.898 155.844C229.023 155.969 229.169 156.068 229.336 156.141C229.508 156.214 229.69 156.25 229.883 156.25H230.523C230.716 156.25 230.896 156.214 231.062 156.141C231.234 156.068 231.383 155.969 231.508 155.844C231.633 155.719 231.732 155.573 231.805 155.406C231.878 155.234 231.914 155.052 231.914 154.859V154.328L232.875 154.484V154.805ZM235.039 147.078V145.797H236.156V147.078H235.039ZM235.117 157V149H236.078V157H235.117ZM242.711 157V151.141C242.711 150.948 242.674 150.768 242.602 150.602C242.529 150.43 242.43 150.281 242.305 150.156C242.18 150.031 242.031 149.932 241.859 149.859C241.693 149.786 241.513 149.75 241.32 149.75H240.68C240.487 149.75 240.305 149.786 240.133 149.859C239.966 149.932 239.82 150.031 239.695 150.156C239.57 150.281 239.471 150.43 239.398 150.602C239.326 150.768 239.289 150.948 239.289 151.141V157H238.328V149H238.648L239.172 149.812C239.391 149.516 239.664 149.281 239.992 149.109C240.326 148.932 240.688 148.844 241.078 148.844H241.32C241.643 148.844 241.948 148.906 242.234 149.031C242.521 149.151 242.771 149.318 242.984 149.531C243.198 149.745 243.365 149.995 243.484 150.281C243.609 150.568 243.672 150.872 243.672 151.195V157H242.711ZM251.016 158.008C251.016 158.331 250.953 158.628 250.828 158.898C250.708 159.169 250.542 159.401 250.328 159.594C250.115 159.786 249.865 159.935 249.578 160.039C249.292 160.148 248.987 160.203 248.664 160.203H248.266C247.943 160.203 247.638 160.148 247.352 160.039C247.065 159.935 246.815 159.786 246.602 159.594C246.388 159.401 246.219 159.169 246.094 158.898C245.974 158.628 245.914 158.331 245.914 158.008V157.977C245.914 157.664 245.971 157.378 246.086 157.117C246.201 156.857 246.357 156.63 246.555 156.438C246.305 156.286 246.104 156.083 245.953 155.828C245.807 155.568 245.734 155.281 245.734 154.969C245.734 154.688 245.794 154.427 245.914 154.188C246.034 153.943 246.198 153.745 246.406 153.594C246.156 153.375 245.958 153.112 245.812 152.805C245.667 152.497 245.594 152.161 245.594 151.797V151.195C245.594 150.872 245.654 150.568 245.773 150.281C245.898 149.995 246.068 149.745 246.281 149.531C246.495 149.318 246.745 149.151 247.031 149.031C247.318 148.906 247.622 148.844 247.945 148.844H248.344C248.734 148.844 249.094 148.932 249.422 149.109C249.755 149.281 250.031 149.516 250.25 149.812L250.773 149H251.094V151.797C251.094 152.12 251.031 152.424 250.906 152.711C250.786 152.997 250.62 153.247 250.406 153.461C250.193 153.674 249.943 153.844 249.656 153.969C249.37 154.089 249.065 154.148 248.742 154.148H247.352C247.242 154.148 247.138 154.172 247.039 154.219C246.94 154.26 246.852 154.318 246.773 154.391C246.701 154.464 246.643 154.552 246.602 154.656C246.56 154.755 246.539 154.859 246.539 154.969C246.539 155.078 246.56 155.182 246.602 155.281C246.643 155.38 246.701 155.469 246.773 155.547C246.852 155.62 246.94 155.677 247.039 155.719C247.138 155.76 247.242 155.781 247.352 155.781H248.664C248.987 155.781 249.292 155.836 249.578 155.945C249.865 156.049 250.115 156.198 250.328 156.391C250.542 156.583 250.708 156.815 250.828 157.086C250.953 157.357 251.016 157.654 251.016 157.977V158.008ZM250.141 151.141C250.141 150.948 250.104 150.768 250.031 150.602C249.958 150.43 249.857 150.281 249.727 150.156C249.602 150.031 249.453 149.932 249.281 149.859C249.115 149.786 248.935 149.75 248.742 149.75H247.945C247.753 149.75 247.57 149.786 247.398 149.859C247.232 149.932 247.086 150.031 246.961 150.156C246.836 150.281 246.737 150.43 246.664 150.602C246.591 150.768 246.555 150.948 246.555 151.141V151.852C246.555 152.044 246.591 152.227 246.664 152.398C246.737 152.565 246.836 152.711 246.961 152.836C247.086 152.961 247.232 153.06 247.398 153.133C247.57 153.206 247.753 153.242 247.945 153.242H248.742C248.935 153.242 249.115 153.206 249.281 153.133C249.453 153.06 249.602 152.961 249.727 152.836C249.857 152.711 249.958 152.565 250.031 152.398C250.104 152.227 250.141 152.044 250.141 151.852V151.141ZM250.102 157.93C250.102 157.737 250.065 157.562 249.992 157.406C249.919 157.255 249.82 157.128 249.695 157.023C249.57 156.919 249.422 156.839 249.25 156.781C249.083 156.724 248.904 156.695 248.711 156.695H248.219C248.026 156.695 247.844 156.724 247.672 156.781C247.505 156.839 247.359 156.919 247.234 157.023C247.109 157.128 247.01 157.255 246.938 157.406C246.865 157.562 246.828 157.737 246.828 157.93V158.055C246.828 158.247 246.865 158.419 246.938 158.57C247.01 158.721 247.109 158.849 247.234 158.953C247.359 159.062 247.505 159.146 247.672 159.203C247.844 159.26 248.026 159.289 248.219 159.289H248.711C248.904 159.289 249.083 159.26 249.25 159.203C249.422 159.146 249.57 159.062 249.695 158.953C249.82 158.849 249.919 158.721 249.992 158.57C250.065 158.419 250.102 158.247 250.102 158.055V157.93Z" fill="#2A2C35"/>
<circle cx="226" cy="87" r="36" fill="#C3CCC0"/>
<path d="M248.929 71.7364C248.907 71.3573 248.748 70.9995 248.482 70.7309C248.217 70.4624 247.862 70.3018 247.487 70.2796C237.565 69.6985 229.598 72.7476 226.174 78.4584C223.912 82.234 223.916 86.8194 226.144 91.1935C224.876 92.7187 223.949 94.5029 223.427 96.4239L220.308 93.2605C221.807 90.0971 221.75 86.8 220.117 84.0608C217.586 79.8397 211.745 77.577 204.493 78.0071C204.118 78.0292 203.764 78.1898 203.498 78.4584C203.233 78.7269 203.074 79.0847 203.052 79.4638C202.624 86.7922 204.865 92.6949 209.042 95.2519C210.421 96.1032 212.005 96.5536 213.62 96.5537C215.188 96.5341 216.731 96.1587 218.136 95.4553L222.929 100.298V105.852C222.929 106.263 223.09 106.657 223.378 106.948C223.666 107.239 224.056 107.402 224.462 107.402C224.869 107.402 225.259 107.239 225.547 106.948C225.834 106.657 225.996 106.263 225.996 105.852V100.139C225.989 97.674 226.819 95.2807 228.348 93.3593C230.321 94.4011 232.508 94.9585 234.734 94.9865C236.885 94.9936 238.997 94.3996 240.835 93.2702C246.487 89.8143 249.512 81.7633 248.929 71.7364ZM210.624 92.6019C207.683 90.8022 206.019 86.5423 206.059 81.0562C211.488 81.0097 215.704 82.697 217.485 85.6687C218.414 87.2184 218.566 89.0258 217.956 90.8875L213.277 86.1588C212.987 85.8804 212.601 85.7275 212.201 85.7327C211.801 85.7379 211.419 85.9007 211.136 86.1865C210.853 86.4722 210.692 86.8584 210.687 87.2625C210.682 87.6666 210.833 88.0567 211.109 88.3497L215.788 93.0784C213.946 93.6944 212.159 93.5414 210.624 92.6019ZM239.246 90.6221C236.677 92.1931 233.658 92.3132 230.591 91.0095L240.883 80.6068C241.159 80.3138 241.31 79.9236 241.305 79.5195C241.3 79.1154 241.139 78.7293 240.856 78.4435C240.573 78.1577 240.191 77.9949 239.791 77.9897C239.391 77.9846 239.005 78.1375 238.715 78.4158L228.421 88.805C227.125 85.7055 227.242 82.6525 228.804 80.0586C231.477 75.603 237.814 73.1196 245.929 73.3113C246.113 81.5095 243.659 87.9216 239.246 90.6221Z" fill="#2A2C35"/>
<circle cx="417.5" cy="67.5" r="20.5" fill="#C3CCC0"/>
<circle cx="362.5" cy="62.5" r="14.5" fill="#C3CCC0"/>
<circle cx="202" cy="20" r="12" fill="#C3CCC0"/>
<circle cx="97.5" cy="23.5" r="19.5" fill="#C3CCC0"/>
<circle cx="307.5" cy="19.5" r="19.5" fill="#C3CCC0"/>
<circle cx="322.5" cy="117.5" r="26.5" fill="#C3CCC0"/>
<circle cx="211" cy="197" r="19" fill="#C3CCC0"/>
<circle cx="200.5" cy="248.5" r="10.5" fill="#C3CCC0"/>
<circle cx="77" cy="314" r="20" fill="#C3CCC0"/>
<circle cx="145" cy="309" r="16" fill="#C3CCC0"/>
<circle cx="224.5" cy="321.5" r="21.5" fill="#C3CCC0"/>
<circle cx="397.5" cy="292.5" r="16.5" fill="#C3CCC0"/>
<circle cx="282.5" cy="298.5" r="13.5" fill="#C3CCC0"/>
<circle cx="345.5" cy="316.5" r="18.5" fill="#C3CCC0"/>
<circle cx="407" cy="207" r="29" fill="#C3CCC0"/>
<circle cx="389.5" cy="145.5" r="12.5" fill="#C3CCC0"/>
<circle cx="244" cy="235" r="14" fill="#C3CCC0"/>
<path d="M71 75.5C71 95.1061 55.1061 111 35.5 111C15.8939 111 0 95.1061 0 75.5C0 55.8939 15.8939 40 35.5 40C55.1061 40 71 55.8939 71 75.5Z" fill="#C3CCC0"/>
<circle cx="97" cy="131" r="27" fill="#C3CCC0"/>
<circle cx="138.5" cy="77.5" r="15.5" fill="#C3CCC0"/>
<circle cx="71.5" cy="189.5" r="13.5" fill="#C3CCC0"/>
<circle cx="44" cy="242" r="14" fill="#C3CCC0"/>
</svg>
