<svg width="786" height="343" viewBox="0 0 786 343" fill="none" xmlns="http://www.w3.org/2000/svg">
<ellipse cx="458.5" cy="208" rx="35.5" ry="36" fill="#C3CCC0"/>
<path d="M432.539 262L429.5 257.219H428.117V262H427.109V250.797H430.664C431.044 250.797 431.401 250.87 431.734 251.016C432.068 251.156 432.359 251.352 432.609 251.602C432.859 251.852 433.055 252.146 433.195 252.484C433.341 252.818 433.414 253.174 433.414 253.555V254.461C433.414 254.841 433.341 255.201 433.195 255.539C433.055 255.872 432.859 256.164 432.609 256.414C432.359 256.664 432.068 256.862 431.734 257.008C431.401 257.148 431.044 257.219 430.664 257.219L433.703 262H432.539ZM432.406 253.555C432.406 253.305 432.359 253.073 432.266 252.859C432.172 252.641 432.044 252.451 431.883 252.289C431.721 252.122 431.531 251.992 431.312 251.898C431.099 251.805 430.867 251.758 430.617 251.758H428.117V256.258H430.617C430.867 256.258 431.099 256.211 431.312 256.117C431.531 256.023 431.721 255.896 431.883 255.734C432.044 255.568 432.172 255.378 432.266 255.164C432.359 254.945 432.406 254.711 432.406 254.461V253.555ZM440.656 259.805C440.656 260.128 440.594 260.432 440.469 260.719C440.349 261.005 440.182 261.255 439.969 261.469C439.755 261.682 439.505 261.852 439.219 261.977C438.932 262.096 438.628 262.156 438.305 262.156H437.664C437.341 262.156 437.036 262.096 436.75 261.977C436.464 261.852 436.214 261.682 436 261.469C435.786 261.255 435.617 261.005 435.492 260.719C435.372 260.432 435.312 260.128 435.312 259.805V256.195C435.312 255.872 435.372 255.568 435.492 255.281C435.617 254.995 435.786 254.745 436 254.531C436.214 254.318 436.464 254.151 436.75 254.031C437.036 253.906 437.341 253.844 437.664 253.844H438.305C438.628 253.844 438.932 253.906 439.219 254.031C439.505 254.151 439.755 254.318 439.969 254.531C440.182 254.745 440.349 254.995 440.469 255.281C440.594 255.568 440.656 255.872 440.656 256.195V258.078H436.273V259.859C436.273 260.052 436.31 260.234 436.383 260.406C436.456 260.573 436.555 260.719 436.68 260.844C436.805 260.969 436.951 261.068 437.117 261.141C437.289 261.214 437.471 261.25 437.664 261.25H438.305C438.497 261.25 438.677 261.214 438.844 261.141C439.016 261.068 439.164 260.969 439.289 260.844C439.414 260.719 439.513 260.573 439.586 260.406C439.659 260.234 439.695 260.052 439.695 259.859V259.328L440.656 259.484V259.805ZM439.695 256.141C439.695 255.948 439.659 255.768 439.586 255.602C439.513 255.43 439.414 255.281 439.289 255.156C439.164 255.031 439.016 254.932 438.844 254.859C438.677 254.786 438.497 254.75 438.305 254.75H437.664C437.471 254.75 437.289 254.786 437.117 254.859C436.951 254.932 436.805 255.031 436.68 255.156C436.555 255.281 436.456 255.43 436.383 255.602C436.31 255.768 436.273 255.948 436.273 256.141V257.328H439.695V256.141ZM447.922 259.805C447.922 260.128 447.859 260.432 447.734 260.719C447.615 261.005 447.448 261.255 447.234 261.469C447.021 261.682 446.771 261.852 446.484 261.977C446.198 262.096 445.893 262.156 445.57 262.156H444.93C444.607 262.156 444.302 262.096 444.016 261.977C443.729 261.852 443.479 261.682 443.266 261.469C443.052 261.255 442.883 261.005 442.758 260.719C442.638 260.432 442.578 260.128 442.578 259.805V256.195C442.578 255.872 442.638 255.568 442.758 255.281C442.883 254.995 443.052 254.745 443.266 254.531C443.479 254.318 443.729 254.151 444.016 254.031C444.302 253.906 444.607 253.844 444.93 253.844H445.57C445.893 253.844 446.198 253.906 446.484 254.031C446.771 254.151 447.021 254.318 447.234 254.531C447.448 254.745 447.615 254.995 447.734 255.281C447.859 255.568 447.922 255.872 447.922 256.195V256.516L446.961 256.672V256.141C446.961 255.948 446.924 255.768 446.852 255.602C446.779 255.43 446.68 255.281 446.555 255.156C446.43 255.031 446.281 254.932 446.109 254.859C445.943 254.786 445.763 254.75 445.57 254.75H444.93C444.737 254.75 444.555 254.786 444.383 254.859C444.216 254.932 444.07 255.031 443.945 255.156C443.82 255.281 443.721 255.43 443.648 255.602C443.576 255.768 443.539 255.948 443.539 256.141V259.859C443.539 260.052 443.576 260.234 443.648 260.406C443.721 260.573 443.82 260.719 443.945 260.844C444.07 260.969 444.216 261.068 444.383 261.141C444.555 261.214 444.737 261.25 444.93 261.25H445.57C445.763 261.25 445.943 261.214 446.109 261.141C446.281 261.068 446.43 260.969 446.555 260.844C446.68 260.719 446.779 260.573 446.852 260.406C446.924 260.234 446.961 260.052 446.961 259.859V259.328L447.922 259.484V259.805ZM451.141 265.203H450.211L451.633 261.312L449.039 254H450L452.086 260.062L452.117 260.477L452.148 260.062L454.227 254H455.188L451.141 265.203ZM461.5 259.805C461.5 260.128 461.438 260.432 461.312 260.719C461.193 261.005 461.026 261.255 460.812 261.469C460.599 261.682 460.349 261.852 460.062 261.977C459.776 262.096 459.471 262.156 459.148 262.156H458.508C458.185 262.156 457.88 262.096 457.594 261.977C457.307 261.852 457.057 261.682 456.844 261.469C456.63 261.255 456.461 261.005 456.336 260.719C456.216 260.432 456.156 260.128 456.156 259.805V256.195C456.156 255.872 456.216 255.568 456.336 255.281C456.461 254.995 456.63 254.745 456.844 254.531C457.057 254.318 457.307 254.151 457.594 254.031C457.88 253.906 458.185 253.844 458.508 253.844H459.148C459.471 253.844 459.776 253.906 460.062 254.031C460.349 254.151 460.599 254.318 460.812 254.531C461.026 254.745 461.193 254.995 461.312 255.281C461.438 255.568 461.5 255.872 461.5 256.195V256.516L460.539 256.672V256.141C460.539 255.948 460.503 255.768 460.43 255.602C460.357 255.43 460.258 255.281 460.133 255.156C460.008 255.031 459.859 254.932 459.688 254.859C459.521 254.786 459.341 254.75 459.148 254.75H458.508C458.315 254.75 458.133 254.786 457.961 254.859C457.794 254.932 457.648 255.031 457.523 255.156C457.398 255.281 457.299 255.43 457.227 255.602C457.154 255.768 457.117 255.948 457.117 256.141V259.859C457.117 260.052 457.154 260.234 457.227 260.406C457.299 260.573 457.398 260.719 457.523 260.844C457.648 260.969 457.794 261.068 457.961 261.141C458.133 261.214 458.315 261.25 458.508 261.25H459.148C459.341 261.25 459.521 261.214 459.688 261.141C459.859 261.068 460.008 260.969 460.133 260.844C460.258 260.719 460.357 260.573 460.43 260.406C460.503 260.234 460.539 260.052 460.539 259.859V259.328L461.5 259.484V259.805ZM463.586 262V250.797H464.547V262H463.586ZM471.82 262L471.289 261.203C471.07 261.49 470.797 261.721 470.469 261.898C470.141 262.07 469.781 262.156 469.391 262.156H469.148C468.826 262.156 468.521 262.096 468.234 261.977C467.948 261.852 467.698 261.682 467.484 261.469C467.271 261.255 467.102 261.005 466.977 260.719C466.857 260.432 466.797 260.128 466.797 259.805V259.727C466.797 259.404 466.857 259.099 466.977 258.812C467.102 258.526 467.271 258.276 467.484 258.062C467.698 257.849 467.948 257.682 468.234 257.562C468.521 257.438 468.826 257.375 469.148 257.375H471.18V256.141C471.18 255.948 471.143 255.768 471.07 255.602C470.997 255.43 470.898 255.281 470.773 255.156C470.648 255.031 470.5 254.932 470.328 254.859C470.161 254.786 469.982 254.75 469.789 254.75H469.227C469.034 254.75 468.852 254.786 468.68 254.859C468.513 254.932 468.367 255.031 468.242 255.156C468.117 255.281 468.018 255.43 467.945 255.602C467.872 255.768 467.836 255.948 467.836 256.141V256.43L466.875 256.273V256.195C466.875 255.872 466.935 255.568 467.055 255.281C467.18 254.995 467.349 254.745 467.562 254.531C467.776 254.318 468.026 254.151 468.312 254.031C468.599 253.906 468.904 253.844 469.227 253.844H469.789C470.112 253.844 470.417 253.906 470.703 254.031C470.99 254.151 471.24 254.318 471.453 254.531C471.667 254.745 471.833 254.995 471.953 255.281C472.078 255.568 472.141 255.872 472.141 256.195V262H471.82ZM471.18 258.125H469.148C468.956 258.125 468.773 258.161 468.602 258.234C468.435 258.307 468.289 258.409 468.164 258.539C468.039 258.664 467.94 258.812 467.867 258.984C467.794 259.151 467.758 259.331 467.758 259.523V259.859C467.758 260.052 467.794 260.234 467.867 260.406C467.94 260.573 468.039 260.719 468.164 260.844C468.289 260.969 468.435 261.068 468.602 261.141C468.773 261.214 468.956 261.25 469.148 261.25H469.789C469.982 261.25 470.161 261.214 470.328 261.141C470.5 261.068 470.648 260.969 470.773 260.844C470.898 260.719 470.997 260.573 471.07 260.406C471.143 260.234 471.18 260.052 471.18 259.859V258.125ZM479.406 259.805C479.406 260.128 479.344 260.432 479.219 260.719C479.099 261.005 478.932 261.255 478.719 261.469C478.505 261.682 478.255 261.852 477.969 261.977C477.682 262.096 477.378 262.156 477.055 262.156H476.414C476.091 262.156 475.786 262.096 475.5 261.977C475.214 261.852 474.964 261.682 474.75 261.469C474.536 261.255 474.367 261.005 474.242 260.719C474.122 260.432 474.062 260.128 474.062 259.805V250.797H475.023V254.672C475.242 254.411 475.505 254.208 475.812 254.062C476.12 253.917 476.453 253.844 476.812 253.844H477.055C477.378 253.844 477.682 253.906 477.969 254.031C478.255 254.151 478.505 254.318 478.719 254.531C478.932 254.745 479.099 254.995 479.219 255.281C479.344 255.568 479.406 255.872 479.406 256.195V259.805ZM478.445 256.141C478.445 255.948 478.409 255.768 478.336 255.602C478.263 255.43 478.164 255.281 478.039 255.156C477.914 255.031 477.766 254.932 477.594 254.859C477.427 254.786 477.247 254.75 477.055 254.75H476.414C476.221 254.75 476.039 254.786 475.867 254.859C475.701 254.932 475.555 255.031 475.43 255.156C475.305 255.281 475.206 255.43 475.133 255.602C475.06 255.768 475.023 255.948 475.023 256.141V259.859C475.023 260.052 475.06 260.234 475.133 260.406C475.206 260.573 475.305 260.719 475.43 260.844C475.555 260.969 475.701 261.068 475.867 261.141C476.039 261.214 476.221 261.25 476.414 261.25H477.055C477.247 261.25 477.427 261.214 477.594 261.141C477.766 261.068 477.914 260.969 478.039 260.844C478.164 260.719 478.263 260.573 478.336 260.406C478.409 260.234 478.445 260.052 478.445 259.859V256.141ZM481.492 262V250.797H482.453V262H481.492ZM490.047 259.805C490.047 260.128 489.984 260.432 489.859 260.719C489.74 261.005 489.573 261.255 489.359 261.469C489.146 261.682 488.896 261.852 488.609 261.977C488.323 262.096 488.018 262.156 487.695 262.156H487.055C486.732 262.156 486.427 262.096 486.141 261.977C485.854 261.852 485.604 261.682 485.391 261.469C485.177 261.255 485.008 261.005 484.883 260.719C484.763 260.432 484.703 260.128 484.703 259.805V256.195C484.703 255.872 484.763 255.568 484.883 255.281C485.008 254.995 485.177 254.745 485.391 254.531C485.604 254.318 485.854 254.151 486.141 254.031C486.427 253.906 486.732 253.844 487.055 253.844H487.695C488.018 253.844 488.323 253.906 488.609 254.031C488.896 254.151 489.146 254.318 489.359 254.531C489.573 254.745 489.74 254.995 489.859 255.281C489.984 255.568 490.047 255.872 490.047 256.195V258.078H485.664V259.859C485.664 260.052 485.701 260.234 485.773 260.406C485.846 260.573 485.945 260.719 486.07 260.844C486.195 260.969 486.341 261.068 486.508 261.141C486.68 261.214 486.862 261.25 487.055 261.25H487.695C487.888 261.25 488.068 261.214 488.234 261.141C488.406 261.068 488.555 260.969 488.68 260.844C488.805 260.719 488.904 260.573 488.977 260.406C489.049 260.234 489.086 260.052 489.086 259.859V259.328L490.047 259.484V259.805ZM489.086 256.141C489.086 255.948 489.049 255.768 488.977 255.602C488.904 255.43 488.805 255.281 488.68 255.156C488.555 255.031 488.406 254.932 488.234 254.859C488.068 254.786 487.888 254.75 487.695 254.75H487.055C486.862 254.75 486.68 254.786 486.508 254.859C486.341 254.932 486.195 255.031 486.07 255.156C485.945 255.281 485.846 255.43 485.773 255.602C485.701 255.768 485.664 255.948 485.664 256.141V257.328H489.086V256.141Z" fill="#2A2C35"/>
<path d="M452.428 223.967C452.428 224.394 452.255 224.803 451.946 225.105C451.638 225.406 451.22 225.576 450.785 225.576H440.926C440.061 225.575 439.212 225.352 438.463 224.928C437.714 224.504 437.092 223.895 436.66 223.162C436.227 222.429 436 221.597 436 220.75C436 219.904 436.228 219.072 436.66 218.339L443.703 206.429L440.817 207.183C440.608 207.237 440.39 207.251 440.176 207.223C439.961 207.195 439.755 207.127 439.567 207.021C439.189 206.806 438.913 206.454 438.8 206.041C438.688 205.628 438.747 205.188 438.966 204.817C439.185 204.447 439.545 204.177 439.967 204.067L446.698 202.304C446.906 202.249 447.123 202.235 447.337 202.263C447.551 202.29 447.758 202.359 447.945 202.465C448.132 202.57 448.295 202.711 448.427 202.879C448.558 203.046 448.654 203.238 448.71 203.442L450.516 210.029C450.573 210.234 450.588 210.448 450.56 210.659C450.532 210.869 450.461 211.073 450.353 211.256C450.244 211.44 450.099 211.601 449.927 211.73C449.754 211.859 449.557 211.953 449.347 212.007C449.207 212.042 449.064 212.061 448.92 212.061C448.558 212.061 448.207 211.944 447.92 211.728C447.634 211.513 447.428 211.211 447.334 210.869L446.554 208.025L439.511 219.947C439.367 220.191 439.291 220.468 439.291 220.749C439.291 221.031 439.366 221.308 439.509 221.552C439.652 221.796 439.859 221.999 440.107 222.141C440.356 222.283 440.638 222.358 440.926 222.359H450.785C451.22 222.359 451.638 222.529 451.946 222.83C452.255 223.132 452.428 223.541 452.428 223.967ZM481.331 218.339L476.579 210.298C476.351 209.948 475.995 209.698 475.583 209.599C475.171 209.5 474.737 209.561 474.37 209.769C474.003 209.976 473.732 210.315 473.614 210.713C473.496 211.111 473.54 211.539 473.736 211.906L478.489 219.947C478.633 220.191 478.709 220.468 478.709 220.749C478.709 221.031 478.634 221.308 478.491 221.552C478.348 221.796 478.141 221.999 477.893 222.141C477.644 222.283 477.362 222.358 477.074 222.359H462.966L465.09 220.281C465.398 219.979 465.571 219.57 465.571 219.144C465.572 218.717 465.399 218.308 465.091 218.006C464.783 217.705 464.365 217.535 463.929 217.535C463.493 217.535 463.075 217.704 462.767 218.005L457.838 222.83C457.685 222.979 457.564 223.156 457.481 223.352C457.398 223.547 457.356 223.756 457.356 223.967C457.356 224.179 457.398 224.388 457.481 224.583C457.564 224.778 457.685 224.956 457.838 225.105L462.767 229.93C462.919 230.079 463.101 230.197 463.3 230.278C463.499 230.359 463.713 230.4 463.929 230.4C464.145 230.4 464.358 230.358 464.558 230.277C464.757 230.197 464.938 230.078 465.091 229.929C465.243 229.779 465.364 229.602 465.447 229.407C465.529 229.211 465.572 229.002 465.571 228.791C465.571 228.58 465.529 228.371 465.446 228.176C465.363 227.981 465.242 227.803 465.09 227.654L462.966 225.576H477.074C477.939 225.575 478.788 225.352 479.537 224.928C480.286 224.504 480.908 223.895 481.34 223.162C481.773 222.429 482 221.597 482 220.75C482 219.904 481.772 219.072 481.34 218.339H481.331ZM459 188.589C459.289 188.586 459.573 188.659 459.823 188.8C460.073 188.942 460.28 189.146 460.421 189.393L467.464 201.303L464.572 200.543C464.156 200.448 463.719 200.514 463.353 200.729C462.986 200.944 462.72 201.29 462.609 201.693C462.499 202.097 462.554 202.527 462.762 202.892C462.97 203.257 463.315 203.528 463.724 203.649L470.456 205.416C470.595 205.451 470.738 205.47 470.881 205.47C471.243 205.47 471.594 205.353 471.881 205.137C472.167 204.922 472.374 204.62 472.467 204.278L474.272 197.687C474.334 197.481 474.354 197.265 474.329 197.052C474.304 196.839 474.237 196.632 474.129 196.445C474.022 196.258 473.878 196.094 473.705 195.962C473.532 195.831 473.333 195.734 473.122 195.679C472.91 195.623 472.689 195.61 472.472 195.639C472.255 195.668 472.046 195.74 471.857 195.849C471.669 195.959 471.505 196.104 471.374 196.277C471.244 196.449 471.151 196.646 471.099 196.854L470.319 199.703L463.266 187.785C462.833 187.053 462.211 186.445 461.462 186.022C460.713 185.6 459.864 185.377 459 185.377C458.136 185.377 457.287 185.6 456.538 186.022C455.789 186.445 455.167 187.053 454.734 187.785L449.977 195.825C449.773 196.194 449.724 196.625 449.84 197.029C449.956 197.432 450.229 197.775 450.6 197.985C450.97 198.195 451.41 198.254 451.825 198.151C452.241 198.048 452.598 197.791 452.822 197.433L457.579 189.393C457.72 189.146 457.927 188.942 458.177 188.8C458.427 188.659 458.711 188.586 459 188.589Z" fill="#2A2C35"/>
<path d="M262.844 262L259.805 257.219H258.422V262H257.414V250.797H260.969C261.349 250.797 261.706 250.87 262.039 251.016C262.372 251.156 262.664 251.352 262.914 251.602C263.164 251.852 263.359 252.146 263.5 252.484C263.646 252.818 263.719 253.174 263.719 253.555V254.461C263.719 254.841 263.646 255.201 263.5 255.539C263.359 255.872 263.164 256.164 262.914 256.414C262.664 256.664 262.372 256.862 262.039 257.008C261.706 257.148 261.349 257.219 260.969 257.219L264.008 262H262.844ZM262.711 253.555C262.711 253.305 262.664 253.073 262.57 252.859C262.477 252.641 262.349 252.451 262.188 252.289C262.026 252.122 261.836 251.992 261.617 251.898C261.404 251.805 261.172 251.758 260.922 251.758H258.422V256.258H260.922C261.172 256.258 261.404 256.211 261.617 256.117C261.836 256.023 262.026 255.896 262.188 255.734C262.349 255.568 262.477 255.378 262.57 255.164C262.664 254.945 262.711 254.711 262.711 254.461V253.555ZM270.961 259.805C270.961 260.128 270.898 260.432 270.773 260.719C270.654 261.005 270.487 261.255 270.273 261.469C270.06 261.682 269.81 261.852 269.523 261.977C269.237 262.096 268.932 262.156 268.609 262.156H267.969C267.646 262.156 267.341 262.096 267.055 261.977C266.768 261.852 266.518 261.682 266.305 261.469C266.091 261.255 265.922 261.005 265.797 260.719C265.677 260.432 265.617 260.128 265.617 259.805V256.195C265.617 255.872 265.677 255.568 265.797 255.281C265.922 254.995 266.091 254.745 266.305 254.531C266.518 254.318 266.768 254.151 267.055 254.031C267.341 253.906 267.646 253.844 267.969 253.844H268.609C268.932 253.844 269.237 253.906 269.523 254.031C269.81 254.151 270.06 254.318 270.273 254.531C270.487 254.745 270.654 254.995 270.773 255.281C270.898 255.568 270.961 255.872 270.961 256.195V258.078H266.578V259.859C266.578 260.052 266.615 260.234 266.688 260.406C266.76 260.573 266.859 260.719 266.984 260.844C267.109 260.969 267.255 261.068 267.422 261.141C267.594 261.214 267.776 261.25 267.969 261.25H268.609C268.802 261.25 268.982 261.214 269.148 261.141C269.32 261.068 269.469 260.969 269.594 260.844C269.719 260.719 269.818 260.573 269.891 260.406C269.964 260.234 270 260.052 270 259.859V259.328L270.961 259.484V259.805ZM270 256.141C270 255.948 269.964 255.768 269.891 255.602C269.818 255.43 269.719 255.281 269.594 255.156C269.469 255.031 269.32 254.932 269.148 254.859C268.982 254.786 268.802 254.75 268.609 254.75H267.969C267.776 254.75 267.594 254.786 267.422 254.859C267.255 254.932 267.109 255.031 266.984 255.156C266.859 255.281 266.76 255.43 266.688 255.602C266.615 255.768 266.578 255.948 266.578 256.141V257.328H270V256.141ZM277.906 262L277.375 261.188C277.156 261.484 276.883 261.721 276.555 261.898C276.227 262.07 275.867 262.156 275.477 262.156H275.234C274.911 262.156 274.607 262.096 274.32 261.977C274.034 261.852 273.784 261.682 273.57 261.469C273.357 261.255 273.188 261.005 273.062 260.719C272.943 260.432 272.883 260.128 272.883 259.805V254H273.844V259.859C273.844 260.052 273.88 260.234 273.953 260.406C274.026 260.573 274.125 260.719 274.25 260.844C274.375 260.969 274.521 261.068 274.688 261.141C274.859 261.214 275.042 261.25 275.234 261.25H275.875C276.068 261.25 276.247 261.214 276.414 261.141C276.586 261.068 276.734 260.969 276.859 260.844C276.984 260.719 277.083 260.573 277.156 260.406C277.229 260.234 277.266 260.052 277.266 259.859V254H278.227V262H277.906ZM285.648 259.969C285.648 260.292 285.583 260.589 285.453 260.859C285.323 261.125 285.146 261.354 284.922 261.547C284.698 261.74 284.438 261.891 284.141 262C283.849 262.104 283.542 262.156 283.219 262.156H282.578C282.255 262.156 281.945 262.096 281.648 261.977C281.357 261.852 281.099 261.682 280.875 261.469C280.656 261.255 280.479 261.005 280.344 260.719C280.214 260.432 280.148 260.128 280.148 259.805V259.484L281.109 259.328V259.859C281.109 260.052 281.148 260.234 281.227 260.406C281.31 260.573 281.419 260.719 281.555 260.844C281.69 260.969 281.846 261.068 282.023 261.141C282.201 261.214 282.385 261.25 282.578 261.25H283.219C283.411 261.25 283.596 261.221 283.773 261.164C283.951 261.107 284.107 261.026 284.242 260.922C284.383 260.812 284.492 260.682 284.57 260.531C284.654 260.38 284.695 260.208 284.695 260.016C284.695 259.729 284.633 259.495 284.508 259.312C284.383 259.13 284.216 258.979 284.008 258.859C283.805 258.734 283.57 258.633 283.305 258.555C283.044 258.471 282.776 258.391 282.5 258.312C282.224 258.229 281.953 258.135 281.688 258.031C281.427 257.927 281.193 257.792 280.984 257.625C280.781 257.453 280.617 257.24 280.492 256.984C280.367 256.729 280.305 256.411 280.305 256.031C280.305 255.708 280.367 255.414 280.492 255.148C280.617 254.878 280.786 254.646 281 254.453C281.214 254.26 281.461 254.112 281.742 254.008C282.029 253.898 282.333 253.844 282.656 253.844H283.219C283.542 253.844 283.846 253.906 284.133 254.031C284.419 254.151 284.669 254.318 284.883 254.531C285.096 254.745 285.263 254.995 285.383 255.281C285.508 255.568 285.57 255.872 285.57 256.195V256.227L284.609 256.383V256.141C284.609 255.948 284.573 255.768 284.5 255.602C284.427 255.43 284.328 255.281 284.203 255.156C284.078 255.031 283.93 254.932 283.758 254.859C283.591 254.786 283.411 254.75 283.219 254.75H282.656C282.464 254.75 282.281 254.779 282.109 254.836C281.943 254.893 281.797 254.977 281.672 255.086C281.547 255.19 281.448 255.318 281.375 255.469C281.302 255.62 281.266 255.792 281.266 255.984C281.266 256.26 281.328 256.487 281.453 256.664C281.578 256.836 281.742 256.982 281.945 257.102C282.154 257.221 282.388 257.323 282.648 257.406C282.914 257.484 283.182 257.568 283.453 257.656C283.729 257.74 283.997 257.836 284.258 257.945C284.523 258.055 284.758 258.195 284.961 258.367C285.169 258.539 285.336 258.755 285.461 259.016C285.586 259.271 285.648 259.589 285.648 259.969ZM292.516 262L291.984 261.203C291.766 261.49 291.492 261.721 291.164 261.898C290.836 262.07 290.477 262.156 290.086 262.156H289.844C289.521 262.156 289.216 262.096 288.93 261.977C288.643 261.852 288.393 261.682 288.18 261.469C287.966 261.255 287.797 261.005 287.672 260.719C287.552 260.432 287.492 260.128 287.492 259.805V259.727C287.492 259.404 287.552 259.099 287.672 258.812C287.797 258.526 287.966 258.276 288.18 258.062C288.393 257.849 288.643 257.682 288.93 257.562C289.216 257.438 289.521 257.375 289.844 257.375H291.875V256.141C291.875 255.948 291.839 255.768 291.766 255.602C291.693 255.43 291.594 255.281 291.469 255.156C291.344 255.031 291.195 254.932 291.023 254.859C290.857 254.786 290.677 254.75 290.484 254.75H289.922C289.729 254.75 289.547 254.786 289.375 254.859C289.208 254.932 289.062 255.031 288.938 255.156C288.812 255.281 288.714 255.43 288.641 255.602C288.568 255.768 288.531 255.948 288.531 256.141V256.43L287.57 256.273V256.195C287.57 255.872 287.63 255.568 287.75 255.281C287.875 254.995 288.044 254.745 288.258 254.531C288.471 254.318 288.721 254.151 289.008 254.031C289.294 253.906 289.599 253.844 289.922 253.844H290.484C290.807 253.844 291.112 253.906 291.398 254.031C291.685 254.151 291.935 254.318 292.148 254.531C292.362 254.745 292.529 254.995 292.648 255.281C292.773 255.568 292.836 255.872 292.836 256.195V262H292.516ZM291.875 258.125H289.844C289.651 258.125 289.469 258.161 289.297 258.234C289.13 258.307 288.984 258.409 288.859 258.539C288.734 258.664 288.635 258.812 288.562 258.984C288.49 259.151 288.453 259.331 288.453 259.523V259.859C288.453 260.052 288.49 260.234 288.562 260.406C288.635 260.573 288.734 260.719 288.859 260.844C288.984 260.969 289.13 261.068 289.297 261.141C289.469 261.214 289.651 261.25 289.844 261.25H290.484C290.677 261.25 290.857 261.214 291.023 261.141C291.195 261.068 291.344 260.969 291.469 260.844C291.594 260.719 291.693 260.573 291.766 260.406C291.839 260.234 291.875 260.052 291.875 259.859V258.125ZM300.102 259.805C300.102 260.128 300.039 260.432 299.914 260.719C299.794 261.005 299.628 261.255 299.414 261.469C299.201 261.682 298.951 261.852 298.664 261.977C298.378 262.096 298.073 262.156 297.75 262.156H297.109C296.786 262.156 296.482 262.096 296.195 261.977C295.909 261.852 295.659 261.682 295.445 261.469C295.232 261.255 295.062 261.005 294.938 260.719C294.818 260.432 294.758 260.128 294.758 259.805V250.797H295.719V254.672C295.938 254.411 296.201 254.208 296.508 254.062C296.815 253.917 297.148 253.844 297.508 253.844H297.75C298.073 253.844 298.378 253.906 298.664 254.031C298.951 254.151 299.201 254.318 299.414 254.531C299.628 254.745 299.794 254.995 299.914 255.281C300.039 255.568 300.102 255.872 300.102 256.195V259.805ZM299.141 256.141C299.141 255.948 299.104 255.768 299.031 255.602C298.958 255.43 298.859 255.281 298.734 255.156C298.609 255.031 298.461 254.932 298.289 254.859C298.122 254.786 297.943 254.75 297.75 254.75H297.109C296.917 254.75 296.734 254.786 296.562 254.859C296.396 254.932 296.25 255.031 296.125 255.156C296 255.281 295.901 255.43 295.828 255.602C295.755 255.768 295.719 255.948 295.719 256.141V259.859C295.719 260.052 295.755 260.234 295.828 260.406C295.901 260.573 296 260.719 296.125 260.844C296.25 260.969 296.396 261.068 296.562 261.141C296.734 261.214 296.917 261.25 297.109 261.25H297.75C297.943 261.25 298.122 261.214 298.289 261.141C298.461 261.068 298.609 260.969 298.734 260.844C298.859 260.719 298.958 260.573 299.031 260.406C299.104 260.234 299.141 260.052 299.141 259.859V256.141ZM302.188 262V250.797H303.148V262H302.188ZM310.742 259.805C310.742 260.128 310.68 260.432 310.555 260.719C310.435 261.005 310.268 261.255 310.055 261.469C309.841 261.682 309.591 261.852 309.305 261.977C309.018 262.096 308.714 262.156 308.391 262.156H307.75C307.427 262.156 307.122 262.096 306.836 261.977C306.549 261.852 306.299 261.682 306.086 261.469C305.872 261.255 305.703 261.005 305.578 260.719C305.458 260.432 305.398 260.128 305.398 259.805V256.195C305.398 255.872 305.458 255.568 305.578 255.281C305.703 254.995 305.872 254.745 306.086 254.531C306.299 254.318 306.549 254.151 306.836 254.031C307.122 253.906 307.427 253.844 307.75 253.844H308.391C308.714 253.844 309.018 253.906 309.305 254.031C309.591 254.151 309.841 254.318 310.055 254.531C310.268 254.745 310.435 254.995 310.555 255.281C310.68 255.568 310.742 255.872 310.742 256.195V258.078H306.359V259.859C306.359 260.052 306.396 260.234 306.469 260.406C306.542 260.573 306.641 260.719 306.766 260.844C306.891 260.969 307.036 261.068 307.203 261.141C307.375 261.214 307.557 261.25 307.75 261.25H308.391C308.583 261.25 308.763 261.214 308.93 261.141C309.102 261.068 309.25 260.969 309.375 260.844C309.5 260.719 309.599 260.573 309.672 260.406C309.745 260.234 309.781 260.052 309.781 259.859V259.328L310.742 259.484V259.805ZM309.781 256.141C309.781 255.948 309.745 255.768 309.672 255.602C309.599 255.43 309.5 255.281 309.375 255.156C309.25 255.031 309.102 254.932 308.93 254.859C308.763 254.786 308.583 254.75 308.391 254.75H307.75C307.557 254.75 307.375 254.786 307.203 254.859C307.036 254.932 306.891 255.031 306.766 255.156C306.641 255.281 306.542 255.43 306.469 255.602C306.396 255.768 306.359 255.948 306.359 256.141V257.328H309.781V256.141Z" fill="#2A2C35"/>
<circle cx="284" cy="209" r="36" fill="#C3CCC0"/>
<path d="M266 189.45H279.214M279.214 189.45V202.384M279.214 189.45C270.406 196.789 266 204.117 266 211.437C266 218.758 268.643 225.224 273.929 230.837M303 230.837H289.786M289.786 230.837V217.904M289.786 230.837C298.594 223.499 303 216.171 303 208.851C303 201.53 300.357 195.063 295.072 189.45" stroke="#2A2C35" stroke-width="4.28571" stroke-linecap="round" stroke-linejoin="round"/>
<path d="M340.773 134L337.734 129.219H336.352V134H335.344V122.797H338.898C339.279 122.797 339.635 122.87 339.969 123.016C340.302 123.156 340.594 123.352 340.844 123.602C341.094 123.852 341.289 124.146 341.43 124.484C341.576 124.818 341.648 125.174 341.648 125.555V126.461C341.648 126.841 341.576 127.201 341.43 127.539C341.289 127.872 341.094 128.164 340.844 128.414C340.594 128.664 340.302 128.862 339.969 129.008C339.635 129.148 339.279 129.219 338.898 129.219L341.938 134H340.773ZM340.641 125.555C340.641 125.305 340.594 125.073 340.5 124.859C340.406 124.641 340.279 124.451 340.117 124.289C339.956 124.122 339.766 123.992 339.547 123.898C339.333 123.805 339.102 123.758 338.852 123.758H336.352V128.258H338.852C339.102 128.258 339.333 128.211 339.547 128.117C339.766 128.023 339.956 127.896 340.117 127.734C340.279 127.568 340.406 127.378 340.5 127.164C340.594 126.945 340.641 126.711 340.641 126.461V125.555ZM348.891 131.805C348.891 132.128 348.828 132.432 348.703 132.719C348.583 133.005 348.417 133.255 348.203 133.469C347.99 133.682 347.74 133.852 347.453 133.977C347.167 134.096 346.862 134.156 346.539 134.156H345.898C345.576 134.156 345.271 134.096 344.984 133.977C344.698 133.852 344.448 133.682 344.234 133.469C344.021 133.255 343.852 133.005 343.727 132.719C343.607 132.432 343.547 132.128 343.547 131.805V128.195C343.547 127.872 343.607 127.568 343.727 127.281C343.852 126.995 344.021 126.745 344.234 126.531C344.448 126.318 344.698 126.151 344.984 126.031C345.271 125.906 345.576 125.844 345.898 125.844H346.539C346.862 125.844 347.167 125.906 347.453 126.031C347.74 126.151 347.99 126.318 348.203 126.531C348.417 126.745 348.583 126.995 348.703 127.281C348.828 127.568 348.891 127.872 348.891 128.195V130.078H344.508V131.859C344.508 132.052 344.544 132.234 344.617 132.406C344.69 132.573 344.789 132.719 344.914 132.844C345.039 132.969 345.185 133.068 345.352 133.141C345.523 133.214 345.706 133.25 345.898 133.25H346.539C346.732 133.25 346.911 133.214 347.078 133.141C347.25 133.068 347.398 132.969 347.523 132.844C347.648 132.719 347.747 132.573 347.82 132.406C347.893 132.234 347.93 132.052 347.93 131.859V131.328L348.891 131.484V131.805ZM347.93 128.141C347.93 127.948 347.893 127.768 347.82 127.602C347.747 127.43 347.648 127.281 347.523 127.156C347.398 127.031 347.25 126.932 347.078 126.859C346.911 126.786 346.732 126.75 346.539 126.75H345.898C345.706 126.75 345.523 126.786 345.352 126.859C345.185 126.932 345.039 127.031 344.914 127.156C344.789 127.281 344.69 127.43 344.617 127.602C344.544 127.768 344.508 127.948 344.508 128.141V129.328H347.93V128.141ZM356.312 131.969C356.312 132.292 356.247 132.589 356.117 132.859C355.987 133.125 355.81 133.354 355.586 133.547C355.362 133.74 355.102 133.891 354.805 134C354.513 134.104 354.206 134.156 353.883 134.156H353.242C352.919 134.156 352.609 134.096 352.312 133.977C352.021 133.852 351.763 133.682 351.539 133.469C351.32 133.255 351.143 133.005 351.008 132.719C350.878 132.432 350.812 132.128 350.812 131.805V131.484L351.773 131.328V131.859C351.773 132.052 351.812 132.234 351.891 132.406C351.974 132.573 352.083 132.719 352.219 132.844C352.354 132.969 352.51 133.068 352.688 133.141C352.865 133.214 353.049 133.25 353.242 133.25H353.883C354.076 133.25 354.26 133.221 354.438 133.164C354.615 133.107 354.771 133.026 354.906 132.922C355.047 132.812 355.156 132.682 355.234 132.531C355.318 132.38 355.359 132.208 355.359 132.016C355.359 131.729 355.297 131.495 355.172 131.312C355.047 131.13 354.88 130.979 354.672 130.859C354.469 130.734 354.234 130.633 353.969 130.555C353.708 130.471 353.44 130.391 353.164 130.312C352.888 130.229 352.617 130.135 352.352 130.031C352.091 129.927 351.857 129.792 351.648 129.625C351.445 129.453 351.281 129.24 351.156 128.984C351.031 128.729 350.969 128.411 350.969 128.031C350.969 127.708 351.031 127.414 351.156 127.148C351.281 126.878 351.451 126.646 351.664 126.453C351.878 126.26 352.125 126.112 352.406 126.008C352.693 125.898 352.997 125.844 353.32 125.844H353.883C354.206 125.844 354.51 125.906 354.797 126.031C355.083 126.151 355.333 126.318 355.547 126.531C355.76 126.745 355.927 126.995 356.047 127.281C356.172 127.568 356.234 127.872 356.234 128.195V128.227L355.273 128.383V128.141C355.273 127.948 355.237 127.768 355.164 127.602C355.091 127.43 354.992 127.281 354.867 127.156C354.742 127.031 354.594 126.932 354.422 126.859C354.255 126.786 354.076 126.75 353.883 126.75H353.32C353.128 126.75 352.945 126.779 352.773 126.836C352.607 126.893 352.461 126.977 352.336 127.086C352.211 127.19 352.112 127.318 352.039 127.469C351.966 127.62 351.93 127.792 351.93 127.984C351.93 128.26 351.992 128.487 352.117 128.664C352.242 128.836 352.406 128.982 352.609 129.102C352.818 129.221 353.052 129.323 353.312 129.406C353.578 129.484 353.846 129.568 354.117 129.656C354.393 129.74 354.661 129.836 354.922 129.945C355.188 130.055 355.422 130.195 355.625 130.367C355.833 130.539 356 130.755 356.125 131.016C356.25 131.271 356.312 131.589 356.312 131.969ZM363.5 131.805C363.5 132.128 363.438 132.432 363.312 132.719C363.193 133.005 363.026 133.255 362.812 133.469C362.599 133.682 362.349 133.852 362.062 133.977C361.776 134.096 361.471 134.156 361.148 134.156H360.906C360.547 134.156 360.214 134.083 359.906 133.938C359.599 133.792 359.336 133.589 359.117 133.328V137.203H358.156V126H358.477L359 126.812C359.219 126.516 359.492 126.281 359.82 126.109C360.154 125.932 360.516 125.844 360.906 125.844H361.148C361.471 125.844 361.776 125.906 362.062 126.031C362.349 126.151 362.599 126.318 362.812 126.531C363.026 126.745 363.193 126.995 363.312 127.281C363.438 127.568 363.5 127.872 363.5 128.195V131.805ZM362.539 128.141C362.539 127.948 362.503 127.768 362.43 127.602C362.357 127.43 362.258 127.281 362.133 127.156C362.008 127.031 361.859 126.932 361.688 126.859C361.521 126.786 361.341 126.75 361.148 126.75H360.508C360.315 126.75 360.133 126.786 359.961 126.859C359.794 126.932 359.648 127.031 359.523 127.156C359.398 127.281 359.299 127.43 359.227 127.602C359.154 127.768 359.117 127.948 359.117 128.141V131.859C359.117 132.052 359.154 132.234 359.227 132.406C359.299 132.573 359.398 132.719 359.523 132.844C359.648 132.969 359.794 133.068 359.961 133.141C360.133 133.214 360.315 133.25 360.508 133.25H361.148C361.341 133.25 361.521 133.214 361.688 133.141C361.859 133.068 362.008 132.969 362.133 132.844C362.258 132.719 362.357 132.573 362.43 132.406C362.503 132.234 362.539 132.052 362.539 131.859V128.141ZM370.766 131.805C370.766 132.128 370.703 132.432 370.578 132.719C370.458 133.005 370.292 133.255 370.078 133.469C369.865 133.682 369.615 133.852 369.328 133.977C369.042 134.096 368.737 134.156 368.414 134.156H367.773C367.451 134.156 367.146 134.096 366.859 133.977C366.573 133.852 366.323 133.682 366.109 133.469C365.896 133.255 365.727 133.005 365.602 132.719C365.482 132.432 365.422 132.128 365.422 131.805V128.195C365.422 127.872 365.482 127.568 365.602 127.281C365.727 126.995 365.896 126.745 366.109 126.531C366.323 126.318 366.573 126.151 366.859 126.031C367.146 125.906 367.451 125.844 367.773 125.844H368.414C368.737 125.844 369.042 125.906 369.328 126.031C369.615 126.151 369.865 126.318 370.078 126.531C370.292 126.745 370.458 126.995 370.578 127.281C370.703 127.568 370.766 127.872 370.766 128.195V131.805ZM369.805 128.141C369.805 127.948 369.768 127.768 369.695 127.602C369.622 127.43 369.523 127.281 369.398 127.156C369.273 127.031 369.125 126.932 368.953 126.859C368.786 126.786 368.607 126.75 368.414 126.75H367.773C367.581 126.75 367.398 126.786 367.227 126.859C367.06 126.932 366.914 127.031 366.789 127.156C366.664 127.281 366.565 127.43 366.492 127.602C366.419 127.768 366.383 127.948 366.383 128.141V131.859C366.383 132.052 366.419 132.234 366.492 132.406C366.565 132.573 366.664 132.719 366.789 132.844C366.914 132.969 367.06 133.068 367.227 133.141C367.398 133.214 367.581 133.25 367.773 133.25H368.414C368.607 133.25 368.786 133.214 368.953 133.141C369.125 133.068 369.273 132.969 369.398 132.844C369.523 132.719 369.622 132.573 369.695 132.406C369.768 132.234 369.805 132.052 369.805 131.859V128.141ZM377.07 134V128.141C377.07 127.948 377.034 127.768 376.961 127.602C376.888 127.43 376.789 127.281 376.664 127.156C376.539 127.031 376.391 126.932 376.219 126.859C376.052 126.786 375.872 126.75 375.68 126.75H375.039C374.846 126.75 374.664 126.786 374.492 126.859C374.326 126.932 374.18 127.031 374.055 127.156C373.93 127.281 373.831 127.43 373.758 127.602C373.685 127.768 373.648 127.948 373.648 128.141V134H372.688V126H373.008L373.531 126.812C373.75 126.516 374.023 126.281 374.352 126.109C374.685 125.932 375.047 125.844 375.438 125.844H375.68C376.003 125.844 376.307 125.906 376.594 126.031C376.88 126.151 377.13 126.318 377.344 126.531C377.557 126.745 377.724 126.995 377.844 127.281C377.969 127.568 378.031 127.872 378.031 128.195V134H377.07ZM385.453 131.969C385.453 132.292 385.388 132.589 385.258 132.859C385.128 133.125 384.951 133.354 384.727 133.547C384.503 133.74 384.242 133.891 383.945 134C383.654 134.104 383.346 134.156 383.023 134.156H382.383C382.06 134.156 381.75 134.096 381.453 133.977C381.161 133.852 380.904 133.682 380.68 133.469C380.461 133.255 380.284 133.005 380.148 132.719C380.018 132.432 379.953 132.128 379.953 131.805V131.484L380.914 131.328V131.859C380.914 132.052 380.953 132.234 381.031 132.406C381.115 132.573 381.224 132.719 381.359 132.844C381.495 132.969 381.651 133.068 381.828 133.141C382.005 133.214 382.19 133.25 382.383 133.25H383.023C383.216 133.25 383.401 133.221 383.578 133.164C383.755 133.107 383.911 133.026 384.047 132.922C384.188 132.812 384.297 132.682 384.375 132.531C384.458 132.38 384.5 132.208 384.5 132.016C384.5 131.729 384.438 131.495 384.312 131.312C384.188 131.13 384.021 130.979 383.812 130.859C383.609 130.734 383.375 130.633 383.109 130.555C382.849 130.471 382.581 130.391 382.305 130.312C382.029 130.229 381.758 130.135 381.492 130.031C381.232 129.927 380.997 129.792 380.789 129.625C380.586 129.453 380.422 129.24 380.297 128.984C380.172 128.729 380.109 128.411 380.109 128.031C380.109 127.708 380.172 127.414 380.297 127.148C380.422 126.878 380.591 126.646 380.805 126.453C381.018 126.26 381.266 126.112 381.547 126.008C381.833 125.898 382.138 125.844 382.461 125.844H383.023C383.346 125.844 383.651 125.906 383.938 126.031C384.224 126.151 384.474 126.318 384.688 126.531C384.901 126.745 385.068 126.995 385.188 127.281C385.312 127.568 385.375 127.872 385.375 128.195V128.227L384.414 128.383V128.141C384.414 127.948 384.378 127.768 384.305 127.602C384.232 127.43 384.133 127.281 384.008 127.156C383.883 127.031 383.734 126.932 383.562 126.859C383.396 126.786 383.216 126.75 383.023 126.75H382.461C382.268 126.75 382.086 126.779 381.914 126.836C381.747 126.893 381.602 126.977 381.477 127.086C381.352 127.19 381.253 127.318 381.18 127.469C381.107 127.62 381.07 127.792 381.07 127.984C381.07 128.26 381.133 128.487 381.258 128.664C381.383 128.836 381.547 128.982 381.75 129.102C381.958 129.221 382.193 129.323 382.453 129.406C382.719 129.484 382.987 129.568 383.258 129.656C383.534 129.74 383.802 129.836 384.062 129.945C384.328 130.055 384.562 130.195 384.766 130.367C384.974 130.539 385.141 130.755 385.266 131.016C385.391 131.271 385.453 131.589 385.453 131.969ZM387.539 124.078V122.797H388.656V124.078H387.539ZM387.617 134V126H388.578V134H387.617ZM396.172 131.805C396.172 132.128 396.109 132.432 395.984 132.719C395.865 133.005 395.698 133.255 395.484 133.469C395.271 133.682 395.021 133.852 394.734 133.977C394.448 134.096 394.143 134.156 393.82 134.156H393.18C392.857 134.156 392.552 134.096 392.266 133.977C391.979 133.852 391.729 133.682 391.516 133.469C391.302 133.255 391.133 133.005 391.008 132.719C390.888 132.432 390.828 132.128 390.828 131.805V122.797H391.789V126.672C392.008 126.411 392.271 126.208 392.578 126.062C392.885 125.917 393.219 125.844 393.578 125.844H393.82C394.143 125.844 394.448 125.906 394.734 126.031C395.021 126.151 395.271 126.318 395.484 126.531C395.698 126.745 395.865 126.995 395.984 127.281C396.109 127.568 396.172 127.872 396.172 128.195V131.805ZM395.211 128.141C395.211 127.948 395.174 127.768 395.102 127.602C395.029 127.43 394.93 127.281 394.805 127.156C394.68 127.031 394.531 126.932 394.359 126.859C394.193 126.786 394.013 126.75 393.82 126.75H393.18C392.987 126.75 392.805 126.786 392.633 126.859C392.466 126.932 392.32 127.031 392.195 127.156C392.07 127.281 391.971 127.43 391.898 127.602C391.826 127.768 391.789 127.948 391.789 128.141V131.859C391.789 132.052 391.826 132.234 391.898 132.406C391.971 132.573 392.07 132.719 392.195 132.844C392.32 132.969 392.466 133.068 392.633 133.141C392.805 133.214 392.987 133.25 393.18 133.25H393.82C394.013 133.25 394.193 133.214 394.359 133.141C394.531 133.068 394.68 132.969 394.805 132.844C394.93 132.719 395.029 132.573 395.102 132.406C395.174 132.234 395.211 132.052 395.211 131.859V128.141ZM398.258 134V122.797H399.219V134H398.258ZM406.812 131.805C406.812 132.128 406.75 132.432 406.625 132.719C406.505 133.005 406.339 133.255 406.125 133.469C405.911 133.682 405.661 133.852 405.375 133.977C405.089 134.096 404.784 134.156 404.461 134.156H403.82C403.497 134.156 403.193 134.096 402.906 133.977C402.62 133.852 402.37 133.682 402.156 133.469C401.943 133.255 401.773 133.005 401.648 132.719C401.529 132.432 401.469 132.128 401.469 131.805V128.195C401.469 127.872 401.529 127.568 401.648 127.281C401.773 126.995 401.943 126.745 402.156 126.531C402.37 126.318 402.62 126.151 402.906 126.031C403.193 125.906 403.497 125.844 403.82 125.844H404.461C404.784 125.844 405.089 125.906 405.375 126.031C405.661 126.151 405.911 126.318 406.125 126.531C406.339 126.745 406.505 126.995 406.625 127.281C406.75 127.568 406.812 127.872 406.812 128.195V130.078H402.43V131.859C402.43 132.052 402.466 132.234 402.539 132.406C402.612 132.573 402.711 132.719 402.836 132.844C402.961 132.969 403.107 133.068 403.273 133.141C403.445 133.214 403.628 133.25 403.82 133.25H404.461C404.654 133.25 404.833 133.214 405 133.141C405.172 133.068 405.32 132.969 405.445 132.844C405.57 132.719 405.669 132.573 405.742 132.406C405.815 132.234 405.852 132.052 405.852 131.859V131.328L406.812 131.484V131.805ZM405.852 128.141C405.852 127.948 405.815 127.768 405.742 127.602C405.669 127.43 405.57 127.281 405.445 127.156C405.32 127.031 405.172 126.932 405 126.859C404.833 126.786 404.654 126.75 404.461 126.75H403.82C403.628 126.75 403.445 126.786 403.273 126.859C403.107 126.932 402.961 127.031 402.836 127.156C402.711 127.281 402.612 127.43 402.539 127.602C402.466 127.768 402.43 127.948 402.43 128.141V129.328H405.852V128.141ZM351.562 151.969C351.562 152.292 351.497 152.589 351.367 152.859C351.237 153.125 351.06 153.354 350.836 153.547C350.612 153.74 350.352 153.891 350.055 154C349.763 154.104 349.456 154.156 349.133 154.156H348.492C348.169 154.156 347.859 154.096 347.562 153.977C347.271 153.852 347.013 153.682 346.789 153.469C346.57 153.255 346.393 153.005 346.258 152.719C346.128 152.432 346.062 152.128 346.062 151.805V151.484L347.023 151.328V151.859C347.023 152.052 347.062 152.234 347.141 152.406C347.224 152.573 347.333 152.719 347.469 152.844C347.604 152.969 347.76 153.068 347.938 153.141C348.115 153.214 348.299 153.25 348.492 153.25H349.133C349.326 153.25 349.51 153.221 349.688 153.164C349.865 153.107 350.021 153.026 350.156 152.922C350.297 152.812 350.406 152.682 350.484 152.531C350.568 152.38 350.609 152.208 350.609 152.016C350.609 151.729 350.547 151.495 350.422 151.312C350.297 151.13 350.13 150.979 349.922 150.859C349.719 150.734 349.484 150.633 349.219 150.555C348.958 150.471 348.69 150.391 348.414 150.312C348.138 150.229 347.867 150.135 347.602 150.031C347.341 149.927 347.107 149.792 346.898 149.625C346.695 149.453 346.531 149.24 346.406 148.984C346.281 148.729 346.219 148.411 346.219 148.031C346.219 147.708 346.281 147.414 346.406 147.148C346.531 146.878 346.701 146.646 346.914 146.453C347.128 146.26 347.375 146.112 347.656 146.008C347.943 145.898 348.247 145.844 348.57 145.844H349.133C349.456 145.844 349.76 145.906 350.047 146.031C350.333 146.151 350.583 146.318 350.797 146.531C351.01 146.745 351.177 146.995 351.297 147.281C351.422 147.568 351.484 147.872 351.484 148.195V148.227L350.523 148.383V148.141C350.523 147.948 350.487 147.768 350.414 147.602C350.341 147.43 350.242 147.281 350.117 147.156C349.992 147.031 349.844 146.932 349.672 146.859C349.505 146.786 349.326 146.75 349.133 146.75H348.57C348.378 146.75 348.195 146.779 348.023 146.836C347.857 146.893 347.711 146.977 347.586 147.086C347.461 147.19 347.362 147.318 347.289 147.469C347.216 147.62 347.18 147.792 347.18 147.984C347.18 148.26 347.242 148.487 347.367 148.664C347.492 148.836 347.656 148.982 347.859 149.102C348.068 149.221 348.302 149.323 348.562 149.406C348.828 149.484 349.096 149.568 349.367 149.656C349.643 149.74 349.911 149.836 350.172 149.945C350.438 150.055 350.672 150.195 350.875 150.367C351.083 150.539 351.25 150.755 351.375 151.016C351.5 151.271 351.562 151.589 351.562 151.969ZM358.75 151.805C358.75 152.128 358.688 152.432 358.562 152.719C358.443 153.005 358.276 153.255 358.062 153.469C357.849 153.682 357.599 153.852 357.312 153.977C357.026 154.096 356.721 154.156 356.398 154.156H355.758C355.435 154.156 355.13 154.096 354.844 153.977C354.557 153.852 354.307 153.682 354.094 153.469C353.88 153.255 353.711 153.005 353.586 152.719C353.466 152.432 353.406 152.128 353.406 151.805V148.195C353.406 147.872 353.466 147.568 353.586 147.281C353.711 146.995 353.88 146.745 354.094 146.531C354.307 146.318 354.557 146.151 354.844 146.031C355.13 145.906 355.435 145.844 355.758 145.844H356.398C356.721 145.844 357.026 145.906 357.312 146.031C357.599 146.151 357.849 146.318 358.062 146.531C358.276 146.745 358.443 146.995 358.562 147.281C358.688 147.568 358.75 147.872 358.75 148.195V151.805ZM357.789 148.141C357.789 147.948 357.753 147.768 357.68 147.602C357.607 147.43 357.508 147.281 357.383 147.156C357.258 147.031 357.109 146.932 356.938 146.859C356.771 146.786 356.591 146.75 356.398 146.75H355.758C355.565 146.75 355.383 146.786 355.211 146.859C355.044 146.932 354.898 147.031 354.773 147.156C354.648 147.281 354.549 147.43 354.477 147.602C354.404 147.768 354.367 147.948 354.367 148.141V151.859C354.367 152.052 354.404 152.234 354.477 152.406C354.549 152.573 354.648 152.719 354.773 152.844C354.898 152.969 355.044 153.068 355.211 153.141C355.383 153.214 355.565 153.25 355.758 153.25H356.398C356.591 153.25 356.771 153.214 356.938 153.141C357.109 153.068 357.258 152.969 357.383 152.844C357.508 152.719 357.607 152.573 357.68 152.406C357.753 152.234 357.789 152.052 357.789 151.859V148.141ZM365.695 154L365.164 153.188C364.945 153.484 364.672 153.721 364.344 153.898C364.016 154.07 363.656 154.156 363.266 154.156H363.023C362.701 154.156 362.396 154.096 362.109 153.977C361.823 153.852 361.573 153.682 361.359 153.469C361.146 153.255 360.977 153.005 360.852 152.719C360.732 152.432 360.672 152.128 360.672 151.805V146H361.633V151.859C361.633 152.052 361.669 152.234 361.742 152.406C361.815 152.573 361.914 152.719 362.039 152.844C362.164 152.969 362.31 153.068 362.477 153.141C362.648 153.214 362.831 153.25 363.023 153.25H363.664C363.857 153.25 364.036 153.214 364.203 153.141C364.375 153.068 364.523 152.969 364.648 152.844C364.773 152.719 364.872 152.573 364.945 152.406C365.018 152.234 365.055 152.052 365.055 151.859V146H366.016V154H365.695ZM370.289 146.914C370.096 146.914 369.914 146.951 369.742 147.023C369.576 147.096 369.43 147.195 369.305 147.32C369.18 147.445 369.081 147.594 369.008 147.766C368.935 147.932 368.898 148.112 368.898 148.305V154H367.938V146H368.258L368.781 146.812C369 146.516 369.273 146.281 369.602 146.109C369.935 145.932 370.297 145.844 370.688 145.844H371.25V146.914H370.289ZM377.875 151.805C377.875 152.128 377.812 152.432 377.688 152.719C377.568 153.005 377.401 153.255 377.188 153.469C376.974 153.682 376.724 153.852 376.438 153.977C376.151 154.096 375.846 154.156 375.523 154.156H374.883C374.56 154.156 374.255 154.096 373.969 153.977C373.682 153.852 373.432 153.682 373.219 153.469C373.005 153.255 372.836 153.005 372.711 152.719C372.591 152.432 372.531 152.128 372.531 151.805V148.195C372.531 147.872 372.591 147.568 372.711 147.281C372.836 146.995 373.005 146.745 373.219 146.531C373.432 146.318 373.682 146.151 373.969 146.031C374.255 145.906 374.56 145.844 374.883 145.844H375.523C375.846 145.844 376.151 145.906 376.438 146.031C376.724 146.151 376.974 146.318 377.188 146.531C377.401 146.745 377.568 146.995 377.688 147.281C377.812 147.568 377.875 147.872 377.875 148.195V148.516L376.914 148.672V148.141C376.914 147.948 376.878 147.768 376.805 147.602C376.732 147.43 376.633 147.281 376.508 147.156C376.383 147.031 376.234 146.932 376.062 146.859C375.896 146.786 375.716 146.75 375.523 146.75H374.883C374.69 146.75 374.508 146.786 374.336 146.859C374.169 146.932 374.023 147.031 373.898 147.156C373.773 147.281 373.674 147.43 373.602 147.602C373.529 147.768 373.492 147.948 373.492 148.141V151.859C373.492 152.052 373.529 152.234 373.602 152.406C373.674 152.573 373.773 152.719 373.898 152.844C374.023 152.969 374.169 153.068 374.336 153.141C374.508 153.214 374.69 153.25 374.883 153.25H375.523C375.716 153.25 375.896 153.214 376.062 153.141C376.234 153.068 376.383 152.969 376.508 152.844C376.633 152.719 376.732 152.573 376.805 152.406C376.878 152.234 376.914 152.052 376.914 151.859V151.328L377.875 151.484V151.805ZM380.039 144.078V142.797H381.156V144.078H380.039ZM380.117 154V146H381.078V154H380.117ZM387.711 154V148.141C387.711 147.948 387.674 147.768 387.602 147.602C387.529 147.43 387.43 147.281 387.305 147.156C387.18 147.031 387.031 146.932 386.859 146.859C386.693 146.786 386.513 146.75 386.32 146.75H385.68C385.487 146.75 385.305 146.786 385.133 146.859C384.966 146.932 384.82 147.031 384.695 147.156C384.57 147.281 384.471 147.43 384.398 147.602C384.326 147.768 384.289 147.948 384.289 148.141V154H383.328V146H383.648L384.172 146.812C384.391 146.516 384.664 146.281 384.992 146.109C385.326 145.932 385.688 145.844 386.078 145.844H386.32C386.643 145.844 386.948 145.906 387.234 146.031C387.521 146.151 387.771 146.318 387.984 146.531C388.198 146.745 388.365 146.995 388.484 147.281C388.609 147.568 388.672 147.872 388.672 148.195V154H387.711ZM396.016 155.008C396.016 155.331 395.953 155.628 395.828 155.898C395.708 156.169 395.542 156.401 395.328 156.594C395.115 156.786 394.865 156.935 394.578 157.039C394.292 157.148 393.987 157.203 393.664 157.203H393.266C392.943 157.203 392.638 157.148 392.352 157.039C392.065 156.935 391.815 156.786 391.602 156.594C391.388 156.401 391.219 156.169 391.094 155.898C390.974 155.628 390.914 155.331 390.914 155.008V154.977C390.914 154.664 390.971 154.378 391.086 154.117C391.201 153.857 391.357 153.63 391.555 153.438C391.305 153.286 391.104 153.083 390.953 152.828C390.807 152.568 390.734 152.281 390.734 151.969C390.734 151.688 390.794 151.427 390.914 151.188C391.034 150.943 391.198 150.745 391.406 150.594C391.156 150.375 390.958 150.112 390.812 149.805C390.667 149.497 390.594 149.161 390.594 148.797V148.195C390.594 147.872 390.654 147.568 390.773 147.281C390.898 146.995 391.068 146.745 391.281 146.531C391.495 146.318 391.745 146.151 392.031 146.031C392.318 145.906 392.622 145.844 392.945 145.844H393.344C393.734 145.844 394.094 145.932 394.422 146.109C394.755 146.281 395.031 146.516 395.25 146.812L395.773 146H396.094V148.797C396.094 149.12 396.031 149.424 395.906 149.711C395.786 149.997 395.62 150.247 395.406 150.461C395.193 150.674 394.943 150.844 394.656 150.969C394.37 151.089 394.065 151.148 393.742 151.148H392.352C392.242 151.148 392.138 151.172 392.039 151.219C391.94 151.26 391.852 151.318 391.773 151.391C391.701 151.464 391.643 151.552 391.602 151.656C391.56 151.755 391.539 151.859 391.539 151.969C391.539 152.078 391.56 152.182 391.602 152.281C391.643 152.38 391.701 152.469 391.773 152.547C391.852 152.62 391.94 152.677 392.039 152.719C392.138 152.76 392.242 152.781 392.352 152.781H393.664C393.987 152.781 394.292 152.836 394.578 152.945C394.865 153.049 395.115 153.198 395.328 153.391C395.542 153.583 395.708 153.815 395.828 154.086C395.953 154.357 396.016 154.654 396.016 154.977V155.008ZM395.141 148.141C395.141 147.948 395.104 147.768 395.031 147.602C394.958 147.43 394.857 147.281 394.727 147.156C394.602 147.031 394.453 146.932 394.281 146.859C394.115 146.786 393.935 146.75 393.742 146.75H392.945C392.753 146.75 392.57 146.786 392.398 146.859C392.232 146.932 392.086 147.031 391.961 147.156C391.836 147.281 391.737 147.43 391.664 147.602C391.591 147.768 391.555 147.948 391.555 148.141V148.852C391.555 149.044 391.591 149.227 391.664 149.398C391.737 149.565 391.836 149.711 391.961 149.836C392.086 149.961 392.232 150.06 392.398 150.133C392.57 150.206 392.753 150.242 392.945 150.242H393.742C393.935 150.242 394.115 150.206 394.281 150.133C394.453 150.06 394.602 149.961 394.727 149.836C394.857 149.711 394.958 149.565 395.031 149.398C395.104 149.227 395.141 149.044 395.141 148.852V148.141ZM395.102 154.93C395.102 154.737 395.065 154.562 394.992 154.406C394.919 154.255 394.82 154.128 394.695 154.023C394.57 153.919 394.422 153.839 394.25 153.781C394.083 153.724 393.904 153.695 393.711 153.695H393.219C393.026 153.695 392.844 153.724 392.672 153.781C392.505 153.839 392.359 153.919 392.234 154.023C392.109 154.128 392.01 154.255 391.938 154.406C391.865 154.562 391.828 154.737 391.828 154.93V155.055C391.828 155.247 391.865 155.419 391.938 155.57C392.01 155.721 392.109 155.849 392.234 155.953C392.359 156.062 392.505 156.146 392.672 156.203C392.844 156.26 393.026 156.289 393.219 156.289H393.711C393.904 156.289 394.083 156.26 394.25 156.203C394.422 156.146 394.57 156.062 394.695 155.953C394.82 155.849 394.919 155.721 394.992 155.57C395.065 155.419 395.102 155.247 395.102 155.055V154.93Z" fill="#2A2C35"/>
<circle cx="371" cy="84" r="36" fill="#C3CCC0"/>
<path d="M393.929 68.7364C393.907 68.3573 393.748 67.9995 393.482 67.7309C393.217 67.4624 392.862 67.3018 392.487 67.2796C382.565 66.6985 374.598 69.7476 371.174 75.4584C368.912 79.234 368.916 83.8194 371.144 88.1935C369.876 89.7187 368.949 91.5029 368.427 93.4239L365.308 90.2605C366.807 87.0971 366.75 83.8 365.117 81.0608C362.586 76.8397 356.745 74.577 349.493 75.0071C349.118 75.0292 348.764 75.1898 348.498 75.4584C348.233 75.7269 348.074 76.0847 348.052 76.4638C347.624 83.7922 349.865 89.6949 354.042 92.2519C355.421 93.1032 357.005 93.5536 358.62 93.5537C360.188 93.5341 361.731 93.1587 363.136 92.4553L367.929 97.2983V102.852C367.929 103.263 368.09 103.657 368.378 103.948C368.666 104.239 369.056 104.402 369.462 104.402C369.869 104.402 370.259 104.239 370.547 103.948C370.834 103.657 370.996 103.263 370.996 102.852V97.1395C370.989 94.674 371.819 92.2807 373.348 90.3593C375.321 91.4011 377.508 91.9585 379.734 91.9865C381.885 91.9936 383.997 91.3996 385.835 90.2702C391.487 86.8143 394.512 78.7633 393.929 68.7364ZM355.624 89.6019C352.683 87.8022 351.019 83.5423 351.059 78.0562C356.488 78.0097 360.704 79.697 362.485 82.6687C363.414 84.2184 363.566 86.0258 362.956 87.8875L358.277 83.1588C357.987 82.8804 357.601 82.7275 357.201 82.7327C356.801 82.7379 356.419 82.9007 356.136 83.1865C355.853 83.4722 355.692 83.8584 355.687 84.2625C355.682 84.6666 355.833 85.0567 356.109 85.3497L360.788 90.0784C358.946 90.6944 357.159 90.5414 355.624 89.6019ZM384.246 87.6221C381.677 89.1931 378.658 89.3132 375.591 88.0095L385.883 77.6068C386.159 77.3138 386.31 76.9236 386.305 76.5195C386.3 76.1154 386.139 75.7293 385.856 75.4435C385.573 75.1577 385.191 74.9949 384.791 74.9897C384.391 74.9846 384.005 75.1375 383.715 75.4158L373.421 85.805C372.125 82.7055 372.242 79.6525 373.804 77.0586C376.477 72.603 382.814 70.1196 390.929 70.3113C391.113 78.5095 388.659 84.9216 384.246 87.6221Z" fill="#2A2C35"/>
<circle cx="568.5" cy="79.5" r="20.5" fill="#C3CCC0"/>
<circle cx="507.5" cy="59.5" r="14.5" fill="#C3CCC0"/>
<circle cx="347" cy="17" r="12" fill="#C3CCC0"/>
<circle cx="242.5" cy="20.5" r="19.5" fill="#C3CCC0"/>
<circle cx="451.5" cy="25.5" r="19.5" fill="#C3CCC0"/>
<circle cx="467.5" cy="114.5" r="26.5" fill="#C3CCC0"/>
<circle cx="356" cy="194" r="19" fill="#C3CCC0"/>
<circle cx="345.5" cy="245.5" r="10.5" fill="#C3CCC0"/>
<circle cx="222" cy="311" r="20" fill="#C3CCC0"/>
<circle cx="290" cy="306" r="16" fill="#C3CCC0"/>
<circle cx="369.5" cy="318.5" r="21.5" fill="#C3CCC0"/>
<circle cx="542.5" cy="289.5" r="16.5" fill="#C3CCC0"/>
<circle cx="427.5" cy="295.5" r="13.5" fill="#C3CCC0"/>
<circle cx="490.5" cy="313.5" r="18.5" fill="#C3CCC0"/>
<circle cx="552" cy="204" r="29" fill="#C3CCC0"/>
<circle cx="534.5" cy="142.5" r="12.5" fill="#C3CCC0"/>
<circle cx="389" cy="232" r="14" fill="#C3CCC0"/>
<path d="M216 72.5C216 92.1061 200.106 108 180.5 108C160.894 108 145 92.1061 145 72.5C145 52.8939 160.894 37 180.5 37C200.106 37 216 52.8939 216 72.5Z" fill="#C3CCC0"/>
<path d="M188 156C188 170.359 176.359 182 162 182C147.641 182 136 170.359 136 156C136 141.641 147.641 130 162 130C176.359 130 188 141.641 188 156Z" fill="#C3CCC0"/>
<path d="M119 116C119 130.359 107.359 142 93 142C78.6406 142 67 130.359 67 116C67 101.641 78.6406 90 93 90C107.359 90 119 101.641 119 116Z" fill="#C3CCC0"/>
<path d="M60 64C60 80.5685 46.5685 94 30 94C13.4315 94 0 80.5685 0 64C0 47.4315 13.4315 34 30 34C46.5685 34 60 47.4315 60 64Z" fill="#C3CCC0"/>
<path d="M112 175.5C112 181.299 107.299 186 101.5 186C95.701 186 91 181.299 91 175.5C91 169.701 95.701 165 101.5 165C107.299 165 112 169.701 112 175.5Z" fill="#C3CCC0"/>
<path d="M79 225.5C79 239.031 68.031 250 54.5 250C40.969 250 30 239.031 30 225.5C30 211.969 40.969 201 54.5 201C68.031 201 79 211.969 79 225.5Z" fill="#C3CCC0"/>
<path d="M98 306C98 316.493 89.4934 325 79 325C68.5066 325 60 316.493 60 306C60 295.507 68.5066 287 79 287C89.4934 287 98 295.507 98 306Z" fill="#C3CCC0"/>
<path d="M33 282C33 289.18 27.1797 295 20 295C12.8203 295 7 289.18 7 282C7 274.82 12.8203 269 20 269C27.1797 269 33 274.82 33 282Z" fill="#C3CCC0"/>
<path d="M53 150C53 161.046 44.0457 170 33 170C21.9543 170 13 161.046 13 150C13 138.954 21.9543 130 33 130C44.0457 130 53 138.954 53 150Z" fill="#C3CCC0"/>
<path d="M174 298C174 309.598 164.598 319 153 319C141.402 319 132 309.598 132 298C132 286.402 141.402 277 153 277C164.598 277 174 286.402 174 298Z" fill="#C3CCC0"/>
<path d="M129 44C129 54.4934 120.493 63 110 63C99.5066 63 91 54.4934 91 44C91 33.5066 99.5066 25 110 25C120.493 25 129 33.5066 129 44Z" fill="#C3CCC0"/>
<path d="M156 229.5C156 244.136 144.136 256 129.5 256C114.864 256 103 244.136 103 229.5C103 214.864 114.864 203 129.5 203C144.136 203 156 214.864 156 229.5Z" fill="#C3CCC0"/>
<circle cx="250" cy="128" r="27" fill="#C3CCC0"/>
<circle cx="283.5" cy="74.5" r="15.5" fill="#C3CCC0"/>
<circle cx="216.5" cy="186.5" r="13.5" fill="#C3CCC0"/>
<circle cx="204" cy="243" r="18" fill="#C3CCC0"/>
<circle cx="590" cy="322" r="17" fill="#C3CCC0"/>
<circle cx="619.5" cy="118.5" r="24.5" fill="#C3CCC0"/>
<circle cx="615.5" cy="182.5" r="13.5" fill="#C3CCC0"/>
<circle cx="735.5" cy="182.5" r="16.5" fill="#C3CCC0"/>
<circle cx="763" cy="113" r="23" fill="#C3CCC0"/>
<circle cx="739.5" cy="34.5" r="23.5" fill="#C3CCC0"/>
<circle cx="615" cy="261" r="25" fill="#C3CCC0"/>
<circle cx="649" cy="34" r="34" fill="#C3CCC0"/>
<circle cx="678" cy="151" r="21" fill="#C3CCC0"/>
<circle cx="752" cy="249" r="24" fill="#C3CCC0"/>
<circle cx="689" cy="90" r="17" fill="#C3CCC0"/>
<circle cx="673" cy="226" r="24" fill="#C3CCC0"/>
<circle cx="764" cy="317" r="17" fill="#C3CCC0"/>
<ellipse cx="689" cy="312" rx="32" ry="31" fill="#C3CCC0"/>
</svg>
