<?xml version="1.0" encoding="utf-8"?>
<!DOCTYPE svg PUBLIC "-//W3C//DTD SVG 1.1//EN" "http://www.w3.org/Graphics/SVG/1.1/DTD/svg11.dtd">
<svg version="1.1" xmlns="http://www.w3.org/2000/svg" xmlns:xlink="http://www.w3.org/1999/xlink" x="0px" y="0px" viewBox="0 0 256 256" enable-background="new 0 0 256 256" xml:space="preserve">
<metadata> Svg Vector Icons : http://www.onlinewebfonts.com/icon </metadata>
<g><g><path fill="#000000" d="M133.7,241.7l83.6-83.8c0,0,7.6-6.4,7.6-15.6V90.7l-10.2,5.8v27.8c0,0,0.6,9.6-11.3,20.6c-10.9,10.7-83.2,83.1-83.2,83.1L133.7,241.7L133.7,241.7L133.7,241.7z M157.3,87.6c0,0,16.6-72.2,49.7-73.2c32.7-1,39.7,24,38.9,39.6c-1,18.7-19.4,32.7-31.2,34.9c0-9.4,0-13.2,0-13.2s19.3-5.2,19.3-22.1c0-13.1-7.2-30.1-27-27.9c-23.4,2.6-40.1,68.5-40.1,68.5l-3.5,3.5L157.3,87.6L157.3,87.6L157.3,87.6z M191.9,50.2h9.2v71.5c0.2,6.1-7,13.5-7,13.5L87.6,240.8L10,162.3c0,0,94.7-94.2,105.1-104.7c7.4-7.4,12.2-7.4,12.2-7.4h55.5l-12.7,32.1l1.4,6.2c0.5,2.4,0.3,6.6,0.3,6.6c-1.3,5.3-6.1,9.3-11.9,9.3c-6.7,0-12.5-5.8-12.5-12.5c0-3.4,3.8-10.6,9.7-11.8l3.6-11.8c-15.7,3.2-24,13.2-24,23.8c0,13,10.5,23.5,23.5,23.5c13,0,23.5-10.5,23.5-23.5c-0.3-4.6-0.7-5.5-2.3-10.2c-1.3-4.2,6.3-22.3,6.3-22.3L191.9,50.2L191.9,50.2z"/></g></g>
</svg>