<svg width="74" height="50" viewBox="0 0 74 50" xmlns="http://www.w3.org/2000/svg">
<path d="M71.9018 6.69251L26.9018 48.4782C26.5099 48.8434 26.0442 49.1332 25.5314 49.3309C25.0186 49.5286 24.4688 49.6304 23.9136 49.6304C23.3583 49.6304 22.8085 49.5286 22.2957 49.3309C21.7829 49.1332 21.3172 48.8434 20.9253 48.4782L1.23779 30.197C0.84536 29.8326 0.53407 29.4 0.32169 28.9239C0.10931 28.4478 5.84761e-09 27.9375 0 27.4221C-5.84761e-09 26.9068 0.10931 26.3965 0.32169 25.9204C0.53407 25.4443 0.84536 25.0117 1.23779 24.6473C1.63021 24.2829 2.09609 23.9939 2.60882 23.7966C3.12155 23.5994 3.67109 23.4979 4.22607 23.4979C4.78104 23.4979 5.33058 23.5994 5.84331 23.7966C6.35604 23.9939 6.82192 24.2829 7.21435 24.6473L23.9171 40.157L65.9323 1.14937C66.7249 0.413441 67.7998 0 68.9206 0C70.0414 0 71.1163 0.413441 71.9089 1.14937C72.7014 1.8853 73.1467 2.88344 73.1467 3.92421C73.1467 4.96497 72.7014 5.96311 71.9089 6.69904L71.9018 6.69251Z"/>
</svg>
