<svg xmlns="http://www.w3.org/2000/svg" width="120" height="114" fill="none" viewBox="0 0 120 114">
  <path fill="#1D0C84" stroke="#2A2C35" stroke-width=".5" d="M30.776 28.12c.487.007 1.006.309 1.435.898.374.512.666 1.228.79 2.096l.042.381c.146 1.805.164 3.763.235 5.743.071 1.973.195 3.96.559 5.79.364 1.83.97 3.519 2.015 4.888 1.05 1.375 2.53 2.413 4.615 2.954l.468.122-.172-.453c-1.539-4.03-2.41-7.008-2.838-9.194-.43-2.191-.412-3.569-.195-4.412.213-.83.609-1.119.948-1.203.32-.08.646.006.839.107l.074.043c2.035 1.376 3.218 3.784 4.22 6.39.249.65.486 1.307.722 1.961.236.654.472 1.305.717 1.935.49 1.26 1.023 2.451 1.688 3.448l.015.025.022.02c.633.592 1.292 1.11 1.923 1.628.635.52 1.247 1.045 1.809 1.662 1.046 1.15 1.928 2.639 2.406 5.042l.09.493c.393 2.35.679 5.239.323 7.846-.355 2.608-1.345 4.883-3.45 6.09-2.015 1.049-4.398 1.458-6.2 1.296-.904-.082-1.634-.305-2.097-.636a1.353 1.353 0 0 1-.473-.55 1.065 1.065 0 0 1-.082-.508l.028-.196c.289-1.344.528-2.243.581-3.195.053-.964-.083-1.978-.518-3.584l-.029-.108-.1-.05-.658-.338c-3.196-1.704-5.07-3.591-6.403-5.71-1.074-1.705-1.8-3.56-2.577-5.62l-.81-2.13c-1.546-3.962-2.15-6.423-2.372-8.76-.222-2.353-.058-4.576-.052-8.112l.005-.417c.043-2.046.372-3.464.828-4.372.455-.908 1.016-1.273 1.528-1.308l.101-.003Zm59.448 0c.538-.01 1.144.342 1.63 1.31.455.908.784 2.326.827 4.372l.005.418c.005 3.536.17 5.759-.052 8.111-.207 2.191-.751 4.49-2.092 8.034l-.28.726c-1.144 2.935-1.955 5.476-3.387 7.75-1.422 2.26-3.46 4.256-7.06 6.048l-.101.05-.03.108c-.434 1.606-.57 2.62-.517 3.584.04.714.184 1.398.376 2.263l.205.932c.058.272.032.504-.055.703a1.353 1.353 0 0 1-.472.551c-.463.331-1.193.554-2.097.636-1.802.162-4.186-.247-6.2-1.295-2.106-1.208-3.095-3.483-3.45-6.09-.312-2.282-.132-4.78.181-6.941l.142-.906c.45-2.696 1.38-4.308 2.496-5.535.561-.617 1.174-1.141 1.809-1.662.631-.518 1.29-1.036 1.923-1.629l.022-.02.016-.024c.664-.997 1.197-2.189 1.687-3.448.245-.63.48-1.281.717-1.935.236-.654.473-1.312.722-1.96.971-2.526 2.11-4.865 4.032-6.26l.188-.131a1.23 1.23 0 0 1 .913-.15c.34.084.735.373.948 1.203.217.843.235 2.22-.195 4.412-.429 2.187-1.299 5.163-2.838 9.194l-.172.453.468-.122c2.085-.541 3.566-1.58 4.614-2.954 1.046-1.37 1.652-3.059 2.016-4.889.364-1.83.488-3.816.559-5.789.062-1.732.084-3.447.186-5.058l.049-.684c.085-1.041.405-1.892.832-2.478.376-.516.82-.81 1.251-.881l.184-.018ZM60.5.25c10.73 0 19.48 9.16 19.48 20.446 0 11.286-8.75 20.446-19.48 20.446s-19.48-9.16-19.48-20.446C41.02 9.41 49.77.25 60.5.25Zm4.113 25.605-2.016 2.529-.115.143.102.152.995 1.487-3.719-2.655 1.853-3.637 2.9 1.98Zm-9.209 2.079-4.532-3.341 1.637-2.033 2.895 5.374ZM70.56 16.397l-3.032 2.733-.494.445.665-.01 3.67-.053 2.22 5.282-5.725 1.514.294-4.011.028-.364-.35.106-3.327 1.02-4.461-4.16 5.143-3.458 5.369.957Zm-12.117 7.748-1.462-1.14 2.063-.944-.6 2.084Zm8.603-16.77-.18-.053-2.22-.644-.433-.126.123.433.706 2.495-7.237.795 1.67-5.244-.425-.241-6.694 7.564-.798-6.698-.048-.406-.34.229c-4.364 2.942-7.37 7.89-7.849 13.609l-.032.385.364-.128 3.944-1.38 3.67 3.198-4.385 3.923-.269.24.32.168 6.266 3.286-1.87 3.854-2.898.419-.479.07.333.35c3.022 3.174 7.168 5.176 11.77 5.297l.446.006a16.573 16.573 0 0 0 5.041-.782l.223-.071-.056-.227-.875-3.553 2.902-.83 1.604 2.616.135.22.215-.142a17.369 17.369 0 0 0 2.48-1.985l.076-.075V29.04l3.76-.667.132-.023.053-.123c1-2.292 1.557-4.842 1.557-7.53 0-5.578-2.397-10.56-6.177-13.875l-.137-.12-.157.094-1.822 1.107-.157.095.044.179.596 2.433-2.892-.197V7.375Z"/>
  <path fill="#1D0C84" d="m23.04 95-2.28-3.586h-1.037V95h-.756v-8.402h2.666c.285 0 .553.054.803.164a2.022 2.022 0 0 1 1.096 1.102c.109.25.163.517.163.802v.68c0 .285-.054.554-.164.808-.105.25-.252.469-.44.657a2.122 2.122 0 0 1-.655.445c-.25.105-.518.158-.803.158L23.913 95h-.874Zm-.1-6.334a1.35 1.35 0 0 0-.393-.95 1.304 1.304 0 0 0-.95-.398h-1.874v3.375h1.875a1.35 1.35 0 0 0 .95-.393 1.33 1.33 0 0 0 .391-.954v-.68Zm4.458-1.348V95h-.755v-7.682h-2.004v-.72h4.763v.72h-2.004ZM30.61 95v-8.402h4.729v.72h-3.973v3.123h3.217v.721h-3.217v3.117h3.973V95H30.61Zm8.942 0v-8.402h.756V95h-.756Zm5.73 0v-4.394a1.043 1.043 0 0 0-.305-.738 1.042 1.042 0 0 0-.738-.305h-.48a1.039 1.039 0 0 0-.739.304 1.043 1.043 0 0 0-.304.739V95h-.72v-6h.24l.392.61a1.78 1.78 0 0 1 1.43-.727h.181c.242 0 .471.047.686.14a1.732 1.732 0 0 1 .937.938c.094.215.141.443.141.686V95h-.72Zm5.93 0-.398-.61c-.165.223-.37.401-.616.534a1.716 1.716 0 0 1-.808.193h-.182c-.242 0-.47-.045-.685-.135a1.81 1.81 0 0 1-.944-.943 1.76 1.76 0 0 1-.135-.686v-2.706c0-.243.045-.471.135-.686.094-.215.22-.402.381-.563.16-.16.348-.285.563-.375.214-.093.443-.14.685-.14h.182a1.727 1.727 0 0 1 1.341.62v-2.905h.721V95h-.24Zm-.48-4.394a1.041 1.041 0 0 0-.305-.738 1.042 1.042 0 0 0-.739-.305h-.48a1.039 1.039 0 0 0-.738.304 1.041 1.041 0 0 0-.305.739v2.788a1.039 1.039 0 0 0 1.043 1.043h.48a1.042 1.042 0 0 0 .96-.633 1.04 1.04 0 0 0 .084-.41v-2.788Zm6.17 2.748c0 .242-.048.47-.141.685a1.746 1.746 0 0 1-1.623 1.078h-.48c-.243 0-.471-.045-.686-.135a1.813 1.813 0 0 1-.944-.943 1.76 1.76 0 0 1-.134-.686v-2.706c0-.243.044-.471.134-.686a1.83 1.83 0 0 1 .381-.563c.16-.16.348-.285.563-.375.215-.093.443-.14.685-.14h.48c.243 0 .471.047.686.14a1.734 1.734 0 0 1 .938.938c.093.215.14.443.14.686v1.412h-3.287v1.335a1.039 1.039 0 0 0 1.043 1.043h.48a1.042 1.042 0 0 0 .961-.633 1.04 1.04 0 0 0 .083-.41v-.398l.72.117v.24Zm-.721-2.748a1.041 1.041 0 0 0-.305-.738 1.042 1.042 0 0 0-.738-.305h-.48a1.039 1.039 0 0 0-.739.304 1.041 1.041 0 0 0-.305.739v.89h2.567v-.89Zm6.17 2.748c0 .242-.047.47-.141.685a1.746 1.746 0 0 1-1.623 1.078h-.182a1.727 1.727 0 0 1-1.342-.62v2.905h-.72V89h.24l.393.61a1.781 1.781 0 0 1 1.43-.727h.18c.243 0 .472.047.687.14a1.734 1.734 0 0 1 .937.938c.094.215.14.443.14.686v2.706Zm-.721-2.748a1.041 1.041 0 0 0-.305-.738 1.041 1.041 0 0 0-.738-.305h-.48a1.039 1.039 0 0 0-.739.304 1.041 1.041 0 0 0-.304.739v2.788a1.039 1.039 0 0 0 1.042 1.043h.48a1.041 1.041 0 0 0 .961-.633c.056-.128.083-.265.083-.41v-2.788Zm6.17 2.748c0 .242-.047.47-.14.685a1.73 1.73 0 0 1-.376.563c-.16.16-.347.287-.562.38a1.76 1.76 0 0 1-.686.135h-.48c-.243 0-.471-.045-.686-.135a1.813 1.813 0 0 1-.943-.943 1.758 1.758 0 0 1-.135-.686v-2.706c0-.243.045-.471.135-.686a1.735 1.735 0 0 1 .943-.938 1.71 1.71 0 0 1 .686-.14h.48c.242 0 .47.047.686.14a1.734 1.734 0 0 1 .937.938c.094.215.14.443.14.686v1.412h-3.286v1.335a1.04 1.04 0 0 0 1.043 1.043h.48a1.041 1.041 0 0 0 .96-.633c.056-.128.083-.265.083-.41v-.398l.72.117v.24Zm-.72-2.748a1.041 1.041 0 0 0-.305-.738 1.041 1.041 0 0 0-.739-.305h-.48a1.04 1.04 0 0 0-.739.304 1.041 1.041 0 0 0-.304.739v.89h2.566v-.89ZM72.526 95v-4.394a1.043 1.043 0 0 0-.305-.738 1.042 1.042 0 0 0-.738-.305h-.48a1.039 1.039 0 0 0-.738.304 1.043 1.043 0 0 0-.305.739V95h-.72v-6h.24l.392.61a1.78 1.78 0 0 1 1.43-.727h.181c.243 0 .471.047.686.14a1.732 1.732 0 0 1 .937.938c.094.215.141.443.141.686V95h-.72Zm5.93 0-.398-.61c-.165.223-.37.401-.616.534a1.716 1.716 0 0 1-.808.193h-.182c-.242 0-.47-.045-.685-.135a1.81 1.81 0 0 1-.944-.943 1.76 1.76 0 0 1-.135-.686v-2.706c0-.243.045-.471.135-.686.094-.215.22-.402.381-.563.16-.16.348-.285.563-.375.214-.093.443-.14.685-.14h.182a1.727 1.727 0 0 1 1.342.62v-2.905h.72V95h-.24Zm-.48-4.394a1.043 1.043 0 0 0-.305-.738 1.042 1.042 0 0 0-.738-.305h-.48a1.039 1.039 0 0 0-.74.304 1.043 1.043 0 0 0-.304.739v2.788a1.039 1.039 0 0 0 1.043 1.043h.48a1.042 1.042 0 0 0 .96-.633 1.04 1.04 0 0 0 .084-.41v-2.788Zm6.17 2.748c0 .242-.047.47-.141.685a1.746 1.746 0 0 1-1.623 1.078h-.48c-.243 0-.471-.045-.686-.135a1.813 1.813 0 0 1-.944-.943 1.76 1.76 0 0 1-.134-.686v-2.706c0-.243.045-.471.134-.686a1.83 1.83 0 0 1 .381-.563c.16-.16.348-.285.563-.375.215-.093.443-.14.685-.14h.48c.243 0 .471.047.686.14a1.734 1.734 0 0 1 .938.938c.094.215.14.443.14.686v1.412H80.86v1.335a1.039 1.039 0 0 0 1.043 1.043h.48a1.042 1.042 0 0 0 .961-.633 1.04 1.04 0 0 0 .083-.41v-.398l.72.117v.24Zm-.721-2.748a1.043 1.043 0 0 0-.305-.738 1.042 1.042 0 0 0-.738-.305h-.48a1.039 1.039 0 0 0-.739.304 1.041 1.041 0 0 0-.305.739v.89h2.567v-.89ZM88.875 95v-4.394a1.041 1.041 0 0 0-.305-.738 1.041 1.041 0 0 0-.738-.305h-.48a1.039 1.039 0 0 0-.739.304 1.041 1.041 0 0 0-.304.739V95h-.721v-6h.24l.393.61a1.78 1.78 0 0 1 1.43-.727h.181c.242 0 .47.047.686.14a1.734 1.734 0 0 1 .937.938c.094.215.14.443.14.686V95h-.72Zm4.348 0c-.22 0-.426-.041-.621-.123a1.594 1.594 0 0 1-.844-.844 1.546 1.546 0 0 1-.123-.615v-3.733h-1.078V89h1.078v-1.441l.72-.118V89h1.524v.686h-1.523v3.767c0 .121.021.234.064.34a.93.93 0 0 0 .463.457.892.892 0 0 0 .34.064h.656V95h-.656Zm2.226 0v-8.402h.72V95h-.72Zm3.381 2.402h-.697l1.066-2.918L97.254 89h.72l1.565 4.547.023.31.024-.31L101.145 89h.72l-3.035 8.402Zm-51.808 10.641h-2.66L43.81 110h-.785l2.461-8.402h.399L48.357 110h-.779l-.556-1.957Zm-2.456-.721h2.256l-1.107-3.873-.024-.31-.023.31-1.102 3.873ZM52.963 110l-.398-.609c-.165.222-.37.4-.616.533a1.715 1.715 0 0 1-.808.193h-.182c-.242 0-.47-.045-.686-.135a1.8 1.8 0 0 1-.943-.943 1.756 1.756 0 0 1-.135-.685V104h.721v4.395a1.042 1.042 0 0 0 .305.738 1.043 1.043 0 0 0 .738.305h.48c.145 0 .28-.028.405-.083a1.025 1.025 0 0 0 .556-.55 1.04 1.04 0 0 0 .082-.41V104h.721v6h-.24Zm5.45 0-.4-.609c-.163.222-.368.4-.615.533a1.715 1.715 0 0 1-.808.193h-.182c-.242 0-.47-.045-.685-.135a1.798 1.798 0 0 1-.944-.943 1.758 1.758 0 0 1-.135-.685v-2.708c0-.242.046-.47.135-.685a1.82 1.82 0 0 1 .381-.563c.16-.16.348-.285.563-.375.215-.093.443-.14.685-.14h.182a1.732 1.732 0 0 1 1.342.621v-2.906h.72V110h-.24Zm-.481-4.395a1.045 1.045 0 0 0-.305-.738 1.026 1.026 0 0 0-.334-.222.993.993 0 0 0-.404-.083h-.48a1.035 1.035 0 0 0-.962.639.998.998 0 0 0-.082.404v2.79a1.04 1.04 0 0 0 1.043 1.043h.48c.145 0 .28-.028.405-.083a1.026 1.026 0 0 0 .557-.55 1.04 1.04 0 0 0 .082-.41v-2.79Zm2.343-3.046v-.961h.838v.961h-.838Zm.059 7.441v-6h.72v6h-.72Zm4.594 0c-.219 0-.426-.041-.621-.123a1.586 1.586 0 0 1-.967-1.459v-3.732h-1.078V104h1.078v-1.441l.72-.118V104h1.524v.686h-1.523v3.767a.89.89 0 0 0 .064.34.919.919 0 0 0 .463.457.891.891 0 0 0 .34.064h.656V110h-.656Zm5.994-1.646c0 .242-.047.47-.14.685a1.74 1.74 0 0 1-.938.943 1.76 1.76 0 0 1-.686.135h-.48a1.76 1.76 0 0 1-.686-.135 1.798 1.798 0 0 1-.943-.943 1.758 1.758 0 0 1-.135-.685v-2.708c0-.242.045-.47.135-.685a1.735 1.735 0 0 1 .943-.938 1.71 1.71 0 0 1 .686-.14h.48c.242 0 .47.047.686.14a1.736 1.736 0 0 1 .937.938c.094.215.14.443.14.685v1.413h-3.286v1.336a1.04 1.04 0 0 0 .633.96c.129.055.265.083.41.083h.48c.145 0 .28-.028.404-.083a1.026 1.026 0 0 0 .557-.55 1.04 1.04 0 0 0 .082-.41v-.399l.72.117v.241Zm-.72-2.749a1.043 1.043 0 0 0-.305-.738 1.026 1.026 0 0 0-.335-.222.993.993 0 0 0-.404-.083h-.48a1.034 1.034 0 0 0-.961.639.998.998 0 0 0-.082.404v.891H70.2v-.891ZM76.13 110l-.399-.609c-.164.222-.369.4-.615.533a1.715 1.715 0 0 1-.808.193h-.182c-.242 0-.47-.045-.686-.135a1.8 1.8 0 0 1-.943-.943 1.758 1.758 0 0 1-.135-.685v-2.708c0-.242.045-.47.135-.685a1.737 1.737 0 0 1 .943-.938 1.71 1.71 0 0 1 .686-.14h.182a1.732 1.732 0 0 1 1.341.621v-2.906h.721V110h-.24Zm-.48-4.395a1.044 1.044 0 0 0-.305-.738 1.025 1.025 0 0 0-.334-.222.993.993 0 0 0-.405-.083h-.48a1.035 1.035 0 0 0-.961.639.998.998 0 0 0-.082.404v2.79a1.04 1.04 0 0 0 .633.96c.129.055.265.083.41.083h.48c.145 0 .28-.028.405-.083a1.025 1.025 0 0 0 .556-.55c.055-.129.082-.266.082-.41v-2.79Z"/>
</svg>
