<svg width="97" height="149" viewBox="0 0 97 149" fill="none" xmlns="http://www.w3.org/2000/svg">
<g filter="url(#filter0_i_97_343)">
<rect x="0.352783" width="96" height="116" rx="10" fill="white"/>
</g>
<path d="M5.63794 122.599V129H5.00806V122.599H3.33813V121.998H7.30786V122.599H5.63794ZM10.8528 129V125.338C10.8528 125.217 10.83 125.105 10.7844 125.001C10.7389 124.894 10.677 124.801 10.5989 124.723C10.5208 124.645 10.428 124.583 10.3206 124.537C10.2164 124.492 10.1041 124.469 9.98364 124.469H9.58325C9.46281 124.469 9.34888 124.492 9.24146 124.537C9.13729 124.583 9.04614 124.645 8.96802 124.723C8.88989 124.801 8.82804 124.894 8.78247 125.001C8.7369 125.105 8.71411 125.217 8.71411 125.338V129H8.11353V121.998H8.71411V124.42C8.85083 124.257 9.01522 124.13 9.20728 124.039C9.39933 123.948 9.60767 123.902 9.83228 123.902H9.98364C10.1855 123.902 10.3759 123.941 10.5549 124.02C10.734 124.094 10.8902 124.199 11.0237 124.332C11.1571 124.465 11.2613 124.622 11.3362 124.801C11.4143 124.98 11.4534 125.17 11.4534 125.372V129H10.8528ZM15.9944 127.628C15.9944 127.83 15.9553 128.02 15.8772 128.199C15.8023 128.378 15.6982 128.535 15.5647 128.668C15.4312 128.801 15.275 128.907 15.0959 128.985C14.9169 129.06 14.7265 129.098 14.5247 129.098H14.1243C13.9224 129.098 13.732 129.06 13.553 128.985C13.3739 128.907 13.2177 128.801 13.0842 128.668C12.9508 128.535 12.845 128.378 12.7668 128.199C12.692 128.02 12.6545 127.83 12.6545 127.628V125.372C12.6545 125.17 12.692 124.98 12.7668 124.801C12.845 124.622 12.9508 124.465 13.0842 124.332C13.2177 124.199 13.3739 124.094 13.553 124.02C13.732 123.941 13.9224 123.902 14.1243 123.902H14.5247C14.7265 123.902 14.9169 123.941 15.0959 124.02C15.275 124.094 15.4312 124.199 15.5647 124.332C15.6982 124.465 15.8023 124.622 15.8772 124.801C15.9553 124.98 15.9944 125.17 15.9944 125.372V126.549H13.2551V127.662C13.2551 127.783 13.2779 127.896 13.3235 128.004C13.3691 128.108 13.4309 128.199 13.509 128.277C13.5872 128.355 13.6783 128.417 13.7825 128.463C13.8899 128.508 14.0038 128.531 14.1243 128.531H14.5247C14.6451 128.531 14.7574 128.508 14.8616 128.463C14.969 128.417 15.0618 128.355 15.1399 128.277C15.218 128.199 15.2799 128.108 15.3254 128.004C15.371 127.896 15.3938 127.783 15.3938 127.662V127.33L15.9944 127.428V127.628ZM15.3938 125.338C15.3938 125.217 15.371 125.105 15.3254 125.001C15.2799 124.894 15.218 124.801 15.1399 124.723C15.0618 124.645 14.969 124.583 14.8616 124.537C14.7574 124.492 14.6451 124.469 14.5247 124.469H14.1243C14.0038 124.469 13.8899 124.492 13.7825 124.537C13.6783 124.583 13.5872 124.645 13.509 124.723C13.4309 124.801 13.3691 124.894 13.3235 125.001C13.2779 125.105 13.2551 125.217 13.2551 125.338V126.08H15.3938V125.338ZM24.7786 129V125.338C24.7786 125.217 24.7558 125.105 24.7102 125.001C24.6646 124.894 24.6028 124.801 24.5247 124.723C24.4465 124.645 24.3538 124.583 24.2463 124.537C24.1422 124.492 24.0299 124.469 23.9094 124.469H23.6116C23.4911 124.469 23.3772 124.492 23.2698 124.537C23.1656 124.583 23.0728 124.645 22.9915 124.723C22.9133 124.801 22.8515 124.894 22.8059 125.001C22.7603 125.105 22.7375 125.217 22.7375 125.338V129H22.1418V125.338C22.1418 125.217 22.1191 125.105 22.0735 125.001C22.0279 124.894 21.9644 124.801 21.8831 124.723C21.8049 124.645 21.7122 124.583 21.6047 124.537C21.5006 124.492 21.3883 124.469 21.2678 124.469H20.97C20.8495 124.469 20.7356 124.492 20.6282 124.537C20.524 124.583 20.4329 124.645 20.3547 124.723C20.2766 124.801 20.2148 124.894 20.1692 125.001C20.1236 125.105 20.1008 125.217 20.1008 125.338V129H19.5002V124H19.7004L20.0276 124.508C20.1643 124.322 20.3352 124.176 20.5403 124.068C20.7486 123.958 20.9749 123.902 21.219 123.902H21.2678C21.551 123.902 21.8066 123.972 22.0344 124.112C22.2623 124.252 22.4381 124.438 22.5618 124.669C22.6236 124.555 22.7001 124.451 22.7913 124.356C22.8824 124.262 22.9833 124.182 23.094 124.117C23.2047 124.049 23.3251 123.997 23.4553 123.961C23.5855 123.922 23.7206 123.902 23.8606 123.902H23.9094C24.1112 123.902 24.3017 123.941 24.4807 124.02C24.6597 124.094 24.816 124.199 24.9495 124.332C25.0829 124.465 25.1871 124.622 25.262 124.801C25.3401 124.98 25.3792 125.17 25.3792 125.372V129H24.7786ZM29.72 129L29.3879 128.502C29.2512 128.681 29.0803 128.826 28.8752 128.937C28.6702 129.044 28.4456 129.098 28.2014 129.098H28.05C27.8482 129.098 27.6578 129.06 27.4788 128.985C27.2997 128.907 27.1435 128.801 27.01 128.668C26.8765 128.535 26.7708 128.378 26.6926 128.199C26.6178 128.02 26.5803 127.83 26.5803 127.628V127.579C26.5803 127.377 26.6178 127.187 26.6926 127.008C26.7708 126.829 26.8765 126.673 27.01 126.539C27.1435 126.406 27.2997 126.301 27.4788 126.227C27.6578 126.148 27.8482 126.109 28.05 126.109H29.3196V125.338C29.3196 125.217 29.2968 125.105 29.2512 125.001C29.2056 124.894 29.1438 124.801 29.0657 124.723C28.9875 124.645 28.8948 124.583 28.7874 124.537C28.6832 124.492 28.5709 124.469 28.4504 124.469H28.0989C27.9784 124.469 27.8645 124.492 27.7571 124.537C27.6529 124.583 27.5618 124.645 27.4836 124.723C27.4055 124.801 27.3437 124.894 27.2981 125.001C27.2525 125.105 27.2297 125.217 27.2297 125.338V125.519L26.6292 125.421V125.372C26.6292 125.17 26.6666 124.98 26.7415 124.801C26.8196 124.622 26.9254 124.465 27.0588 124.332C27.1923 124.199 27.3486 124.094 27.5276 124.02C27.7066 123.941 27.8971 123.902 28.0989 123.902H28.4504C28.6523 123.902 28.8427 123.941 29.0217 124.02C29.2008 124.094 29.357 124.199 29.4905 124.332C29.6239 124.465 29.7281 124.622 29.803 124.801C29.8811 124.98 29.9202 125.17 29.9202 125.372V129H29.72ZM29.3196 126.578H28.05C27.9296 126.578 27.8157 126.601 27.7083 126.646C27.6041 126.692 27.5129 126.756 27.4348 126.837C27.3567 126.915 27.2948 127.008 27.2493 127.115C27.2037 127.219 27.1809 127.332 27.1809 127.452V127.662C27.1809 127.783 27.2037 127.896 27.2493 128.004C27.2948 128.108 27.3567 128.199 27.4348 128.277C27.5129 128.355 27.6041 128.417 27.7083 128.463C27.8157 128.508 27.9296 128.531 28.05 128.531H28.4504C28.5709 128.531 28.6832 128.508 28.7874 128.463C28.8948 128.417 28.9875 128.355 29.0657 128.277C29.1438 128.199 29.2056 128.108 29.2512 128.004C29.2968 127.896 29.3196 127.783 29.3196 127.662V126.578ZM32.5911 124.571C32.4706 124.571 32.3567 124.594 32.2493 124.64C32.1451 124.685 32.054 124.747 31.9758 124.825C31.8977 124.903 31.8359 124.996 31.7903 125.104C31.7447 125.208 31.7219 125.32 31.7219 125.44V129H31.1213V124H31.3215L31.6487 124.508C31.7854 124.322 31.9563 124.176 32.1614 124.068C32.3697 123.958 32.5959 123.902 32.8401 123.902H33.1917V124.571H32.5911ZM36.9514 129L34.9104 126.5L36.9514 124H37.7327L35.6428 126.5L37.7327 129H36.9514ZM34.1926 129V121.998H34.7932V129H34.1926ZM44.178 127.628C44.178 127.83 44.1389 128.02 44.0608 128.199C43.9859 128.378 43.8818 128.535 43.7483 128.668C43.6148 128.801 43.4586 128.907 43.2795 128.985C43.1005 129.06 42.9101 129.098 42.7083 129.098H42.3079C42.106 129.098 41.9156 129.06 41.7366 128.985C41.5575 128.907 41.4013 128.801 41.2678 128.668C41.1344 128.535 41.0286 128.378 40.9504 128.199C40.8756 128.02 40.8381 127.83 40.8381 127.628V125.372C40.8381 125.17 40.8756 124.98 40.9504 124.801C41.0286 124.622 41.1344 124.465 41.2678 124.332C41.4013 124.199 41.5575 124.094 41.7366 124.02C41.9156 123.941 42.106 123.902 42.3079 123.902H42.7083C42.9101 123.902 43.1005 123.941 43.2795 124.02C43.4586 124.094 43.6148 124.199 43.7483 124.332C43.8818 124.465 43.9859 124.622 44.0608 124.801C44.1389 124.98 44.178 125.17 44.178 125.372V127.628ZM43.5774 125.338C43.5774 125.217 43.5546 125.105 43.509 125.001C43.4635 124.894 43.4016 124.801 43.3235 124.723C43.2454 124.645 43.1526 124.583 43.0452 124.537C42.941 124.492 42.8287 124.469 42.7083 124.469H42.3079C42.1874 124.469 42.0735 124.492 41.9661 124.537C41.8619 124.583 41.7708 124.645 41.6926 124.723C41.6145 124.801 41.5527 124.894 41.5071 125.001C41.4615 125.105 41.4387 125.217 41.4387 125.338V127.662C41.4387 127.783 41.4615 127.896 41.5071 128.004C41.5527 128.108 41.6145 128.199 41.6926 128.277C41.7708 128.355 41.8619 128.417 41.9661 128.463C42.0735 128.508 42.1874 128.531 42.3079 128.531H42.7083C42.8287 128.531 42.941 128.508 43.0452 128.463C43.1526 128.417 43.2454 128.355 43.3235 128.277C43.4016 128.199 43.4635 128.108 43.509 128.004C43.5546 127.896 43.5774 127.783 43.5774 127.662V125.338ZM47.0979 122.569C46.997 122.569 46.9026 122.589 46.8147 122.628C46.7301 122.664 46.6552 122.714 46.5901 122.779C46.525 122.844 46.4729 122.921 46.4338 123.009C46.398 123.097 46.3801 123.191 46.3801 123.292V124H47.5471V124.571H46.3801V129H45.7795V124.571H44.8762V124H45.7795V123.321C45.7795 123.139 45.8137 122.968 45.8821 122.809C45.9504 122.646 46.0448 122.504 46.1653 122.384C46.2857 122.263 46.4257 122.169 46.5852 122.101C46.7447 122.032 46.9156 121.998 47.0979 121.998H47.6497V122.569H47.0979ZM52.0247 124.571C51.9042 124.571 51.7903 124.594 51.6829 124.64C51.5787 124.685 51.4875 124.747 51.4094 124.825C51.3313 124.903 51.2694 124.996 51.2239 125.104C51.1783 125.208 51.1555 125.32 51.1555 125.44V129H50.5549V124H50.7551L51.0823 124.508C51.219 124.322 51.3899 124.176 51.595 124.068C51.8033 123.958 52.0295 123.902 52.2737 123.902H52.6252V124.571H52.0247ZM56.7659 127.628C56.7659 127.83 56.7268 128.02 56.6487 128.199C56.5738 128.378 56.4696 128.535 56.3362 128.668C56.2027 128.801 56.0465 128.907 55.8674 128.985C55.6884 129.06 55.498 129.098 55.2961 129.098H54.8958C54.6939 129.098 54.5035 129.06 54.3245 128.985C54.1454 128.907 53.9892 128.801 53.8557 128.668C53.7222 128.535 53.6165 128.378 53.5383 128.199C53.4635 128.02 53.426 127.83 53.426 127.628V125.372C53.426 125.17 53.4635 124.98 53.5383 124.801C53.6165 124.622 53.7222 124.465 53.8557 124.332C53.9892 124.199 54.1454 124.094 54.3245 124.02C54.5035 123.941 54.6939 123.902 54.8958 123.902H55.2961C55.498 123.902 55.6884 123.941 55.8674 124.02C56.0465 124.094 56.2027 124.199 56.3362 124.332C56.4696 124.465 56.5738 124.622 56.6487 124.801C56.7268 124.98 56.7659 125.17 56.7659 125.372V126.549H54.0266V127.662C54.0266 127.783 54.0494 127.896 54.095 128.004C54.1405 128.108 54.2024 128.199 54.2805 128.277C54.3586 128.355 54.4498 128.417 54.554 128.463C54.6614 128.508 54.7753 128.531 54.8958 128.531H55.2961C55.4166 128.531 55.5289 128.508 55.6331 128.463C55.7405 128.417 55.8333 128.355 55.9114 128.277C55.9895 128.199 56.0514 128.108 56.0969 128.004C56.1425 127.896 56.1653 127.783 56.1653 127.662V127.33L56.7659 127.428V127.628ZM56.1653 125.338C56.1653 125.217 56.1425 125.105 56.0969 125.001C56.0514 124.894 55.9895 124.801 55.9114 124.723C55.8333 124.645 55.7405 124.583 55.6331 124.537C55.5289 124.492 55.4166 124.469 55.2961 124.469H54.8958C54.7753 124.469 54.6614 124.492 54.554 124.537C54.4498 124.583 54.3586 124.645 54.2805 124.723C54.2024 124.801 54.1405 124.894 54.095 125.001C54.0494 125.105 54.0266 125.217 54.0266 125.338V126.08H56.1653V125.338ZM61.4045 127.73C61.4045 127.932 61.3639 128.118 61.2825 128.287C61.2011 128.453 61.0904 128.596 60.9504 128.717C60.8105 128.837 60.6477 128.932 60.4622 129C60.2799 129.065 60.0878 129.098 59.886 129.098H59.4856C59.2838 129.098 59.0901 129.06 58.9045 128.985C58.7222 128.907 58.5611 128.801 58.4211 128.668C58.2844 128.535 58.1737 128.378 58.0891 128.199C58.0077 128.02 57.967 127.83 57.967 127.628V127.428L58.5676 127.33V127.662C58.5676 127.783 58.592 127.896 58.6409 128.004C58.693 128.108 58.7613 128.199 58.8459 128.277C58.9306 128.355 59.0282 128.417 59.1389 128.463C59.2496 128.508 59.3652 128.531 59.4856 128.531H59.886C60.0064 128.531 60.122 128.513 60.2327 128.478C60.3433 128.442 60.441 128.391 60.5256 128.326C60.6135 128.258 60.6819 128.176 60.7307 128.082C60.7828 127.988 60.8088 127.88 60.8088 127.76C60.8088 127.581 60.7698 127.434 60.6917 127.32C60.6135 127.206 60.5094 127.112 60.3792 127.037C60.2522 126.959 60.1057 126.896 59.9397 126.847C59.7769 126.795 59.6093 126.744 59.4368 126.695C59.2642 126.643 59.095 126.585 58.929 126.52C58.7662 126.454 58.6197 126.37 58.4895 126.266C58.3625 126.158 58.26 126.025 58.1819 125.865C58.1038 125.706 58.0647 125.507 58.0647 125.27C58.0647 125.068 58.1038 124.884 58.1819 124.718C58.26 124.549 58.3658 124.404 58.4993 124.283C58.6327 124.163 58.7874 124.07 58.9631 124.005C59.1422 123.937 59.3326 123.902 59.5344 123.902H59.886C60.0878 123.902 60.2782 123.941 60.4573 124.02C60.6363 124.094 60.7926 124.199 60.926 124.332C61.0595 124.465 61.1637 124.622 61.2385 124.801C61.3167 124.98 61.3557 125.17 61.3557 125.372V125.392L60.7551 125.489V125.338C60.7551 125.217 60.7323 125.105 60.6868 125.001C60.6412 124.894 60.5793 124.801 60.5012 124.723C60.4231 124.645 60.3303 124.583 60.2229 124.537C60.1187 124.492 60.0064 124.469 59.886 124.469H59.5344C59.414 124.469 59.3 124.487 59.1926 124.522C59.0885 124.558 58.9973 124.61 58.9192 124.679C58.8411 124.744 58.7792 124.824 58.7336 124.918C58.6881 125.012 58.6653 125.12 58.6653 125.24C58.6653 125.413 58.7043 125.554 58.7825 125.665C58.8606 125.772 58.9631 125.864 59.0901 125.938C59.2203 126.013 59.3668 126.077 59.5295 126.129C59.6956 126.178 59.8632 126.23 60.0325 126.285C60.205 126.337 60.3726 126.397 60.5354 126.466C60.7014 126.534 60.8479 126.622 60.9749 126.729C61.1051 126.837 61.2092 126.972 61.2874 127.135C61.3655 127.294 61.4045 127.493 61.4045 127.73ZM65.8967 127.628C65.8967 127.83 65.8577 128.02 65.7795 128.199C65.7047 128.378 65.6005 128.535 65.467 128.668C65.3336 128.801 65.1773 128.907 64.9983 128.985C64.8193 129.06 64.6288 129.098 64.427 129.098H64.2756C64.051 129.098 63.8427 129.052 63.6506 128.961C63.4586 128.87 63.2942 128.743 63.1575 128.58V131.002H62.5569V124H62.7571L63.0842 124.508C63.2209 124.322 63.3918 124.176 63.5969 124.068C63.8053 123.958 64.0315 123.902 64.2756 123.902H64.427C64.6288 123.902 64.8193 123.941 64.9983 124.02C65.1773 124.094 65.3336 124.199 65.467 124.332C65.6005 124.465 65.7047 124.622 65.7795 124.801C65.8577 124.98 65.8967 125.17 65.8967 125.372V127.628ZM65.2961 125.338C65.2961 125.217 65.2734 125.105 65.2278 125.001C65.1822 124.894 65.1204 124.801 65.0422 124.723C64.9641 124.645 64.8713 124.583 64.7639 124.537C64.6597 124.492 64.5474 124.469 64.427 124.469H64.0266C63.9062 124.469 63.7922 124.492 63.6848 124.537C63.5806 124.583 63.4895 124.645 63.4114 124.723C63.3333 124.801 63.2714 124.894 63.2258 125.001C63.1803 125.105 63.1575 125.217 63.1575 125.338V127.662C63.1575 127.783 63.1803 127.896 63.2258 128.004C63.2714 128.108 63.3333 128.199 63.4114 128.277C63.4895 128.355 63.5806 128.417 63.6848 128.463C63.7922 128.508 63.9062 128.531 64.0266 128.531H64.427C64.5474 128.531 64.6597 128.508 64.7639 128.463C64.8713 128.417 64.9641 128.355 65.0422 128.277C65.1204 128.199 65.1822 128.108 65.2278 128.004C65.2734 127.896 65.2961 127.783 65.2961 127.662V125.338ZM70.4377 127.628C70.4377 127.83 70.3987 128.02 70.3206 128.199C70.2457 128.378 70.1415 128.535 70.0081 128.668C69.8746 128.801 69.7183 128.907 69.5393 128.985C69.3603 129.06 69.1698 129.098 68.968 129.098H68.5676C68.3658 129.098 68.1754 129.06 67.9963 128.985C67.8173 128.907 67.6611 128.801 67.5276 128.668C67.3941 128.535 67.2883 128.378 67.2102 128.199C67.1353 128.02 67.0979 127.83 67.0979 127.628V125.372C67.0979 125.17 67.1353 124.98 67.2102 124.801C67.2883 124.622 67.3941 124.465 67.5276 124.332C67.6611 124.199 67.8173 124.094 67.9963 124.02C68.1754 123.941 68.3658 123.902 68.5676 123.902H68.968C69.1698 123.902 69.3603 123.941 69.5393 124.02C69.7183 124.094 69.8746 124.199 70.0081 124.332C70.1415 124.465 70.2457 124.622 70.3206 124.801C70.3987 124.98 70.4377 125.17 70.4377 125.372V127.628ZM69.8372 125.338C69.8372 125.217 69.8144 125.105 69.7688 125.001C69.7232 124.894 69.6614 124.801 69.5833 124.723C69.5051 124.645 69.4124 124.583 69.3049 124.537C69.2008 124.492 69.0885 124.469 68.968 124.469H68.5676C68.4472 124.469 68.3333 124.492 68.2258 124.537C68.1217 124.583 68.0305 124.645 67.9524 124.723C67.8743 124.801 67.8124 124.894 67.7668 125.001C67.7213 125.105 67.6985 125.217 67.6985 125.338V127.662C67.6985 127.783 67.7213 127.896 67.7668 128.004C67.8124 128.108 67.8743 128.199 67.9524 128.277C68.0305 128.355 68.1217 128.417 68.2258 128.463C68.3333 128.508 68.4472 128.531 68.5676 128.531H68.968C69.0885 128.531 69.2008 128.508 69.3049 128.463C69.4124 128.417 69.5051 128.355 69.5833 128.277C69.6614 128.199 69.7232 128.108 69.7688 128.004C69.8144 127.896 69.8372 127.783 69.8372 127.662V125.338ZM74.3782 129V125.338C74.3782 125.217 74.3554 125.105 74.3098 125.001C74.2642 124.894 74.2024 124.801 74.1243 124.723C74.0461 124.645 73.9534 124.583 73.8459 124.537C73.7418 124.492 73.6295 124.469 73.509 124.469H73.1086C72.9882 124.469 72.8743 124.492 72.7668 124.537C72.6627 124.583 72.5715 124.645 72.4934 124.723C72.4153 124.801 72.3534 124.894 72.3079 125.001C72.2623 125.105 72.2395 125.217 72.2395 125.338V129H71.6389V124H71.8391L72.1663 124.508C72.303 124.322 72.4739 124.176 72.679 124.068C72.8873 123.958 73.1135 123.902 73.3577 123.902H73.509C73.7109 123.902 73.9013 123.941 74.0803 124.02C74.2594 124.094 74.4156 124.199 74.5491 124.332C74.6825 124.465 74.7867 124.622 74.8616 124.801C74.9397 124.98 74.9788 125.17 74.9788 125.372V129H74.3782ZM79.6174 127.73C79.6174 127.932 79.5767 128.118 79.4954 128.287C79.414 128.453 79.3033 128.596 79.1633 128.717C79.0234 128.837 78.8606 128.932 78.675 129C78.4928 129.065 78.3007 129.098 78.0989 129.098H77.6985C77.4967 129.098 77.303 129.06 77.1174 128.985C76.9351 128.907 76.774 128.801 76.634 128.668C76.4973 128.535 76.3866 128.378 76.302 128.199C76.2206 128.02 76.1799 127.83 76.1799 127.628V127.428L76.7805 127.33V127.662C76.7805 127.783 76.8049 127.896 76.8538 128.004C76.9058 128.108 76.9742 128.199 77.0588 128.277C77.1435 128.355 77.2411 128.417 77.3518 128.463C77.4625 128.508 77.578 128.531 77.6985 128.531H78.0989C78.2193 128.531 78.3349 128.513 78.4456 128.478C78.5562 128.442 78.6539 128.391 78.7385 128.326C78.8264 128.258 78.8948 128.176 78.9436 128.082C78.9957 127.988 79.0217 127.88 79.0217 127.76C79.0217 127.581 78.9827 127.434 78.9045 127.32C78.8264 127.206 78.7222 127.112 78.592 127.037C78.4651 126.959 78.3186 126.896 78.1526 126.847C77.9898 126.795 77.8222 126.744 77.6497 126.695C77.4771 126.643 77.3079 126.585 77.1418 126.52C76.9791 126.454 76.8326 126.37 76.7024 126.266C76.5754 126.158 76.4729 126.025 76.3948 125.865C76.3167 125.706 76.2776 125.507 76.2776 125.27C76.2776 125.068 76.3167 124.884 76.3948 124.718C76.4729 124.549 76.5787 124.404 76.7122 124.283C76.8456 124.163 77.0002 124.07 77.176 124.005C77.3551 123.937 77.5455 123.902 77.7473 123.902H78.0989C78.3007 123.902 78.4911 123.941 78.6702 124.02C78.8492 124.094 79.0055 124.199 79.1389 124.332C79.2724 124.465 79.3765 124.622 79.4514 124.801C79.5295 124.98 79.5686 125.17 79.5686 125.372V125.392L78.968 125.489V125.338C78.968 125.217 78.9452 125.105 78.8997 125.001C78.8541 124.894 78.7922 124.801 78.7141 124.723C78.636 124.645 78.5432 124.583 78.4358 124.537C78.3316 124.492 78.2193 124.469 78.0989 124.469H77.7473C77.6269 124.469 77.5129 124.487 77.4055 124.522C77.3014 124.558 77.2102 124.61 77.1321 124.679C77.054 124.744 76.9921 124.824 76.9465 124.918C76.901 125.012 76.8782 125.12 76.8782 125.24C76.8782 125.413 76.9172 125.554 76.9954 125.665C77.0735 125.772 77.176 125.864 77.303 125.938C77.4332 126.013 77.5797 126.077 77.7424 126.129C77.9084 126.178 78.0761 126.23 78.2454 126.285C78.4179 126.337 78.5855 126.397 78.7483 126.466C78.9143 126.534 79.0608 126.622 79.1877 126.729C79.318 126.837 79.4221 126.972 79.5002 127.135C79.5784 127.294 79.6174 127.493 79.6174 127.73ZM80.9211 122.799V121.998H81.6194V122.799H80.9211ZM80.97 129V124H81.5706V129H80.97ZM86.3167 127.628C86.3167 127.83 86.2776 128.02 86.1995 128.199C86.1246 128.378 86.0204 128.535 85.887 128.668C85.7535 128.801 85.5972 128.907 85.4182 128.985C85.2392 129.06 85.0487 129.098 84.8469 129.098H84.4465C84.2447 129.098 84.0543 129.06 83.8752 128.985C83.6962 128.907 83.54 128.801 83.4065 128.668C83.273 128.535 83.1672 128.378 83.0891 128.199C83.0142 128.02 82.9768 127.83 82.9768 127.628V121.998H83.5774V124.42C83.7141 124.257 83.8785 124.13 84.0706 124.039C84.2626 123.948 84.4709 123.902 84.6956 123.902H84.8469C85.0487 123.902 85.2392 123.941 85.4182 124.02C85.5972 124.094 85.7535 124.199 85.887 124.332C86.0204 124.465 86.1246 124.622 86.1995 124.801C86.2776 124.98 86.3167 125.17 86.3167 125.372V127.628ZM85.7161 125.338C85.7161 125.217 85.6933 125.105 85.6477 125.001C85.6021 124.894 85.5403 124.801 85.4622 124.723C85.384 124.645 85.2913 124.583 85.1838 124.537C85.0797 124.492 84.9674 124.469 84.8469 124.469H84.4465C84.3261 124.469 84.2122 124.492 84.1047 124.537C84.0006 124.583 83.9094 124.645 83.8313 124.723C83.7532 124.801 83.6913 124.894 83.6458 125.001C83.6002 125.105 83.5774 125.217 83.5774 125.338V127.662C83.5774 127.783 83.6002 127.896 83.6458 128.004C83.6913 128.108 83.7532 128.199 83.8313 128.277C83.9094 128.355 84.0006 128.417 84.1047 128.463C84.2122 128.508 84.3261 128.531 84.4465 128.531H84.8469C84.9674 128.531 85.0797 128.508 85.1838 128.463C85.2913 128.417 85.384 128.355 85.4622 128.277C85.5403 128.199 85.6021 128.108 85.6477 128.004C85.6933 127.896 85.7161 127.783 85.7161 127.662V125.338ZM87.6204 129V121.998H88.2209V129H87.6204ZM92.967 127.628C92.967 127.83 92.928 128.02 92.8499 128.199C92.775 128.378 92.6708 128.535 92.5374 128.668C92.4039 128.801 92.2476 128.907 92.0686 128.985C91.8896 129.06 91.6991 129.098 91.4973 129.098H91.0969C90.8951 129.098 90.7047 129.06 90.5256 128.985C90.3466 128.907 90.1903 128.801 90.0569 128.668C89.9234 128.535 89.8176 128.378 89.7395 128.199C89.6646 128.02 89.6272 127.83 89.6272 127.628V125.372C89.6272 125.17 89.6646 124.98 89.7395 124.801C89.8176 124.622 89.9234 124.465 90.0569 124.332C90.1903 124.199 90.3466 124.094 90.5256 124.02C90.7047 123.941 90.8951 123.902 91.0969 123.902H91.4973C91.6991 123.902 91.8896 123.941 92.0686 124.02C92.2476 124.094 92.4039 124.199 92.5374 124.332C92.6708 124.465 92.775 124.622 92.8499 124.801C92.928 124.98 92.967 125.17 92.967 125.372V126.549H90.2278V127.662C90.2278 127.783 90.2506 127.896 90.2961 128.004C90.3417 128.108 90.4036 128.199 90.4817 128.277C90.5598 128.355 90.651 128.417 90.7551 128.463C90.8625 128.508 90.9765 128.531 91.0969 128.531H91.4973C91.6178 128.531 91.7301 128.508 91.8342 128.463C91.9417 128.417 92.0344 128.355 92.1125 128.277C92.1907 128.199 92.2525 128.108 92.2981 128.004C92.3437 127.896 92.3665 127.783 92.3665 127.662V127.33L92.967 127.428V127.628ZM92.3665 125.338C92.3665 125.217 92.3437 125.105 92.2981 125.001C92.2525 124.894 92.1907 124.801 92.1125 124.723C92.0344 124.645 91.9417 124.583 91.8342 124.537C91.7301 124.492 91.6178 124.469 91.4973 124.469H91.0969C90.9765 124.469 90.8625 124.492 90.7551 124.537C90.651 124.583 90.5598 124.645 90.4817 124.723C90.4036 124.801 90.3417 124.894 90.2961 125.001C90.2506 125.105 90.2278 125.217 90.2278 125.338V126.08H92.3665V125.338ZM35.8186 135.569C35.7177 135.569 35.6233 135.589 35.5354 135.628C35.4508 135.664 35.3759 135.714 35.3108 135.779C35.2457 135.844 35.1936 135.921 35.1545 136.009C35.1187 136.097 35.1008 136.191 35.1008 136.292V137H36.2678V137.571H35.1008V142H34.5002V137.571H33.5969V137H34.5002V136.321C34.5002 136.139 34.5344 135.968 34.6028 135.809C34.6711 135.646 34.7655 135.504 34.886 135.384C35.0064 135.263 35.1464 135.169 35.3059 135.101C35.4654 135.032 35.6363 134.998 35.8186 134.998H36.3704V135.569H35.8186ZM40.3108 140.628C40.3108 140.83 40.2717 141.02 40.1936 141.199C40.1187 141.378 40.0146 141.535 39.8811 141.668C39.7476 141.801 39.5914 141.907 39.4124 141.985C39.2333 142.06 39.0429 142.098 38.8411 142.098H38.4407C38.2389 142.098 38.0484 142.06 37.8694 141.985C37.6903 141.907 37.5341 141.801 37.4006 141.668C37.2672 141.535 37.1614 141.378 37.0833 141.199C37.0084 141.02 36.9709 140.83 36.9709 140.628V138.372C36.9709 138.17 37.0084 137.98 37.0833 137.801C37.1614 137.622 37.2672 137.465 37.4006 137.332C37.5341 137.199 37.6903 137.094 37.8694 137.02C38.0484 136.941 38.2389 136.902 38.4407 136.902H38.8411C39.0429 136.902 39.2333 136.941 39.4124 137.02C39.5914 137.094 39.7476 137.199 39.8811 137.332C40.0146 137.465 40.1187 137.622 40.1936 137.801C40.2717 137.98 40.3108 138.17 40.3108 138.372V140.628ZM39.7102 138.338C39.7102 138.217 39.6874 138.105 39.6418 138.001C39.5963 137.894 39.5344 137.801 39.4563 137.723C39.3782 137.645 39.2854 137.583 39.178 137.537C39.0738 137.492 38.9615 137.469 38.8411 137.469H38.4407C38.3202 137.469 38.2063 137.492 38.0989 137.537C37.9947 137.583 37.9036 137.645 37.8254 137.723C37.7473 137.801 37.6855 137.894 37.6399 138.001C37.5943 138.105 37.5715 138.217 37.5715 138.338V140.662C37.5715 140.783 37.5943 140.896 37.6399 141.004C37.6855 141.108 37.7473 141.199 37.8254 141.277C37.9036 141.355 37.9947 141.417 38.0989 141.463C38.2063 141.508 38.3202 141.531 38.4407 141.531H38.8411C38.9615 141.531 39.0738 141.508 39.178 141.463C39.2854 141.417 39.3782 141.355 39.4563 141.277C39.5344 141.199 39.5963 141.108 39.6418 141.004C39.6874 140.896 39.7102 140.783 39.7102 140.662V138.338ZM42.9817 137.571C42.8612 137.571 42.7473 137.594 42.6399 137.64C42.5357 137.685 42.4446 137.747 42.3665 137.825C42.2883 137.903 42.2265 137.996 42.1809 138.104C42.1353 138.208 42.1125 138.32 42.1125 138.44V142H41.512V137H41.7122L42.0393 137.508C42.176 137.322 42.3469 137.176 42.552 137.068C42.7603 136.958 42.9866 136.902 43.2307 136.902H43.5823V137.571H42.9817ZM47.7229 140.628C47.7229 140.83 47.6838 141.02 47.6057 141.199C47.5308 141.378 47.4267 141.535 47.2932 141.668C47.1597 141.801 47.0035 141.907 46.8245 141.985C46.6454 142.06 46.455 142.098 46.2532 142.098H45.8528C45.651 142.098 45.4605 142.06 45.2815 141.985C45.1025 141.907 44.9462 141.801 44.8127 141.668C44.6793 141.535 44.5735 141.378 44.4954 141.199C44.4205 141.02 44.3831 140.83 44.3831 140.628V138.372C44.3831 138.17 44.4205 137.98 44.4954 137.801C44.5735 137.622 44.6793 137.465 44.8127 137.332C44.9462 137.199 45.1025 137.094 45.2815 137.02C45.4605 136.941 45.651 136.902 45.8528 136.902H46.2532C46.455 136.902 46.6454 136.941 46.8245 137.02C47.0035 137.094 47.1597 137.199 47.2932 137.332C47.4267 137.465 47.5308 137.622 47.6057 137.801C47.6838 137.98 47.7229 138.17 47.7229 138.372V139.549H44.9836V140.662C44.9836 140.783 45.0064 140.896 45.052 141.004C45.0976 141.108 45.1594 141.199 45.2375 141.277C45.3157 141.355 45.4068 141.417 45.511 141.463C45.6184 141.508 45.7323 141.531 45.8528 141.531H46.2532C46.3736 141.531 46.4859 141.508 46.5901 141.463C46.6975 141.417 46.7903 141.355 46.8684 141.277C46.9465 141.199 47.0084 141.108 47.054 141.004C47.0995 140.896 47.1223 140.783 47.1223 140.662V140.33L47.7229 140.428V140.628ZM47.1223 138.338C47.1223 138.217 47.0995 138.105 47.054 138.001C47.0084 137.894 46.9465 137.801 46.8684 137.723C46.7903 137.645 46.6975 137.583 46.5901 137.537C46.4859 137.492 46.3736 137.469 46.2532 137.469H45.8528C45.7323 137.469 45.6184 137.492 45.511 137.537C45.4068 137.583 45.3157 137.645 45.2375 137.723C45.1594 137.801 45.0976 137.894 45.052 138.001C45.0064 138.105 44.9836 138.217 44.9836 138.338V139.08H47.1223V138.338ZM52.3616 140.73C52.3616 140.932 52.3209 141.118 52.2395 141.287C52.1581 141.453 52.0474 141.596 51.9075 141.717C51.7675 141.837 51.6047 141.932 51.4192 142C51.2369 142.065 51.0448 142.098 50.843 142.098H50.4426C50.2408 142.098 50.0471 142.06 49.8616 141.985C49.6793 141.907 49.5181 141.801 49.3782 141.668C49.2415 141.535 49.1308 141.378 49.0461 141.199C48.9648 141.02 48.9241 140.83 48.9241 140.628V140.428L49.5247 140.33V140.662C49.5247 140.783 49.5491 140.896 49.5979 141.004C49.65 141.108 49.7183 141.199 49.803 141.277C49.8876 141.355 49.9853 141.417 50.0959 141.463C50.2066 141.508 50.3222 141.531 50.4426 141.531H50.843C50.9635 141.531 51.079 141.513 51.1897 141.478C51.3004 141.442 51.398 141.391 51.4827 141.326C51.5706 141.258 51.6389 141.176 51.6877 141.082C51.7398 140.988 51.7659 140.88 51.7659 140.76C51.7659 140.581 51.7268 140.434 51.6487 140.32C51.5706 140.206 51.4664 140.112 51.3362 140.037C51.2092 139.959 51.0627 139.896 50.8967 139.847C50.734 139.795 50.5663 139.744 50.3938 139.695C50.2213 139.643 50.052 139.585 49.886 139.52C49.7232 139.454 49.5767 139.37 49.4465 139.266C49.3196 139.158 49.217 139.025 49.1389 138.865C49.0608 138.706 49.0217 138.507 49.0217 138.27C49.0217 138.068 49.0608 137.884 49.1389 137.718C49.217 137.549 49.3228 137.404 49.4563 137.283C49.5898 137.163 49.7444 137.07 49.9202 137.005C50.0992 136.937 50.2896 136.902 50.4915 136.902H50.843C51.0448 136.902 51.2353 136.941 51.4143 137.02C51.5933 137.094 51.7496 137.199 51.8831 137.332C52.0165 137.465 52.1207 137.622 52.1956 137.801C52.2737 137.98 52.3127 138.17 52.3127 138.372V138.392L51.7122 138.489V138.338C51.7122 138.217 51.6894 138.105 51.6438 138.001C51.5982 137.894 51.5364 137.801 51.4583 137.723C51.3801 137.645 51.2874 137.583 51.1799 137.537C51.0758 137.492 50.9635 137.469 50.843 137.469H50.4915C50.371 137.469 50.2571 137.487 50.1497 137.522C50.0455 137.558 49.9543 137.61 49.8762 137.679C49.7981 137.744 49.7362 137.824 49.6907 137.918C49.6451 138.012 49.6223 138.12 49.6223 138.24C49.6223 138.413 49.6614 138.554 49.7395 138.665C49.8176 138.772 49.9202 138.864 50.0471 138.938C50.1773 139.013 50.3238 139.077 50.4866 139.129C50.6526 139.178 50.8202 139.23 50.9895 139.285C51.162 139.337 51.3297 139.397 51.4924 139.466C51.6584 139.534 51.8049 139.622 51.9319 139.729C52.0621 139.837 52.1663 139.972 52.2444 140.135C52.3225 140.294 52.3616 140.493 52.3616 140.73ZM55.3352 142C55.1529 142 54.9804 141.966 54.8176 141.897C54.6581 141.829 54.5181 141.735 54.3977 141.614C54.2805 141.494 54.1861 141.354 54.1145 141.194C54.0461 141.035 54.012 140.864 54.012 140.682V137.571H53.1135V137H54.012V135.799L54.6125 135.701V137H55.8821V137.571H54.6125V140.711C54.6125 140.812 54.6305 140.906 54.6663 140.994C54.7053 141.079 54.7574 141.154 54.8225 141.219C54.8876 141.284 54.9641 141.336 55.052 141.375C55.1399 141.411 55.2343 141.429 55.3352 141.429H55.8821V142H55.3352ZM58.4602 137.571C58.3398 137.571 58.2258 137.594 58.1184 137.64C58.0142 137.685 57.9231 137.747 57.845 137.825C57.7668 137.903 57.705 137.996 57.6594 138.104C57.6139 138.208 57.5911 138.32 57.5911 138.44V142H56.9905V137H57.1907L57.5178 137.508C57.6545 137.322 57.8254 137.176 58.0305 137.068C58.2389 136.958 58.4651 136.902 58.7092 136.902H59.0608V137.571H58.4602ZM60.6721 144.002H60.0911L60.9797 141.57L59.3586 137H59.9592L61.2629 140.789L61.2825 141.048L61.302 140.789L62.6008 137H63.2014L60.6721 144.002Z" fill="#024521"/>
<path d="M14.052 78.959V22.6642C14.052 20.5313 14.9244 18.4857 16.4773 16.9776C18.0303 15.4694 20.1365 14.6221 22.3326 14.6221H77.8129C78.4718 14.6221 79.1036 14.8763 79.5695 15.3287C80.0354 15.7812 80.2971 16.3948 80.2971 17.0347V69.7669" stroke="#298352" stroke-width="4.5" stroke-linecap="round"/>
<path d="M38.8938 58.8537C38.8938 58.8537 42.6201 46.316 51.3148 38.7484" stroke="#298352" stroke-width="4.5" stroke-linecap="round" stroke-linejoin="round"/>
<path d="M50.4949 52.5205L49.9401 52.5688C46.5712 52.8739 43.2149 51.8721 40.6038 49.7823C37.9928 47.6924 36.3391 44.6842 36.0038 41.4144C35.8382 39.8 36.0031 38.1697 36.4888 36.6174C36.9745 35.0651 37.7716 33.6215 38.834 32.3695C39.8965 31.1175 41.2034 30.082 42.6795 29.3224C44.1556 28.5629 45.7719 28.0944 47.4352 27.9438L59.7982 26.8179C60.1795 26.7832 60.5596 26.8965 60.8552 27.1331C61.1508 27.3697 61.3379 27.7103 61.3756 28.0805L62.4314 38.4549C62.6049 40.1407 62.4332 41.8433 61.9263 43.4644C61.4194 45.0855 60.5872 46.5932 59.4777 47.9007C58.3681 49.2081 57.0032 50.2894 55.4616 51.0823C53.9199 51.8752 52.2319 52.364 50.4949 52.5205Z" stroke="#298352" stroke-width="4.5" stroke-linecap="round" stroke-linejoin="round"/>
<path d="M22.3326 70.9169H80.2971M22.3326 87.0011H80.2971" stroke="#298352" stroke-width="4.5" stroke-linecap="round"/>
<path d="M22.3326 87.0012C20.1365 87.0012 18.0303 86.1539 16.4773 84.6457C14.9244 83.1375 14.052 81.092 14.052 78.9591C14.052 76.8261 14.9244 74.7806 16.4773 73.2724C18.0303 71.7642 20.1365 70.9169 22.3326 70.9169" stroke="#298352" stroke-width="4.5" stroke-linecap="round" stroke-linejoin="round"/>
<path d="M24.1364 106.531V99.5287H28.0768V100.129H24.7662V102.732H27.4469V103.332H24.7662V105.93H28.0768V106.531H24.1364ZM32.5739 106.531L30.6744 103.542H29.8102V106.531H29.1803V99.5287H31.402C31.6396 99.5287 31.8626 99.5743 32.0709 99.6654C32.2793 99.7533 32.4615 99.8754 32.6178 100.032C32.774 100.188 32.8961 100.372 32.984 100.583C33.0752 100.792 33.1207 101.015 33.1207 101.252V101.819C33.1207 102.056 33.0752 102.281 32.984 102.493C32.8961 102.701 32.774 102.883 32.6178 103.039C32.4615 103.196 32.2793 103.319 32.0709 103.411C31.8626 103.498 31.6396 103.542 31.402 103.542L33.3014 106.531H32.5739ZM32.4908 101.252C32.4908 101.096 32.4615 100.951 32.403 100.818C32.3444 100.681 32.2646 100.562 32.1637 100.461C32.0628 100.357 31.944 100.276 31.8073 100.217C31.6738 100.159 31.5289 100.129 31.3727 100.129H29.8102V102.942H31.3727C31.5289 102.942 31.6738 102.912 31.8073 102.854C31.944 102.795 32.0628 102.716 32.1637 102.615C32.2646 102.51 32.3444 102.392 32.403 102.258C32.4615 102.121 32.4908 101.975 32.4908 101.819V101.252ZM38.3453 104.91C38.3453 105.147 38.2998 105.37 38.2086 105.578C38.1207 105.787 37.9987 105.969 37.8424 106.125C37.6862 106.282 37.5039 106.405 37.2955 106.496C37.0872 106.584 36.8642 106.628 36.6266 106.628H36.1285C35.8909 106.628 35.6663 106.584 35.4547 106.496C35.2464 106.405 35.0641 106.282 34.9078 106.125C34.7516 105.969 34.6279 105.787 34.5367 105.578C34.4489 105.37 34.4049 105.147 34.4049 104.91V101.15C34.4049 100.912 34.4489 100.689 34.5367 100.481C34.6279 100.273 34.7516 100.09 34.9078 99.934C35.0641 99.7777 35.2464 99.6556 35.4547 99.5677C35.6663 99.4766 35.8909 99.431 36.1285 99.431H36.6266C36.8642 99.431 37.0872 99.4766 37.2955 99.5677C37.5039 99.6556 37.6862 99.7777 37.8424 99.934C37.9987 100.09 38.1207 100.273 38.2086 100.481C38.2998 100.689 38.3453 100.912 38.3453 101.15V104.91ZM37.7155 101.15C37.7155 100.994 37.6862 100.849 37.6276 100.715C37.569 100.578 37.4892 100.46 37.3883 100.359C37.2874 100.258 37.1686 100.178 37.0319 100.12C36.8984 100.061 36.7535 100.032 36.5973 100.032H36.1578C36.0016 100.032 35.8551 100.061 35.7184 100.12C35.5849 100.178 35.4661 100.258 35.3619 100.359C35.261 100.46 35.1813 100.578 35.1227 100.715C35.0641 100.849 35.0348 100.994 35.0348 101.15V104.91C35.0348 105.066 35.0641 105.212 35.1227 105.349C35.1813 105.482 35.261 105.601 35.3619 105.705C35.4661 105.806 35.5849 105.886 35.7184 105.945C35.8551 106.003 36.0016 106.033 36.1578 106.033H36.5973C36.7535 106.033 36.8984 106.003 37.0319 105.945C37.1686 105.886 37.2874 105.806 37.3883 105.705C37.4892 105.601 37.569 105.482 37.6276 105.349C37.6862 105.212 37.7155 105.066 37.7155 104.91V101.15ZM45.9918 104.91C45.9918 105.147 45.9462 105.37 45.8551 105.578C45.7672 105.787 45.6451 105.969 45.4889 106.125C45.3326 106.282 45.1503 106.405 44.942 106.496C44.7337 106.584 44.5107 106.628 44.2731 106.628H43.775C43.5374 106.628 43.3128 106.584 43.1012 106.496C42.8929 106.405 42.7106 106.282 42.5543 106.125C42.3981 105.969 42.2744 105.787 42.1832 105.578C42.0953 105.37 42.0514 105.147 42.0514 104.91V101.15C42.0514 100.912 42.0953 100.689 42.1832 100.481C42.2744 100.273 42.3981 100.09 42.5543 99.934C42.7106 99.7777 42.8929 99.6556 43.1012 99.5677C43.3128 99.4766 43.5374 99.431 43.775 99.431H44.2731C44.5107 99.431 44.7337 99.4766 44.942 99.5677C45.1503 99.6556 45.3326 99.7777 45.4889 99.934C45.6451 100.09 45.7672 100.273 45.8551 100.481C45.9462 100.689 45.9918 100.912 45.9918 101.15V101.433L45.3619 101.531V101.15C45.3619 100.994 45.3326 100.849 45.274 100.715C45.2155 100.578 45.1357 100.46 45.0348 100.359C44.9339 100.258 44.8151 100.178 44.6783 100.12C44.5449 100.061 44.4 100.032 44.2438 100.032H43.8043C43.6481 100.032 43.5016 100.061 43.3649 100.12C43.2314 100.178 43.1126 100.258 43.0084 100.359C42.9075 100.46 42.8278 100.578 42.7692 100.715C42.7106 100.849 42.6813 100.994 42.6813 101.15V104.91C42.6813 105.066 42.7106 105.212 42.7692 105.349C42.8278 105.482 42.9075 105.601 43.0084 105.705C43.1126 105.806 43.2314 105.886 43.3649 105.945C43.5016 106.003 43.6481 106.033 43.8043 106.033H44.2438C44.4 106.033 44.5449 106.003 44.6783 105.945C44.8151 105.886 44.9339 105.806 45.0348 105.705C45.1357 105.601 45.2155 105.482 45.274 105.349C45.3326 105.212 45.3619 105.066 45.3619 104.91V104.529L45.9918 104.631V104.91ZM47.3981 106.531V99.5287H51.3385V100.129H48.028V102.732H50.7086V103.332H48.028V105.93H51.3385V106.531H47.3981ZM56.1823 104.91C56.1823 105.147 56.1367 105.37 56.0455 105.578C55.9576 105.787 55.8356 105.969 55.6793 106.125C55.5231 106.282 55.3408 106.405 55.1324 106.496C54.9241 106.584 54.7011 106.628 54.4635 106.628H54.1656C53.928 106.628 53.7034 106.584 53.4918 106.496C53.2835 106.405 53.1012 106.282 52.9449 106.125C52.7887 105.969 52.665 105.787 52.5739 105.578C52.486 105.37 52.442 105.147 52.442 104.91V104.729L53.0719 104.631V104.91C53.0719 105.066 53.1012 105.212 53.1598 105.349C53.2184 105.482 53.2981 105.601 53.399 105.705C53.5032 105.806 53.622 105.886 53.7555 105.945C53.8922 106.003 54.0387 106.033 54.1949 106.033H54.4342C54.5905 106.033 54.7353 106.003 54.8688 105.945C55.0055 105.886 55.1243 105.806 55.2252 105.705C55.3261 105.601 55.4059 105.482 55.4645 105.349C55.5231 105.212 55.5524 105.066 55.5524 104.91V104.328C55.5524 104.172 55.5231 104.027 55.4645 103.894C55.4059 103.757 55.3261 103.638 55.2252 103.537C55.1243 103.437 55.0055 103.357 54.8688 103.298C54.7353 103.24 54.5905 103.21 54.4342 103.21H53.9655V102.61H54.4342C54.5905 102.61 54.7353 102.58 54.8688 102.522C55.0055 102.463 55.1243 102.384 55.2252 102.283C55.3261 102.182 55.4059 102.064 55.4645 101.931C55.5231 101.794 55.5524 101.648 55.5524 101.492V101.15C55.5524 100.994 55.5231 100.849 55.4645 100.715C55.4059 100.578 55.3261 100.46 55.2252 100.359C55.1243 100.258 55.0055 100.178 54.8688 100.12C54.7353 100.061 54.5905 100.032 54.4342 100.032H54.1949C54.0387 100.032 53.8922 100.061 53.7555 100.12C53.622 100.178 53.5032 100.258 53.399 100.359C53.2981 100.46 53.2184 100.578 53.1598 100.715C53.1012 100.849 53.0719 100.994 53.0719 101.15V101.433L52.442 101.33V101.15C52.442 100.912 52.486 100.689 52.5739 100.481C52.665 100.273 52.7887 100.09 52.9449 99.934C53.1012 99.7777 53.2835 99.6556 53.4918 99.5677C53.7034 99.4766 53.928 99.431 54.1656 99.431H54.4635C54.7011 99.431 54.9241 99.4766 55.1324 99.5677C55.3408 99.6556 55.5231 99.7777 55.6793 99.934C55.8356 100.09 55.9576 100.273 56.0455 100.481C56.1367 100.689 56.1823 100.912 56.1823 101.15V101.389C56.1823 101.555 56.1595 101.715 56.1139 101.868C56.0716 102.017 56.0097 102.157 55.9283 102.287C55.8502 102.418 55.7558 102.536 55.6451 102.644C55.5345 102.748 55.4108 102.838 55.274 102.912C55.4108 102.984 55.5345 103.074 55.6451 103.181C55.7558 103.285 55.8502 103.402 55.9283 103.533C56.0097 103.663 56.0716 103.804 56.1139 103.957C56.1595 104.107 56.1823 104.265 56.1823 104.431V104.91ZM59.1901 100.032C59.0338 100.032 58.8873 100.061 58.7506 100.12C58.6171 100.178 58.5 100.258 58.399 100.359C58.2981 100.46 58.2184 100.578 58.1598 100.715C58.1012 100.849 58.0719 100.994 58.0719 101.15V101.433L57.442 101.33V101.15C57.442 100.912 57.486 100.689 57.5739 100.481C57.665 100.273 57.7887 100.09 57.9449 99.934C58.1012 99.7777 58.2835 99.6556 58.4918 99.5677C58.7002 99.4766 58.9231 99.431 59.1608 99.431H59.4586C59.6962 99.431 59.9192 99.4733 60.1276 99.558C60.3392 99.6426 60.5231 99.7647 60.6793 99.9242C60.8356 100.084 60.9576 100.276 61.0455 100.5C61.1367 100.722 61.1823 100.972 61.1823 101.252C61.1823 101.529 61.1399 101.807 61.0553 102.087C60.9739 102.367 60.8649 102.642 60.7281 102.912C60.5947 103.183 60.4401 103.445 60.2643 103.699C60.0918 103.953 59.9143 104.192 59.7321 104.416C59.3056 104.94 58.8222 105.445 58.2819 105.93H61.2311V106.531H57.2906V106.033C57.8994 105.531 58.443 105.012 58.9215 104.475C59.1266 104.244 59.3268 103.998 59.5221 103.738C59.7174 103.477 59.8916 103.21 60.0446 102.937C60.1976 102.66 60.3196 102.38 60.4108 102.097C60.5052 101.811 60.5524 101.529 60.5524 101.252C60.5524 101.047 60.5214 100.868 60.4596 100.715C60.3977 100.562 60.3147 100.435 60.2106 100.334C60.1064 100.233 59.986 100.159 59.8492 100.11C59.7158 100.058 59.5758 100.032 59.4293 100.032H59.1901ZM66.2701 104.91C66.2701 105.147 66.2246 105.37 66.1334 105.578C66.0455 105.787 65.9235 105.969 65.7672 106.125C65.611 106.282 65.4287 106.405 65.2203 106.496C65.012 106.584 64.789 106.628 64.5514 106.628H64.2535C64.0159 106.628 63.7913 106.584 63.5797 106.496C63.3714 106.405 63.1891 106.282 63.0328 106.125C62.8766 105.969 62.7529 105.787 62.6617 105.578C62.5739 105.37 62.5299 105.147 62.5299 104.91V101.15C62.5299 100.912 62.5739 100.689 62.6617 100.481C62.7529 100.273 62.8766 100.09 63.0328 99.934C63.1891 99.7777 63.3714 99.6556 63.5797 99.5677C63.7913 99.4766 64.0159 99.431 64.2535 99.431H64.5514C64.789 99.431 65.012 99.4766 65.2203 99.5677C65.4287 99.6556 65.611 99.7777 65.7672 99.934C65.9235 100.09 66.0455 100.273 66.1334 100.481C66.2246 100.689 66.2701 100.912 66.2701 101.15V104.91ZM65.6403 101.15C65.6403 100.994 65.611 100.849 65.5524 100.715C65.4938 100.578 65.414 100.46 65.3131 100.359C65.2122 100.258 65.0934 100.178 64.9567 100.12C64.8232 100.061 64.6783 100.032 64.5221 100.032H64.2828C64.1266 100.032 63.9801 100.061 63.8434 100.12C63.7099 100.178 63.5911 100.258 63.4869 100.359C63.386 100.46 63.3063 100.578 63.2477 100.715C63.1891 100.849 63.1598 100.994 63.1598 101.15V104.91C63.1598 105.066 63.1891 105.212 63.2477 105.349C63.3063 105.482 63.386 105.601 63.4869 105.705C63.5911 105.806 63.7099 105.886 63.8434 105.945C63.9801 106.003 64.1266 106.033 64.2828 106.033H64.5221C64.6783 106.033 64.8232 106.003 64.9567 105.945C65.0934 105.886 65.2122 105.806 65.3131 105.705C65.414 105.601 65.4938 105.482 65.5524 105.349C65.611 105.212 65.6403 105.066 65.6403 104.91V101.15ZM70.7184 105.32V106.531H70.0885V105.32H67.276V105.022L70.3864 99.5287H70.7184V104.719H71.319V105.32H70.7184ZM70.0885 101.252L68.1598 104.719H70.0885V101.252Z" fill="#024521"/>
<defs>
<filter id="filter0_i_97_343" x="0.352783" y="0" width="97" height="117" filterUnits="userSpaceOnUse" color-interpolation-filters="sRGB">
<feFlood flood-opacity="0" result="BackgroundImageFix"/>
<feBlend mode="normal" in="SourceGraphic" in2="BackgroundImageFix" result="shape"/>
<feColorMatrix in="SourceAlpha" type="matrix" values="0 0 0 0 0 0 0 0 0 0 0 0 0 0 0 0 0 0 127 0" result="hardAlpha"/>
<feMorphology radius="1" operator="erode" in="SourceAlpha" result="effect1_innerShadow_97_343"/>
<feOffset dx="1" dy="1"/>
<feGaussianBlur stdDeviation="0.5"/>
<feComposite in2="hardAlpha" operator="arithmetic" k2="-1" k3="1"/>
<feColorMatrix type="matrix" values="0 0 0 0 0 0 0 0 0 0 0 0 0 0 0 0 0 0 0.25 0"/>
<feBlend mode="normal" in2="shape" result="effect1_innerShadow_97_343"/>
</filter>
</defs>
</svg>
