<svg width="136" height="95" viewBox="0 0 136 95" fill="none" xmlns="http://www.w3.org/2000/svg">
<path d="M64.8928 19.6567L65.3775 19.6129C66.994 8.20898 76.7882 3.4109 86.295 1.47201C91.0396 0.504339 95.6856 0.256019 99.1476 0.250109C100.878 0.247155 102.311 0.304759 103.311 0.363044C103.811 0.392185 104.203 0.421491 104.469 0.443472C104.536 0.449054 104.596 0.454164 104.647 0.458678C104.646 0.50887 104.645 0.567081 104.643 0.633024C104.636 0.896767 104.622 1.28415 104.594 1.77676C104.539 2.76206 104.427 4.16787 104.204 5.847C103.757 9.20679 102.864 13.6534 101.081 18.0133C99.2978 22.3739 96.63 26.6335 92.6417 29.6383C88.702 32.6064 83.4552 34.3644 76.4525 33.7645C76.5322 30.0776 78.5122 25.4983 80.5199 21.7831C81.541 19.8937 82.5623 18.2399 83.3285 17.0585C83.7115 16.4678 84.0306 15.9956 84.2536 15.6712C84.3652 15.509 84.4527 15.3839 84.5122 15.2994C84.5244 15.2822 84.5354 15.2666 84.5452 15.2528C84.5593 15.2328 84.571 15.2164 84.58 15.2037L84.5973 15.1796L84.6015 15.1737L84.6025 15.1723L84.6028 15.1719L84.4 15.0257L84.6028 15.1719L85.0385 14.5672L84.3263 14.7868C78.076 16.7145 74.9564 21.4397 73.4029 25.6558C72.6262 27.7639 72.2383 29.7506 72.0444 31.2098C71.9474 31.9397 71.8988 32.5386 71.8744 32.9559C71.8623 33.1646 71.8562 33.328 71.8531 33.4397C71.8522 33.473 71.8515 33.5018 71.8511 33.5258C71.8508 33.5419 71.8506 33.5559 71.8504 33.5677L71.8501 33.6012L71.85 33.6101L71.85 33.6125V33.6132C71.85 33.6134 71.85 33.6136 72.1 33.6136H71.85V49.2961H64.15V32.0962V32.0883L64.1495 32.0804L63.9 32.0962C64.1495 32.0804 64.1495 32.0802 64.1495 32.08L64.1494 32.0793L64.1493 32.0771L64.1487 32.0693L64.1465 32.0398C64.1455 32.0265 64.1442 32.0099 64.1425 31.9902C64.1409 31.9721 64.1391 31.9514 64.1369 31.9282C64.1279 31.8311 64.1131 31.6898 64.0903 31.5105C64.0448 31.152 63.9668 30.6413 63.8371 30.0291C63.5778 28.8058 63.1106 27.1713 62.2778 25.534C60.6084 22.2517 57.4601 18.9485 51.6 18.9485L51.4896 19.4219C51.4892 19.4226 51.4892 19.4226 51.4891 19.4226L51.4893 19.4227L51.4894 19.4227L51.4915 19.4238L51.5023 19.4293C51.5124 19.4346 51.5282 19.4429 51.5493 19.4545C51.5915 19.4776 51.655 19.5137 51.7373 19.5639C51.9019 19.6642 52.1416 19.821 52.4356 20.0438C53.0235 20.4894 53.8288 21.199 54.6864 22.2491C56.3751 24.3172 58.2731 27.7139 59.1064 33.0338C53.4355 34.0891 49.1427 33.0984 45.885 31.0316C42.5762 28.9323 40.3095 25.7064 38.7586 22.3189C37.2079 18.932 36.3799 15.3992 35.94 12.7093C35.7202 11.3652 35.5976 10.2337 35.53 9.43883C35.4962 9.04146 35.4761 8.72838 35.4645 8.51514C35.4626 8.47969 35.4609 8.447 35.4594 8.41714C35.4757 8.41521 35.4929 8.4132 35.5109 8.41111C35.6935 8.38993 35.9627 8.36068 36.3074 8.32863C36.9969 8.26454 37.9884 8.18931 39.1939 8.14505C41.6058 8.0565 44.8698 8.09211 48.2841 8.58718C55.1334 9.58031 62.4808 12.4038 64.8928 19.6567ZM27.25 68.2633V61.1015C27.2712 61.0939 27.2943 61.0856 27.3195 61.0766C27.4738 61.0213 27.7032 60.9401 28.0025 60.8367C28.6013 60.6299 29.4801 60.3342 30.599 59.9793C32.837 59.2693 36.0348 58.3225 39.8724 57.3757C47.5497 55.4815 57.778 53.5895 68 53.5895C78.222 53.5895 88.4503 55.4815 96.1276 57.3757C99.9652 58.3225 103.163 59.2693 105.401 59.9793C106.52 60.3342 107.399 60.6299 107.997 60.8367C108.297 60.9401 108.526 61.0213 108.68 61.0766C108.706 61.0856 108.729 61.0939 108.75 61.1015V68.2633H27.25Z" fill="#009317" stroke="#2A2C35" stroke-width="0.5"/>
<path d="M24.0723 87.568H23.792L23.2793 86.7819C23.0651 87.0644 22.8053 87.29 22.5 87.4586C22.1947 87.6227 21.8551 87.7047 21.4814 87.7047H20.9688C20.6361 87.7047 20.3216 87.6432 20.0254 87.5201C19.7337 87.3925 19.4785 87.2194 19.2598 87.0006C19.041 86.7819 18.8678 86.5267 18.7402 86.235C18.6172 85.9433 18.5557 85.6311 18.5557 85.2985V80.0348C18.5557 79.7021 18.6172 79.3899 18.7402 79.0983C18.8678 78.8066 19.041 78.5514 19.2598 78.3326C19.4785 78.1139 19.7337 77.943 20.0254 77.8199C20.3216 77.6923 20.6361 77.6285 20.9688 77.6285H21.666C21.9987 77.6285 22.3109 77.6923 22.6025 77.8199C22.8942 77.943 23.1494 78.1139 23.3682 78.3326C23.5869 78.5514 23.7578 78.8066 23.8809 79.0983C24.0085 79.3899 24.0723 79.7021 24.0723 80.0348V80.4313L23.1904 80.568V80.0348C23.1904 79.816 23.1494 79.6132 23.0674 79.4264C22.9854 79.235 22.8737 79.0686 22.7324 78.9274C22.5911 78.7861 22.4248 78.6744 22.2334 78.5924C22.0465 78.5104 21.8438 78.4694 21.625 78.4694H21.0098C20.791 78.4694 20.5859 78.5104 20.3945 78.5924C20.2077 78.6744 20.0413 78.7861 19.8955 78.9274C19.7542 79.0686 19.6426 79.235 19.5605 79.4264C19.4785 79.6132 19.4375 79.816 19.4375 80.0348V85.2985C19.4375 85.5172 19.4785 85.7223 19.5605 85.9137C19.6426 86.1005 19.7542 86.2669 19.8955 86.4127C20.0413 86.554 20.2077 86.6656 20.3945 86.7477C20.5859 86.8297 20.791 86.8707 21.0098 86.8707H21.625C21.8438 86.8707 22.0465 86.8297 22.2334 86.7477C22.4248 86.6656 22.5911 86.554 22.7324 86.4127C22.8737 86.2669 22.9854 86.1005 23.0674 85.9137C23.1494 85.7223 23.1904 85.5172 23.1904 85.2985V83.2545H21.625V82.4137H24.0723V87.568ZM31.5508 85.2985C31.5508 85.6311 31.4824 85.9433 31.3457 86.235C31.2135 86.5267 31.0335 86.7819 30.8057 87.0006C30.5824 87.2194 30.3203 87.3925 30.0195 87.5201C29.7233 87.6432 29.4089 87.7047 29.0762 87.7047H28.3721C28.0394 87.7047 27.7227 87.6432 27.4219 87.5201C27.1257 87.3925 26.8636 87.2194 26.6357 87.0006C26.4124 86.7819 26.2324 86.5267 26.0957 86.235C25.9635 85.9433 25.8975 85.6311 25.8975 85.2985V84.9088L26.7793 84.7653V85.2985C26.7793 85.5172 26.8226 85.7223 26.9092 85.9137C27.0003 86.1005 27.1211 86.2669 27.2715 86.4127C27.4219 86.554 27.5951 86.6656 27.791 86.7477C27.9915 86.8297 28.2012 86.8707 28.4199 86.8707H29.0352C29.2539 86.8707 29.4613 86.8297 29.6572 86.7477C29.8532 86.6656 30.0264 86.554 30.1768 86.4127C30.3271 86.2669 30.4456 86.1005 30.5322 85.9137C30.6234 85.7223 30.6689 85.5172 30.6689 85.2985V85.0045C30.6689 84.6673 30.6029 84.387 30.4707 84.1637C30.3385 83.9404 30.1631 83.7513 29.9443 83.5963C29.7256 83.4368 29.4772 83.3024 29.1992 83.193C28.9258 83.0836 28.6432 82.9742 28.3516 82.8649C28.0599 82.7555 27.7751 82.6347 27.4971 82.5026C27.2236 82.3704 26.9775 82.2063 26.7588 82.0104C26.54 81.8099 26.3646 81.566 26.2324 81.2789C26.1003 80.9918 26.0342 80.6386 26.0342 80.2194V80.0348C26.0342 79.7021 26.0957 79.3899 26.2188 79.0983C26.3464 78.8066 26.5195 78.5514 26.7383 78.3326C26.957 78.1139 27.2122 77.943 27.5039 77.8199C27.8001 77.6923 28.1146 77.6285 28.4473 77.6285H29.0762C29.4089 77.6285 29.721 77.6923 30.0127 77.8199C30.3044 77.943 30.5596 78.1139 30.7783 78.3326C30.9971 78.5514 31.168 78.8066 31.291 79.0983C31.4186 79.3899 31.4824 79.7021 31.4824 80.0348V80.2877L30.6006 80.4313V80.0348C30.6006 79.816 30.5596 79.6132 30.4775 79.4264C30.3955 79.235 30.2839 79.0686 30.1426 78.9274C30.0013 78.7861 29.835 78.6744 29.6436 78.5924C29.4567 78.5104 29.2539 78.4694 29.0352 78.4694H28.4883C28.2695 78.4694 28.0645 78.5104 27.873 78.5924C27.6862 78.6744 27.5199 78.7861 27.374 78.9274C27.2327 79.0686 27.1211 79.235 27.0391 79.4264C26.957 79.6132 26.916 79.816 26.916 80.0348V80.2194C26.916 80.5338 26.9821 80.7981 27.1143 81.0123C27.2464 81.2265 27.4219 81.4111 27.6406 81.566C27.8594 81.7164 28.1055 81.8486 28.3789 81.9625C28.6569 82.0719 28.9417 82.1858 29.2334 82.3043C29.5251 82.4183 29.8076 82.5459 30.0811 82.6871C30.359 82.8239 30.6074 82.9948 30.8262 83.1998C31.0449 83.4003 31.2204 83.6464 31.3525 83.9381C31.4847 84.2298 31.5508 84.5852 31.5508 85.0045V85.2985ZM36.6777 87.568V77.7653H42.1943V78.6061H37.5596V82.2496H41.3125V83.0905H37.5596V86.7272H42.1943V87.568H36.6777ZM48.2783 85.6471C48.2783 85.9296 48.2236 86.1962 48.1143 86.4469C48.0094 86.6976 47.8636 86.9163 47.6768 87.1031C47.4899 87.29 47.2712 87.4381 47.0205 87.5475C46.7699 87.6523 46.5033 87.7047 46.2207 87.7047H45.6602C45.3776 87.7047 45.111 87.6523 44.8604 87.5475C44.6097 87.4381 44.391 87.29 44.2041 87.1031C44.0173 86.9163 43.8691 86.6976 43.7598 86.4469C43.6549 86.1962 43.6025 85.9296 43.6025 85.6471V82.4889C43.6025 82.2063 43.6549 81.9397 43.7598 81.6891C43.8691 81.4384 44.0173 81.2197 44.2041 81.0328C44.391 80.846 44.6097 80.7002 44.8604 80.5953C45.111 80.486 45.3776 80.4313 45.6602 80.4313H46.2207C46.5033 80.4313 46.7699 80.486 47.0205 80.5953C47.2712 80.7002 47.4899 80.846 47.6768 81.0328C47.8636 81.2197 48.0094 81.4384 48.1143 81.6891C48.2236 81.9397 48.2783 82.2063 48.2783 82.4889V82.7692L47.4375 82.9059V82.441C47.4375 82.2724 47.4056 82.1152 47.3418 81.9694C47.278 81.819 47.1914 81.6891 47.082 81.5797C46.9727 81.4703 46.8428 81.3837 46.6924 81.3199C46.5465 81.2561 46.3893 81.2242 46.2207 81.2242H45.6602C45.4915 81.2242 45.332 81.2561 45.1816 81.3199C45.0358 81.3837 44.9082 81.4703 44.7988 81.5797C44.6895 81.6891 44.6029 81.819 44.5391 81.9694C44.4753 82.1152 44.4434 82.2724 44.4434 82.441V85.6949C44.4434 85.8636 44.4753 86.0231 44.5391 86.1735C44.6029 86.3193 44.6895 86.4469 44.7988 86.5563C44.9082 86.6656 45.0358 86.7522 45.1816 86.816C45.332 86.8798 45.4915 86.9117 45.6602 86.9117H46.2207C46.3893 86.9117 46.5465 86.8798 46.6924 86.816C46.8428 86.7522 46.9727 86.6656 47.082 86.5563C47.1914 86.4469 47.278 86.3193 47.3418 86.1735C47.4056 86.0231 47.4375 85.8636 47.4375 85.6949V85.2301L48.2783 85.3668V85.6471ZM54.6357 85.6471C54.6357 85.9296 54.5811 86.1962 54.4717 86.4469C54.3669 86.6976 54.221 86.9163 54.0342 87.1031C53.8473 87.29 53.6286 87.4381 53.3779 87.5475C53.1273 87.6523 52.8607 87.7047 52.5781 87.7047H52.0176C51.735 87.7047 51.4684 87.6523 51.2178 87.5475C50.9671 87.4381 50.7484 87.29 50.5615 87.1031C50.3747 86.9163 50.2266 86.6976 50.1172 86.4469C50.0124 86.1962 49.96 85.9296 49.96 85.6471V82.4889C49.96 82.2063 50.0124 81.9397 50.1172 81.6891C50.2266 81.4384 50.3747 81.2197 50.5615 81.0328C50.7484 80.846 50.9671 80.7002 51.2178 80.5953C51.4684 80.486 51.735 80.4313 52.0176 80.4313H52.5781C52.8607 80.4313 53.1273 80.486 53.3779 80.5953C53.6286 80.7002 53.8473 80.846 54.0342 81.0328C54.221 81.2197 54.3669 81.4384 54.4717 81.6891C54.5811 81.9397 54.6357 82.2063 54.6357 82.4889V85.6471ZM53.7949 82.441C53.7949 82.2724 53.763 82.1152 53.6992 81.9694C53.6354 81.819 53.5488 81.6891 53.4395 81.5797C53.3301 81.4703 53.2002 81.3837 53.0498 81.3199C52.904 81.2561 52.7467 81.2242 52.5781 81.2242H52.0176C51.849 81.2242 51.6895 81.2561 51.5391 81.3199C51.3932 81.3837 51.2656 81.4703 51.1562 81.5797C51.0469 81.6891 50.9603 81.819 50.8965 81.9694C50.8327 82.1152 50.8008 82.2724 50.8008 82.441V85.6949C50.8008 85.8636 50.8327 86.0231 50.8965 86.1735C50.9603 86.3193 51.0469 86.4469 51.1562 86.5563C51.2656 86.6656 51.3932 86.7522 51.5391 86.816C51.6895 86.8798 51.849 86.9117 52.0176 86.9117H52.5781C52.7467 86.9117 52.904 86.8798 53.0498 86.816C53.2002 86.7522 53.3301 86.6656 53.4395 86.5563C53.5488 86.4469 53.6354 86.3193 53.6992 86.1735C53.763 86.0231 53.7949 85.8636 53.7949 85.6949V82.441ZM65.1973 85.2985C65.1973 85.6311 65.1335 85.9433 65.0059 86.235C64.8828 86.5267 64.7119 86.7819 64.4932 87.0006C64.2744 87.2194 64.0192 87.3925 63.7275 87.5201C63.4359 87.6432 63.1237 87.7047 62.791 87.7047H62.0938C61.7611 87.7047 61.4466 87.6432 61.1504 87.5201C60.8587 87.3925 60.6035 87.2194 60.3848 87.0006C60.166 86.7819 59.9928 86.5267 59.8652 86.235C59.7422 85.9433 59.6807 85.6311 59.6807 85.2985V80.0348C59.6807 79.7021 59.7422 79.3899 59.8652 79.0983C59.9928 78.8066 60.166 78.5514 60.3848 78.3326C60.6035 78.1139 60.8587 77.943 61.1504 77.8199C61.4466 77.6923 61.7611 77.6285 62.0938 77.6285H62.791C63.1237 77.6285 63.4359 77.6923 63.7275 77.8199C64.0192 77.943 64.2744 78.1139 64.4932 78.3326C64.7119 78.5514 64.8828 78.8066 65.0059 79.0983C65.1335 79.3899 65.1973 79.7021 65.1973 80.0348V80.4313L64.3154 80.568V80.0348C64.3154 79.816 64.2744 79.6132 64.1924 79.4264C64.1104 79.235 63.9987 79.0686 63.8574 78.9274C63.7161 78.7861 63.5498 78.6744 63.3584 78.5924C63.1715 78.5104 62.9688 78.4694 62.75 78.4694H62.1348C61.916 78.4694 61.7109 78.5104 61.5195 78.5924C61.3327 78.6744 61.1663 78.7861 61.0205 78.9274C60.8792 79.0686 60.7676 79.235 60.6855 79.4264C60.6035 79.6132 60.5625 79.816 60.5625 80.0348V85.2985C60.5625 85.5172 60.6035 85.7223 60.6855 85.9137C60.7676 86.1005 60.8792 86.2669 61.0205 86.4127C61.1663 86.554 61.3327 86.6656 61.5195 86.7477C61.7109 86.8297 61.916 86.8707 62.1348 86.8707H62.75C62.9688 86.8707 63.1715 86.8297 63.3584 86.7477C63.5498 86.6656 63.7161 86.554 63.8574 86.4127C63.9987 86.2669 64.1104 86.1005 64.1924 85.9137C64.2744 85.7223 64.3154 85.5172 64.3154 85.2985V84.7653L65.1973 84.9088V85.2985ZM71.5615 85.6471C71.5615 85.9296 71.5068 86.1962 71.3975 86.4469C71.2926 86.6976 71.1468 86.9163 70.96 87.1031C70.7731 87.29 70.5544 87.4381 70.3037 87.5475C70.0531 87.6523 69.7865 87.7047 69.5039 87.7047H68.9434C68.6608 87.7047 68.3942 87.6523 68.1436 87.5475C67.8929 87.4381 67.6742 87.29 67.4873 87.1031C67.3005 86.9163 67.1523 86.6976 67.043 86.4469C66.9382 86.1962 66.8857 85.9296 66.8857 85.6471V82.4889C66.8857 82.2063 66.9382 81.9397 67.043 81.6891C67.1523 81.4384 67.3005 81.2197 67.4873 81.0328C67.6742 80.846 67.8929 80.7002 68.1436 80.5953C68.3942 80.486 68.6608 80.4313 68.9434 80.4313H69.5039C69.7865 80.4313 70.0531 80.486 70.3037 80.5953C70.5544 80.7002 70.7731 80.846 70.96 81.0328C71.1468 81.2197 71.2926 81.4384 71.3975 81.6891C71.5068 81.9397 71.5615 82.2063 71.5615 82.4889V85.6471ZM70.7207 82.441C70.7207 82.2724 70.6888 82.1152 70.625 81.9694C70.5612 81.819 70.4746 81.6891 70.3652 81.5797C70.2559 81.4703 70.126 81.3837 69.9756 81.3199C69.8298 81.2561 69.6725 81.2242 69.5039 81.2242H68.9434C68.7747 81.2242 68.6152 81.2561 68.4648 81.3199C68.319 81.3837 68.1914 81.4703 68.082 81.5797C67.9727 81.6891 67.8861 81.819 67.8223 81.9694C67.7585 82.1152 67.7266 82.2724 67.7266 82.441V85.6949C67.7266 85.8636 67.7585 86.0231 67.8223 86.1735C67.8861 86.3193 67.9727 86.4469 68.082 86.5563C68.1914 86.6656 68.319 86.7522 68.4648 86.816C68.6152 86.8798 68.7747 86.9117 68.9434 86.9117H69.5039C69.6725 86.9117 69.8298 86.8798 69.9756 86.816C70.126 86.7522 70.2559 86.6656 70.3652 86.5563C70.4746 86.4469 70.5612 86.3193 70.625 86.1735C70.6888 86.0231 70.7207 85.8636 70.7207 85.6949V82.441ZM80.6328 87.568V82.441C80.6328 82.2724 80.6009 82.1152 80.5371 81.9694C80.4733 81.819 80.3867 81.6891 80.2773 81.5797C80.168 81.4703 80.0381 81.3837 79.8877 81.3199C79.7419 81.2561 79.5846 81.2242 79.416 81.2242H78.999C78.8304 81.2242 78.6709 81.2561 78.5205 81.3199C78.3747 81.3837 78.2448 81.4703 78.1309 81.5797C78.0215 81.6891 77.9349 81.819 77.8711 81.9694C77.8073 82.1152 77.7754 82.2724 77.7754 82.441V87.568H76.9414V82.441C76.9414 82.2724 76.9095 82.1152 76.8457 81.9694C76.7819 81.819 76.693 81.6891 76.5791 81.5797C76.4697 81.4703 76.3398 81.3837 76.1895 81.3199C76.0436 81.2561 75.8864 81.2242 75.7178 81.2242H75.3008C75.1322 81.2242 74.9727 81.2561 74.8223 81.3199C74.6764 81.3837 74.5488 81.4703 74.4395 81.5797C74.3301 81.6891 74.2435 81.819 74.1797 81.9694C74.1159 82.1152 74.084 82.2724 74.084 82.441V87.568H73.2432V80.568H73.5234L73.9814 81.2789C74.1729 81.0192 74.4121 80.8141 74.6992 80.6637C74.9909 80.5087 75.3076 80.4313 75.6494 80.4313H75.7178C76.1143 80.4313 76.472 80.5293 76.791 80.7252C77.11 80.9212 77.3561 81.1809 77.5293 81.5045C77.6159 81.345 77.723 81.1992 77.8506 81.067C77.9782 80.9349 78.1195 80.8232 78.2744 80.7321C78.4294 80.6364 78.598 80.5634 78.7803 80.5133C78.9626 80.4586 79.1517 80.4313 79.3477 80.4313H79.416C79.6986 80.4313 79.9652 80.486 80.2158 80.5953C80.4665 80.7002 80.6852 80.846 80.8721 81.0328C81.0589 81.2197 81.2048 81.4384 81.3096 81.6891C81.4189 81.9397 81.4736 82.2063 81.4736 82.4889V87.568H80.6328ZM90.5449 87.568V82.441C90.5449 82.2724 90.513 82.1152 90.4492 81.9694C90.3854 81.819 90.2988 81.6891 90.1895 81.5797C90.0801 81.4703 89.9502 81.3837 89.7998 81.3199C89.654 81.2561 89.4967 81.2242 89.3281 81.2242H88.9111C88.7425 81.2242 88.583 81.2561 88.4326 81.3199C88.2868 81.3837 88.1569 81.4703 88.043 81.5797C87.9336 81.6891 87.847 81.819 87.7832 81.9694C87.7194 82.1152 87.6875 82.2724 87.6875 82.441V87.568H86.8535V82.441C86.8535 82.2724 86.8216 82.1152 86.7578 81.9694C86.694 81.819 86.6051 81.6891 86.4912 81.5797C86.3818 81.4703 86.252 81.3837 86.1016 81.3199C85.9557 81.2561 85.7985 81.2242 85.6299 81.2242H85.2129C85.0443 81.2242 84.8848 81.2561 84.7344 81.3199C84.5885 81.3837 84.4609 81.4703 84.3516 81.5797C84.2422 81.6891 84.1556 81.819 84.0918 81.9694C84.028 82.1152 83.9961 82.2724 83.9961 82.441V87.568H83.1553V80.568H83.4355L83.8936 81.2789C84.085 81.0192 84.3242 80.8141 84.6113 80.6637C84.903 80.5087 85.2197 80.4313 85.5615 80.4313H85.6299C86.0264 80.4313 86.3841 80.5293 86.7031 80.7252C87.0221 80.9212 87.2682 81.1809 87.4414 81.5045C87.528 81.345 87.6351 81.1992 87.7627 81.067C87.8903 80.9349 88.0316 80.8232 88.1865 80.7321C88.3415 80.6364 88.5101 80.5634 88.6924 80.5133C88.8747 80.4586 89.0638 80.4313 89.2598 80.4313H89.3281C89.6107 80.4313 89.8773 80.486 90.1279 80.5953C90.3786 80.7002 90.5973 80.846 90.7842 81.0328C90.971 81.2197 91.1169 81.4384 91.2217 81.6891C91.3311 81.9397 91.3857 82.2063 91.3857 82.4889V87.568H90.5449ZM97.4629 87.568L96.998 86.8571C96.8066 87.1168 96.5674 87.3242 96.2803 87.4791C95.9932 87.6295 95.6787 87.7047 95.3369 87.7047H95.125C94.8424 87.7047 94.5758 87.6523 94.3252 87.5475C94.0745 87.4381 93.8558 87.29 93.6689 87.1031C93.4821 86.9163 93.334 86.6976 93.2246 86.4469C93.1198 86.1962 93.0674 85.9296 93.0674 85.6471V80.568H93.9082V85.6949C93.9082 85.8636 93.9401 86.0231 94.0039 86.1735C94.0677 86.3193 94.1543 86.4469 94.2637 86.5563C94.373 86.6656 94.5007 86.7522 94.6465 86.816C94.7969 86.8798 94.9564 86.9117 95.125 86.9117H95.6855C95.8542 86.9117 96.0114 86.8798 96.1572 86.816C96.3076 86.7522 96.4375 86.6656 96.5469 86.5563C96.6562 86.4469 96.7428 86.3193 96.8066 86.1735C96.8704 86.0231 96.9023 85.8636 96.9023 85.6949V80.568H97.7432V87.568H97.4629ZM103.26 87.568V82.441C103.26 82.2724 103.228 82.1152 103.164 81.9694C103.1 81.819 103.014 81.6891 102.904 81.5797C102.795 81.4703 102.665 81.3837 102.515 81.3199C102.369 81.2561 102.212 81.2242 102.043 81.2242H101.482C101.314 81.2242 101.154 81.2561 101.004 81.3199C100.858 81.3837 100.73 81.4703 100.621 81.5797C100.512 81.6891 100.425 81.819 100.361 81.9694C100.298 82.1152 100.266 82.2724 100.266 82.441V87.568H99.4248V80.568H99.7051L100.163 81.2789C100.354 81.0192 100.594 80.8141 100.881 80.6637C101.173 80.5087 101.489 80.4313 101.831 80.4313H102.043C102.326 80.4313 102.592 80.486 102.843 80.5953C103.093 80.7002 103.312 80.846 103.499 81.0328C103.686 81.2197 103.832 81.4384 103.937 81.6891C104.046 81.9397 104.101 82.2063 104.101 82.4889V87.568H103.26ZM105.994 78.8864V77.7653H106.972V78.8864H105.994ZM106.062 87.568V80.568H106.903V87.568H106.062ZM111.422 87.568C111.167 87.568 110.925 87.5201 110.697 87.4244C110.474 87.3287 110.278 87.1966 110.109 87.028C109.945 86.8593 109.813 86.6634 109.713 86.4401C109.617 86.2168 109.569 85.9775 109.569 85.7223V81.3678H108.312V80.568H109.569V78.8864L110.41 78.7496V80.568H112.188V81.3678H110.41V85.7633C110.41 85.9046 110.435 86.0367 110.485 86.1598C110.54 86.2783 110.613 86.3831 110.704 86.4742C110.795 86.5654 110.902 86.6383 111.025 86.693C111.148 86.7431 111.281 86.7682 111.422 86.7682H112.188V87.568H111.422ZM114.874 90.3707H114.061L115.305 86.9664L113.035 80.568H113.876L115.701 85.8727L115.729 86.235L115.756 85.8727L117.574 80.568H118.415L114.874 90.3707Z" fill="#00450B"/>
</svg>
