<svg width="12" height="12" viewBox="0 0 12 12" fill="none" xmlns="http://www.w3.org/2000/svg">
<path d="M6 1.68044C5.36452 1.0958 4.5325 0.771405 3.669 0.771607C3.21197 0.772018 2.75954 0.86284 2.33776 1.03884C1.91598 1.21484 1.53318 1.47254 1.21142 1.79711C-0.161168 3.17552 -0.160584 5.33152 1.21258 6.70411L5.48958 10.9811C5.58875 11.1555 5.78008 11.2681 6 11.2681C6.0903 11.2672 6.17913 11.2452 6.25937 11.2038C6.33961 11.1623 6.40901 11.1026 6.462 11.0295L10.7874 6.70411C12.1606 5.33094 12.1606 3.17552 10.7862 1.79477C10.4646 1.47091 10.0821 1.2138 9.66071 1.03821C9.23936 0.862623 8.78747 0.77202 8.331 0.771607C7.4675 0.771405 6.63548 1.0958 6 1.68044ZM9.96142 2.61961C10.8732 3.53602 10.8737 4.96752 9.96258 5.87927L6 9.84186L2.03742 5.87927C1.12625 4.96752 1.12683 3.53602 2.03625 2.62194C2.47958 2.18094 3.05942 1.93827 3.669 1.93827C4.27858 1.93827 4.85608 2.18094 5.29592 2.62077L5.58758 2.91244C5.69697 3.0218 5.84532 3.08323 6 3.08323C6.15468 3.08323 6.30302 3.0218 6.41242 2.91244L6.70408 2.62077C7.58608 1.74052 9.08058 1.74286 9.96142 2.61961Z" fill="#352A2A"/>
</svg>
