<svg width="19" height="19" viewBox="0 0 19 19" fill="none" xmlns="http://www.w3.org/2000/svg">
<circle cx="9.5" cy="9.5" r="9.5" fill="#C3CCC0"/>
<path d="M14.25 10.2901H10.2916V14.2485C10.2916 14.4584 10.2082 14.6598 10.0598 14.8082C9.91131 14.9567 9.70994 15.0401 9.49998 15.0401C9.29002 15.0401 9.08865 14.9567 8.94019 14.8082C8.79172 14.6598 8.70831 14.4584 8.70831 14.2485V10.2901H4.74998C4.54002 10.2901 4.33865 10.2067 4.19019 10.0582C4.04172 9.90978 3.95831 9.70842 3.95831 9.49845C3.95831 9.28849 4.04172 9.08713 4.19019 8.93866C4.33865 8.79019 4.54002 8.70679 4.74998 8.70679H8.70831V4.74845C8.70831 4.53849 8.79172 4.33713 8.94019 4.18866C9.08865 4.04019 9.29002 3.95679 9.49998 3.95679C9.70994 3.95679 9.91131 4.04019 10.0598 4.18866C10.2082 4.33713 10.2916 4.53849 10.2916 4.74845V8.70679H14.25C14.4599 8.70679 14.6613 8.79019 14.8098 8.93866C14.9582 9.08713 15.0416 9.28849 15.0416 9.49845C15.0416 9.70842 14.9582 9.90978 14.8098 10.0582C14.6613 10.2067 14.4599 10.2901 14.25 10.2901Z" fill="#2A2C35"/>
</svg>
