<svg xmlns="http://www.w3.org/2000/svg" version="1.1" width="1500" height="939" viewBox="0 0 1500 939">
    <g transform="matrix(1,0,0,1,-0.9090909090909918,-1.5145161290323017)">
        <svg viewBox="0 0 396 248" data-background-color="#ffffff" preserveAspectRatio="xMidYMid meet" height="939"
             width="1500" xmlns="http://www.w3.org/2000/svg" xmlns:xlink="http://www.w3.org/1999/xlink">
            <g id="tight-bounds" transform="matrix(1,0,0,1,0.2400000000000091,0.4000000000000057)">
                <svg viewBox="0 0 395.52 247.2" height="247.2" width="395.52">
                    <g>
                        <svg></svg>
                    </g>
                    <g>
                        <svg viewBox="0 0 395.52 247.2" height="247.2" width="395.52">
                            <mask id="6b5a11a0-fcf4-4634-8226-1dde461e46cc">
                                <rect width="395.52" height="247.2" fill="white"></rect>
                                <g transform="matrix(1,0,0,1,0,96.29043961431607)" id="clone">
                                    <svg viewBox="0 0 395.52 54.619120771367854" height="54.619120771367854"
                                         width="395.52">
                                        <g>
                                            <svg viewBox="0 0 395.52 54.619120771367854" height="54.619120771367854"
                                                 width="395.52">
                                                <g>
                                                    <svg viewBox="0 0 395.52 54.619120771367854"
                                                         height="54.619120771367854" width="395.52">
                                                        <g>
                                                            <svg viewBox="0 0 395.52 54.619120771367854"
                                                                 height="54.619120771367854" width="395.52">
                                                                <g id="SvgjsG1594">
                                                                    <svg viewBox="0 0 395.52 54.619120771367854"
                                                                         height="54.619120771367854" width="395.52"
                                                                         id="SvgjsSvg1593">
                                                                        <g>
                                                                            <svg viewBox="0 0 395.52 54.619120771367854"
                                                                                 height="54.619120771367854"
                                                                                 width="395.52">
                                                                                <g transform="matrix(1,0,0,1,0,0)">
                                                                                    <svg width="395.52"
                                                                                         viewBox="-1.5000000000000002 -39.85 306.92 43.25"
                                                                                         height="54.619120771367854"
                                                                                         data-palette-color="#2a2c35">
                                                                                        <path d="M18.8 0.4L18.8 0.4Q14.8 0.4 11.53-0.98 8.25-2.35 5.9-5L5.9-5Q3.65-7.6 2.58-10.93 1.5-14.25 1.5-17.8L1.5-17.8Q1.5-21.95 2.83-25.33 4.15-28.7 6.5-31.1L6.5-31.1Q8.9-33.55 12.18-34.9 15.45-36.25 19.3-36.25L19.3-36.25Q21.35-36.25 23.23-35.9 25.1-35.55 26.95-34.95 28.8-34.35 30.7-33.6L30.7-33.6 30.7-29.95 27.2-30.6Q25.65-31.15 23.75-31.6 21.85-32.05 19.65-32.05L19.65-32.05Q15.65-32.05 12.68-30.28 9.7-28.5 8.08-25.3 6.45-22.1 6.45-17.8L6.45-17.8Q6.45-13.85 7.9-10.68 9.35-7.5 12.28-5.65 15.2-3.8 19.5-3.8L19.5-3.8Q21.9-3.8 23.98-4.53 26.05-5.25 28.05-7.05L28.05-7.05Q28.3-7.25 28.5-7.33 28.7-7.4 28.9-7.4L28.9-7.4Q29.3-7.4 29.6-7.1L29.6-7.1 31.5-5Q29.5-2.7 26.38-1.15 23.25 0.4 18.8 0.4ZM27.35-26.2L26.6-31.2 30.7-29.95 30.7-25.4 28.4-25.4Q28-25.4 27.73-25.58 27.45-25.75 27.35-26.2L27.35-26.2ZM42.9 0L38.45 0 38.45-36.85 42.9-36.85 42.9 0ZM39.95 0L34.85 0 34.85-2.05Q34.85-2.5 35.05-2.78 35.25-3.05 35.65-3.1L35.65-3.1 39.4-3.9 39.95 0ZM46.5 0L41.4 0 41.95-3.9 45.7-3.1Q46.1-3.05 46.3-2.78 46.5-2.5 46.5-2.05L46.5-2.05 46.5 0ZM34.85-36.85L39.95-36.85 39.4-32.95 35.65-33.75Q35.25-33.85 35.05-34.1 34.85-34.35 34.85-34.8L34.85-34.8 34.85-36.85ZM61.2 0.35L61.2 0.35Q57.55 0.35 54.82-1.3 52.1-2.95 50.6-6 49.1-9.05 49.1-13.2L49.1-13.2Q49.1-16.75 50.55-19.6 52-22.45 54.67-24.1 57.35-25.75 60.95-25.75L60.95-25.75Q64.1-25.75 66.45-24.35 68.8-22.95 70.12-20.43 71.45-17.9 71.45-14.4L71.45-14.4Q71.45-13.35 71.22-13 71-12.65 70.35-12.65L70.35-12.65 53.5-12.65Q53.5-12.5 53.5-12.33 53.5-12.15 53.5-12L53.5-12Q53.75-7.8 55.85-5.48 57.95-3.15 61.55-3.15L61.55-3.15Q63.1-3.15 64.62-3.78 66.15-4.4 67.32-5 68.5-5.6 69-5.6L69-5.6Q69.55-5.6 69.85-5.2L69.85-5.2 71.1-3.55Q70.1-2.25 68.42-1.38 66.75-0.5 64.85-0.08 62.95 0.35 61.2 0.35ZM53.65-15.45L53.65-15.45 67.45-15.45Q67.45-18.55 65.75-20.5 64.05-22.45 61.05-22.45L61.05-22.45Q57.8-22.45 55.95-20.6 54.1-18.75 53.65-15.45ZM82.04 0.4L82.04 0.4Q80.04 0.4 78.44-0.38 76.84-1.15 75.89-2.65 74.94-4.15 74.94-6.35L74.94-6.35Q74.94-7.85 75.77-9.22 76.59-10.6 78.44-11.7L78.44-11.7Q80.29-12.75 83.27-13.45 86.24-14.15 90.54-14.25L90.54-14.25 90.54-16.2Q90.54-19.15 89.27-20.68 87.99-22.2 85.54-22.2L85.54-22.2Q84.24-22.2 82.82-21.53 81.39-20.85 80.19-20.18 78.99-19.5 78.29-19.5L78.29-19.5Q77.84-19.5 77.52-19.75 77.19-20 76.99-20.35L76.99-20.35 76.19-21.75Q78.29-23.8 80.72-24.8 83.14-25.8 86.09-25.8L86.09-25.8Q88.94-25.8 90.89-24.6 92.84-23.4 93.87-21.25 94.89-19.1 94.89-16.2L94.89-16.2 94.89 0 92.94 0Q92.29 0 91.89-0.2 91.49-0.4 91.34-1.05L91.34-1.05 90.84-3.4Q88.84-1.6 86.84-0.6 84.84 0.4 82.04 0.4ZM83.34-2.75L83.34-2.75Q85.59-2.75 87.29-3.65 88.99-4.55 90.54-6.15L90.54-6.15 90.54-11.4Q87.94-11.35 85.84-11.03 83.74-10.7 82.27-10.13 80.79-9.55 80.02-8.68 79.24-7.8 79.24-6.55L79.24-6.55Q79.24-4.55 80.42-3.65 81.59-2.75 83.34-2.75ZM98.49 0L93.39 0 93.94-3.9 97.69-3.1Q98.09-3.05 98.29-2.78 98.49-2.5 98.49-2.05L98.49-2.05 98.49 0ZM108.59 0L104.14 0 104.14-25.35 106.69-25.35Q107.44-25.35 107.74-25.08 108.04-24.8 108.09-24.1L108.09-24.1 108.39-20.15Q109.69-22.8 111.59-24.3 113.49-25.8 116.09-25.8L116.09-25.8Q117.14-25.8 117.99-25.55 118.84-25.3 119.54-24.9L119.54-24.9 118.99-21.55Q118.94-21.25 118.72-21.1 118.49-20.95 118.19-20.95L118.19-20.95Q117.84-20.95 116.84-21.18 115.84-21.4 115.09-21.4L115.09-21.4Q112.79-21.4 111.22-20.05 109.64-18.7 108.59-16.15L108.59-16.15 108.59 0ZM112.19 0L107.09 0 107.64-3.9 111.39-3.1Q111.79-3.05 111.99-2.78 112.19-2.5 112.19-2.05L112.19-2.05 112.19 0ZM105.64 0L100.54 0 100.54-2.05Q100.54-2.5 100.74-2.78 100.94-3.05 101.34-3.1L101.34-3.1 105.09-3.9 105.64 0ZM100.54-25.35L105.64-25.35 105.09-21.45 101.34-22.25Q100.94-22.35 100.74-22.6 100.54-22.85 100.54-23.3L100.54-23.3 100.54-25.35ZM152.04 0.4L152.04 0.4Q148.04 0.4 144.76-0.98 141.49-2.35 139.14-5L139.14-5Q136.89-7.6 135.81-10.93 134.74-14.25 134.74-17.8L134.74-17.8Q134.74-21.95 136.06-25.33 137.39-28.7 139.74-31.1L139.74-31.1Q142.14-33.55 145.41-34.9 148.69-36.25 152.54-36.25L152.54-36.25Q154.59-36.25 156.46-35.9 158.34-35.55 160.19-34.95 162.04-34.35 163.94-33.6L163.94-33.6 163.94-29.95 160.44-30.6Q158.89-31.15 156.99-31.6 155.09-32.05 152.89-32.05L152.89-32.05Q148.89-32.05 145.91-30.28 142.94-28.5 141.31-25.3 139.69-22.1 139.69-17.8L139.69-17.8Q139.69-13.85 141.14-10.68 142.59-7.5 145.51-5.65 148.44-3.8 152.74-3.8L152.74-3.8Q155.14-3.8 157.21-4.53 159.29-5.25 161.29-7.05L161.29-7.05Q161.54-7.25 161.74-7.33 161.94-7.4 162.14-7.4L162.14-7.4Q162.54-7.4 162.84-7.1L162.84-7.1 164.74-5Q162.74-2.7 159.61-1.15 156.49 0.4 152.04 0.4ZM160.59-26.2L159.84-31.2 163.94-29.95 163.94-25.4 161.64-25.4Q161.24-25.4 160.96-25.58 160.69-25.75 160.59-26.2L160.59-26.2ZM179.08 0.4L179.08 0.4Q176.33 0.4 174.43-0.83 172.53-2.05 171.56-4.2 170.58-6.35 170.58-9.2L170.58-9.2 170.58-25.35 175.03-25.35 175.03-9.2Q175.03-6.3 176.36-4.73 177.68-3.15 180.38-3.15L180.38-3.15Q182.33-3.15 184.06-4.08 185.78-5 187.23-6.65L187.23-6.65 187.23-25.35 191.68-25.35 191.68 0 189.03 0Q188.03 0 187.83-0.95L187.83-0.95 187.48-3.65Q185.83-1.85 183.78-0.73 181.73 0.4 179.08 0.4ZM195.28 0L190.18 0 190.73-3.9 194.48-3.1Q194.88-3.05 195.08-2.78 195.28-2.5 195.28-2.05L195.28-2.05 195.28 0ZM166.98-25.35L172.08-25.35 171.53-21.45 167.78-22.25Q167.38-22.35 167.18-22.6 166.98-22.85 166.98-23.3L166.98-23.3 166.98-25.35ZM183.63-25.35L188.73-25.35 188.18-21.45 184.43-22.25Q184.03-22.35 183.83-22.6 183.63-22.85 183.63-23.3L183.63-23.3 183.63-25.35ZM205.38 0L200.93 0 200.93-36.85 205.38-36.85 205.38 0ZM202.43 0L197.33 0 197.33-2.05Q197.33-2.5 197.53-2.78 197.73-3.05 198.13-3.1L198.13-3.1 201.88-3.9 202.43 0ZM208.98 0L203.88 0 204.43-3.9 208.18-3.1Q208.58-3.05 208.78-2.78 208.98-2.5 208.98-2.05L208.98-2.05 208.98 0ZM197.33-36.85L202.43-36.85 201.88-32.95 198.13-33.75Q197.73-33.85 197.53-34.1 197.33-34.35 197.33-34.8L197.33-34.8 197.33-36.85ZM220.78 0.4L220.78 0.4Q217.78 0.4 216.15-1.28 214.53-2.95 214.53-6.1L214.53-6.1 214.53-21.6 211.48-21.6Q211.08-21.6 210.8-21.85 210.53-22.1 210.53-22.6L210.53-22.6 210.53-24.35 214.68-24.9 215.73-32.7Q215.83-33.55 216.73-33.55L216.73-33.55 218.98-33.55 218.98-24.85 226.23-24.85 226.23-21.6 218.98-21.6 218.98-6.4Q218.98-4.8 219.75-4.03 220.53-3.25 221.78-3.25L221.78-3.25Q222.33-3.25 222.98-3.55 223.63-3.85 224.18-4.15 224.73-4.45 224.98-4.45L224.98-4.45Q225.33-4.45 225.58-4.05L225.58-4.05 226.88-1.9Q225.73-0.85 224.1-0.23 222.48 0.4 220.78 0.4ZM240.43 0.4L240.43 0.4Q237.68 0.4 235.78-0.83 233.88-2.05 232.9-4.2 231.93-6.35 231.93-9.2L231.93-9.2 231.93-25.35 236.38-25.35 236.38-9.2Q236.38-6.3 237.7-4.73 239.03-3.15 241.72-3.15L241.72-3.15Q243.68-3.15 245.4-4.08 247.13-5 248.58-6.65L248.58-6.65 248.58-25.35 253.03-25.35 253.03 0 250.38 0Q249.38 0 249.18-0.95L249.18-0.95 248.83-3.65Q247.18-1.85 245.13-0.73 243.08 0.4 240.43 0.4ZM256.63 0L251.53 0 252.08-3.9 255.83-3.1Q256.23-3.05 256.43-2.78 256.63-2.5 256.63-2.05L256.63-2.05 256.63 0ZM228.33-25.35L233.43-25.35 232.88-21.45 229.13-22.25Q228.72-22.35 228.53-22.6 228.33-22.85 228.33-23.3L228.33-23.3 228.33-25.35ZM244.97-25.35L250.08-25.35 249.53-21.45 245.78-22.25Q245.38-22.35 245.18-22.6 244.97-22.85 244.97-23.3L244.97-23.3 244.97-25.35ZM266.72 0L262.27 0 262.27-25.35 264.82-25.35Q265.57-25.35 265.87-25.08 266.17-24.8 266.22-24.1L266.22-24.1 266.52-20.15Q267.82-22.8 269.72-24.3 271.62-25.8 274.22-25.8L274.22-25.8Q275.27-25.8 276.12-25.55 276.97-25.3 277.67-24.9L277.67-24.9 277.12-21.55Q277.07-21.25 276.85-21.1 276.62-20.95 276.32-20.95L276.32-20.95Q275.97-20.95 274.97-21.18 273.97-21.4 273.22-21.4L273.22-21.4Q270.92-21.4 269.35-20.05 267.77-18.7 266.72-16.15L266.72-16.15 266.72 0ZM270.32 0L265.22 0 265.77-3.9 269.52-3.1Q269.92-3.05 270.12-2.78 270.32-2.5 270.32-2.05L270.32-2.05 270.32 0ZM263.77 0L258.67 0 258.67-2.05Q258.67-2.5 258.87-2.78 259.07-3.05 259.47-3.1L259.47-3.1 263.22-3.9 263.77 0ZM258.67-25.35L263.77-25.35 263.22-21.45 259.47-22.25Q259.07-22.35 258.87-22.6 258.67-22.85 258.67-23.3L258.67-23.3 258.67-25.35ZM292.17 0.35L292.17 0.35Q288.52 0.35 285.8-1.3 283.07-2.95 281.57-6 280.07-9.05 280.07-13.2L280.07-13.2Q280.07-16.75 281.52-19.6 282.97-22.45 285.64-24.1 288.32-25.75 291.92-25.75L291.92-25.75Q295.07-25.75 297.42-24.35 299.77-22.95 301.1-20.43 302.42-17.9 302.42-14.4L302.42-14.4Q302.42-13.35 302.19-13 301.97-12.65 301.32-12.65L301.32-12.65 284.47-12.65Q284.47-12.5 284.47-12.33 284.47-12.15 284.47-12L284.47-12Q284.72-7.8 286.82-5.48 288.92-3.15 292.52-3.15L292.52-3.15Q294.07-3.15 295.6-3.78 297.12-4.4 298.3-5 299.47-5.6 299.97-5.6L299.97-5.6Q300.52-5.6 300.82-5.2L300.82-5.2 302.07-3.55Q301.07-2.25 299.39-1.38 297.72-0.5 295.82-0.08 293.92 0.35 292.17 0.35ZM284.62-15.45L284.62-15.45 298.42-15.45Q298.42-18.55 296.72-20.5 295.02-22.45 292.02-22.45L292.02-22.45Q288.77-22.45 286.92-20.6 285.07-18.75 284.62-15.45Z"
                                                                                              opacity="1"
                                                                                              transform="matrix(1,0,0,1,0,0)"
                                                                                              fill="black"
                                                                                              class="wordmark-text-0"
                                                                                              id="SvgjsPath1592"
                                                                                              stroke-width="5"
                                                                                              stroke="black"
                                                                                              stroke-linejoin="round"></path>
                                                                                    </svg>
                                                                                </g>
                                                                            </svg>
                                                                        </g>
                                                                    </svg>
                                                                </g>
                                                            </svg>
                                                        </g>
                                                    </svg>
                                                </g>
                                            </svg>
                                        </g>
                                    </svg>
                                </g>
                            </mask>
                            <g mask="url(#6b5a11a0-fcf4-4634-8226-1dde461e46cc)">
                                <g>
                                    <path d="M108.295 237.253v0c-16.539 0-31.568-2.853-45.088-8.559-13.562-5.665-25.201-13.975-34.918-24.933v0c-9.303-10.75-16.167-23.01-20.591-36.778-4.465-13.727-6.698-27.93-6.698-42.608v0c0-17.159 2.75-32.726 8.249-46.701 5.458-13.934 13.045-25.863 22.761-35.786v0c9.923-10.13 21.666-17.986 35.228-23.568 13.52-5.582 28.24-8.373 44.158-8.373v0c8.476 0 16.601 0.724 24.375 2.171 7.732 1.447 15.422 3.411 23.071 5.892 7.649 2.481 15.402 5.272 23.258 8.373v0 22.637l-21.707-4.031c-6.409-2.274-13.541-4.341-21.397-6.202-7.856-1.861-16.332-2.791-25.429-2.791v0c-16.539 0-30.948 3.659-43.228 10.978-12.321 7.36-21.831 17.655-28.53 30.886-6.74 13.231-10.109 28.736-10.109 46.515v0c0 16.332 2.998 31.052 8.993 44.159 5.995 13.148 15.05 23.547 27.165 31.196 12.073 7.649 27 11.474 44.779 11.474v0c9.923 0 19.185-1.509 27.785-4.528 8.559-2.977 16.973-8.187 25.242-15.629v0c1.034-0.827 1.964-1.406 2.791-1.736 0.827-0.289 1.654-0.434 2.481-0.434v0c1.654 0 3.101 0.62 4.342 1.86v0l11.783 13.024c-8.269 9.51-18.854 17.469-31.754 23.878-12.942 6.409-28.612 9.613-47.012 9.614zM161.323 72.278l-4.652-31.01 25.429 7.752v28.22h-14.265c-1.654 0-3.039-0.372-4.155-1.117-1.158-0.703-1.943-1.985-2.357-3.845zM315.754 237.253v0c-16.539 0-31.568-2.853-45.089-8.559-13.562-5.665-25.201-13.975-34.917-24.933v0c-9.303-10.75-16.167-23.01-20.591-36.778-4.465-13.727-6.698-27.93-6.698-42.608v0c0-17.159 2.75-32.726 8.248-46.701 5.458-13.934 13.045-25.863 22.762-35.786v0c9.923-10.13 21.666-17.986 35.227-23.568 13.52-5.582 28.24-8.373 44.159-8.373v0c8.476 0 16.601 0.724 24.374 2.171 7.732 1.447 15.422 3.411 23.072 5.892 7.649 2.481 15.402 5.272 23.257 8.373v0 22.637l-21.707-4.031c-6.409-2.274-13.541-4.341-21.397-6.202-7.856-1.861-16.332-2.791-25.428-2.791v0c-16.539 0-30.948 3.659-43.229 10.978-12.321 7.36-21.831 17.655-28.529 30.886-6.74 13.231-10.109 28.736-10.109 46.515v0c0 16.332 2.998 31.052 8.993 44.159 5.995 13.148 15.05 23.547 27.165 31.196 12.073 7.649 27 11.474 44.778 11.474v0c9.923 0 19.185-1.509 27.786-4.528 8.559-2.977 16.973-8.187 25.242-15.629v0c1.034-0.827 1.964-1.406 2.791-1.736 0.827-0.289 1.654-0.434 2.481-0.434v0c1.654 0 3.101 0.62 4.341 1.86v0l11.784 13.024c-8.269 9.51-18.854 17.469-31.755 23.878-12.942 6.409-28.612 9.613-47.011 9.614zM368.781 72.278l-4.651-31.01 25.428 7.752v28.22h-14.264c-1.654 0-3.039-0.372-4.156-1.117-1.158-0.703-1.943-1.985-2.357-3.845z"
                                          fill="#2a2c35" fill-rule="nonzero" stroke="none" stroke-width="1"
                                          stroke-linecap="butt" stroke-linejoin="miter" stroke-miterlimit="10"
                                          stroke-dasharray="" stroke-dashoffset="0"
                                          style="mix-blend-mode: normal"></path>
                                </g>
                            </g>
                            <g transform="matrix(1,0,0,1,0,96.29043961431607)">
                                <svg viewBox="0 0 395.52 54.619120771367854" height="54.619120771367854" width="395.52">
                                    <g>
                                        <svg viewBox="0 0 395.52 54.619120771367854" height="54.619120771367854"
                                             width="395.52">
                                            <g>
                                                <svg viewBox="0 0 395.52 54.619120771367854" height="54.619120771367854"
                                                     width="395.52">
                                                    <g>
                                                        <svg viewBox="0 0 395.52 54.619120771367854"
                                                             height="54.619120771367854" width="395.52">
                                                            <g id="textblocktransform">
                                                                <svg viewBox="0 0 395.52 54.619120771367854"
                                                                     height="54.619120771367854" width="395.52"
                                                                     id="textblock">
                                                                    <g>
                                                                        <svg viewBox="0 0 395.52 54.619120771367854"
                                                                             height="54.619120771367854" width="395.52">
                                                                            <g transform="matrix(1,0,0,1,0,0)">
                                                                                <svg width="395.52"
                                                                                     viewBox="-1.5000000000000002 -39.85 306.92 43.25"
                                                                                     height="54.619120771367854"
                                                                                     data-palette-color="#2a2c35">
                                                                                    <path d="M18.8 0.4L18.8 0.4Q14.8 0.4 11.53-0.98 8.25-2.35 5.9-5L5.9-5Q3.65-7.6 2.58-10.93 1.5-14.25 1.5-17.8L1.5-17.8Q1.5-21.95 2.83-25.33 4.15-28.7 6.5-31.1L6.5-31.1Q8.9-33.55 12.18-34.9 15.45-36.25 19.3-36.25L19.3-36.25Q21.35-36.25 23.23-35.9 25.1-35.55 26.95-34.95 28.8-34.35 30.7-33.6L30.7-33.6 30.7-29.95 27.2-30.6Q25.65-31.15 23.75-31.6 21.85-32.05 19.65-32.05L19.65-32.05Q15.65-32.05 12.68-30.28 9.7-28.5 8.08-25.3 6.45-22.1 6.45-17.8L6.45-17.8Q6.45-13.85 7.9-10.68 9.35-7.5 12.28-5.65 15.2-3.8 19.5-3.8L19.5-3.8Q21.9-3.8 23.98-4.53 26.05-5.25 28.05-7.05L28.05-7.05Q28.3-7.25 28.5-7.33 28.7-7.4 28.9-7.4L28.9-7.4Q29.3-7.4 29.6-7.1L29.6-7.1 31.5-5Q29.5-2.7 26.38-1.15 23.25 0.4 18.8 0.4ZM27.35-26.2L26.6-31.2 30.7-29.95 30.7-25.4 28.4-25.4Q28-25.4 27.73-25.58 27.45-25.75 27.35-26.2L27.35-26.2ZM42.9 0L38.45 0 38.45-36.85 42.9-36.85 42.9 0ZM39.95 0L34.85 0 34.85-2.05Q34.85-2.5 35.05-2.78 35.25-3.05 35.65-3.1L35.65-3.1 39.4-3.9 39.95 0ZM46.5 0L41.4 0 41.95-3.9 45.7-3.1Q46.1-3.05 46.3-2.78 46.5-2.5 46.5-2.05L46.5-2.05 46.5 0ZM34.85-36.85L39.95-36.85 39.4-32.95 35.65-33.75Q35.25-33.85 35.05-34.1 34.85-34.35 34.85-34.8L34.85-34.8 34.85-36.85ZM61.2 0.35L61.2 0.35Q57.55 0.35 54.82-1.3 52.1-2.95 50.6-6 49.1-9.05 49.1-13.2L49.1-13.2Q49.1-16.75 50.55-19.6 52-22.45 54.67-24.1 57.35-25.75 60.95-25.75L60.95-25.75Q64.1-25.75 66.45-24.35 68.8-22.95 70.12-20.43 71.45-17.9 71.45-14.4L71.45-14.4Q71.45-13.35 71.22-13 71-12.65 70.35-12.65L70.35-12.65 53.5-12.65Q53.5-12.5 53.5-12.33 53.5-12.15 53.5-12L53.5-12Q53.75-7.8 55.85-5.48 57.95-3.15 61.55-3.15L61.55-3.15Q63.1-3.15 64.62-3.78 66.15-4.4 67.32-5 68.5-5.6 69-5.6L69-5.6Q69.55-5.6 69.85-5.2L69.85-5.2 71.1-3.55Q70.1-2.25 68.42-1.38 66.75-0.5 64.85-0.08 62.95 0.35 61.2 0.35ZM53.65-15.45L53.65-15.45 67.45-15.45Q67.45-18.55 65.75-20.5 64.05-22.45 61.05-22.45L61.05-22.45Q57.8-22.45 55.95-20.6 54.1-18.75 53.65-15.45ZM82.04 0.4L82.04 0.4Q80.04 0.4 78.44-0.38 76.84-1.15 75.89-2.65 74.94-4.15 74.94-6.35L74.94-6.35Q74.94-7.85 75.77-9.22 76.59-10.6 78.44-11.7L78.44-11.7Q80.29-12.75 83.27-13.45 86.24-14.15 90.54-14.25L90.54-14.25 90.54-16.2Q90.54-19.15 89.27-20.68 87.99-22.2 85.54-22.2L85.54-22.2Q84.24-22.2 82.82-21.53 81.39-20.85 80.19-20.18 78.99-19.5 78.29-19.5L78.29-19.5Q77.84-19.5 77.52-19.75 77.19-20 76.99-20.35L76.99-20.35 76.19-21.75Q78.29-23.8 80.72-24.8 83.14-25.8 86.09-25.8L86.09-25.8Q88.94-25.8 90.89-24.6 92.84-23.4 93.87-21.25 94.89-19.1 94.89-16.2L94.89-16.2 94.89 0 92.94 0Q92.29 0 91.89-0.2 91.49-0.4 91.34-1.05L91.34-1.05 90.84-3.4Q88.84-1.6 86.84-0.6 84.84 0.4 82.04 0.4ZM83.34-2.75L83.34-2.75Q85.59-2.75 87.29-3.65 88.99-4.55 90.54-6.15L90.54-6.15 90.54-11.4Q87.94-11.35 85.84-11.03 83.74-10.7 82.27-10.13 80.79-9.55 80.02-8.68 79.24-7.8 79.24-6.55L79.24-6.55Q79.24-4.55 80.42-3.65 81.59-2.75 83.34-2.75ZM98.49 0L93.39 0 93.94-3.9 97.69-3.1Q98.09-3.05 98.29-2.78 98.49-2.5 98.49-2.05L98.49-2.05 98.49 0ZM108.59 0L104.14 0 104.14-25.35 106.69-25.35Q107.44-25.35 107.74-25.08 108.04-24.8 108.09-24.1L108.09-24.1 108.39-20.15Q109.69-22.8 111.59-24.3 113.49-25.8 116.09-25.8L116.09-25.8Q117.14-25.8 117.99-25.55 118.84-25.3 119.54-24.9L119.54-24.9 118.99-21.55Q118.94-21.25 118.72-21.1 118.49-20.95 118.19-20.95L118.19-20.95Q117.84-20.95 116.84-21.18 115.84-21.4 115.09-21.4L115.09-21.4Q112.79-21.4 111.22-20.05 109.64-18.7 108.59-16.15L108.59-16.15 108.59 0ZM112.19 0L107.09 0 107.64-3.9 111.39-3.1Q111.79-3.05 111.99-2.78 112.19-2.5 112.19-2.05L112.19-2.05 112.19 0ZM105.64 0L100.54 0 100.54-2.05Q100.54-2.5 100.74-2.78 100.94-3.05 101.34-3.1L101.34-3.1 105.09-3.9 105.64 0ZM100.54-25.35L105.64-25.35 105.09-21.45 101.34-22.25Q100.94-22.35 100.74-22.6 100.54-22.85 100.54-23.3L100.54-23.3 100.54-25.35ZM152.04 0.4L152.04 0.4Q148.04 0.4 144.76-0.98 141.49-2.35 139.14-5L139.14-5Q136.89-7.6 135.81-10.93 134.74-14.25 134.74-17.8L134.74-17.8Q134.74-21.95 136.06-25.33 137.39-28.7 139.74-31.1L139.74-31.1Q142.14-33.55 145.41-34.9 148.69-36.25 152.54-36.25L152.54-36.25Q154.59-36.25 156.46-35.9 158.34-35.55 160.19-34.95 162.04-34.35 163.94-33.6L163.94-33.6 163.94-29.95 160.44-30.6Q158.89-31.15 156.99-31.6 155.09-32.05 152.89-32.05L152.89-32.05Q148.89-32.05 145.91-30.28 142.94-28.5 141.31-25.3 139.69-22.1 139.69-17.8L139.69-17.8Q139.69-13.85 141.14-10.68 142.59-7.5 145.51-5.65 148.44-3.8 152.74-3.8L152.74-3.8Q155.14-3.8 157.21-4.53 159.29-5.25 161.29-7.05L161.29-7.05Q161.54-7.25 161.74-7.33 161.94-7.4 162.14-7.4L162.14-7.4Q162.54-7.4 162.84-7.1L162.84-7.1 164.74-5Q162.74-2.7 159.61-1.15 156.49 0.4 152.04 0.4ZM160.59-26.2L159.84-31.2 163.94-29.95 163.94-25.4 161.64-25.4Q161.24-25.4 160.96-25.58 160.69-25.75 160.59-26.2L160.59-26.2ZM179.08 0.4L179.08 0.4Q176.33 0.4 174.43-0.83 172.53-2.05 171.56-4.2 170.58-6.35 170.58-9.2L170.58-9.2 170.58-25.35 175.03-25.35 175.03-9.2Q175.03-6.3 176.36-4.73 177.68-3.15 180.38-3.15L180.38-3.15Q182.33-3.15 184.06-4.08 185.78-5 187.23-6.65L187.23-6.65 187.23-25.35 191.68-25.35 191.68 0 189.03 0Q188.03 0 187.83-0.95L187.83-0.95 187.48-3.65Q185.83-1.85 183.78-0.73 181.73 0.4 179.08 0.4ZM195.28 0L190.18 0 190.73-3.9 194.48-3.1Q194.88-3.05 195.08-2.78 195.28-2.5 195.28-2.05L195.28-2.05 195.28 0ZM166.98-25.35L172.08-25.35 171.53-21.45 167.78-22.25Q167.38-22.35 167.18-22.6 166.98-22.85 166.98-23.3L166.98-23.3 166.98-25.35ZM183.63-25.35L188.73-25.35 188.18-21.45 184.43-22.25Q184.03-22.35 183.83-22.6 183.63-22.85 183.63-23.3L183.63-23.3 183.63-25.35ZM205.38 0L200.93 0 200.93-36.85 205.38-36.85 205.38 0ZM202.43 0L197.33 0 197.33-2.05Q197.33-2.5 197.53-2.78 197.73-3.05 198.13-3.1L198.13-3.1 201.88-3.9 202.43 0ZM208.98 0L203.88 0 204.43-3.9 208.18-3.1Q208.58-3.05 208.78-2.78 208.98-2.5 208.98-2.05L208.98-2.05 208.98 0ZM197.33-36.85L202.43-36.85 201.88-32.95 198.13-33.75Q197.73-33.85 197.53-34.1 197.33-34.35 197.33-34.8L197.33-34.8 197.33-36.85ZM220.78 0.4L220.78 0.4Q217.78 0.4 216.15-1.28 214.53-2.95 214.53-6.1L214.53-6.1 214.53-21.6 211.48-21.6Q211.08-21.6 210.8-21.85 210.53-22.1 210.53-22.6L210.53-22.6 210.53-24.35 214.68-24.9 215.73-32.7Q215.83-33.55 216.73-33.55L216.73-33.55 218.98-33.55 218.98-24.85 226.23-24.85 226.23-21.6 218.98-21.6 218.98-6.4Q218.98-4.8 219.75-4.03 220.53-3.25 221.78-3.25L221.78-3.25Q222.33-3.25 222.98-3.55 223.63-3.85 224.18-4.15 224.73-4.45 224.98-4.45L224.98-4.45Q225.33-4.45 225.58-4.05L225.58-4.05 226.88-1.9Q225.73-0.85 224.1-0.23 222.48 0.4 220.78 0.4ZM240.43 0.4L240.43 0.4Q237.68 0.4 235.78-0.83 233.88-2.05 232.9-4.2 231.93-6.35 231.93-9.2L231.93-9.2 231.93-25.35 236.38-25.35 236.38-9.2Q236.38-6.3 237.7-4.73 239.03-3.15 241.72-3.15L241.72-3.15Q243.68-3.15 245.4-4.08 247.13-5 248.58-6.65L248.58-6.65 248.58-25.35 253.03-25.35 253.03 0 250.38 0Q249.38 0 249.18-0.95L249.18-0.95 248.83-3.65Q247.18-1.85 245.13-0.73 243.08 0.4 240.43 0.4ZM256.63 0L251.53 0 252.08-3.9 255.83-3.1Q256.23-3.05 256.43-2.78 256.63-2.5 256.63-2.05L256.63-2.05 256.63 0ZM228.33-25.35L233.43-25.35 232.88-21.45 229.13-22.25Q228.72-22.35 228.53-22.6 228.33-22.85 228.33-23.3L228.33-23.3 228.33-25.35ZM244.97-25.35L250.08-25.35 249.53-21.45 245.78-22.25Q245.38-22.35 245.18-22.6 244.97-22.85 244.97-23.3L244.97-23.3 244.97-25.35ZM266.72 0L262.27 0 262.27-25.35 264.82-25.35Q265.57-25.35 265.87-25.08 266.17-24.8 266.22-24.1L266.22-24.1 266.52-20.15Q267.82-22.8 269.72-24.3 271.62-25.8 274.22-25.8L274.22-25.8Q275.27-25.8 276.12-25.55 276.97-25.3 277.67-24.9L277.67-24.9 277.12-21.55Q277.07-21.25 276.85-21.1 276.62-20.95 276.32-20.95L276.32-20.95Q275.97-20.95 274.97-21.18 273.97-21.4 273.22-21.4L273.22-21.4Q270.92-21.4 269.35-20.05 267.77-18.7 266.72-16.15L266.72-16.15 266.72 0ZM270.32 0L265.22 0 265.77-3.9 269.52-3.1Q269.92-3.05 270.12-2.78 270.32-2.5 270.32-2.05L270.32-2.05 270.32 0ZM263.77 0L258.67 0 258.67-2.05Q258.67-2.5 258.87-2.78 259.07-3.05 259.47-3.1L259.47-3.1 263.22-3.9 263.77 0ZM258.67-25.35L263.77-25.35 263.22-21.45 259.47-22.25Q259.07-22.35 258.87-22.6 258.67-22.85 258.67-23.3L258.67-23.3 258.67-25.35ZM292.17 0.35L292.17 0.35Q288.52 0.35 285.8-1.3 283.07-2.95 281.57-6 280.07-9.05 280.07-13.2L280.07-13.2Q280.07-16.75 281.52-19.6 282.97-22.45 285.64-24.1 288.32-25.75 291.92-25.75L291.92-25.75Q295.07-25.75 297.42-24.35 299.77-22.95 301.1-20.43 302.42-17.9 302.42-14.4L302.42-14.4Q302.42-13.35 302.19-13 301.97-12.65 301.32-12.65L301.32-12.65 284.47-12.65Q284.47-12.5 284.47-12.33 284.47-12.15 284.47-12L284.47-12Q284.72-7.8 286.82-5.48 288.92-3.15 292.52-3.15L292.52-3.15Q294.07-3.15 295.6-3.78 297.12-4.4 298.3-5 299.47-5.6 299.97-5.6L299.97-5.6Q300.52-5.6 300.82-5.2L300.82-5.2 302.07-3.55Q301.07-2.25 299.39-1.38 297.72-0.5 295.82-0.08 293.92 0.35 292.17 0.35ZM284.62-15.45L284.62-15.45 298.42-15.45Q298.42-18.55 296.72-20.5 295.02-22.45 292.02-22.45L292.02-22.45Q288.77-22.45 286.92-20.6 285.07-18.75 284.62-15.45Z"
                                                                                          opacity="1"
                                                                                          transform="matrix(1,0,0,1,0,0)"
                                                                                          fill="#2a2c35"
                                                                                          class="wordmark-text-0"
                                                                                          id="text-0"></path>
                                                                                </svg>
                                                                            </g>
                                                                        </svg>
                                                                    </g>
                                                                </svg>
                                                            </g>
                                                        </svg>
                                                    </g>
                                                </svg>
                                            </g>
                                        </svg>
                                    </g>
                                </svg>
                            </g>
                        </svg>
                    </g>
                    <defs></defs>
                </svg>
                <rect width="395.52" height="247.2" fill="none" stroke="none" visibility="hidden"></rect>
            </g>
        </svg>
    </g>
</svg>