<svg viewBox="0 0 26 26" fill="none" xmlns="http://www.w3.org/2000/svg">
<path d="M7.54 0H18.46C22.62 0 26 3.3334 26 7.43603V18.2055C26 20.1776 25.2056 22.069 23.7916 23.4635C22.3776 24.8581 20.4597 25.6415 18.46 25.6415H7.54C3.38 25.6415 0 22.3081 0 18.2055V7.43603C0 5.46388 0.794391 3.57249 2.20842 2.17796C3.62244 0.783437 5.54027 0 7.54 0ZM7.28 2.56415C6.03879 2.56415 4.84841 3.05042 3.97074 3.91599C3.09307 4.78156 2.6 5.95552 2.6 7.17962V18.4619C2.6 21.0132 4.693 23.0773 7.28 23.0773H18.72C19.9612 23.0773 21.1516 22.5911 22.0293 21.7255C22.9069 20.8599 23.4 19.686 23.4 18.4619V7.17962C23.4 4.62829 21.307 2.56415 18.72 2.56415H7.28ZM19.825 4.48726C20.256 4.48726 20.6693 4.65611 20.974 4.95665C21.2788 5.2572 21.45 5.66482 21.45 6.08986C21.45 6.51489 21.2788 6.92252 20.974 7.22306C20.6693 7.52361 20.256 7.69245 19.825 7.69245C19.394 7.69245 18.9807 7.52361 18.6759 7.22306C18.3712 6.92252 18.2 6.51489 18.2 6.08986C18.2 5.66482 18.3712 5.2572 18.6759 4.95665C18.9807 4.65611 19.394 4.48726 19.825 4.48726ZM13 6.41037C14.7239 6.41037 16.3772 7.08575 17.5962 8.28793C18.8152 9.49011 19.5 11.1206 19.5 12.8207C19.5 14.5209 18.8152 16.1514 17.5962 17.3536C16.3772 18.5557 14.7239 19.2311 13 19.2311C11.2761 19.2311 9.62279 18.5557 8.40381 17.3536C7.18482 16.1514 6.5 14.5209 6.5 12.8207C6.5 11.1206 7.18482 9.49011 8.40381 8.28793C9.62279 7.08575 11.2761 6.41037 13 6.41037ZM13 8.97452C11.9657 8.97452 10.9737 9.37975 10.2423 10.1011C9.51089 10.8224 9.1 11.8007 9.1 12.8207C9.1 13.8408 9.51089 14.8191 10.2423 15.5404C10.9737 16.2617 11.9657 16.667 13 16.667C14.0343 16.667 15.0263 16.2617 15.7577 15.5404C16.4891 14.8191 16.9 13.8408 16.9 12.8207C16.9 11.8007 16.4891 10.8224 15.7577 10.1011C15.0263 9.37975 14.0343 8.97452 13 8.97452Z" fill="#2A2C35"/>
</svg>
