<svg viewBox="0 0 32 26" fill="none" xmlns="http://www.w3.org/2000/svg">
<path d="M31.5333 3.01665C30.3849 3.54456 29.1471 3.89147 27.8645 4.05739C29.1769 3.25798 30.1911 1.99099 30.6683 0.46758C29.4304 1.22174 28.0584 1.74966 26.6117 2.05132C25.4335 0.754162 23.7781 0 21.8989 0C18.3941 0 15.5306 2.89598 15.5306 6.47071C15.5306 6.98354 15.5903 7.48129 15.6947 7.94886C10.3853 7.67737 5.6576 5.09813 2.51075 1.19158C1.95893 2.14182 1.64574 3.25798 1.64574 4.43447C1.64574 6.68187 2.76429 8.67286 4.49431 9.8041C3.43542 9.8041 2.4511 9.50244 1.58609 9.04994V9.09519C1.58609 12.2325 3.79335 14.857 6.71649 15.4452C5.77816 15.7061 4.79264 15.7422 3.83809 15.5508C4.24317 16.8366 5.03649 17.9617 6.10653 18.768C7.17658 19.5742 8.46954 20.021 9.80368 20.0456C7.54223 21.8564 4.73891 22.8351 1.85454 22.8209C1.34746 22.8209 0.840388 22.7908 0.333313 22.7304C3.16697 24.5706 6.53752 25.6415 10.1467 25.6415C21.8989 25.6415 28.3566 15.7771 28.3566 7.22487C28.3566 6.93829 28.3566 6.66679 28.3417 6.38021C29.5945 5.47521 30.6683 4.32889 31.5333 3.01665Z" fill="#2A2C35"/>
</svg>
