<svg viewBox="0 0 53 42" fill="none" xmlns="http://www.w3.org/2000/svg">
<g clip-path="url(#clip0_477_738)">
<path d="M9.82969 12.9855C9.21523 13.7146 8.2321 14.2881 7.24897 14.2062C7.12608 13.223 7.60945 12.1744 8.17475 11.5353C8.78921 10.7898 9.86246 10.2573 10.7391 10.2163C10.8374 11.2322 10.436 12.2399 9.82969 12.9855ZM10.7227 14.3946C9.29716 14.3127 8.07644 15.2057 7.40463 15.2057C6.71644 15.2057 5.68416 14.4356 4.55356 14.4602C3.08705 14.4847 1.72705 15.3122 0.981514 16.6312C-0.558724 19.2775 0.580069 23.1854 2.07115 25.3401C2.80031 26.4052 3.66874 27.5768 4.81572 27.5358C5.90536 27.4948 6.33138 26.8312 7.64222 26.8312C8.96126 26.8312 9.34632 27.5358 10.4933 27.5194C11.6813 27.4948 12.4268 26.4543 13.1559 25.3893C13.9834 24.1768 14.3275 23.0052 14.3439 22.9397C14.3193 22.9151 12.0499 22.0466 12.0253 19.425C12.0008 17.2293 13.8196 16.1888 13.9015 16.1233C12.8774 14.5994 11.2798 14.4356 10.7227 14.3946ZM18.9482 11.4288V27.3965H21.4306V21.9401H24.8634C28.0012 21.9401 30.1969 19.7854 30.1969 16.6722C30.1969 13.559 28.034 11.4288 24.9453 11.4288H18.9482ZM21.4306 13.518H24.2899C26.4446 13.518 27.6735 14.665 27.6735 16.6804C27.6735 18.6958 26.4446 19.8592 24.2817 19.8592H21.4306V13.518ZM34.7193 27.5194C36.2759 27.5194 37.7178 26.7329 38.3732 25.4794H38.4224V27.3965H40.7164V19.4495C40.7164 17.1474 38.873 15.6563 36.0383 15.6563C33.4084 15.6563 31.4586 17.1638 31.3848 19.2283H33.6214C33.8099 18.2452 34.7193 17.598 35.9646 17.598C37.4802 17.598 38.3323 18.3026 38.3323 19.6052V20.49L35.2354 20.6785C32.3598 20.8505 30.8031 22.0303 30.8031 24.0784C30.8113 26.143 32.4171 27.5194 34.7193 27.5194ZM35.3911 25.6269C34.072 25.6269 33.2282 24.9878 33.2282 24.0211C33.2282 23.0134 34.0393 22.4317 35.5877 22.3416L38.3405 22.1695V23.0707C38.3405 24.5618 37.0706 25.6269 35.3911 25.6269ZM43.7887 31.7387C46.2055 31.7387 47.3443 30.8129 48.3356 28.0192L52.686 15.812H50.1626L47.246 25.2418H47.1968L44.2802 15.812H41.6913L45.886 27.4375L45.6566 28.1421C45.2797 29.3382 44.6653 29.8052 43.5675 29.8052C43.3708 29.8052 42.994 29.7806 42.8383 29.7642V31.6813C42.9858 31.7141 43.6002 31.7387 43.7887 31.7387Z" fill="black"/>
</g>
<defs>
<clipPath id="clip0_477_738">
<rect width="52.4336" height="41.9469" fill="white" transform="translate(0.252441)"/>
</clipPath>
</defs>
</svg>
