<svg viewBox="0 0 53 22" fill="none" xmlns="http://www.w3.org/2000/svg">
<g clip-path="url(#clip0_1_187)">
<path d="M37.8397 6.27819C39.2712 6.27819 40.3774 6.66863 41.2234 7.44951C42.0692 8.23028 42.4596 9.27142 42.4596 10.5728V16.8194H40.6377V15.3881H40.5726C39.7918 16.5594 38.6856 17.145 37.3842 17.145C36.2779 17.145 35.3019 16.8195 34.5211 16.1689C33.8053 15.5182 33.3498 14.6073 33.3498 13.6312C33.3498 12.5901 33.7402 11.7441 34.5211 11.0934C35.3019 10.4427 36.4081 10.1825 37.7095 10.1825C38.8807 10.1825 39.7918 10.3777 40.5075 10.8332V10.3777C40.5075 9.77037 40.2808 9.1631 39.8273 8.76738L39.7266 8.68591C39.2061 8.23039 38.5554 7.97013 37.8397 7.97013C36.7335 7.97013 35.8876 8.42562 35.3019 9.33661L33.6102 8.29527C34.6512 6.92879 36.0177 6.27819 37.8397 6.27819ZM28.6649 1.85339C29.8324 1.85339 30.942 2.2597 31.8291 3.01739L31.9834 3.15469C32.8944 3.93556 33.3498 5.10688 33.3498 6.34318C33.3498 7.57949 32.8944 8.68571 31.9834 9.53158C31.0725 10.3774 29.9662 10.833 28.6649 10.833L25.5415 10.7679V16.8194H23.5894V1.85339H28.6649ZM38.0999 11.744C37.319 11.744 36.6684 11.9392 36.1479 12.3296C35.6273 12.6549 35.367 13.1104 35.367 13.696C35.367 14.2166 35.6273 14.6721 36.0177 14.9324C36.4732 15.2578 36.9937 15.4529 37.5144 15.4529C38.2431 15.4529 38.9719 15.1695 39.5419 14.6556L39.6616 14.542C40.3123 13.9564 40.6377 13.2406 40.6377 12.4597C40.052 12.0043 39.2061 11.7439 38.1 11.7439M28.7951 3.6752H25.5416V8.88108H28.7951C29.5108 8.88108 30.2266 8.62082 30.6821 8.10031C31.7232 7.12426 31.7232 5.49752 30.7472 4.52137L30.6821 4.45628C30.1615 3.93577 29.5108 3.61042 28.795 3.67551M53.0009 6.60354L46.559 21.3744H44.6069L47.0144 16.2339L42.7849 6.66863H44.8672L47.9254 14.0215H47.9905L50.9837 6.66863H53.0009V6.60354Z" fill="#5F6368"/>
<path d="M17.7984 9.46654C17.7984 8.88093 17.7333 8.29532 17.6682 7.70972H9.53467V11.0283H14.1545C13.9594 12.0693 13.3738 13.0454 12.4628 13.6311V15.7783H15.2608C16.8875 14.2818 17.7985 12.0693 17.7985 9.46664" fill="#4285F4"/>
<path d="M9.53438 17.8607C11.8768 17.8607 13.8289 17.0798 15.2605 15.7784L12.4625 13.6312C11.6816 14.1517 10.7056 14.477 9.53438 14.477C7.32193 14.477 5.36984 12.9805 4.71915 10.8982H1.8562V13.1105C3.35276 16.0387 6.2809 17.8607 9.53438 17.8607Z" fill="#34A853"/>
<path d="M4.7192 10.8981C4.32887 9.85698 4.32887 8.68576 4.7192 7.57954V5.36719H1.85626C0.619854 7.77481 0.619854 10.6379 1.85626 13.1105L4.7192 10.8981Z" fill="#FBBC04"/>
<path d="M9.53458 4.06587C10.7709 4.06587 11.9421 4.5214 12.8532 5.36726L15.3258 2.89465C13.764 1.46308 11.6818 0.617215 9.59957 0.682203C6.34609 0.682203 3.35296 2.50422 1.92139 5.43235L4.78443 7.6447C5.37004 5.56243 7.32213 4.06587 9.53458 4.06587Z" fill="#EA4335"/>
</g>
<defs>
<clipPath id="clip0_1_187">
<rect width="52.072" height="20.7474" fill="white" transform="translate(0.928955 0.678711)"/>
</clipPath>
</defs>
</svg>
