<svg viewBox="0 0 378 115" fill="none" xmlns="http://www.w3.org/2000/svg">
<path d="M378 59C378 73.3594 378 85 378 85C363.641 85 352 73.3594 352 59C352 44.6406 363.641 33 378 33C378 33 378 44.6406 378 59Z" fill="#C3CCC0"/>
<circle cx="288" cy="30" r="9" fill="#C3CCC0"/>
<circle cx="324" cy="46" r="14" fill="#C3CCC0"/>
<circle cx="354" cy="16" r="16" fill="#C3CCC0"/>
<path d="M22 74.5C22 86.3741 12.3741 96 0.5 96C0.5 96 0.500016 86.3741 0.500016 74.5C0.500016 62.6259 0.5 53 0.5 53C12.3741 53 22 62.6259 22 74.5Z" fill="#C3CCC0"/>
<circle cx="49" cy="98" r="17" fill="#C3CCC0"/>
<circle cx="83" cy="72" r="9" fill="#C3CCC0"/>
<circle cx="233.5" cy="26.5" r="16.5" fill="#C3CCC0"/>
<circle cx="189" cy="39" r="7" fill="#C3CCC0"/>
<circle cx="266" cy="66" r="12" fill="#C3CCC0"/>
<circle cx="209" cy="68" r="10" fill="#C3CCC0"/>
<circle cx="115.5" cy="96.5" r="11.5" fill="#C3CCC0"/>
<circle cx="159.5" cy="70.5" r="17.5" fill="#C3CCC0"/>
</svg>
